<svg width="130" height="41" viewBox="0 0 130 41" fill="none" xmlns="http://www.w3.org/2000/svg">
<g clip-path="url(#clip0_3551_70)">
<path d="M2 4.74219C3.10457 4.74219 4 3.84676 4 2.74219C4 1.63762 3.10457 0.742188 2 0.742188C0.89543 0.742188 0 1.63762 0 2.74219C0 3.84676 0.89543 4.74219 2 4.74219Z" fill="#2F352B"/>
<path d="M16 4.74219C17.1046 4.74219 18 3.84676 18 2.74219C18 1.63762 17.1046 0.742188 16 0.742188C14.8954 0.742188 14 1.63762 14 2.74219C14 3.84676 14.8954 4.74219 16 4.74219Z" fill="#2F352B"/>
<path d="M30 4.74219C31.1046 4.74219 32 3.84676 32 2.74219C32 1.63762 31.1046 0.742188 30 0.742188C28.8954 0.742188 28 1.63762 28 2.74219C28 3.84676 28.8954 4.74219 30 4.74219Z" fill="#2F352B"/>
<path d="M44 4.74219C45.1046 4.74219 46 3.84676 46 2.74219C46 1.63762 45.1046 0.742188 44 0.742188C42.8954 0.742188 42 1.63762 42 2.74219C42 3.84676 42.8954 4.74219 44 4.74219Z" fill="#2F352B"/>
<path d="M58 4.74219C59.1046 4.74219 60 3.84676 60 2.74219C60 1.63762 59.1046 0.742188 58 0.742188C56.8954 0.742188 56 1.63762 56 2.74219C56 3.84676 56.8954 4.74219 58 4.74219Z" fill="#2F352B"/>
<path d="M72 4.74219C73.1046 4.74219 74 3.84676 74 2.74219C74 1.63762 73.1046 0.742188 72 0.742188C70.8954 0.742188 70 1.63762 70 2.74219C70 3.84676 70.8954 4.74219 72 4.74219Z" fill="#2F352B"/>
<path d="M86 4.74219C87.1046 4.74219 88 3.84676 88 2.74219C88 1.63762 87.1046 0.742188 86 0.742188C84.8954 0.742188 84 1.63762 84 2.74219C84 3.84676 84.8954 4.74219 86 4.74219Z" fill="#2F352B"/>
<path d="M100 4.74219C101.105 4.74219 102 3.84676 102 2.74219C102 1.63762 101.105 0.742188 100 0.742188C98.8954 0.742188 98 1.63762 98 2.74219C98 3.84676 98.8954 4.74219 100 4.74219Z" fill="#2F352B"/>
<path d="M114 4.74219C115.105 4.74219 116 3.84676 116 2.74219C116 1.63762 115.105 0.742188 114 0.742188C112.895 0.742188 112 1.63762 112 2.74219C112 3.84676 112.895 4.74219 114 4.74219Z" fill="#2F352B"/>
<path d="M128 4.74219C129.105 4.74219 130 3.84676 130 2.74219C130 1.63762 129.105 0.742188 128 0.742188C126.895 0.742188 126 1.63762 126 2.74219C126 3.84676 126.895 4.74219 128 4.74219Z" fill="#2F352B"/>
<path d="M16 16.7422C17.1046 16.7422 18 15.8468 18 14.7422C18 13.6376 17.1046 12.7422 16 12.7422C14.8954 12.7422 14 13.6376 14 14.7422C14 15.8468 14.8954 16.7422 16 16.7422Z" fill="#2F352B"/>
<path d="M30 16.7422C31.1046 16.7422 32 15.8468 32 14.7422C32 13.6376 31.1046 12.7422 30 12.7422C28.8954 12.7422 28 13.6376 28 14.7422C28 15.8468 28.8954 16.7422 30 16.7422Z" fill="#2F352B"/>
<path d="M44 16.7422C45.1046 16.7422 46 15.8468 46 14.7422C46 13.6376 45.1046 12.7422 44 12.7422C42.8954 12.7422 42 13.6376 42 14.7422C42 15.8468 42.8954 16.7422 44 16.7422Z" fill="#2F352B"/>
<path d="M58 16.7422C59.1046 16.7422 60 15.8468 60 14.7422C60 13.6376 59.1046 12.7422 58 12.7422C56.8954 12.7422 56 13.6376 56 14.7422C56 15.8468 56.8954 16.7422 58 16.7422Z" fill="#2F352B"/>
<path d="M72 16.7422C73.1046 16.7422 74 15.8468 74 14.7422C74 13.6376 73.1046 12.7422 72 12.7422C70.8954 12.7422 70 13.6376 70 14.7422C70 15.8468 70.8954 16.7422 72 16.7422Z" fill="#2F352B"/>
<path d="M86 16.7422C87.1046 16.7422 88 15.8468 88 14.7422C88 13.6376 87.1046 12.7422 86 12.7422C84.8954 12.7422 84 13.6376 84 14.7422C84 15.8468 84.8954 16.7422 86 16.7422Z" fill="#2F352B"/>
<path d="M100 16.7422C101.105 16.7422 102 15.8468 102 14.7422C102 13.6376 101.105 12.7422 100 12.7422C98.8954 12.7422 98 13.6376 98 14.7422C98 15.8468 98.8954 16.7422 100 16.7422Z" fill="#2F352B"/>
<path d="M114 16.7422C115.105 16.7422 116 15.8468 116 14.7422C116 13.6376 115.105 12.7422 114 12.7422C112.895 12.7422 112 13.6376 112 14.7422C112 15.8468 112.895 16.7422 114 16.7422Z" fill="#2F352B"/>
<path d="M30 28.7422C31.1046 28.7422 32 27.8468 32 26.7422C32 25.6376 31.1046 24.7422 30 24.7422C28.8954 24.7422 28 25.6376 28 26.7422C28 27.8468 28.8954 28.7422 30 28.7422Z" fill="#2F352B"/>
<path d="M44 28.7422C45.1046 28.7422 46 27.8468 46 26.7422C46 25.6376 45.1046 24.7422 44 24.7422C42.8954 24.7422 42 25.6376 42 26.7422C42 27.8468 42.8954 28.7422 44 28.7422Z" fill="#2F352B"/>
<path d="M58 28.7422C59.1046 28.7422 60 27.8468 60 26.7422C60 25.6376 59.1046 24.7422 58 24.7422C56.8954 24.7422 56 25.6376 56 26.7422C56 27.8468 56.8954 28.7422 58 28.7422Z" fill="#2F352B"/>
<path d="M72 28.7422C73.1046 28.7422 74 27.8468 74 26.7422C74 25.6376 73.1046 24.7422 72 24.7422C70.8954 24.7422 70 25.6376 70 26.7422C70 27.8468 70.8954 28.7422 72 28.7422Z" fill="#2F352B"/>
<path d="M86 28.7422C87.1046 28.7422 88 27.8468 88 26.7422C88 25.6376 87.1046 24.7422 86 24.7422C84.8954 24.7422 84 25.6376 84 26.7422C84 27.8468 84.8954 28.7422 86 28.7422Z" fill="#2F352B"/>
<path d="M100 28.7422C101.105 28.7422 102 27.8468 102 26.7422C102 25.6376 101.105 24.7422 100 24.7422C98.8954 24.7422 98 25.6376 98 26.7422C98 27.8468 98.8954 28.7422 100 28.7422Z" fill="#2F352B"/>
<path d="M44 40.7422C45.1046 40.7422 46 39.8468 46 38.7422C46 37.6376 45.1046 36.7422 44 36.7422C42.8954 36.7422 42 37.6376 42 38.7422C42 39.8468 42.8954 40.7422 44 40.7422Z" fill="#2F352B"/>
<path d="M58 40.7422C59.1046 40.7422 60 39.8468 60 38.7422C60 37.6376 59.1046 36.7422 58 36.7422C56.8954 36.7422 56 37.6376 56 38.7422C56 39.8468 56.8954 40.7422 58 40.7422Z" fill="#2F352B"/>
<path d="M72 40.7422C73.1046 40.7422 74 39.8468 74 38.7422C74 37.6376 73.1046 36.7422 72 36.7422C70.8954 36.7422 70 37.6376 70 38.7422C70 39.8468 70.8954 40.7422 72 40.7422Z" fill="#2F352B"/>
<path d="M86 40.7422C87.1046 40.7422 88 39.8468 88 38.7422C88 37.6376 87.1046 36.7422 86 36.7422C84.8954 36.7422 84 37.6376 84 38.7422C84 39.8468 84.8954 40.7422 86 40.7422Z" fill="#2F352B"/>
</g>
<defs>
<clipPath id="clip0_3551_70">
<rect width="130" height="41" fill="white"/>
</clipPath>
</defs>
</svg>
