<svg width="600" height="611" viewBox="0 0 600 611" fill="none" xmlns="http://www.w3.org/2000/svg">
<g clip-path="url(#clip0_4734_690)">
<g opacity="0.2">
<path d="M132 141.9C124.4 137.3 111.9 144.8 107.9 155.7C100.3 176.5 124.9 206.7 133.9 203.4C143.9 199.8 145.9 150.4 132 141.9Z" fill="#EC103C" stroke="#2F352B" stroke-width="3.1069" stroke-miterlimit="10" stroke-linecap="round" stroke-dasharray="7.77 7.77"/>
<path d="M94.0997 189.099C91.3997 187.099 62.7997 165.799 46.5997 182.599C35.1997 194.399 35.0997 219.799 43.6997 233.999C60.5997 262.199 113.1 249.499 118.6 229.399C122.2 215.799 105 197.199 94.0997 189.099Z" fill="#EC103C" stroke="#2F352B" stroke-width="3.1069" stroke-miterlimit="10" stroke-linecap="round" stroke-dasharray="7.77 7.77"/>
<path d="M134 537C200.5 514.7 295.9 508.3 413.2 512.1C478.9 514.3 474 470.6 523.8 436.5C568.1 406.1 589.9 345.6 576.6 311.3C563.1 276.7 522 290.5 488.3 238.9C473 215.4 475.7 199 466.8 173C438.7 90.5998 333.6 26.1998 281.8 60.2998C213.3 105.3 267.6 225.7 191 278.9C142.6 312.5 110.3 322.2 62.5 371.4C38.6 395.8 9.70001 430 7.40001 467.2C7.40001 467.2 4.30001 558.1 134 537Z" fill="#EC103C" stroke="#2F352B" stroke-width="3.0355" stroke-miterlimit="10" stroke-linecap="round" stroke-dasharray="7.59 7.59"/>
<path d="M512.7 454.6C512.7 454.6 500.3 474.4 487.9 501.6C477 525.5 468.7 557.5 466.5 584.6C435.3 584.1 399.1 583.8 359.9 583.6C340.7 583.4 320.3 583.2 299.2 583.2C278.1 583.2 257.7 583.3 238.6 583.6C238.6 583.6 238.6 583.6 238.5 583.6C198.4 583.8 161.6 584.1 130 584.6C83.6999 515.8 -6.0001 398.3 78.0999 349.6C78.0999 349.6 84.2999 347.3 93.6999 342.4C123.3 326.9 184 285 177.2 206.2C177.2 206.2 174.9 191.5 174.9 171C174.9 123.1 187.5 43.7002 271.4 47.4002C322.3 49.6002 369.1 80.8002 397.4 130.7C425.2 179.7 469.6 239.9 505.7 205.5C514 197.6 525.1 194.6 535.4 198.1C561.5 206.9 591.1 252.6 512.7 454.6Z" fill="#EC103C"/>
</g>
<path d="M423.199 121.401V556.701C423.199 571.801 411.599 584.001 397.299 584.001H202.799C188.499 584.001 176.899 571.801 176.899 556.701V121.401C176.899 106.301 188.499 94.1006 202.799 94.1006H283.999C287.099 94.1006 289.599 96.7006 289.599 100.001V100.601C289.599 106.601 294.299 111.601 299.999 111.601C302.899 111.601 305.499 110.401 307.399 108.401C309.299 106.401 310.399 103.701 310.399 100.701V100.101C310.399 96.8006 312.899 94.2006 315.999 94.2006H397.199C411.499 94.2006 423.199 106.401 423.199 121.401Z" fill="#DCDEE0"/>
<path d="M393.9 93.9004H206.2C188.6 93.9004 174.3 107.6 174.3 124.5V553.6C174.3 570.5 188.6 584.2 206.2 584.2H393.9C411.5 584.2 425.8 570.5 425.8 553.6V124.5C425.8 107.6 411.4 93.9004 393.9 93.9004ZM420.6 552.2C420.6 567 409.2 578.9 395.2 578.9H204.8C190.8 578.9 179.4 566.9 179.4 552.2V125.9C179.4 111.1 190.8 99.2004 204.8 99.2004H284.3C287.3 99.2004 289.8 101.8 289.8 105V105.6C289.8 108.6 290.9 111.2 292.8 113.2C294.6 115.1 297.2 116.3 300 116.3C305.6 116.3 310.2 111.5 310.2 105.6V105C310.2 101.8 312.7 99.2004 315.7 99.2004H395.2C409.2 99.2004 420.6 111.2 420.6 125.9V552.2Z" fill="#333333"/>
<path d="M300 108.701C301.877 108.701 303.4 107.223 303.4 105.401C303.4 103.578 301.877 102.101 300 102.101C298.122 102.101 296.6 103.578 296.6 105.401C296.6 107.223 298.122 108.701 300 108.701Z" fill="#F4F4F4"/>
<path d="M409.9 180.801V479.101C409.9 486.601 403.8 492.601 396.4 492.601H203.7C196.2 492.601 190.2 486.501 190.2 479.101V180.801C190.2 173.301 196.3 167.301 203.7 167.301H396.4C403.8 167.301 409.9 173.301 409.9 180.801Z" fill="#F9F9F9"/>
<path d="M374.199 335.701L369.099 338.701L324.499 364.601L316.699 369.101C316.699 369.101 272.699 365.201 249.999 356.201C249.799 356.301 249.499 356.401 249.299 356.501C247.399 357.301 245.399 357.801 243.399 358.001C221.199 360.401 195.599 381.801 190.899 385.901C204.999 373.001 210.599 340.601 210.599 340.601L195.799 349.401L215.099 329.801C218.699 326.101 220.599 320.801 220.199 315.301L219.499 306.301C218.899 298.201 220.199 290.201 223.199 282.901L234.199 256.301C234.999 254.501 235.599 252.501 236.099 250.601C241.699 227.401 250.699 212.701 260.799 203.601C261.399 203.101 261.999 202.501 262.599 202.001C267.499 197.901 272.999 194.801 278.699 192.801C283.699 191.901 286.899 192.801 286.899 192.801C290.799 191.601 294.599 190.801 298.099 190.601C318.799 189.001 332.699 203.001 342.099 221.401C349.999 231.401 356.599 246.101 359.599 267.501C359.899 269.501 360.299 271.501 360.899 273.401L369.399 300.901C371.699 308.401 372.199 316.601 370.899 324.501L370.299 328.201C371.499 330.701 372.799 333.301 374.199 335.701Z" fill="black"/>
<path d="M190.399 386.201C190.499 386.101 190.599 386.001 190.799 385.801C190.599 385.901 190.499 386.101 190.399 386.201Z" fill="black"/>
<path d="M298.1 190.401C294.6 190.701 290.9 191.401 286.9 192.601C286.9 192.601 283.6 191.701 278.7 192.601C285 190.401 291.7 189.601 298.1 190.401Z" fill="black"/>
<path d="M376.499 359.301C376.499 359.301 379.099 392.201 391.899 406.301C387.699 401.901 364.099 378.001 342.199 373.501C340.199 373.101 338.299 372.401 336.399 371.401C333.099 369.701 328.699 367.801 324.399 364.401L368.999 338.501C369.399 342.001 370.699 345.301 372.899 347.901L390.299 369.201L376.499 359.301Z" fill="black"/>
<path d="M392.5 407.001C392.4 406.901 392.4 406.901 392.3 406.801C392.3 406.801 392.4 406.901 392.5 407.001Z" fill="black"/>
<path d="M278.6 192.701C272.9 194.701 267.4 197.801 262.5 201.901C261.9 202.401 261.3 202.901 260.7 203.501C267.3 196.301 273.8 193.601 278.6 192.701Z" fill="black"/>
<path d="M373.5 402.801L405 396.201L420.7 512.801C416 516.201 387.5 509.101 387.5 509.101L373.5 402.801Z" fill="#EAAF92"/>
<path d="M424 447.801C417.6 454.101 410.7 459.901 403.4 465.101C398.7 468.501 393.8 471.701 388.7 474.601L381.8 476.501L375.3 478.301L373.3 478.801L370.7 479.101L372.9 418.701V417.301V416.801L373.4 402.801L375.7 338.801L375.8 335.301C400.7 344.801 404 371.101 404 371.101L411.3 399.301L411.4 399.501L424 447.801Z" fill="#10A261" stroke="#050505" stroke-width="1.1024" stroke-miterlimit="10"/>
<path opacity="0.15" d="M382 478.201C379.8 479.401 377.5 480.501 375.2 481.501L375.3 479.401L375.4 478.301L373.4 478.801L370.8 479.101L366.5 375.401L371.7 363.201C371.7 363.201 376.3 389.801 376.3 391.601C376.4 398.501 378.8 449.301 381.8 476.501C381.9 477.101 382 477.601 382 478.201Z" fill="black"/>
<path d="M338 360.601L316.4 361.101L276.3 362.001L257.1 345.401C269.6 340.601 274.9 326.801 277 312.801C279.7 294.601 276.8 275.901 276.8 275.901L326.6 274.701C322.7 285.101 322.9 296.901 324.8 307.601C327.8 325.401 335.3 340.101 335.3 340.101L338 360.601Z" fill="#EAAF92" stroke="#10A261" stroke-miterlimit="10"/>
<path opacity="0.1" d="M324.7 307.601C317.2 315.701 309.2 319.301 304.7 320.901C302.9 321.501 301 321.801 299.1 321.801C297.3 321.801 295.5 321.501 293.8 321.001C287.5 319.001 281.9 316.201 277 312.801C279.7 294.601 276.8 275.901 276.8 275.901L326.6 274.701C322.6 285.101 322.9 296.901 324.7 307.601Z" fill="black"/>
<path d="M258.385 287.07C262.023 286.846 264.531 279.514 263.987 270.694C263.443 261.874 260.053 254.906 256.415 255.131C252.776 255.355 250.268 262.687 250.812 271.507C251.356 280.326 254.746 287.294 258.385 287.07Z" fill="#10A261"/>
<path d="M261.9 286.9L258.8 287.3C258.4 287.3 257.2 287.1 257.1 286.7L257.5 282.1L264.9 280.2L261.9 286.9Z" fill="#10A261"/>
<path d="M261.883 286.969C265.521 286.745 268.029 279.413 267.485 270.594C266.941 261.774 263.551 254.806 259.913 255.03C256.274 255.255 253.766 262.586 254.31 271.406C254.854 280.226 258.244 287.194 261.883 286.969Z" fill="#10A261"/>
<path d="M264.3 225.801C264.3 225.801 240.4 298.001 295.5 315.501C297.9 316.301 300.4 316.201 302.8 315.401C313 312.001 338.9 298.001 337 244.601C337 244.601 313.6 161.801 264.3 225.801Z" fill="#EAAF92"/>
<path d="M375.3 481.501C375.3 481.501 376 485.901 377.1 492.601H233.4C234.4 487.201 234.8 483.801 234.5 483.701L235.4 458.101C235.5 457.101 235.6 456.201 235.7 455.201C235.7 455.101 235.7 455.001 235.7 454.801C235.8 453.901 235.9 453.001 235.9 452.201C236 451.401 236 450.601 236.1 449.801C236.1 449.501 236.1 449.101 236.2 448.801C236.3 448.001 236.3 447.201 236.3 446.401C236.3 446.001 236.3 445.601 236.4 445.301C236.4 444.901 236.4 444.401 236.5 444.001C236.5 443.801 236.5 443.601 236.5 443.401C236.5 442.801 236.5 442.201 236.6 441.601C236.6 440.401 236.7 439.201 236.7 438.001C236.7 437.101 236.7 436.201 236.7 435.301V435.101C236.7 434.201 236.7 433.201 236.7 432.301C236.7 432.201 236.7 432.101 236.7 431.901C236.7 431.001 236.7 430.101 236.6 429.201C236.6 429.101 236.6 429.101 236.6 429.001C236.6 428.101 236.5 427.301 236.5 426.401C236.4 424.301 236.3 422.201 236.2 420.101C236.1 419.201 236.1 418.301 236 417.401C236 416.801 235.9 416.201 235.8 415.601C235.8 415.101 235.7 414.601 235.7 414.101C235.6 412.901 235.5 411.601 235.3 410.401C235.2 409.801 235.2 409.201 235.1 408.601C235 408.001 235 407.401 234.9 406.801C234.8 406.301 234.8 405.801 234.7 405.401C234.4 403.401 234.2 401.501 233.8 399.601C233.6 398.601 233.5 397.601 233.3 396.601C233.2 395.901 233.1 395.301 233 394.601C232.8 393.601 232.6 392.601 232.5 391.701C232.4 391.401 232.4 391.101 232.3 390.901C231.8 388.301 231.2 385.701 230.7 383.301C230.6 382.801 230.5 382.201 230.3 381.701C229.9 380.001 229.5 378.301 229 376.601C228.9 376.101 228.8 375.701 228.6 375.301C228.1 373.501 227.6 371.701 227.1 369.901C227 369.501 226.8 369.001 226.7 368.601C226.4 367.801 226.2 366.901 225.9 366.101C225.7 365.401 225.5 364.801 225.3 364.101C225.1 363.601 224.9 363.001 224.8 362.501C224.7 362.101 224.5 361.701 224.4 361.301C223.5 358.601 222.6 356.101 221.7 353.801C221.5 353.201 221.3 352.601 221 352.101C219.9 349.301 218.9 346.901 218 344.901C218.5 344.501 218.8 344.301 218.8 344.301C218.8 344.301 271.9 328.901 272.4 328.901C273.2 328.301 275.1 321.701 275.1 321.701C275.1 321.701 287.6 342.401 302.3 341.501C316 340.601 328 321.701 328 321.701C328 321.701 330.3 328.301 330.5 328.701C361.8 329.301 370.5 332.401 381.5 337.601L375.7 403.601C375.7 403.801 375.6 481.401 375.3 481.501Z" fill="#10A261" stroke="#050505" stroke-width="1.1024" stroke-miterlimit="10"/>
<path opacity="0.15" d="M238.9 492.601H229.1C232.3 482.701 234.3 476.001 234.3 475.401C234.3 473.101 234.2 470.801 234.1 468.501C234 465.701 233.9 462.901 233.8 460.101C233.8 458.901 233.7 457.801 233.7 456.601C233.6 455.301 233.6 454.101 233.5 452.801C233.5 452.701 233.5 452.701 233.5 452.601V452.501C233.5 452.501 233.5 452.401 233.6 452.301C233.6 452.301 233.6 452.201 233.6 452.101C233.6 452.001 233.6 452.001 233.7 451.901C233.7 451.701 233.8 451.601 233.9 451.401C234 451.101 234.1 450.801 234.2 450.401C234.2 450.301 234.3 450.201 234.3 450.201C234.5 449.701 234.7 449.101 235 448.501C235.2 448.001 235.4 447.501 235.6 447.001C235.7 446.901 235.7 446.701 235.8 446.601C236 446.201 236.2 445.801 236.4 445.401C236.4 445.001 236.4 444.501 236.5 444.101C236.5 443.901 236.5 443.701 236.5 443.501C236.5 442.901 236.5 442.301 236.6 441.701C236.6 440.501 236.7 439.301 236.7 438.101C236.7 437.201 236.7 436.301 236.7 435.401V435.201C236.7 434.301 236.7 433.301 236.7 432.401C236.7 432.301 236.7 432.201 236.7 432.001C236.7 431.101 236.7 430.201 236.6 429.301C236.6 429.201 236.6 429.201 236.6 429.101C236.6 428.201 236.5 427.301 236.5 426.501C236.4 424.401 236.3 422.301 236.2 420.201C236.1 419.301 236.1 418.401 236 417.501C236 416.901 235.9 416.301 235.8 415.701C235.8 415.201 235.7 414.701 235.7 414.201C235.6 413.001 235.5 411.701 235.3 410.501C235.2 409.901 235.2 409.301 235.1 408.701C235 408.101 235 407.501 234.9 406.901C234.8 406.401 234.8 405.901 234.7 405.501C234.4 403.501 234.2 401.601 233.9 399.701C233.7 398.701 233.6 397.701 233.4 396.701C233.3 396.001 233.2 395.401 233.1 394.701C232.9 393.701 232.7 392.701 232.6 391.801C232.5 391.501 232.5 391.201 232.4 391.001L232.8 390.801C232.8 390.801 236.9 412.001 239.1 440.301C239.4 445.601 239.2 467.001 238.9 492.601Z" fill="black"/>
<path d="M234 430.5L233.6 452.5V452.6L224.9 519.6C214.5 515 205.9 525 196.7 518.6L207 401.6L207.8 385.9L213.7 395.9L234 430.5Z" fill="#EAAF92"/>
<path d="M236.6 435.101V435.301C236.6 436.201 236.6 437.101 236.6 438.001C236.6 439.201 236.6 440.401 236.5 441.601C236.5 442.201 236.5 442.801 236.4 443.401C236.4 443.601 236.4 443.801 236.4 444.001C236.4 444.401 236.4 444.901 236.3 445.301C236.3 445.701 236.3 446.001 236.2 446.401C236.2 447.201 236.1 448.001 236.1 448.801C236.1 449.101 236.1 449.501 236 449.801C235.9 450.601 235.9 451.401 235.8 452.201C235.7 453.101 235.7 454.001 235.6 454.801C235.6 454.901 235.6 455.001 235.6 455.201C235.5 456.201 235.4 457.101 235.3 458.101L234.4 483.701C233.9 483.501 233.4 483.301 232.9 483.101C222.5 478.501 212.6 473.001 203.3 466.501C193.3 459.601 184.1 451.601 175.8 442.801L186.5 413.401L193.8 393.201C195.8 386.401 197.8 380.501 199.7 375.401C199.7 375.401 199.7 375.301 199.8 375.301C202.3 368.701 204.8 363.501 207.1 359.401C210 354.201 212.5 350.701 214.5 348.401C215.8 346.901 216.8 345.901 217.6 345.301C217.7 345.201 217.8 345.101 217.9 345.001C218.8 347.001 219.8 349.501 220.9 352.201C221.1 352.801 221.3 353.301 221.6 353.901C222.5 356.201 223.4 358.701 224.3 361.401C224.4 361.801 224.6 362.201 224.7 362.601C224.9 363.101 225.1 363.701 225.2 364.201C225.4 364.901 225.6 365.501 225.8 366.201C226.1 367.001 226.3 367.901 226.6 368.701C226.7 369.101 226.9 369.601 227 370.001C227.5 371.701 228 373.501 228.5 375.401C228.6 375.801 228.7 376.301 228.9 376.701C229.3 378.301 229.8 380.001 230.2 381.801C230.3 382.301 230.4 382.801 230.6 383.401C231.2 385.901 231.7 388.401 232.2 391.001C232.3 391.301 232.3 391.601 232.4 391.801C232.6 392.801 232.8 393.701 232.9 394.701C233 395.301 233.1 396.001 233.2 396.701C233.4 397.701 233.5 398.701 233.7 399.701C234 401.601 234.3 403.601 234.5 405.501C234.6 406.001 234.6 406.501 234.7 406.901C234.8 407.501 234.8 408.101 234.9 408.701C235 409.301 235 409.901 235.1 410.501C235.2 411.701 235.4 412.901 235.5 414.201C235.5 414.701 235.6 415.201 235.6 415.701C235.7 416.301 235.7 416.901 235.7 417.501C235.8 418.401 235.8 419.301 235.9 420.201C236 422.301 236.2 424.401 236.2 426.501C236.2 427.401 236.3 428.201 236.3 429.101C236.3 429.201 236.3 429.201 236.3 429.301C236.3 430.201 236.3 431.101 236.4 432.001C236.4 432.101 236.4 432.201 236.4 432.401C236.6 433.301 236.6 434.201 236.6 435.101Z" fill="#10A261" stroke="#050505" stroke-width="1.1024" stroke-miterlimit="10"/>
<path d="M336.399 274.701C336.399 274.701 294.099 179.201 259.399 274.701L255.899 220.901L277.899 198.901L304.499 194.301L329.399 211.101L344.999 241.801L336.399 274.701Z" fill="black"/>
<path d="M339.249 274.962C341.82 269.826 341.582 264.5 338.718 263.066C335.854 261.632 331.448 264.634 328.877 269.77C326.306 274.906 326.544 280.232 329.408 281.665C332.272 283.099 336.679 280.098 339.249 274.962Z" fill="#EAAF92"/>
<path opacity="0.15" d="M330.499 328.9L323.999 371.3L306.199 341C311.599 346.6 322.499 362.8 322.499 362.8L330.499 328.9Z" fill="black"/>
<path opacity="0.15" d="M277.399 371.301L272.399 329.101L279.199 363.301L296.299 341.501L277.399 371.301Z" fill="black"/>
<path d="M330.3 211.6C321.8 199.8 310.4 193.4 298.2 193.4C286 193.4 274.6 199.9 266.1 211.6C257.7 223.2 253.1 238.5 253.1 254.8C253.1 257.6 253.2 260.5 253.5 263.2H257.6C257.3 260.4 257.2 257.6 257.2 254.8C257.2 223.2 275.6 197.5 298.2 197.5C320.8 197.5 339.2 223.2 339.2 254.8C339.2 257.7 339 260.5 338.8 263.2H342.9C343.2 260.4 343.3 257.6 343.3 254.8C343.3 238.5 338.6 223.1 330.3 211.6Z" fill="#10A261"/>
<path d="M259.4 286.8C259.1 286.9 258.8 287 258.4 287C254.8 287.2 251.4 280.3 250.8 271.5C250.3 262.7 252.8 255.4 256.4 255.2C257 255.2 257.7 255.3 258.3 255.7C255.6 257.6 253.8 264 254.3 271.4C254.7 277.7 256.5 283 258.9 285.5L259.4 286.8Z" fill="#4C4C4C"/>
<path d="M342.466 271.411C343.01 262.592 340.501 255.26 336.863 255.035C333.225 254.811 329.835 261.779 329.291 270.599C328.747 279.419 331.255 286.75 334.893 286.975C338.531 287.199 341.922 280.231 342.466 271.411Z" fill="#10A261"/>
<path d="M295.899 312.201V310.301C318.599 310.301 337.399 280.301 337.599 280.001L339.199 281.101C338.299 282.401 319.599 312.201 295.899 312.201Z" fill="#10A261"/>
<path d="M338.1 287.1H334.1L332.3 282.3L339.7 280.4L338.9 286.5C338.8 286.8 338.5 287.1 338.1 287.1Z" fill="#10A261"/>
<path d="M340.6 255.2H336.6L334.8 260L342.2 261.9L341.4 255.8C341.2 255.4 340.9 255.2 340.6 255.2Z" fill="#10A261"/>
<path d="M345.984 271.473C346.528 262.653 344.02 255.321 340.382 255.097C336.743 254.873 333.353 261.841 332.809 270.66C332.265 279.48 334.774 286.812 338.412 287.036C342.05 287.261 345.44 280.293 345.984 271.473Z" fill="#4C4C4C"/>
<path d="M297.6 313.801C299.699 313.801 301.4 312.637 301.4 311.201C301.4 309.765 299.699 308.601 297.6 308.601C295.501 308.601 293.8 309.765 293.8 311.201C293.8 312.637 295.501 313.801 297.6 313.801Z" fill="#4C4C4C"/>
<path d="M79.5002 444.101C84.9002 457.701 111.5 472.001 111.5 472.001L192.2 534.401C197.4 538.401 203.7 539.501 209.5 538.001C209.7 538.001 209.9 537.901 210 537.901C218 535.701 223.8 528.801 224.7 520.601L225.4 514.501L202 502.901L154.5 472.501C146.4 467.401 138.9 459.501 134.3 454.201C131.8 451.301 129.7 448.201 128 444.701C124.6 437.801 119.6 430.901 115.4 425.801C111.2 420.701 107.9 417.301 107.9 417.301C105.4 419.401 104.9 423.101 106.8 425.801L114.7 437.001L103.8 429.401C100.1 426.801 95.8002 425.301 91.3002 425.301C74.6002 425.101 79.5002 444.101 79.5002 444.101Z" fill="#EAAF92"/>
<path d="M549.5 473.401C540.2 484.601 510.5 490.001 510.5 490.001L414.4 524.201C408.2 526.401 401.9 525.401 396.8 522.301C391.9 519.201 388.2 514.001 387.4 507.701L386.3 499.301L385.8 495.101L384.9 488.401L387.9 488.001L397.8 486.701L411.1 491.201L469.4 477.201C478.6 474.801 488.2 469.701 494.2 466.101C497.5 464.101 500.5 461.801 503.1 459.101C508.5 453.501 515.4 448.601 520.9 445.001C526.5 441.401 530.7 439.301 530.7 439.301C532.4 442.101 531.7 445.801 529.1 447.701L518.1 455.901L530.8 452.101C535.1 450.801 539.7 450.701 544 452.101C560 456.901 549.5 473.401 549.5 473.401Z" fill="#EAAF92"/>
<path d="M592.2 332.001C592.2 308.201 572.9 288.801 549 288.801C525.1 288.801 505.8 308.101 505.8 332.001C505.8 348.801 515.4 363.301 529.4 370.501C526.3 377.401 521.6 383.501 514.6 385.501C514.6 385.501 535.4 387.901 549.1 375.201C572.9 375.201 592.2 355.801 592.2 332.001Z" fill="white" stroke="black" stroke-width="0.178" stroke-miterlimit="10"/>
<path d="M70.5998 370.501C84.5998 363.401 94.1998 348.801 94.1998 332.001C94.1998 308.201 74.8998 288.801 50.9998 288.801C27.0998 288.801 7.7998 308.201 7.7998 332.001C7.7998 355.801 27.0998 375.201 50.8998 375.201C64.5998 388.001 85.3998 385.501 85.3998 385.501C78.2998 383.401 73.6998 377.401 70.5998 370.501Z" fill="white" stroke="black" stroke-width="0.178" stroke-miterlimit="10"/>
<path d="M76.0998 328.1L50.9998 310L25.8998 328.1H25.7998V353.9H25.8998V328.1H25.9998L50.9998 341L76.0998 328.1Z" fill="#10A261"/>
<path opacity="0.1" d="M50.9998 310L25.7998 328.1H76.0998L50.9998 310Z" fill="black"/>
<path d="M72.7996 314H29.0996V348H72.7996V314Z" fill="#F9FBFD" stroke="black" stroke-width="0.0445019" stroke-miterlimit="10"/>
<path d="M55.1998 321C55.8998 321.7 56.3998 322.4 56.6998 323.4C57.0998 324.3 57.2998 325.3 57.2998 326.5C57.2998 327.3 57.1998 328.2 56.8998 329C56.6998 329.8 56.3998 330.6 55.9998 331.1H51.4998L51.3998 330.4C51.0998 330.6 50.6998 330.8 50.3998 330.9C50.0998 331 49.5998 331.1 49.0998 331.1C48.0998 331.1 47.3998 330.7 46.7998 329.9C46.1998 329.1 45.8998 328 45.8998 326.7C45.8998 326 45.9998 325.4 46.1998 324.8C46.3998 324.3 46.6998 323.8 46.9998 323.4C47.2998 323 47.6998 322.7 48.1998 322.5C48.6998 322.3 49.0998 322.2 49.5998 322.2C49.9998 322.2 50.2998 322.3 50.5998 322.4C50.8998 322.5 51.0998 322.7 51.2998 322.9V322.4H53.2998V329.6H54.7998C54.9998 329.1 55.1998 328.6 55.2998 328.1C55.3998 327.6 55.4998 327 55.4998 326.5C55.4998 325.5 55.3998 324.6 55.0998 323.9C54.7998 323.2 54.3998 322.5 53.9998 322C53.4998 321.5 52.8998 321.1 52.1998 320.9C51.4998 320.7 50.7998 320.5 49.9998 320.5C49.2998 320.5 48.4998 320.6 47.8998 320.9C47.1998 321.2 46.5998 321.6 46.0998 322.1C45.5998 322.6 45.1998 323.3 44.7998 324C44.4998 324.8 44.2998 325.6 44.2998 326.5C44.2998 327.5 44.4998 328.4 44.7998 329.2C45.0998 330 45.4998 330.6 45.9998 331.1C46.4998 331.6 47.0998 332 47.7998 332.3C48.4998 332.6 49.1998 332.7 49.8998 332.7C50.3998 332.7 50.9998 332.7 51.5998 332.6C52.1998 332.5 52.7998 332.4 53.2998 332.2V333.9C52.7998 334 52.1998 334.1 51.6998 334.2C51.1998 334.3 50.5998 334.3 49.8998 334.3C48.7998 334.3 47.7998 334.1 46.8998 333.7C45.9998 333.3 45.1998 332.8 44.4998 332.1C43.7998 331.4 43.2998 330.6 42.8998 329.7C42.4998 328.7 42.2998 327.7 42.2998 326.6C42.2998 325.5 42.4998 324.5 42.8998 323.6C43.2998 322.7 43.7998 321.9 44.4998 321.2C45.1998 320.5 45.9998 320 46.8998 319.6C47.7998 319.2 48.7998 319 49.7998 319C50.7998 319 51.7998 319.2 52.6998 319.5C53.7998 319.8 54.5998 320.3 55.1998 321ZM51.2998 328.7V324.3C51.0998 324.2 50.7998 324.1 50.5998 324C50.3998 323.9 50.1998 323.9 49.8998 323.9C49.2998 323.9 48.8998 324.1 48.5998 324.6C48.2998 325.1 48.0998 325.8 48.0998 326.6C48.0998 327.5 48.1998 328.2 48.4998 328.7C48.7998 329.1 49.1998 329.4 49.7998 329.4C50.0998 329.4 50.3998 329.3 50.5998 329.2C50.7998 329.1 50.9998 329 51.2998 328.7Z" fill="#10A261"/>
<path d="M76.0994 328.1V353.8H25.8994V328.1L50.9994 341L76.0994 328.1Z" fill="#10A261"/>
<path opacity="0.15" d="M50.9994 341L25.8994 353.8V353.9V328.1L50.9994 341Z" fill="black"/>
<path opacity="0.1" d="M76.099 328.1V353.9L75.999 353.8L50.999 341L76.099 328.1Z" fill="black"/>
<path d="M549.1 307.5C540 307.5 532.6 314.7 532.6 323.6C532.6 332.5 549.1 356.4 549.1 356.4C549.1 356.4 565.6 332.5 565.6 323.6C565.6 314.7 558.2 307.5 549.1 307.5ZM549.1 326C545.9 326 543.4 323.5 543.4 320.4C543.4 317.3 546 314.8 549.1 314.8C552.2 314.8 554.8 317.3 554.8 320.4C554.9 323.5 552.3 326 549.1 326Z" fill="#10A261"/>
<path d="M518.1 234.1C518.1 210.3 498.8 190.9 474.9 190.9C451 190.9 431.7 210.2 431.7 234.1C431.7 250.9 441.3 265.4 455.3 272.6C452.2 279.5 447.5 285.6 440.5 287.6C440.5 287.6 461.3 290 475 277.3C498.7 277.3 518.1 257.9 518.1 234.1Z" fill="white" stroke="black" stroke-width="0.178" stroke-miterlimit="10"/>
<path d="M144.699 272.6C158.699 265.5 168.299 250.9 168.299 234.1C168.299 210.3 148.999 190.9 125.099 190.9C101.299 190.9 81.8994 210.2 81.8994 234.1C81.8994 257.9 101.199 277.3 124.999 277.3C138.699 290.1 159.499 287.6 159.499 287.6C152.499 285.5 147.799 279.5 144.699 272.6Z" fill="white" stroke="black" stroke-width="0.178" stroke-miterlimit="10"/>
<path d="M461 211.101C461.5 211.101 462 211.101 462.5 211.201C463.9 211.401 465 212.601 465.2 214.001L466.9 224.801C467.1 226.201 466.4 227.701 465.2 228.301C464.4 228.701 463.4 229.001 462.5 229.201C465.3 237.101 471.5 243.401 479.5 246.201C479.7 245.201 480 244.301 480.4 243.501C481.1 242.201 482.5 241.501 483.9 241.801L494.7 243.501C496.1 243.701 497.3 244.801 497.5 246.201C497.6 246.701 497.6 247.201 497.6 247.701C497.6 252.801 493.5 256.901 488.4 256.901C468.1 256.901 451.7 240.501 451.7 220.201C451.9 215.201 456 211.101 461 211.101Z" fill="#10A261"/>
<path d="M147.5 213.101H102.7C99.0998 213.101 96.2998 216.001 96.2998 219.501V241.901C96.2998 245.501 99.1998 248.301 102.7 248.301H124.1C129 253.201 140.4 254.901 140.4 254.901C138.1 254.001 136.3 251.301 135 248.301H147.5C151.1 248.301 153.9 245.401 153.9 241.901V219.501C153.9 216.001 151.1 213.101 147.5 213.101Z" fill="#10A261"/>
<path d="M110.2 235.2C112.74 235.2 114.8 233.141 114.8 230.6C114.8 228.059 112.74 226 110.2 226C107.659 226 105.6 228.059 105.6 230.6C105.6 233.141 107.659 235.2 110.2 235.2Z" fill="white"/>
<path d="M125.1 235.2C127.641 235.2 129.7 233.141 129.7 230.6C129.7 228.059 127.641 226 125.1 226C122.559 226 120.5 228.059 120.5 230.6C120.5 233.141 122.559 235.2 125.1 235.2Z" fill="white"/>
<path d="M139.999 235.2C142.54 235.2 144.599 233.141 144.599 230.6C144.599 228.059 142.54 226 139.999 226C137.459 226 135.399 228.059 135.399 230.6C135.399 233.141 137.459 235.2 139.999 235.2Z" fill="white"/>
<path opacity="0.4" d="M603.7 591.1C603.7 595.4 473.5 598.8 312.8 598.8C222.2 598.8 141.2 597.7 87.8004 596C75.5004 595.6 64.7004 595.2 55.6004 594.7C49.6004 594.4 44.3004 594.1 39.8004 593.8C28.2004 593 21.9004 592.1 21.9004 591.1C21.9004 589.9 32.2004 588.8 50.5004 587.8C58.0004 587.4 66.8004 587 76.9004 586.6C94.0004 586 114.5 585.4 137.7 584.9C170.5 584.2 208.6 583.8 250.1 583.5C250.1 583.5 250.1 583.5 250.2 583.5C270.4 583.4 291.4 583.3 312.9 583.3C334.5 583.3 355.5 583.4 375.7 583.5C416.3 583.7 453.8 584.2 486.1 584.8C501.4 585.1 515.6 585.4 528.4 585.8C575.1 587.2 603.7 589.1 603.7 591.1Z" fill="#474747"/>
</g>
<defs>
<clipPath id="clip0_4734_690">
<rect width="600" height="610.8" fill="white"/>
</clipPath>
</defs>
</svg>
