<svg width="680" height="600" viewBox="0 0 680 600" fill="none" xmlns="http://www.w3.org/2000/svg">
<mask id="mask0_3551_137" style="mask-type:luminance" maskUnits="userSpaceOnUse" x="0" y="0" width="680" height="600">
<path d="M680 0H0V600H680V0Z" fill="white"/>
</mask>
<g mask="url(#mask0_3551_137)">
<g opacity="0.3">
<path d="M1011.69 728.64H-339.69V-55.4702H1011.69V728.64ZM-337.95 727H1010V-53.8502H-337.95V727Z" fill="url(#paint0_radial_3551_137)"/>
<path d="M1010.84 570.52H-338.8V572.13H1010.84V570.52Z" fill="url(#paint1_radial_3551_137)"/>
<path d="M1010.84 531.4H-338.8V533H1010.84V531.4Z" fill="url(#paint2_radial_3551_137)"/>
<path d="M1010.84 492.28H-338.8V493.89H1010.84V492.28Z" fill="url(#paint3_radial_3551_137)"/>
<path d="M1010.84 453.16H-338.8V454.77H1010.84V453.16Z" fill="url(#paint4_radial_3551_137)"/>
<path d="M1010.84 414H-338.8V415.61H1010.84V414Z" fill="url(#paint5_radial_3551_137)"/>
<path d="M1010.84 374.92H-338.8V376.53H1010.84V374.92Z" fill="url(#paint6_radial_3551_137)"/>
<path d="M1010.84 335.8H-338.8V337.41H1010.84V335.8Z" fill="url(#paint7_radial_3551_137)"/>
<path d="M1010.84 296.65H-338.8V298.26H1010.84V296.65Z" fill="url(#paint8_radial_3551_137)"/>
<path d="M1010.84 257.53H-338.8V259.14H1010.84V257.53Z" fill="url(#paint9_radial_3551_137)"/>
<path d="M1010.84 218.41H-338.8V220H1010.84V218.41Z" fill="url(#paint10_radial_3551_137)"/>
<path d="M1010.84 179.29H-338.8V180.9H1010.84V179.29Z" fill="url(#paint11_radial_3551_137)"/>
<path d="M1010.84 140.17H-338.8V141.78H1010.84V140.17Z" fill="url(#paint12_radial_3551_137)"/>
<path d="M1010.84 101H-338.8V102.62H1010.84V101Z" fill="url(#paint13_radial_3551_137)"/>
<path d="M1010.84 61.8896H-338.8V63.5096H1010.84V61.8896Z" fill="url(#paint14_radial_3551_137)"/>
<path d="M1010.84 22.77H-338.8V24.39H1010.84V22.77Z" fill="url(#paint15_radial_3551_137)"/>
<path d="M643.62 -54.6401H641.88V727.85H643.62V-54.6401Z" fill="url(#paint16_radial_3551_137)"/>
<path d="M602.71 -54.6401H601V727.85H602.74L602.71 -54.6401Z" fill="url(#paint17_radial_3551_137)"/>
<path d="M561.8 -54.6401H560.06V727.85H561.8V-54.6401Z" fill="url(#paint18_radial_3551_137)"/>
<path d="M520.92 -54.6401H519.18V727.85H520.92V-54.6401Z" fill="url(#paint19_radial_3551_137)"/>
<path d="M480 -54.6401H478.26V727.85H480V-54.6401Z" fill="url(#paint20_radial_3551_137)"/>
<path d="M439.1 -54.6401H437.36V727.85H439.1V-54.6401Z" fill="url(#paint21_radial_3551_137)"/>
<path d="M398.22 -54.6401H396.48V727.85H398.22V-54.6401Z" fill="url(#paint22_radial_3551_137)"/>
<path d="M357.31 -54.6401H355.57V727.85H357.31V-54.6401Z" fill="url(#paint23_radial_3551_137)"/>
<path d="M316.43 -54.6401H314.69V727.85H316.43V-54.6401Z" fill="url(#paint24_radial_3551_137)"/>
<path d="M275.52 -54.6401H273.78V727.85H275.52V-54.6401Z" fill="url(#paint25_radial_3551_137)"/>
<path d="M234.61 -54.6401H232.87V727.85H234.61V-54.6401Z" fill="url(#paint26_radial_3551_137)"/>
<path d="M193.73 -54.6401H192V727.85H193.74L193.73 -54.6401Z" fill="url(#paint27_radial_3551_137)"/>
<path d="M152.82 -54.6401H151.08V727.85H152.82V-54.6401Z" fill="url(#paint28_radial_3551_137)"/>
<path d="M111.94 -54.6401H110.2V727.85H111.94V-54.6401Z" fill="url(#paint29_radial_3551_137)"/>
<path d="M71 -54.6401H69.29V727.85H71V-54.6401Z" fill="url(#paint30_radial_3551_137)"/>
<path d="M30.1199 -54.6401H28.3799V727.85H30.1199V-54.6401Z" fill="url(#paint31_radial_3551_137)"/>
</g>
</g>
<defs>
<radialGradient id="paint0_radial_3551_137" cx="0" cy="0" r="1" gradientUnits="userSpaceOnUse" gradientTransform="translate(360.94 386.08) scale(319.12 338.267)">
<stop stop-color="#2F352B"/>
<stop offset="1" stop-color="#2F352B" stop-opacity="0"/>
</radialGradient>
<radialGradient id="paint1_radial_3551_137" cx="0" cy="0" r="1" gradientUnits="userSpaceOnUse" gradientTransform="translate(361.301 286.27) scale(328.72 304.427)">
<stop stop-color="#2F352B"/>
<stop offset="1" stop-color="#2F352B" stop-opacity="0"/>
</radialGradient>
<radialGradient id="paint2_radial_3551_137" cx="0" cy="0" r="1" gradientUnits="userSpaceOnUse" gradientTransform="translate(361.301 287.967) scale(328.72 304.435)">
<stop stop-color="#2F352B"/>
<stop offset="1" stop-color="#2F352B" stop-opacity="0"/>
</radialGradient>
<radialGradient id="paint3_radial_3551_137" cx="0" cy="0" r="1" gradientUnits="userSpaceOnUse" gradientTransform="translate(361.301 289.136) scale(328.72 304.433)">
<stop stop-color="#2F352B"/>
<stop offset="1" stop-color="#2F352B" stop-opacity="0"/>
</radialGradient>
<radialGradient id="paint4_radial_3551_137" cx="0" cy="0" r="1" gradientUnits="userSpaceOnUse" gradientTransform="translate(361.301 289.119) scale(328.72 304.427)">
<stop stop-color="#2F352B"/>
<stop offset="1" stop-color="#2F352B" stop-opacity="0"/>
</radialGradient>
<radialGradient id="paint5_radial_3551_137" cx="0" cy="0" r="1" gradientUnits="userSpaceOnUse" gradientTransform="translate(361.301 287.934) scale(328.72 304.437)">
<stop stop-color="#2F352B"/>
<stop offset="1" stop-color="#2F352B" stop-opacity="0"/>
</radialGradient>
<radialGradient id="paint6_radial_3551_137" cx="0" cy="0" r="1" gradientUnits="userSpaceOnUse" gradientTransform="translate(361.301 287.914) scale(328.72 304.437)">
<stop stop-color="#2F352B"/>
<stop offset="1" stop-color="#2F352B" stop-opacity="0"/>
</radialGradient>
<radialGradient id="paint7_radial_3551_137" cx="0" cy="0" r="1" gradientUnits="userSpaceOnUse" gradientTransform="translate(361.301 287.903) scale(328.72 304.443)">
<stop stop-color="#2F352B"/>
<stop offset="1" stop-color="#2F352B" stop-opacity="0"/>
</radialGradient>
<radialGradient id="paint8_radial_3551_137" cx="0" cy="0" r="1" gradientUnits="userSpaceOnUse" gradientTransform="translate(361.301 287.893) scale(328.72 304.443)">
<stop stop-color="#2F352B"/>
<stop offset="1" stop-color="#2F352B" stop-opacity="0"/>
</radialGradient>
<radialGradient id="paint9_radial_3551_137" cx="0" cy="0" r="1" gradientUnits="userSpaceOnUse" gradientTransform="translate(361.301 289.058) scale(328.72 304.433)">
<stop stop-color="#2F352B"/>
<stop offset="1" stop-color="#2F352B" stop-opacity="0"/>
</radialGradient>
<radialGradient id="paint10_radial_3551_137" cx="0" cy="0" r="1" gradientUnits="userSpaceOnUse" gradientTransform="translate(361.301 285.933) scale(328.72 304.439)">
<stop stop-color="#2F352B"/>
<stop offset="1" stop-color="#2F352B" stop-opacity="0"/>
</radialGradient>
<radialGradient id="paint11_radial_3551_137" cx="0" cy="0" r="1" gradientUnits="userSpaceOnUse" gradientTransform="translate(361.301 285.913) scale(328.72 304.44)">
<stop stop-color="#2F352B"/>
<stop offset="1" stop-color="#2F352B" stop-opacity="0"/>
</radialGradient>
<radialGradient id="paint12_radial_3551_137" cx="0" cy="0" r="1" gradientUnits="userSpaceOnUse" gradientTransform="translate(361.301 287.843) scale(328.72 304.44)">
<stop stop-color="#2F352B"/>
<stop offset="1" stop-color="#2F352B" stop-opacity="0"/>
</radialGradient>
<radialGradient id="paint13_radial_3551_137" cx="0" cy="0" r="1" gradientUnits="userSpaceOnUse" gradientTransform="translate(361.301 285.894) scale(328.72 304.441)">
<stop stop-color="#2F352B"/>
<stop offset="1" stop-color="#2F352B" stop-opacity="0"/>
</radialGradient>
<radialGradient id="paint14_radial_3551_137" cx="0" cy="0" r="1" gradientUnits="userSpaceOnUse" gradientTransform="translate(361.301 285.873) scale(328.72 304.44)">
<stop stop-color="#2F352B"/>
<stop offset="1" stop-color="#2F352B" stop-opacity="0"/>
</radialGradient>
<radialGradient id="paint15_radial_3551_137" cx="0" cy="0" r="1" gradientUnits="userSpaceOnUse" gradientTransform="translate(361.301 286.823) scale(328.72 304.44)">
<stop stop-color="#2F352B"/>
<stop offset="1" stop-color="#2F352B" stop-opacity="0"/>
</radialGradient>
<radialGradient id="paint16_radial_3551_137" cx="0" cy="0" r="1" gradientUnits="userSpaceOnUse" gradientTransform="translate(360.715 287.176) scale(328.728 304.54)">
<stop stop-color="#2F352B"/>
<stop offset="1" stop-color="#2F352B" stop-opacity="0"/>
</radialGradient>
<radialGradient id="paint17_radial_3551_137" cx="0" cy="0" r="1" gradientUnits="userSpaceOnUse" gradientTransform="translate(360.715 287.176) scale(328.728 304.54)">
<stop stop-color="#2F352B"/>
<stop offset="1" stop-color="#2F352B" stop-opacity="0"/>
</radialGradient>
<radialGradient id="paint18_radial_3551_137" cx="0" cy="0" r="1" gradientUnits="userSpaceOnUse" gradientTransform="translate(360.714 287.176) scale(328.728 304.54)">
<stop stop-color="#2F352B"/>
<stop offset="1" stop-color="#2F352B" stop-opacity="0"/>
</radialGradient>
<radialGradient id="paint19_radial_3551_137" cx="0" cy="0" r="1" gradientUnits="userSpaceOnUse" gradientTransform="translate(361.14 287.176) scale(328.708 304.54)">
<stop stop-color="#2F352B"/>
<stop offset="1" stop-color="#2F352B" stop-opacity="0"/>
</radialGradient>
<radialGradient id="paint20_radial_3551_137" cx="0" cy="0" r="1" gradientUnits="userSpaceOnUse" gradientTransform="translate(360.714 287.176) scale(328.728 304.54)">
<stop stop-color="#2F352B"/>
<stop offset="1" stop-color="#2F352B" stop-opacity="0"/>
</radialGradient>
<radialGradient id="paint21_radial_3551_137" cx="0" cy="0" r="1" gradientUnits="userSpaceOnUse" gradientTransform="translate(360.712 287.176) scale(328.734 304.54)">
<stop stop-color="#2F352B"/>
<stop offset="1" stop-color="#2F352B" stop-opacity="0"/>
</radialGradient>
<radialGradient id="paint22_radial_3551_137" cx="0" cy="0" r="1" gradientUnits="userSpaceOnUse" gradientTransform="translate(360.713 287.176) scale(328.728 304.54)">
<stop stop-color="#2F352B"/>
<stop offset="1" stop-color="#2F352B" stop-opacity="0"/>
</radialGradient>
<radialGradient id="paint23_radial_3551_137" cx="0" cy="0" r="1" gradientUnits="userSpaceOnUse" gradientTransform="translate(361.129 287.176) scale(328.708 304.54)">
<stop stop-color="#2F352B"/>
<stop offset="1" stop-color="#2F352B" stop-opacity="0"/>
</radialGradient>
<radialGradient id="paint24_radial_3551_137" cx="0" cy="0" r="1" gradientUnits="userSpaceOnUse" gradientTransform="translate(360.971 287.176) scale(328.718 304.54)">
<stop stop-color="#2F352B"/>
<stop offset="1" stop-color="#2F352B" stop-opacity="0"/>
</radialGradient>
<radialGradient id="paint25_radial_3551_137" cx="0" cy="0" r="1" gradientUnits="userSpaceOnUse" gradientTransform="translate(360.971 287.176) scale(328.718 304.54)">
<stop stop-color="#2F352B"/>
<stop offset="1" stop-color="#2F352B" stop-opacity="0"/>
</radialGradient>
<radialGradient id="paint26_radial_3551_137" cx="0" cy="0" r="1" gradientUnits="userSpaceOnUse" gradientTransform="translate(360.714 287.176) scale(328.731 304.54)">
<stop stop-color="#2F352B"/>
<stop offset="1" stop-color="#2F352B" stop-opacity="0"/>
</radialGradient>
<radialGradient id="paint27_radial_3551_137" cx="0" cy="0" r="1" gradientUnits="userSpaceOnUse" gradientTransform="translate(360.724 287.176) scale(328.731 304.54)">
<stop stop-color="#2F352B"/>
<stop offset="1" stop-color="#2F352B" stop-opacity="0"/>
</radialGradient>
<radialGradient id="paint28_radial_3551_137" cx="0" cy="0" r="1" gradientUnits="userSpaceOnUse" gradientTransform="translate(360.962 287.176) scale(328.721 304.54)">
<stop stop-color="#2F352B"/>
<stop offset="1" stop-color="#2F352B" stop-opacity="0"/>
</radialGradient>
<radialGradient id="paint29_radial_3551_137" cx="0" cy="0" r="1" gradientUnits="userSpaceOnUse" gradientTransform="translate(360.724 287.176) scale(328.731 304.54)">
<stop stop-color="#2F352B"/>
<stop offset="1" stop-color="#2F352B" stop-opacity="0"/>
</radialGradient>
<radialGradient id="paint30_radial_3551_137" cx="0" cy="0" r="1" gradientUnits="userSpaceOnUse" gradientTransform="translate(360.723 287.176) scale(328.73 304.54)">
<stop stop-color="#2F352B"/>
<stop offset="1" stop-color="#2F352B" stop-opacity="0"/>
</radialGradient>
<radialGradient id="paint31_radial_3551_137" cx="0" cy="0" r="1" gradientUnits="userSpaceOnUse" gradientTransform="translate(360.723 287.176) scale(328.73 304.54)">
<stop stop-color="#2F352B"/>
<stop offset="1" stop-color="#2F352B" stop-opacity="0"/>
</radialGradient>
</defs>
</svg>
