<svg id="Layer_1" data-name="Layer 1" xmlns="http://www.w3.org/2000/svg" viewBox="0 0 155 155"><defs><style>.cls-1{fill:none;}.cls-2,.cls-4{fill:#2f352b;}.cls-2{stroke:#fff;stroke-width:2px;}.cls-3,.cls-5{fill:#fff;}.cls-5{font-size:12px;font-family:Poppins-ExtraBold, Poppins;font-weight:800;}</style></defs><rect class="cls-1" width="155" height="155"/><path class="cls-2" d="M77.11,153.44a76,76,0,1,0-76-76A76,76,0,0,0,77.11,153.44Z"/><path class="cls-3" d="M77.11,117.44a40,40,0,1,0-40-40A40,40,0,0,0,77.11,117.44Z"/><path class="cls-4" d="M77.11,57.44a20,20,0,1,0,14.13,5.87A20,20,0,0,0,77.11,57.44Zm0,37.1a17.12,17.12,0,1,1,12.08-5A17.1,17.1,0,0,1,77.11,94.54Z"/><path class="cls-4" d="M82.82,72.83h-1A6.61,6.61,0,0,0,81,71.22h1.8a1.36,1.36,0,1,0,0-2.71H72.18a1.36,1.36,0,1,0,0,2.71h3.59a3.7,3.7,0,0,1,3.06,1.62H72.24a1.36,1.36,0,1,0,0,2.71h7.19a3.73,3.73,0,0,1-3.66,3.11H72.18a1.36,1.36,0,0,0-1,2.29l7.34,7.73a1.36,1.36,0,1,0,2-1.82l0,0-5.16-5.45h.43a6.44,6.44,0,0,0,6.4-5.82h.65a1.36,1.36,0,1,0,0-2.71Z"/><path class="cls-3" d="M13.38,67.45l2.38-.1-1-2.27,1.58-.45.49,2.14,1.67-1.72,1,1.33-1.84,1.3,2.12.57-.53,1.62L17.1,68.75l.16,2.18H15.63l.31-2.43-2.31.62Z"/><path class="cls-3" d="M69.18,12.73l.11,2.39,2.27-1L72,15.64l-2.14.5,1.72,1.66-1.32,1L69,17l-.55,2.12-1.62-.51,1.1-2.12-2.18.18V15l2.43.29L67.51,13Z"/><path class="cls-3" d="M133.59,48.55l.12,2.39,2.26-1,.47,1.57L134.3,52,136,53.63l-1.33,1-1.31-1.83-.55,2.12-1.62-.52,1.1-2.11-2.18.18V50.84l2.43.29-.64-2.31Z"/><path class="cls-3" d="M118.59,117.73l.12,2.39,2.26-1.05.47,1.57-2.14.5L121,122.8l-1.33,1L118.39,122l-.55,2.12-1.62-.51,1.1-2.12-2.18.18V120l2.43.29-.64-2.3Z"/><path class="cls-3" d="M49.06,127.79l.12,2.39,2.26-1.05.47,1.57-2.14.5,1.73,1.66-1.33,1L48.86,132l-.55,2.12-1.62-.51,1.1-2.12-2.18.18v-1.63l2.43.29-.64-2.3Z"/><text class="cls-5" transform="translate(82.58 21.22) rotate(9.77)">N</text><text class="cls-5" transform="matrix(0.96, 0.28, -0.28, 0.96, 91.72, 22.96)">I</text><text class="cls-5" transform="matrix(0.92, 0.39, -0.39, 0.92, 95.44, 23.91)">N</text><text class="cls-5" transform="matrix(0.85, 0.53, -0.53, 0.85, 103.91, 27.63)">9</text><text class="cls-5" transform="translate(110.19 31.63) rotate(37.43)">:</text><text class="cls-5" transform="matrix(0.74, 0.67, -0.67, 0.74, 113.25, 33.95)">1</text><text class="cls-5" transform="translate(116.86 37.07) rotate(48.29)">5</text><text class="cls-5" transform="translate(122.11 43.18) rotate(53.64)"> </text><text class="cls-5" transform="translate(123.61 45.22) rotate(56.21)"> </text><text class="cls-5" transform="matrix(0.52, 0.86, -0.86, 0.52, 125.04, 47.37)"> </text><text class="cls-5" transform="translate(126.35 49.55) rotate(61.44)"> </text><text class="cls-5" transform="translate(127.57 51.8) rotate(64.05)"> </text><text class="cls-5" transform="matrix(0.4, 0.92, -0.92, 0.4, 128.68, 54.1)"> </text><text class="cls-5" transform="translate(129.69 56.47) rotate(69.32)"> </text><text class="cls-5" transform="translate(130.6 58.87) rotate(71.95)"> </text><text class="cls-5" transform="matrix(0.27, 0.96, -0.96, 0.27, 131.39, 61.31)"> </text><text class="cls-5" transform="translate(132.06 63.79) rotate(77.22)"> </text><text class="cls-5" transform="matrix(0.12, 0.99, -0.99, 0.12, 132.77, 66.13)">N</text><text class="cls-5" transform="translate(133.68 75.36) rotate(89.07)">I</text><text class="cls-5" transform="matrix(-0.11, 0.99, -0.99, -0.11, 133.86, 79.24)">N</text><text class="cls-5" transform="matrix(-0.26, 0.97, -0.97, -0.26, 132.74, 88.43)">9</text><text class="cls-5" transform="translate(130.73 95.58) rotate(110.73)">:</text><text class="cls-5" transform="translate(129.39 99.15) rotate(115.16)">1</text><text class="cls-5" transform="translate(127.42 103.53) rotate(121.69)">5</text><text class="cls-5" transform="matrix(-0.6, 0.8, -0.8, -0.6, 123.09, 110.29)"> </text><text class="cls-5" transform="translate(121.55 112.32) rotate(129.62)"> </text><text class="cls-5" transform="translate(119.9 114.3) rotate(132.23)"> </text><text class="cls-5" transform="translate(118.17 116.2) rotate(134.83)"> </text><text class="cls-5" transform="translate(116.37 118) rotate(137.41)"> </text><text class="cls-5" transform="matrix(-0.77, 0.64, -0.64, -0.77, 114.49, 119.73)"> </text><text class="cls-5" transform="translate(112.51 121.38) rotate(142.61)"> </text><text class="cls-5" transform="matrix(-0.82, 0.57, -0.57, -0.82, 110.46, 122.94)"> </text><text class="cls-5" transform="translate(108.37 124.38) rotate(147.81)"> </text><text class="cls-5" transform="matrix(-0.9, 0.44, -0.44, -0.9, 106.37, 125.84)">N</text><text class="cls-5" transform="translate(97.96 129.79) rotate(160.55)">I</text><text class="cls-5" transform="translate(94.37 131.22) rotate(167.31)">N</text><text class="cls-5" transform="translate(85.34 133.17) rotate(175.76)">9</text><text class="cls-5" transform="translate(77.93 133.62) rotate(-178.62)">:</text><text class="cls-5" transform="matrix(-0.99, -0.1, 0.1, -0.99, 74.09, 133.54)">1</text><text class="cls-5" transform="translate(69.33 133.14) rotate(-167.72)">5</text><text class="cls-5" transform="translate(61.51 131.3) rotate(-162.32)"> </text><text class="cls-5" transform="translate(59.07 130.51) rotate(-159.69)"> </text><text class="cls-5" transform="translate(56.68 129.62) rotate(-157.07)"> </text><text class="cls-5" transform="matrix(-0.9, -0.43, 0.43, -0.9, 54.32, 128.62)"> </text><text class="cls-5" transform="translate(52 127.5) rotate(-151.81)"> </text><text class="cls-5" transform="matrix(-0.86, -0.51, 0.51, -0.86, 49.74, 126.28)"> </text><text class="cls-5" transform="matrix(-0.83, -0.55, 0.55, -0.83, 47.56, 124.98)"> </text><text class="cls-5" transform="translate(45.41 123.55) rotate(-143.98)"> </text><text class="cls-5" transform="matrix(-0.78, -0.62, 0.62, -0.78, 43.35, 122.05)"> </text><text class="cls-5" transform="translate(41.32 120.65) rotate(-135.43)">N</text><text class="cls-5" transform="translate(34.81 113.99) rotate(-128.76)">I</text><text class="cls-5" transform="translate(32.29 111.11) rotate(-122.1)">N</text><text class="cls-5" transform="translate(27.44 103.23) rotate(-113.63)">9</text><text class="cls-5" transform="translate(24.55 96.36) rotate(-107.85)">:</text><text class="cls-5" transform="translate(23.36 92.72) rotate(-103.4)">1</text><text class="cls-5" transform="translate(22.17 88.1) rotate(-96.88)">5</text><text class="cls-5" transform="translate(21.35 80.1) rotate(-91.56)"> </text><text class="cls-5" transform="translate(21.28 77.54) rotate(-89)"> </text><text class="cls-5" transform="translate(21.33 74.97) rotate(-86.42)"> </text><text class="cls-5" transform="translate(21.5 72.43) rotate(-83.84)"> </text><text class="cls-5" transform="translate(21.78 69.87) rotate(-81.22)"> </text><text class="cls-5" transform="translate(22.17 67.36) rotate(-78.61)"> </text><text class="cls-5" transform="translate(22.69 64.83) rotate(-75.97)"> </text><text class="cls-5" transform="translate(23.32 62.35) rotate(-73.34)"> </text><text class="cls-5" transform="translate(24.06 59.89) rotate(-70.71)"> </text><text class="cls-5" transform="translate(24.71 57.52) rotate(-64.67)">N</text><text class="cls-5" transform="translate(28.83 49.2) rotate(-57.98)">I</text><text class="cls-5" transform="matrix(0.63, -0.78, 0.78, 0.63, 30.74, 45.86)">N</text><text class="cls-5" transform="translate(36.59 38.67) rotate(-42.89)">9</text><text class="cls-5" transform="matrix(0.8, -0.6, 0.6, 0.8, 42.11, 33.69)">:</text><text class="cls-5" transform="matrix(0.84, -0.54, 0.54, 0.84, 45.15, 31.36)">1</text><text class="cls-5" transform="translate(49.13 28.7) rotate(-26.27)">5</text></svg>