<svg id="fi_2769400" height="512" viewBox="0 0 48 48" width="512" xmlns="http://www.w3.org/2000/svg" data-name="Layer 1 copy 2"><g fill="rgb(0,0,0)"><path d="m29.583 17.405h-1.078a7.093 7.093 0 0 0 -.914-1.776h1.992a1.5 1.5 0 0 0 0-3h-7.625c-.055 0-.108-.008-.164-.008h-3.967a1.5 1.5 0 0 0 0 3h3.967a4.1 4.1 0 0 1 3.383 1.784h-7.288a1.5 1.5 0 1 0 0 3h7.945a4.105 4.105 0 0 1 -4.04 3.432h-3.967a1.5 1.5 0 0 0 -1.088 2.532l8.11 8.55a1.5 1.5 0 1 0 2.176-2.064l-5.708-6.018h.477a7.117 7.117 0 0 0 7.075-6.432h.714a1.5 1.5 0 0 0 0-3z"></path><path d="m24 48a24 24 0 1 1 14.11-43.416 1.5 1.5 0 0 1 -1.765 2.426 20.972 20.972 0 1 0 6.139 7.014 1.5 1.5 0 0 1 2.639-1.424 24.007 24.007 0 0 1 -21.123 35.4z"></path><path d="m41.121 10.9a1.5 1.5 0 0 1 -1.141-.524l-.27-.311a1.5 1.5 0 1 1 2.242-1.993l.308.353a1.5 1.5 0 0 1 -1.139 2.475z"></path></g></svg>