<svg id="Layer_1" data-name="Layer 1" xmlns="http://www.w3.org/2000/svg" viewBox="0 0 200 200"><defs><style>.cls-1{fill:none;}.cls-2,.cls-4{fill:#cf0234;}.cls-2{stroke:#fff;stroke-width:2.54px;}.cls-3,.cls-5{fill:#fff;}.cls-5{font-size:20.31px;font-family:Poppins-Bold, Poppins;font-weight:700;}</style></defs><rect class="cls-1" x="1.64" y="1.64" width="196.72" height="196.72"/><path class="cls-2" d="M99.5,196.38A96.46,96.46,0,1,0,3.05,99.93,96.45,96.45,0,0,0,99.5,196.38Z"/><path class="cls-3" d="M168.57,62l-3,.09,1.27,2.9-2,.55-.58-2.73L162.07,65l-1.24-1.7,2.36-1.61-2.67-.77.69-2,2.66,1.46-.17-2.77,2.07,0-.43,3.07,2.94-.75Z"/><path class="cls-3" d="M153.83,150.69l-.1-3-2.9,1.29-.56-2,2.72-.6-2.16-2.14,1.7-1.25,1.63,2.35.74-2.68,2,.68L155.51,146l2.77-.19,0,2.07-3.07-.41.76,2.93Z"/><path class="cls-3" d="M68.4,168.28l-.1-3-2.9,1.28-.56-2,2.72-.6-2.16-2.14,1.7-1.25,1.63,2.36.74-2.69,2,.69-1.44,2.66,2.77-.18,0,2.06L69.75,165l.77,2.94Z"/><path class="cls-3" d="M23.8,93.56l-.1-3-2.9,1.28-.56-2,2.72-.6L20.8,87.07l1.7-1.24,1.63,2.35.74-2.69,2.05.69-1.44,2.66,2.77-.18,0,2.06-3.08-.41.77,2.94Z"/><path class="cls-3" d="M85.69,19.93l.75,2.94L89,21l1,1.83L87.44,24,90,25.62,88.62,27.2l-2.09-1.94L86.38,28l-2.15-.23.83-2.91-2.66.78-.43-2,3.1-.26-1.39-2.7Z"/><path class="cls-3" d="M99.5,150.69A50.77,50.77,0,1,0,48.74,99.93,50.77,50.77,0,0,0,99.5,150.69Z"/><path class="cls-4" d="M99.5,74.54A25.44,25.44,0,1,0,117.44,82,25.39,25.39,0,0,0,99.5,74.54Zm0,47.08a21.71,21.71,0,1,1,15.34-6.36A21.72,21.72,0,0,1,99.5,121.62Z"/><path class="cls-4" d="M107.13,92.53h-1.32a8.59,8.59,0,0,0-1.12-2.17h2.44a1.84,1.84,0,0,0,1.3-3.14,1.85,1.85,0,0,0-1.3-.54H92.73a1.84,1.84,0,0,0-1.3,3.14,1.81,1.81,0,0,0,1.3.54h4.86a5,5,0,0,1,4.14,2.18H92.81a1.85,1.85,0,0,0-1.3.54,1.84,1.84,0,0,0,1.3,3.14h9.73a5.05,5.05,0,0,1-1.71,3,5,5,0,0,1-3.24,1.19H92.73a1.82,1.82,0,0,0-1,.31,1.83,1.83,0,0,0-.8,1.85,1.8,1.8,0,0,0,.48,1L101.33,114a1.91,1.91,0,0,0,.59.43,1.72,1.72,0,0,0,.7.17,1.94,1.94,0,0,0,.72-.11,1.91,1.91,0,0,0,.62-.39,1.87,1.87,0,0,0,.42-.59,1.79,1.79,0,0,0,.15-.72,1.75,1.75,0,0,0-.13-.71,1.9,1.9,0,0,0-.4-.61l-7-7.37h.58a8.74,8.74,0,0,0,8.67-7.88h.87a1.84,1.84,0,0,0,1.3-3.14A1.85,1.85,0,0,0,107.13,92.53Z"/><text class="cls-5" transform="matrix(0.99, 0.1, -0.1, 0.99, 99.22, 31.17)">U</text><text class="cls-5" transform="translate(112.82 32.58) rotate(16.88)">S</text><text class="cls-5" transform="matrix(0.89, 0.46, -0.46, 0.89, 124.21, 35.97)">P</text><text class="cls-5" transform="matrix(0.77, 0.64, -0.64, 0.77, 135.08, 41.11)">M</text><text class="cls-5" transform="matrix(0.65, 0.76, -0.76, 0.65, 148.53, 53.14)"> </text><text class="cls-5" transform="translate(151.18 56.22) rotate(52.93)"> </text><text class="cls-5" transform="translate(153.65 59.48) rotate(56.45)"> </text><text class="cls-5" transform="matrix(0.5, 0.87, -0.87, 0.5, 155.91, 62.88)"> </text><text class="cls-5" transform="translate(157.95 66.39) rotate(63.49)"> </text><text class="cls-5" transform="matrix(0.39, 0.92, -0.92, 0.39, 159.78, 70.04)"> </text><text class="cls-5" transform="translate(161.38 73.79) rotate(70.58)"> </text><text class="cls-5" transform="translate(163.01 77.31) rotate(78.26)">U</text><text class="cls-5" transform="translate(165.74 90.69) rotate(89.07)">S</text><text class="cls-5" transform="translate(165.99 102.63) rotate(99.45)">P</text><text class="cls-5" transform="matrix(-0.38, 0.92, -0.92, -0.38, 164.43, 114.52)">M</text><text class="cls-5" transform="translate(157.07 130.98) rotate(121.8)"> </text><text class="cls-5" transform="matrix(-0.58, 0.82, -0.82, -0.58, 154.91, 134.47)"> </text><text class="cls-5" transform="translate(152.57 137.79) rotate(128.83)"> </text><text class="cls-5" transform="matrix(-0.67, 0.74, -0.74, -0.67, 150.02, 140.97)"> </text><text class="cls-5" transform="translate(147.27 143.99) rotate(135.83)"> </text><text class="cls-5" transform="translate(144.35 146.84) rotate(139.34)"> </text><text class="cls-5" transform="translate(141.28 149.49) rotate(142.82)"> </text><text class="cls-5" transform="translate(138.41 152.12) rotate(150.45)">U</text><text class="cls-5" transform="translate(126.49 158.85) rotate(161.5)">S</text><text class="cls-5" transform="translate(115.24 162.68) rotate(171.88)">P</text><text class="cls-5" transform="matrix(-1, -0.08, 0.08, -1, 103.4, 164.78)">M</text><text class="cls-5" transform="translate(85.46 162.79) rotate(-165.97)"> </text><text class="cls-5" transform="translate(81.51 161.81) rotate(-162.43)"> </text><text class="cls-5" transform="translate(77.63 160.59) rotate(-158.9)"> </text><text class="cls-5" transform="matrix(-0.91, -0.42, 0.42, -0.91, 73.81, 159.13)"> </text><text class="cls-5" transform="matrix(-0.88, -0.47, 0.47, -0.88, 70.11, 157.43)"> </text><text class="cls-5" transform="matrix(-0.85, -0.53, 0.53, -0.85, 66.5, 155.51)"> </text><text class="cls-5" transform="matrix(-0.82, -0.58, 0.58, -0.82, 63.04, 153.38)"> </text><text class="cls-5" transform="matrix(-0.73, -0.68, 0.68, -0.73, 59.67, 151.44)">U</text><text class="cls-5" transform="matrix(-0.59, -0.81, 0.81, -0.59, 49.66, 142.13)">S</text><text class="cls-5" transform="translate(42.57 132.56) rotate(-115.92)">P</text><text class="cls-5" transform="translate(36.95 121.96) rotate(-103)">M</text><text class="cls-5" transform="matrix(-0.06, -1, 1, -0.06, 33.42, 104.25)"> </text><text class="cls-5" transform="matrix(-0.02, -1, 1, -0.02, 33.19, 100.18)"> </text><text class="cls-5" transform="translate(33.14 96.1) rotate(-86.64)"> </text><text class="cls-5" transform="matrix(0.12, -0.99, 0.99, 0.12, 33.37, 92.05)"> </text><text class="cls-5" transform="translate(33.85 87.99) rotate(-79.63)"> </text><text class="cls-5" transform="translate(34.58 83.98) rotate(-76.08)"> </text><text class="cls-5" transform="matrix(0.3, -0.95, 0.95, 0.3, 35.55, 80.03)"> </text><text class="cls-5" transform="translate(36.37 76.23) rotate(-64.86)">U</text><text class="cls-5" transform="translate(42.21 63.84) rotate(-53.85)">S</text><text class="cls-5" transform="matrix(0.72, -0.69, 0.69, 0.72, 49.17, 54.2)">P</text><text class="cls-5" transform="translate(57.58 45.63) rotate(-30.79)">M</text><text class="cls-5" transform="translate(73.36 36.86) rotate(-21.34)"> </text></svg>