<svg width="500" height="500" viewBox="0 0 500 500" fill="none" xmlns="http://www.w3.org/2000/svg">
<path d="M347 29.4996C321.7 43.9996 303.9 68.2996 282.2 87.8996C255.5 112 222.4 129 187.2 136.6C158.3 142.9 127.9 143 100 152.8C45.6004 171.9 8.20041 228.6 7.20041 286.3C6.20041 344 39.1004 399.9 87.3004 431.6C103.7 442.4 121.7 450.6 140.6 455.9C176.1 465.9 213.7 465.4 250.4 461.6C313.7 455 380.1 419 420.1 368.3C437.9 345.7 452.9 320.9 464.9 294.7C484.6 251.7 496 204.9 498 157.7C499.7 117.1 498 72.0996 465.8 42.4996C433.7 13.0996 384.8 7.89964 347 29.4996Z" fill="#2F352B" stroke="black" stroke-miterlimit="10"/>
<path opacity="0.9" d="M347 29.4996C321.7 43.9996 303.9 68.2996 282.2 87.8996C255.5 112 222.4 129 187.2 136.6C158.3 142.9 127.9 143 100 152.8C45.6004 171.9 8.20041 228.6 7.20041 286.3C6.20041 344 39.1004 399.9 87.3004 431.6C103.7 442.4 121.7 450.6 140.6 455.9C176.1 465.9 213.7 465.4 250.4 461.6C313.7 455 380.1 419 420.1 368.3C437.9 345.7 452.9 320.9 464.9 294.7C484.6 251.7 496 204.9 498 157.7C499.7 117.1 498 72.0996 465.8 42.4996C433.7 13.0996 384.8 7.89964 347 29.4996Z" fill="white" stroke="black" stroke-miterlimit="10"/>
<path d="M280.5 494.2C395.375 494.2 488.5 469.128 488.5 438.2C488.5 407.272 395.375 382.2 280.5 382.2C165.625 382.2 72.5 407.272 72.5 438.2C72.5 469.128 165.625 494.2 280.5 494.2Z" fill="#2F352B" stroke="black" stroke-miterlimit="10"/>
<path d="M280.5 494.2C395.375 494.2 488.5 469.128 488.5 438.2C488.5 407.272 395.375 382.2 280.5 382.2C165.625 382.2 72.5 407.272 72.5 438.2C72.5 469.128 165.625 494.2 280.5 494.2Z" fill="#474747" stroke="black" stroke-miterlimit="10"/>
<path d="M316.2 44.9996V182C316.2 187.7 311.6 192.4 305.8 192.4H61.3004C55.6004 192.4 50.9004 187.8 50.9004 182V44.9996C50.9004 39.2996 55.5004 34.5996 61.3004 34.5996H305.8C311.5 34.6996 316.2 39.2996 316.2 44.9996Z" fill="white" stroke="black" stroke-miterlimit="10"/>
<path d="M316.2 44.9996V49.0996H50.9004V44.9996C50.9004 39.2996 55.5004 34.5996 61.3004 34.5996H305.8C311.5 34.6996 316.2 39.2996 316.2 44.9996Z" fill="#018957" stroke="#1A2E35" stroke-width="1.1596" stroke-miterlimit="10"/>
<path d="M316.2 44.9996V182C316.2 187.7 311.6 192.4 305.8 192.4H61.3004C55.6004 192.4 50.9004 187.8 50.9004 182V44.9996C50.9004 39.2996 55.5004 34.5996 61.3004 34.5996H305.8C311.5 34.6996 316.2 39.2996 316.2 44.9996Z" stroke="#1A2E35" stroke-width="1.1596" stroke-miterlimit="10" stroke-linecap="round" stroke-linejoin="round"/>
<path d="M316.2 44.9996V49.0996H50.9004V44.9996C50.9004 39.2996 55.5004 34.5996 61.3004 34.5996H305.8C311.5 34.6996 316.2 39.2996 316.2 44.9996Z" stroke="#1A2E35" stroke-width="1.1596" stroke-miterlimit="10" stroke-linecap="round" stroke-linejoin="round"/>
<path d="M80.7005 41.8998C80.7005 43.3998 79.5005 44.4998 78.1005 44.4998C76.6005 44.4998 75.5005 43.2998 75.5005 41.8998C75.5005 40.3998 76.7005 39.2998 78.1005 39.2998C79.5005 39.2998 80.7005 40.4998 80.7005 41.8998Z" fill="#070707" stroke="black" stroke-miterlimit="10"/>
<path d="M94.6004 41.8998C94.6004 43.3998 93.4004 44.4998 92.0004 44.4998C90.5004 44.4998 89.4004 43.2998 89.4004 41.8998C89.4004 40.3998 90.6004 39.2998 92.0004 39.2998C93.4004 39.2998 94.6004 40.4998 94.6004 41.8998Z" fill="#070707" stroke="black" stroke-miterlimit="10"/>
<path d="M105.8 44.4998C107.236 44.4998 108.4 43.3357 108.4 41.8998C108.4 40.4639 107.236 39.2998 105.8 39.2998C104.364 39.2998 103.2 40.4639 103.2 41.8998C103.2 43.3357 104.364 44.4998 105.8 44.4998Z" fill="#070707" stroke="black" stroke-miterlimit="10"/>
<path d="M146.5 105.3H70.4002C68.4002 105.3 66.7002 103.6 66.7002 101.6V64.2996C66.7002 62.2996 68.4002 60.5996 70.4002 60.5996H146.6C148.6 60.5996 150.3 62.2996 150.3 64.2996V101.6C150.2 103.6 148.6 105.3 146.5 105.3Z" stroke="#1A2E35" stroke-width="1.1596" stroke-miterlimit="10" stroke-linecap="round" stroke-linejoin="round"/>
<path d="M71.6001 99.6992H144" stroke="#1A2E35" stroke-width="1.1596" stroke-miterlimit="10" stroke-linecap="round" stroke-linejoin="round"/>
<path d="M85.4 91.0996H77V99.4996H85.4V91.0996Z" fill="#018957" stroke="#1A2E35" stroke-width="1.1596" stroke-miterlimit="10"/>
<path d="M97.7003 80.0996H89.3003V99.6996H97.7003V80.0996Z" fill="#018957" stroke="#1A2E35" stroke-width="1.1596" stroke-miterlimit="10"/>
<path d="M111.5 83.5H103.1V99.9H111.5V83.5Z" fill="#018957" stroke="#1A2E35" stroke-width="1.1596" stroke-miterlimit="10"/>
<path d="M126.1 67.0996H117.7V99.2996H126.1V67.0996Z" fill="#018957" stroke="#1A2E35" stroke-width="1.1596" stroke-miterlimit="10"/>
<path d="M140.6 67.3994H132.2V99.5994H140.6V67.3994Z" fill="#018957" stroke="#1A2E35" stroke-width="1.1596" stroke-miterlimit="10"/>
<path d="M253.8 107.6C266.779 107.6 277.3 97.0783 277.3 84.0996C277.3 71.1209 266.779 60.5996 253.8 60.5996C240.822 60.5996 230.3 71.1209 230.3 84.0996C230.3 97.0783 240.822 107.6 253.8 107.6Z" fill="#018957" stroke="#1A2E35" stroke-width="1.1596" stroke-miterlimit="10"/>
<path opacity="0.3" d="M246.3 87.899L246.2 84.399L252.9 84.299C254.3 84.299 255.6 83.299 256.2 81.799L246.2 81.999L246.1 78.599L256.1 78.399C255.7 77.499 255 76.799 254.2 76.399C253.7 76.199 253.2 76.099 252.7 76.099L246 76.199L245.9 72.799L261.7 72.499L261.8 75.899L258.3 75.999C258.7 76.699 259.1 77.499 259.3 78.399H261.8L261.9 81.799H259.4C258.8 85.199 256.1 87.699 253 87.699H250.5L258.9 96.799L256.8 99.299L246.3 87.899Z" fill="black" stroke="black" stroke-miterlimit="10"/>
<path d="M261.5 72.7992L261.6 75.5992L257.9 75.6992C258.5 76.4992 258.9 77.4992 259.1 78.5992H261.6L261.7 81.3992H259.2C258.7 84.6992 256.1 87.2992 253 87.2992L249.9 87.3992L258.5 96.6992L256.7 98.6992L246.5 87.6992L246.4 84.5992L252.9 84.4992C254.6 84.4992 256 83.1992 256.5 81.4992L246.4 81.6992L246.3 78.8992L256.4 78.6992C256 77.5992 255.2 76.5992 254.2 76.1992C253.7 75.9992 253.2 75.7992 252.6 75.8992L246.1 75.9992L246 73.1992L261.5 72.7992ZM262.1 72.1992H261.6L246.3 72.4992H245.8V72.9992L245.9 75.7992V76.2992H246.4L252.9 76.1992C253.4 76.1992 253.8 76.2992 254.3 76.4992C255 76.7992 255.5 77.3992 255.9 77.9992L246.5 78.1992H246V78.6992L246.1 81.4992V81.9992H246.6L256 81.7992C255.4 82.9992 254.3 83.6992 253.1 83.6992L246.6 83.7992H246.1V84.2992L246.2 87.3992V87.5992L246.3 87.6992L256.5 98.6992L256.9 99.0992L257.3 98.5992L259.1 96.5992L259.4 96.1992L259.1 95.8992L251.3 87.4992H253.2C256.4 87.3992 259.1 84.9992 259.9 81.5992H262H262.5V81.0992L262.4 78.2992V77.7992H261.9H259.8C259.6 77.0992 259.4 76.4992 259.1 75.8992H261.9H262.4V75.3992L262.3 72.5992L262.1 72.1992Z" fill="#070707" stroke="black" stroke-miterlimit="10"/>
<path d="M64.7002 128.1H71.6002" stroke="#EC103C" stroke-width="1.1596" stroke-miterlimit="10" stroke-linecap="round" stroke-linejoin="round"/>
<path d="M64.7002 141.399H71.6002" stroke="#EC103C" stroke-width="1.1596" stroke-miterlimit="10" stroke-linecap="round" stroke-linejoin="round"/>
<path d="M64.7002 154.6H71.6002" stroke="#EC103C" stroke-width="1.1596" stroke-miterlimit="10" stroke-linecap="round" stroke-linejoin="round"/>
<path d="M64.7002 167.899H71.6002" stroke="#EC103C" stroke-width="1.1596" stroke-miterlimit="10" stroke-linecap="round" stroke-linejoin="round"/>
<path d="M86.7002 177.9V172.6" stroke="#EC103C" stroke-width="1.1596" stroke-miterlimit="10" stroke-linecap="round" stroke-linejoin="round"/>
<path d="M97.6001 177.9V172.6" stroke="#EC103C" stroke-width="1.1596" stroke-miterlimit="10" stroke-linecap="round" stroke-linejoin="round"/>
<path d="M108.5 177.9V172.6" stroke="#EC103C" stroke-width="1.1596" stroke-miterlimit="10" stroke-linecap="round" stroke-linejoin="round"/>
<path d="M119.4 177.9V172.6" stroke="#EC103C" stroke-width="1.1596" stroke-miterlimit="10" stroke-linecap="round" stroke-linejoin="round"/>
<path d="M130.2 177.9V172.6" stroke="#EC103C" stroke-width="1.1596" stroke-miterlimit="10" stroke-linecap="round" stroke-linejoin="round"/>
<path d="M141.1 177.9V172.6" stroke="#EC103C" stroke-width="1.1596" stroke-miterlimit="10" stroke-linecap="round" stroke-linejoin="round"/>
<path d="M152 177.9V172.6" stroke="#EC103C" stroke-width="1.1596" stroke-miterlimit="10" stroke-linecap="round" stroke-linejoin="round"/>
<path d="M162.9 177.9V172.6" stroke="#EC103C" stroke-width="1.1596" stroke-miterlimit="10" stroke-linecap="round" stroke-linejoin="round"/>
<path d="M173.8 177.9V172.6" stroke="#EC103C" stroke-width="1.1596" stroke-miterlimit="10" stroke-linecap="round" stroke-linejoin="round"/>
<path d="M184.6 177.9V172.6" stroke="#EC103C" stroke-width="1.1596" stroke-miterlimit="10" stroke-linecap="round" stroke-linejoin="round"/>
<path d="M195.5 177.9V172.6" stroke="#EC103C" stroke-width="1.1596" stroke-miterlimit="10" stroke-linecap="round" stroke-linejoin="round"/>
<path d="M206.4 177.9V172.6" stroke="#EC103C" stroke-width="1.1596" stroke-miterlimit="10" stroke-linecap="round" stroke-linejoin="round"/>
<path d="M217.3 177.9V172.6" stroke="#EC103C" stroke-width="1.1596" stroke-miterlimit="10" stroke-linecap="round" stroke-linejoin="round"/>
<path d="M228.2 177.9V172.6" stroke="#EC103C" stroke-width="1.1596" stroke-miterlimit="10" stroke-linecap="round" stroke-linejoin="round"/>
<path d="M239 177.9V172.6" stroke="#EC103C" stroke-width="1.1596" stroke-miterlimit="10" stroke-linecap="round" stroke-linejoin="round"/>
<path d="M249.5 177.9V172.6" stroke="#EC103C" stroke-width="1.1596" stroke-miterlimit="10" stroke-linecap="round" stroke-linejoin="round"/>
<path d="M260 177.9V172.6" stroke="#EC103C" stroke-width="1.1596" stroke-miterlimit="10" stroke-linecap="round" stroke-linejoin="round"/>
<path d="M270.4 177.9V172.6" stroke="#EC103C" stroke-width="1.1596" stroke-miterlimit="10" stroke-linecap="round" stroke-linejoin="round"/>
<path d="M298.1 120V171.6C298.1 175.1 294.5 178 290.1 178H72.7002C69.8002 178 67.2002 176.7 65.8002 174.8C65.1002 173.9 64.7002 172.7 64.7002 171.6V120C64.7002 116.5 68.3002 113.6 72.7002 113.6H290.1C294.5 113.6 298.1 116.4 298.1 120Z" stroke="#2F352B" stroke-width="1.1596" stroke-miterlimit="10"/>
<path d="M232 20.0996L162.6 113.6L136.1 149.3L107.1 130.8L71.6001 177.9H71.1001C68.8001 177.9 66.7001 176.6 65.6001 174.7L105.5 121.8L134.5 140.2L154.3 113.5L226.6 16.0996L232 20.0996Z" fill="#EC103C" stroke="black" stroke-miterlimit="10"/>
<path d="M214.4 21.2998L239.9 5.7998L232.8 32.5998L228.3 20.1998L214.4 21.2998Z" fill="#EC103C" stroke="black" stroke-miterlimit="10"/>
<path d="M455.7 315.6H47.9002L2.2002 356.2" stroke="#1A2E35" stroke-width="1.1596" stroke-miterlimit="10" stroke-linecap="round" stroke-linejoin="round"/>
<path d="M48.1001 287.1V208.1" stroke="#1A2E35" stroke-width="1.1596" stroke-miterlimit="10" stroke-linecap="round" stroke-linejoin="round"/>
<path d="M48.1001 310.999V295.699" stroke="#1A2E35" stroke-width="1.1596" stroke-miterlimit="10" stroke-linecap="round" stroke-linejoin="round"/>
<path d="M431.2 123.3C431.2 123.3 431.2 118.5 424.5 111.8C417.8 105.1 413.5 101.3 413.5 101.3C413.5 101.3 410.2 112.3 416.4 119C421 123.7 425.9 128 431.2 131.9V123.3Z" fill="#018957" stroke="black" stroke-miterlimit="10"/>
<path d="M421.5 153.1C421.5 153.1 421.5 148.3 414.8 141.6C408.1 134.9 403.8 131.1 403.8 131.1C403.8 131.1 400.5 142.1 406.7 148.8C411.3 153.5 416.2 157.8 421.5 161.7V153.1Z" fill="#018957" stroke="black" stroke-miterlimit="10"/>
<path d="M430.7 131.399C430.7 131.399 431.2 126.599 438.6 120.699C446 114.799 450.6 111.399 450.6 111.399C450.6 111.399 452.8 122.699 445.9 128.699C440.9 132.899 435.5 136.699 429.8 139.999L430.7 131.399Z" fill="#018957" stroke="black" stroke-miterlimit="10"/>
<path d="M419 166.699C419 166.699 420 161.999 427.9 156.899C435.8 151.799 440.8 148.899 440.8 148.899C440.8 148.899 441.8 160.299 434.3 165.599C428.8 169.199 423.1 172.399 417.1 175.099L419 166.699Z" fill="#018957" stroke="black" stroke-miterlimit="10"/>
<path d="M421.2 205.1C421.2 205.1 421.2 200.3 427.9 193.6C434.6 186.9 438.9 183.1 438.9 183.1C438.9 183.1 442.2 194.1 436 200.8C431.4 205.5 426.5 209.8 421.2 213.7V205.1Z" fill="#018957" stroke="black" stroke-miterlimit="10"/>
<path d="M421.1 214.4C421.1 214.4 421.8 209.7 416.1 202.1C410.4 194.5 406.7 190.1 406.7 190.1C406.7 190.1 401.9 200.5 407 208C410.9 213.3 415.1 218.3 419.8 222.9L421.1 214.4Z" fill="#018957" stroke="black" stroke-miterlimit="10"/>
<path d="M414.5 242.2C414.5 242.2 414.5 237.4 421.2 230.7C427.9 224 432.2 220.2 432.2 220.2C432.2 220.2 435.5 231.2 429.3 237.9C424.7 242.6 419.8 246.9 414.5 250.8V242.2Z" fill="#018957" stroke="black" stroke-miterlimit="10"/>
<path d="M419 267.4C419 267.4 417.8 262.8 422.6 254.6C427.4 246.4 430.6 241.7 430.6 241.7C430.6 241.7 436.6 251.5 432.3 259.5C429.1 265.2 425.4 270.6 421.2 275.7L419 267.4Z" fill="#018957" stroke="black" stroke-miterlimit="10"/>
<path d="M431.8 122.1C431.5 127.1 430.8 132 430 136.9C427.4 150.6 420.7 159.4 418.1 171.7C415.5 184 423 199.9 421 215.8C419 231.6 412.8 240.5 414.5 251C416.2 261.6 425.5 290.2 425.5 290.2" stroke="#0C0C0C" stroke-width="1.1596" stroke-linecap="round" stroke-linejoin="round"/>
<path d="M430.7 134.6L437.9 129.1" stroke="#018957" stroke-width="1.3655" stroke-linecap="round" stroke-linejoin="round"/>
<path d="M431 128.199L428 122.899" stroke="#0C0C0C" stroke-width="1.1596" stroke-linecap="round" stroke-linejoin="round"/>
<path d="M418.4 171.1C418.4 171.1 424.4 166.6 430.6 162.1" stroke="#0C0C0C" stroke-width="1.1596" stroke-linecap="round" stroke-linejoin="round"/>
<path d="M421.5 161.7C421.5 161.7 416.5 151.8 410.8 145.3" stroke="#018957" stroke-width="1.3655" stroke-linecap="round" stroke-linejoin="round"/>
<path d="M421.5 211.9C425 205.6 429.3 199.7 434.4 194.6" stroke="#0C0C0C" stroke-width="1.1596" stroke-linecap="round" stroke-linejoin="round"/>
<path d="M420.3 218.6C418.5 214.3 416.3 210.1 413.8 206.2C410.3 201 409.8 200.3 409.8 200.3" stroke="#0C0C0C" stroke-width="1.1596" stroke-linecap="round" stroke-linejoin="round"/>
<path d="M414.5 251C416 247.2 417.8 243.5 419.9 240C422 236.7 424.3 233.7 426.9 230.8" stroke="#0C0C0C" stroke-width="1.1596" stroke-linecap="round" stroke-linejoin="round"/>
<path d="M421.2 275.699C421.2 275.699 420.5 269.999 423 265.099C425.5 260.199 428.4 253.899 429.5 251.399" stroke="#0C0C0C" stroke-width="1.1596" stroke-linecap="round" stroke-linejoin="round"/>
<path d="M387.4 187.099C387.4 187.099 386.9 184.099 390.3 179.199C393.8 174.299 396 171.399 396 171.399C396 171.399 399.3 177.899 396.1 182.799C393.7 186.199 391.1 189.499 388.2 192.499L387.4 187.099Z" fill="#018957" stroke="black" stroke-miterlimit="10"/>
<path d="M396.7 204.8C396.7 204.8 396.2 201.8 399.6 196.9C403.1 192 405.4 189.1 405.4 189.1C405.4 189.1 408.7 195.6 405.5 200.5C403.1 203.9 400.5 207.2 397.6 210.2L396.7 204.8Z" fill="#018957" stroke="black" stroke-miterlimit="10"/>
<path d="M388.5 192.199C388.5 192.199 387.7 189.299 382.4 186.399C377.1 183.499 373.8 181.899 373.8 181.899C373.8 181.899 373.7 189.199 378.6 192.199C382.2 194.299 386 196.099 389.9 197.499L388.5 192.199Z" fill="#018957" stroke="black" stroke-miterlimit="10"/>
<path d="M399.7 213C399.7 213 398.6 210.2 393 207.8C387.5 205.4 384 204.2 384 204.2C384 204.2 384.6 211.5 389.9 214C393.7 215.7 397.7 217.1 401.7 218.1L399.7 213Z" fill="#018957" stroke="black" stroke-miterlimit="10"/>
<path d="M402.5 237.299C402.5 237.299 402 234.299 397.1 230.799C392.2 227.299 389.1 225.399 389.1 225.399C389.1 225.399 388.2 232.699 392.8 236.199C396.2 238.599 399.7 240.799 403.5 242.699L402.5 237.299Z" fill="#018957" stroke="black" stroke-miterlimit="10"/>
<path d="M403.6 243.2C403.6 243.2 402.7 240.3 405.4 235C408.1 229.6 410 226.5 410 226.5C410 226.5 414.2 232.5 411.7 237.8C409.8 241.5 407.7 245.1 405.2 248.5L403.6 243.2Z" fill="#018957" stroke="black" stroke-miterlimit="10"/>
<path d="M412 267.3C412 267.3 412.3 264.3 417.1 260.5C421.8 256.8 424.8 254.7 424.8 254.7C424.8 254.7 426.1 261.9 421.7 265.7C418.5 268.3 415 270.7 411.4 272.8L412 267.3Z" fill="#018957" stroke="black" stroke-miterlimit="10"/>
<path d="M410.7 259.9C410.7 259.9 410.2 256.9 405.3 253.4C400.4 249.9 397.3 248 397.3 248C397.3 248 396.4 255.3 401 258.8C404.4 261.3 408 263.4 411.7 265.3L410.7 259.9Z" fill="#018957" stroke="black" stroke-miterlimit="10"/>
<path d="M410.6 276.2C410.6 276.2 410.9 273.2 407 268.6C403.1 264 400.6 261.3 400.6 261.3C400.6 261.3 397.9 268.1 401.5 272.7C404.1 275.9 407.1 278.9 410.2 281.7L410.6 276.2Z" fill="#018957" stroke="black" stroke-miterlimit="10"/>
<path d="M386.9 186.399C387.7 189.499 388.6 192.499 389.7 195.499C392.8 203.799 397.9 208.599 400.9 215.999C403.9 223.399 400.9 234.199 403.9 243.899C406.9 253.599 411.7 258.399 411.8 265.299C411.8 272.199 409.2 291.099 409.2 291.099" stroke="#0C0C0C" stroke-width="1.1596" stroke-linecap="round" stroke-linejoin="round"/>
<path d="M388.9 194.1L383.8 191.5" stroke="#0C0C0C" stroke-width="1.1596" stroke-linecap="round" stroke-linejoin="round"/>
<path d="M388 190.2L389.3 186.5" stroke="#0C0C0C" stroke-width="1.1596" stroke-linecap="round" stroke-linejoin="round"/>
<path d="M400.5 215.699C400.5 215.699 396.2 213.499 391.8 211.399" stroke="#0C0C0C" stroke-width="1.1596" stroke-linecap="round" stroke-linejoin="round"/>
<path d="M397.6 210.2C398.9 206.2 400.5 202.4 402.5 198.8" stroke="#0C0C0C" stroke-width="1.1596" stroke-linecap="round" stroke-linejoin="round"/>
<path d="M403.1 241.6C400.3 238 396.9 234.8 393.1 232.2" stroke="#0C0C0C" stroke-width="1.1596" stroke-linecap="round" stroke-linejoin="round"/>
<path d="M404.5 245.7C405.2 242.8 406.1 240 407.2 237.2C408.8 233.6 409.1 233.1 409.1 233.1" stroke="#0C0C0C" stroke-width="1.1596" stroke-linecap="round" stroke-linejoin="round"/>
<path d="M411.4 270.5C411.4 270.5 414.8 266.3 416.9 264.8C418.2 263.9 419.4 262.8 420.5 261.7" stroke="#0C0C0C" stroke-width="1.1596" stroke-linecap="round" stroke-linejoin="round"/>
<path d="M411.7 265.4C410.3 263.2 408.8 261.1 407.1 259.1C405.4 257.3 403.6 255.6 401.7 254.1" stroke="#0C0C0C" stroke-width="1.1596" stroke-linecap="round" stroke-linejoin="round"/>
<path d="M410.2 281.6C410 279.3 409.2 277 407.9 275.1C405.8 272.3 403.3 268.6 402.3 267.2" stroke="#0C0C0C" stroke-width="1.1596" stroke-linecap="round" stroke-linejoin="round"/>
<path d="M432.5 323.8H402C400.7 323.8 399.7 322.8 399.7 321.5L395.3 287.8H439L434.6 321.5C434.7 322.8 433.7 323.8 432.5 323.8Z" fill="#018957" stroke="black" stroke-miterlimit="10"/>
<path d="M438.7 293.6H395.4C393.5 293.6 392 292.1 392 290.2C392 288.3 393.5 286.8 395.4 286.8H438.7C440.6 286.8 442.1 288.3 442.1 290.2C442.1 292 440.6 293.6 438.7 293.6Z" fill="#018957" stroke="black" stroke-miterlimit="10"/>
<path d="M341 158.8C341 178.8 327.1 195.5 308.4 199.8H308.3C307.2 200 306.1 200.3 305 200.4C303 200.7 301 200.8 299 200.8C275.7 200.8 256.9 181.9 256.9 158.7C256.9 136 274.9 117.4 297.5 116.6C297.9 116.6 298.3 116.6 298.7 116.6C298.8 116.6 298.9 116.6 299.1 116.6C299.2 116.6 299.4 116.6 299.5 116.6C305.4 116.6 310.9 117.9 316 120.1C330.6 126.7 341 141.5 341 158.8Z" fill="#018957"/>
<path opacity="0.4" d="M315.8 120.2C267.2 117.7 266.9 171.6 266.9 171.6C266.9 171.6 259.5 154 271.6 134.5C278.4 123.6 290.2 118.8 299.3 116.6C305.2 116.7 310.7 118 315.8 120.2Z" fill="white" stroke="black" stroke-miterlimit="10"/>
<path d="M341 158.799C341 178.799 327 195.599 308.3 199.799C305.3 200.499 302.2 200.899 298.9 200.899C275.6 200.899 256.8 181.999 256.8 158.799C256.8 136.099 274.8 117.499 297.4 116.699C297.9 116.699 298.4 116.699 298.9 116.699C322.1 116.699 341 135.499 341 158.799Z" stroke="#1A2E35" stroke-width="1.1596" stroke-miterlimit="10" stroke-linecap="round" stroke-linejoin="round"/>
<path d="M341 158.799C341 178.799 327 195.599 308.3 199.799C307.8 199.799 307.3 199.799 306.8 199.799C283.5 199.799 264.7 180.899 264.7 157.699C264.7 137.699 278.7 120.899 297.4 116.699C297.9 116.699 298.4 116.699 298.9 116.699C322.1 116.699 341 135.499 341 158.799Z" stroke="#1A2E35" stroke-width="1.1596" stroke-miterlimit="10" stroke-linecap="round" stroke-linejoin="round"/>
<path d="M277.4 195L286.3 194.6" stroke="#1A2E35" stroke-width="1.1596" stroke-miterlimit="10" stroke-linecap="round" stroke-linejoin="round"/>
<path d="M273.1 191.999L280.8 191.399" stroke="#1A2E35" stroke-width="1.1596" stroke-miterlimit="10" stroke-linecap="round" stroke-linejoin="round"/>
<path d="M269.6 188.899L277.4 188.199" stroke="#1A2E35" stroke-width="1.1596" stroke-miterlimit="10" stroke-linecap="round" stroke-linejoin="round"/>
<path d="M268.5 129.6H275.201" stroke="#1A2E35" stroke-width="1.1596" stroke-miterlimit="10" stroke-linecap="round" stroke-linejoin="round"/>
<path d="M271.8 126.499L278.4 126.199" stroke="#1A2E35" stroke-width="1.1596" stroke-miterlimit="10" stroke-linecap="round" stroke-linejoin="round"/>
<path d="M276 123.4L282.9 122.8" stroke="#1A2E35" stroke-width="1.1596" stroke-miterlimit="10" stroke-linecap="round" stroke-linejoin="round"/>
<path opacity="0.3" d="M308.4 199.799H308.3C305.3 200.499 302.2 200.899 298.9 200.899C275.6 200.899 256.8 181.999 256.8 158.799C256.8 136.099 274.8 117.499 297.4 116.699C297.8 116.699 298.2 116.699 298.6 116.699C288.3 119.899 271.1 128.199 266.5 145.499C259.9 169.899 274.6 197.699 308.4 199.799Z" fill="black" stroke="black" stroke-miterlimit="10"/>
<path opacity="0.1" d="M341 158.799C341 178.799 327.1 195.499 308.4 199.799H308.3C307.2 199.999 306.1 200.299 305 200.399L315.9 120.199C330.6 126.699 341 141.499 341 158.799Z" fill="black" stroke="black" stroke-miterlimit="10"/>
<path opacity="0.3" d="M296.6 169.9L293.8 164.2L304.7 158.7C307 157.5 308.4 154.9 308.1 152.1L291.8 160.3L289.1 154.8L305.4 146.6C304.1 145.4 302.4 144.7 300.7 144.7C299.8 144.7 298.9 144.9 298 145.3L287.1 150.8L284.4 145.3L310.1 132.5L312.8 138L307.2 140.8C308.5 141.6 309.7 142.7 310.7 144L314.8 141.9L317.5 147.4L313.4 149.5C315 155.6 312.5 161.7 307.4 164.3L303.3 166.3L324.2 174.6L322.6 180.3L296.6 169.9Z" fill="black" stroke="black" stroke-miterlimit="10"/>
<path d="M309.8 133.1L312.1 137.7L306.1 140.7C307.7 141.6 309.2 142.9 310.4 144.5L314.5 142.5L316.8 147.1L312.7 149.1C314.4 155 312.2 161.1 307.1 163.7L302.1 166.2L323.6 174.7L322.3 179.4L296.9 169.3L294.4 164.2L304.9 159C307.7 157.6 309 154.4 308.5 151.2L292 159.4L289.7 154.8L306.2 146.6C304.7 145 302.7 144.1 300.7 144.1C299.7 144.1 298.7 144.3 297.8 144.8L287.3 150L285 145.4L309.8 133.1ZM310.3 131.8L309.4 132.2L284.5 144.6L283.6 145L284 145.9L286.3 150.5L286.7 151.4L287.6 151L298.1 145.8C298.9 145.4 299.7 145.2 300.6 145.2C301.9 145.2 303.3 145.7 304.4 146.5L289.2 154.1L288.3 154.5L288.7 155.4L291 160L291.4 160.9L292.3 160.5L307.5 152.9C307.5 155.3 306.3 157.3 304.3 158.3L293.8 163.5L292.9 163.9L293.3 164.8L295.8 169.9L296 170.2L296.3 170.3L321.7 180.4L322.7 180.8L323 179.8L324.3 175.1L324.5 174.3L324 174L304.5 166.3L307.6 164.7C312.8 162.1 315.4 155.9 313.9 149.8L317.2 148.1L318.1 147.7L317.7 146.8L315.4 142.2L315 141.3L314.1 141.7L310.7 143.4C309.9 142.5 309 141.6 308 140.9L312.5 138.7L313.4 138.3L313 137.4L310.7 132.8L310.3 131.8Z" fill="#070707" stroke="black" stroke-miterlimit="10"/>
<path d="M364.9 92.4996C357.9 102.4 345.1 105.8 334.4 101.4C334.4 101.4 334.3 101.4 334.2 101.3C333.4 101 332.6 100.6 331.8 100.1C331 99.5996 330.1 99.0996 329.3 98.5996C317.8 90.4996 315.1 74.5996 323.2 63.0996C331 52.0996 346 49.0996 357.4 56.0996C357.6 56.1996 357.8 56.2996 358 56.4996C358.3 56.6996 358.5 56.7996 358.8 56.9996C359.2 57.2996 359.6 57.5996 360 57.8996C370.4 66.1996 372.7 81.3996 364.9 92.4996Z" fill="#018957"/>
<path opacity="0.4" d="M326.4 92.7996C326.4 92.7996 322.2 80.4996 327.8 71.4996C334.7 60.1996 345.4 54.9996 359.9 57.7996C359.9 57.7996 352 52.4996 338.9 56.2996C325.7 60.0996 318.7 78.1996 326.4 92.7996Z" fill="white" stroke="black" stroke-miterlimit="10"/>
<path d="M364.9 92.4996C357.9 102.4 345.1 105.8 334.4 101.3C332.7 100.6 331 99.6996 329.4 98.5996C317.9 90.4996 315.2 74.5996 323.3 63.0996C331.2 51.8996 346.6 48.9996 358 56.4996C358.3 56.6996 358.5 56.7996 358.8 56.9996C370.3 65.0996 373 80.9996 364.9 92.4996Z" stroke="#1A2E35" stroke-width="1.1596" stroke-miterlimit="10" stroke-linecap="round" stroke-linejoin="round"/>
<path d="M364.9 92.4991C357.9 102.399 345.1 105.799 334.4 101.299C334.1 101.099 333.9 100.999 333.6 100.799C322.1 92.6991 319.4 76.7991 327.5 65.2991C334.5 55.3991 347.3 51.9991 358 56.4991C358.3 56.6991 358.5 56.7991 358.8 56.9991C370.3 65.0991 373 80.9991 364.9 92.4991Z" stroke="#1A2E35" stroke-width="1.1596" stroke-miterlimit="10" stroke-linecap="round" stroke-linejoin="round"/>
<path opacity="0.3" d="M357.4 56.0995C350.4 54.8995 341.6 54.1995 336.9 57.1995C328.2 62.7995 322.7 69.8995 322.8 81.2995C322.9 92.6995 333.6 100.799 333.6 100.799L334.2 101.299C332.5 100.599 330.9 99.6995 329.4 98.5995C317.9 90.4995 315.2 74.5995 323.3 63.0995C331.1 51.9995 346.1 49.0995 357.4 56.0995Z" fill="black" stroke="black" stroke-miterlimit="10"/>
<path opacity="0.1" d="M364.9 92.4998C357.9 102.4 345.1 105.8 334.4 101.4C334.4 101.4 334.3 101.4 334.2 101.3C333.4 101 332.6 100.6 331.8 100.1L359.9 57.7998C370.4 66.1998 372.7 81.3998 364.9 92.4998Z" fill="black" stroke="black" stroke-miterlimit="10"/>
<path opacity="0.3" d="M338 80.799L339.201 77.499L345.5 79.699C346.9 80.199 348.4 79.699 349.4 78.499L339.9 75.099L341 71.899L350.5 75.299C350.5 74.299 350.1 73.399 349.4 72.699C349 72.299 348.6 72.099 348.1 71.899L341.8 69.699L342.9 66.499L357.8 71.799L356.701 74.999L353.4 73.799C353.6 74.599 353.6 75.499 353.5 76.399L355.9 77.199L354.8 80.399L352.4 79.599C350.6 82.499 347.2 83.899 344.3 82.899L341.9 82.099L346.6 93.499L343.8 95.099L338 80.799Z" fill="black" stroke="black" stroke-miterlimit="10"/>
<path d="M357.6 71.9992L356.6 74.6992L353.1 73.4992C353.4 74.4992 353.401 75.5992 353.201 76.6992L355.5 77.4992L354.5 80.1992L352.201 79.3992C350.501 82.2992 347.2 83.7992 344.3 82.6992L341.4 81.6992L346.201 93.4992L343.8 94.7992L338.1 80.8992L339.1 77.9992L345.201 80.1992C346.801 80.7992 348.601 80.0992 349.701 78.6992L340.1 75.2992L341.1 72.5992L350.701 75.9992C350.701 74.7992 350.3 73.6992 349.6 72.8992C349.2 72.4992 348.801 72.1992 348.201 71.9992L342.1 69.7992L343.1 67.0992L357.6 71.9992ZM358.3 71.6992L357.8 71.4992L343.4 66.3992L342.9 66.1992L342.701 66.6992L341.701 69.3992L341.5 69.8992L342 70.0992L348.1 72.2992C348.5 72.4992 348.9 72.6992 349.3 73.0992C349.8 73.5992 350.101 74.2992 350.201 75.0992L341.4 71.9992L340.9 71.7992L340.701 72.2992L339.701 74.9992L339.5 75.4992L340 75.6992L348.8 78.7992C347.8 79.6992 346.6 79.9992 345.4 79.5992L339.3 77.3992L338.8 77.1992L338.6 77.6992L337.6 80.5992L337.5 80.7992L337.6 80.9992L343.3 94.8992L343.5 95.4992L344 95.1992L346.4 93.8992L346.8 93.6992L346.6 93.2992L342.201 82.5992L344 83.1992C347 84.2992 350.4 82.8992 352.3 79.9992L354.201 80.6992L354.701 80.8992L354.9 80.3992L355.9 77.6992L356.1 77.1992L355.6 76.9992L353.701 76.2992C353.801 75.5992 353.801 74.9992 353.701 74.2992L356.3 75.1992L356.8 75.3992L357 74.8992L358 72.1992L358.3 71.6992Z" fill="#070707" stroke="black" stroke-miterlimit="10"/>
<path d="M351.7 418.999C340.8 431.899 328.1 443.199 313.6 451.899C309.1 454.599 304.4 456.999 299.7 459.199C266.8 473.999 229.2 474.999 194.1 466.499C120.3 448.599 81.1 383.399 76.1 311.099C74.8 291.499 71.8 270.399 79.7 251.799C87.6 233.399 103.6 221.699 121.8 213.599C134.9 207.799 149.2 203.799 162.1 200.599C185.6 194.799 210 197.399 231.8 207.799C247 214.999 257.8 227.499 270.6 237.999C272 239.099 273.3 240.199 274.7 241.299C287.6 251.699 301.2 261.199 315.3 269.799C336.8 282.899 358.7 295.199 372.5 317.199C394.2 352.399 375.8 390.499 351.7 418.999Z" fill="#018957" stroke="black" stroke-miterlimit="10"/>
<path opacity="0.4" d="M351.7 418.999C340.8 431.899 328.1 443.199 313.6 451.899C309.1 454.599 304.4 456.999 299.7 459.199C266.8 473.999 229.2 474.999 194.1 466.499C120.3 448.599 81.1 383.399 76.1 311.099C74.8 291.499 71.8 270.399 79.7 251.799C87.6 233.399 103.6 221.699 121.8 213.599C134.9 207.799 149.2 203.799 162.1 200.599C185.6 194.799 210 197.399 231.8 207.799C247 214.999 257.8 227.499 270.6 237.999C272 239.099 273.3 240.199 274.7 241.299C287.6 251.699 301.2 261.199 315.3 269.799C336.8 282.899 358.7 295.199 372.5 317.199C394.2 352.399 375.8 390.499 351.7 418.999Z" fill="white" stroke="black" stroke-miterlimit="10"/>
<path d="M274.6 241.299C273.2 240.199 271.9 239.099 270.5 237.999C257.7 227.399 246.9 214.999 231.7 207.799C209.9 197.399 185.5 194.799 162 200.599C131.3 208.199 93.2 219.899 79.7 251.799C71.8 270.399 74.8 291.499 76.1 311.099C81.1 383.399 120.2 448.599 194.1 466.499C234.3 476.199 277.6 473.599 313.6 451.999C328.1 443.299 340.8 431.999 351.7 419.099C375.7 390.599 394.2 352.399 372.3 317.399C358.6 295.399 336.6 283.099 315.1 269.999C301.1 261.299 287.5 251.699 274.6 241.299Z" stroke="black" stroke-width="1.1596" stroke-miterlimit="10"/>
<path d="M162.7 370.399C156.6 372.299 150.5 374.599 144.9 377.599" stroke="black" stroke-width="1.1596" stroke-miterlimit="10" stroke-linecap="round" stroke-linejoin="round"/>
<path d="M200.4 363.199C200.4 363.199 188.3 363.999 173.7 367.399" stroke="black" stroke-width="1.1596" stroke-miterlimit="10" stroke-linecap="round" stroke-linejoin="round"/>
<path d="M192.5 361.299C192.5 361.299 157.8 341.099 116 357.299" stroke="black" stroke-width="1.1596" stroke-miterlimit="10" stroke-linecap="round" stroke-linejoin="round"/>
<path opacity="0.1" d="M351.7 418.999C340.8 431.899 328.1 443.199 313.6 451.899C309.1 454.599 304.4 456.999 299.7 459.199C295.9 457.999 292.2 456.699 288.6 455.099C267 445.799 248.8 430.099 231.1 414.699C220.4 405.399 209.5 395.899 196.7 389.799C179.6 381.599 159.4 379.999 141.2 385.199C150.6 374.499 163.8 367.199 177.9 364.999C168.7 356.699 156 353.199 143.6 352.899C131.2 352.699 124.4 354.199 112.3 356.899C116.3 349.499 127.1 342.699 135.6 342.899C127.1 342.699 117.5 342.099 111.5 341.199C100.6 339.399 95.6999 326.599 93.9999 315.599C89.4999 285.499 94.0999 253.299 110.5 227.699C113.9 222.299 117.7 217.599 121.8 213.499C134.9 207.699 149.2 203.699 162.1 200.499C185.6 194.699 210 197.299 231.8 207.699C247 214.899 257.8 227.399 270.6 237.899C272 238.999 273.3 240.099 274.7 241.199C287.6 251.599 301.2 261.099 315.3 269.699C336.8 282.799 358.7 295.099 372.5 317.099C394.2 352.399 375.8 390.499 351.7 418.999Z" fill="black" stroke="black" stroke-miterlimit="10"/>
<path d="M363.8 418.199C363.8 418.199 373.5 426.399 384.2 433.199C398 434.099 391.8 450.799 391.8 450.799L380 458.399C380 458.399 359.8 442.399 348.8 437.199C337.8 431.899 363.8 418.199 363.8 418.199Z" fill="white" stroke="black" stroke-miterlimit="10"/>
<path opacity="0.3" d="M265.9 242.7C265.9 242.7 264 224 261 218.7L215.2 209.3V205.8C215.2 205.8 216.3 199.6 206.1 195.8C195.9 191.9 174.6 197 169.1 201.1C163.6 205.2 165.6 212.4 165.6 212.4C165.6 212.4 147.2 221.7 138.9 225.3C130.6 228.9 119.1 235.7 119.1 235.7C119.1 235.7 115.4 278.7 116.1 288.7C116.8 298.7 115.5 308.1 116.4 313.6C117.3 319.1 117.9 322.3 123.7 327C129.5 331.7 134.8 338.7 150 331.8L147.9 330.1L248 296.4L265.9 242.7Z" fill="black" stroke="black" stroke-miterlimit="10"/>
<path d="M265.9 242.7C265.9 242.7 264 224 261 218.7L215.2 209.3V205.8C215.2 205.8 216.3 199.6 206.1 195.8C195.9 191.9 174.6 197 169.1 201.1C163.6 205.2 165.6 212.4 165.6 212.4C165.6 212.4 147.2 221.7 138.9 225.3C130.6 228.9 119.1 235.7 119.1 235.7C119.1 235.7 115.4 278.7 116.1 288.7C116.8 298.7 115.5 308.1 116.4 313.6C117.3 319.1 117.9 322.3 123.7 327C129.5 331.7 134.8 338.7 150 331.8L147.9 330.1L248 296.4L265.9 242.7Z" fill="#2F352B" stroke="black" stroke-miterlimit="10"/>
<path d="M265.9 242.7C265.9 242.7 264 224 261 218.7L215.2 209.3V205.8C215.2 205.8 216.3 199.6 206.1 195.8C195.9 191.9 174.6 197 169.1 201.1C163.6 205.2 165.6 212.4 165.6 212.4C165.6 212.4 147.2 221.7 138.9 225.3C130.6 228.9 119.1 235.7 119.1 235.7C119.1 235.7 115.4 278.7 116.1 288.7C116.8 298.7 115.5 308.1 116.4 313.6C117.3 319.1 117.9 322.3 123.7 327C129.5 331.7 134.8 338.7 150 331.8L147.9 330.1L248 296.4L265.9 242.7Z" fill="#EC103C" stroke="black" stroke-miterlimit="10"/>
<path opacity="0.1" d="M261.6 221H242.4C238.7 221 235.5 223.7 234.9 227.4L225.5 284.3C225.5 284.3 212.5 285.4 203.3 292.1C194.1 298.8 171.4 250.9 135.7 250.9C135.7 250.9 146 274.4 148.3 293.2C148.3 293.2 125.9 290.8 122.2 299.5C118.5 308.3 123.9 324.7 133.3 318.3C142.8 312 151.6 301.3 158 308C164.4 314.7 192.6 318.3 192.6 318.3L236.1 296.5L253 288.6L261.6 221Z" fill="black" stroke="black" stroke-miterlimit="10"/>
<path d="M200.7 192.899C200.7 192.899 211.6 195.899 213.3 199.599C215.1 203.199 214.9 212.499 214.9 212.499C214.9 212.499 211.9 220.699 203.2 228.599L195.1 212.499L195.8 230.799C195.8 230.799 180.4 228.199 173.9 223.299C167.4 218.399 167.4 218.399 167.4 218.399C167.4 218.399 164.6 209.199 165 205.999C165.4 202.799 177.2 196.499 177.2 196.499L200.7 192.899Z" fill="#018957"/>
<path d="M381.9 474.3C381.6 473.6 386.4 465.2 382.6 456.6C378.9 448 372.9 451.3 372.9 451.3C372.9 451.3 356 440.5 348.8 437.1C341.7 433.7 334 428.3 334 428.3L326.5 438.4L333.5 459.9L381.9 474.3Z" fill="#B2B2B2" stroke="black" stroke-miterlimit="10"/>
<path d="M372.3 450.899L394.1 464.199C394.1 464.199 409.4 454.399 416.7 447.599C424 440.799 440.3 426.399 440.3 426.399L450.7 412.399C450.7 412.399 443.5 403.399 431.4 410.599C415.8 419.899 396.8 433.299 384.1 433.199C384.2 433.199 386.7 448.799 372.3 450.899Z" fill="#B2B2B2" stroke="black" stroke-miterlimit="10"/>
<path d="M197 136.6C197 136.6 206.9 151.5 208.7 156.4C210.5 161.2 211.9 168.4 211.6 171.8C211.2 175.2 207.6 193.7 205.8 194.2L204 196.2L205.1 204C205.1 204 197.4 217.4 174.7 207.6C174.7 207.6 173.8 192 171.1 187.1C168.3 182.2 164.2 188 160.1 173.9C156 159.8 169.1 145 169.1 145L197 136.6Z" fill="white" stroke="black" stroke-miterlimit="10"/>
<path opacity="0.5" d="M441.3 408C441.3 408 430.1 409.9 426.5 416.6C422.9 423.2 415.9 435.5 413.5 441.5C411.1 447.5 391.4 461.8 391.4 461.8L394 464.2C394 464.2 410 454.3 419.7 444.9C429.4 435.5 450.7 411.8 450.7 411.8C450.7 411.8 449.2 410.3 441.3 408Z" fill="white" stroke="black" stroke-miterlimit="10"/>
<path opacity="0.5" d="M329.3 434.8L326.5 438.5L335 456.2L381.8 473L384 466.1C384 466.1 384.7 459.1 368.3 453.9C351.9 448.6 341.8 445.1 337.2 441.5C332.6 437.9 329.3 434.8 329.3 434.8Z" fill="white" stroke="black" stroke-miterlimit="10"/>
<path d="M174.8 303.7C174.8 303.7 160.5 301.5 153.8 313.3C147.1 325 147.8 330.1 147.8 330.1C147.8 330.1 157.3 338.7 170.3 338.3C183.3 337.9 202.3 322.9 208.5 318C214.7 313.1 230.3 299.2 240.9 302.1L242 292C242 292 241 287.5 231.9 288.7C222.8 289.9 219.2 295.1 216.3 295.1C213.4 295.1 210.6 292.3 204.7 302.3C204.7 302.4 184 306.1 174.8 303.7Z" fill="white" stroke="black" stroke-miterlimit="10"/>
<path d="M193.4 158.1C193.7 160 194.1 161.8 194.7 163.7C195 164.6 195.3 165.5 195.9 166.1C197 167.3 198.8 167.6 200.4 167.8C200.7 167.8 201 167.9 201.1 168.1C201.3 168.3 201.3 168.6 201.3 168.8C201.3 170.6 200.7 172.4 199.7 173.9" stroke="#1A2E35" stroke-width="1.1596" stroke-miterlimit="10" stroke-linecap="round" stroke-linejoin="round"/>
<path opacity="0.1" d="M339 422.8L329.4 434.8C329.4 434.8 340 444.5 350.9 448.2C361.8 451.8 380.9 458.7 384.1 463.9L382.9 457.6C382.9 457.6 353 439.3 346.1 434.9C339.2 430.5 339 422.8 339 422.8Z" fill="black" stroke="black" stroke-miterlimit="10"/>
<path opacity="0.1" d="M372.3 450.9L391.4 461.8C391.4 461.8 400.8 455.4 405.5 450.6C410.2 445.8 415.8 440.6 419.4 429.9C424.3 415.1 438.2 408.1 438.2 408.1C438.2 408.1 418.8 417.2 408.8 424.4C398.7 431.6 388.9 434.5 383.2 434C383.2 433.9 387.8 448.4 372.3 450.9Z" fill="black" stroke="black" stroke-miterlimit="10"/>
<path d="M186.7 176.6C186.7 176.6 194.2 182.5 202 180.3C202 180.3 194.7 194.9 186.7 176.6Z" fill="white" stroke="black" stroke-width="1.1596" stroke-miterlimit="10" stroke-linecap="round" stroke-linejoin="round"/>
<path d="M186.5 163.8C186.7 165.4 186.2 166.8 185.4 166.9C184.6 167 183.7 165.8 183.5 164.2C183.3 162.6 183.8 161.2 184.6 161.1C185.4 161 186.2 162.2 186.5 163.8Z" fill="#070707" stroke="black" stroke-miterlimit="10"/>
<path d="M202.8 160.899C203 162.499 202.5 163.9 201.7 164C200.9 164.1 200 162.9 199.8 161.3C199.6 159.7 200.1 158.3 200.9 158.2C201.7 158 202.6 159.199 202.8 160.899Z" fill="#070707" stroke="black" stroke-miterlimit="10"/>
<path d="M185.3 156.9C185.3 156.9 180.9 154.6 177.8 159.5" stroke="#1A2E35" stroke-width="1.1596" stroke-miterlimit="10" stroke-linecap="round" stroke-linejoin="round"/>
<path d="M196.5 153.9C196.5 153.9 201.1 149.9 203.8 153.9" stroke="#1A2E35" stroke-width="1.1596" stroke-miterlimit="10" stroke-linecap="round" stroke-linejoin="round"/>
<path d="M170.4 171.9C170.4 171.9 167.6 167.7 164.6 167.9C161.6 168 160.4 172.2 161.5 176.2C162.6 180.2 167 185.9 170.4 185.3C173.8 184.8 175.2 182.6 175.2 182.6" stroke="#1A2E35" stroke-width="1.1596" stroke-miterlimit="10" stroke-linecap="round" stroke-linejoin="round"/>
<path d="M197.4 140C200.6 142.6 203.9 145.5 205.6 149.4C207 152.7 207.3 156.3 208.6 159.7C210 163.3 211.5 167 211.6 170.9C211.7 174.4 210.9 178.1 210.2 181.6C209.6 184.6 209.1 187.7 208.1 190.5C206.5 194.7 203.6 197.2 199.8 199.2C197 200.6 192.3 202.7 189.2 200.8C187.4 199.7 184.8 196.3 182.5 193.3" stroke="black" stroke-width="1.1596" stroke-miterlimit="10" stroke-linecap="round" stroke-linejoin="round"/>
<path d="M170.4 185.3C170.4 185.3 175.4 197.5 174.2 206.1" stroke="#1A2E35" stroke-width="1.1596" stroke-miterlimit="10" stroke-linecap="round" stroke-linejoin="round"/>
<path d="M169.1 169.8C170.4 168.8 171.2 167.1 171 165.5C170.8 163.6 169.5 161.9 169.8 160C169.9 159.1 170.4 158.3 170.8 157.4C172.2 154.3 171.9 150.5 170.2 147.6C170.2 147.6 186 148.3 193.5 143.6C200.9 138.9 206.6 126.8 202.1 121C197.6 115.2 188.9 123.1 182.4 124C175.9 124.9 152.8 128.5 149.2 137.5C145.5 146.4 151.1 149.6 151.3 158.1C151.5 166.6 151.5 182.6 164.1 181.2C164.1 181.2 159.4 175.1 162.6 168.7C164.8 166 169.1 169.8 169.1 169.8Z" fill="#0C0C0C" stroke="black" stroke-miterlimit="10"/>
<path d="M200.1 131.199C200.1 131.199 206.6 135.599 207.7 145.099C208.4 151.499 219.7 163.799 211.6 170.799C211.6 170.799 209.7 163.299 208.6 159.599C207.5 155.899 206.1 149.199 204.2 146.799C202.3 144.399 192.4 136.399 192.4 136.399L200.1 131.199Z" fill="#0C0C0C" stroke="black" stroke-miterlimit="10"/>
<path d="M171.8 205.9C171.8 205.9 179.6 211 194.1 211.3L195.8 230.8C195.8 230.8 179.5 229.6 167.3 218.4C167.3 218.4 164 209.7 164.9 206C165.8 202.3 173.5 198.6 173.5 198.6" stroke="black" stroke-width="1.1596" stroke-miterlimit="10" stroke-linecap="round" stroke-linejoin="round"/>
<path d="M204.7 197.1L205.2 204C199.9 209.4 194.2 211.1 194.2 211.1L203.3 228.4C203.3 228.4 214.1 220 215.2 211.1C215.2 211.1 215.3 202 213.4 199.4C211.5 196.8 204.6 195.6 204.6 195.6" stroke="#050505" stroke-width="1.1596" stroke-miterlimit="10" stroke-linecap="round" stroke-linejoin="round"/>
<path opacity="0.8" d="M160.7 143.3C161.9 140.4 165 138.7 168.1 138.2C171.2 137.7 174.4 138.1 177.5 138C181.8 137.9 186.1 136.9 189.8 134.5C193.4 132.2 196.3 128.6 197.2 124.3" stroke="white" stroke-width="1.1596" stroke-miterlimit="10" stroke-linecap="round" stroke-linejoin="round"/>
<path opacity="0.8" d="M153.2 142.8C155.2 136.8 161.5 133.2 167.8 132.6C170.9 132.3 174 132.7 177.1 132.3C180.2 131.9 183.4 130.7 185 128" stroke="white" stroke-width="1.1596" stroke-miterlimit="10" stroke-linecap="round" stroke-linejoin="round"/>
<path d="M149.9 331.8C134.8 339.6 129.5 331.6 121.1 324.9C112.7 318.2 118.2 306.4 116.5 287.3C114.8 268.2 119.1 235.8 119.1 235.8C119.1 235.8 122.9 234.9 133.3 228.6C143.7 222.2 165.7 212.5 165.7 212.5" stroke="#020202" stroke-width="1.1596" stroke-miterlimit="10" stroke-linecap="round" stroke-linejoin="round"/>
<path d="M164.8 302.9C164.8 302.9 162.4 295.3 155.7 295.1C148.9 294.9 138.3 297.9 130.7 312.3" stroke="black" stroke-width="1.1596" stroke-miterlimit="10" stroke-linecap="round" stroke-linejoin="round"/>
<path d="M154.1 294.699C153.7 294.699 153.3 294.599 152.9 294.399C147.4 292.399 141.3 292.099 135.6 293.599" stroke="black" stroke-width="1.1596" stroke-miterlimit="10" stroke-linecap="round" stroke-linejoin="round"/>
<path d="M131.7 246.1C144 259.7 150 277.6 155.6 295" stroke="#020202" stroke-width="1.1596" stroke-miterlimit="10" stroke-linecap="round" stroke-linejoin="round"/>
<path d="M215.2 209.399C215.2 209.399 237.5 214.699 248.3 215.999C259.2 217.299 260.9 218.799 260.9 218.799L262.9 226.399" stroke="#020202" stroke-width="1.1596" stroke-miterlimit="10" stroke-linecap="round" stroke-linejoin="round"/>
<path d="M318.9 222.6L243.1 225.5L236.9 303.5H249.9L315.7 288.8L324 224.5L318.9 222.6Z" fill="#606060"/>
<g opacity="0.15">
<path d="M240.8 305.8L320.5 255.8L315.7 288.8L240.8 305.8Z" fill="#2D2D2D" stroke="black" stroke-miterlimit="10"/>
<path opacity="0.7" d="M240.8 305.8L320.2 256.1L315.7 288.8L240.8 305.8Z" fill="#2D2D2D" stroke="black" stroke-miterlimit="10"/>
</g>
<path d="M240.8 303.7L247.5 228.5L324 224.5L315.7 288.8L240.8 303.7Z" stroke="black" stroke-width="1.1596" stroke-miterlimit="10" stroke-linecap="round" stroke-linejoin="round"/>
<path d="M315.7 288.799C315.7 288.799 350.7 287.799 361.7 294.999C372.7 302.199 379.1 338.499 377.6 357.799C376.1 377.099 362.9 421.299 362.9 421.299L337.6 392.599C337.6 392.599 325.1 347.199 331.9 329.499C331.9 329.499 298.3 331.399 285 327.199C285 327.199 273.1 307.799 252.8 301.299L315.7 288.799Z" fill="#181818" stroke="black" stroke-miterlimit="10"/>
<path d="M368.2 422.1C357.5 412.4 347.2 399.1 344.1 394.3C331.8 375.4 314.9 357.1 297.5 343C283.4 331.6 280.3 313 262.9 303.7C234.2 288.3 209.4 318.9 200.1 325.1C190.8 331.3 174.8 338.3 174.8 338.3C174.8 338.3 180.7 360.3 197.9 362.9C215.1 365.6 232.6 353.6 240.9 359.4C249.2 365.1 255.2 390.8 282.5 405.8C304.8 418.1 335.1 430 350.7 438.1C354.2 439.9 356.8 441.8 358.7 442.9C364.1 445.8 369.9 449.3 375.3 452.8L394.1 464.2C394.1 464.2 412.9 453.1 420.2 442.8C421.2 441.4 423.2 437.7 425.1 434.2C429.2 426.5 434.4 419.5 441.6 415.6C446.6 412.9 451 412.1 450.8 411.8C450.3 410.9 441.3 406.3 435.2 408.8C422.3 414.1 396.4 434.7 384.2 433.2C384.2 433.2 375.3 428.5 368.2 422.1Z" stroke="black" stroke-width="1.1596" stroke-miterlimit="10"/>
<path d="M368.2 422.1C356.9 426.7 352.4 433.7 350.6 438.1C335 430 304.6 418.1 282.4 405.8C255.2 390.8 249.1 365.1 240.8 359.4C232.5 353.7 215.1 365.6 197.8 362.9C180.6 360.2 174.7 338.3 174.7 338.3C174.7 338.3 190.8 331.3 200 325.1C209.3 318.9 230.7 288.3 262.8 303.7C280.5 312.2 283.3 331.6 297.4 343C314.8 357.1 331.8 375.4 344 394.3C347.2 399 357.5 412.4 368.2 422.1Z" fill="#181818" stroke="black" stroke-miterlimit="10"/>
<path d="M283.4 323.799C283.4 323.799 274.7 306.099 260.8 302.699" stroke="white" stroke-width="1.1596" stroke-miterlimit="10" stroke-linecap="round" stroke-linejoin="round"/>
<path d="M237.9 288.6C228.3 286.5 217.8 297.1 213.4 295.1C210.1 293.6 204.7 302.3 204.7 302.3C204.7 302.3 190.7 304.5 177.8 303.7C164.9 302.9 158.8 305.4 154.2 312.3L147.8 329.2C147.8 329.2 164.6 344.3 182.6 335.5C200.6 326.7 224.4 300.2 240.9 300.3" stroke="#1A2E35" stroke-width="1.1596" stroke-miterlimit="10" stroke-linecap="round" stroke-linejoin="round"/>
<path d="M371.6 450.399C371.6 450.399 387.3 451.699 383.6 432.899" stroke="black" stroke-width="1.1596" stroke-miterlimit="10"/>
<path d="M445.7 421.3C444.5 423.7 430.1 435.9 417.7 446.6C417.7 446.4 421.1 439.9 422.6 437.1C425.9 430.9 434.4 414 450.7 411.8C453 413.2 445.7 421.3 445.7 421.3Z" fill="#070707" stroke="black" stroke-miterlimit="10"/>
<path d="M439.5 408.1C423.1 411.4 419.3 432.4 413.5 441.4C407.7 450.4 391.4 462.5 391.4 462.5" stroke="black" stroke-width="1.1596" stroke-miterlimit="10"/>
<path d="M382.6 457.2C385.3 462.1 384 467.8 382.6 471.3C381.4 474.3 380 476.4 380 476.4C356.7 472.6 333.5 460.1 333.5 460.1L327.5 441.5L326.5 438.5L335.5 426.3" stroke="black" stroke-width="1.1596" stroke-miterlimit="10"/>
<path d="M382.6 471.3C381.4 474.3 380 476.4 380 476.4C356.7 472.6 333.5 460.1 333.5 460.1L327.5 441.5C330.5 445.4 336.1 451.2 344.4 453.5C355.8 456.7 376.7 460.5 382.6 471.3Z" fill="#070707" stroke="black" stroke-miterlimit="10"/>
<path d="M236.9 300.8L243.1 225.5L318.9 222.6L324 224.5" stroke="black" stroke-width="1.1596" stroke-miterlimit="10" stroke-linecap="round" stroke-linejoin="round"/>
<path d="M383.5 441.4C383.5 441.4 393.9 443.2 401.8 436.7C409.8 430.2 422.6 415.5 422.6 415.5" stroke="black" stroke-width="1.1596" stroke-miterlimit="10"/>
<path d="M394.1 432.1C394.1 432.1 391.6 435.9 394.1 443.4" stroke="black" stroke-width="1.1596" stroke-miterlimit="10" stroke-linecap="round" stroke-linejoin="round"/>
<path d="M401.4 428.5C401.4 428.5 399.4 434.1 402.3 439.8" stroke="black" stroke-width="1.1596" stroke-miterlimit="10" stroke-linecap="round" stroke-linejoin="round"/>
<path d="M410.2 423.399C410.2 423.399 408.1 429.699 410.2 435.299" stroke="black" stroke-width="1.1596" stroke-miterlimit="10" stroke-linecap="round" stroke-linejoin="round"/>
<path d="M337.7 424.8L329.4 434.8C329.4 434.8 337.8 443.9 349.6 447.7C361.4 451.5 382.5 458 384.3 464.8" stroke="black" stroke-width="1.1596" stroke-miterlimit="10"/>
</svg>
