<svg width="500" height="500" viewBox="0 0 500 500" fill="none" xmlns="http://www.w3.org/2000/svg">
<g clip-path="url(#clip0_4710_365)">
<path d="M320.8 23.6998C295.5 38.1998 277.7 62.4998 256 82.0998C229.3 106.2 196.2 123.2 161 130.8C132.1 137.1 101.7 137.2 73.8002 147C19.4002 166.1 -17.9998 222.8 -18.9998 280.5C-19.9998 338.2 12.9002 394.1 61.1002 425.8C77.5002 436.6 95.5002 444.8 114.4 450.1C149.9 460.1 187.5 459.6 224.2 455.8C287.5 449.2 353.9 413.2 393.9 362.5C411.7 339.9 426.7 315.1 438.7 288.9C458.4 245.9 469.8 199.1 471.8 151.9C473.5 111.3 471.8 66.2998 439.6 36.6998C407.5 7.29984 358.6 2.09984 320.8 23.6998Z" fill="#2F352B" stroke="black" stroke-miterlimit="10"/>
<path opacity="0.9" d="M320.8 23.6998C295.5 38.1998 277.7 62.4998 256 82.0998C229.3 106.2 196.2 123.2 161 130.8C132.1 137.1 101.7 137.2 73.8002 147C19.4002 166.1 -17.9998 222.8 -18.9998 280.5C-19.9998 338.2 12.9002 394.1 61.1002 425.8C77.5002 436.6 95.5002 444.8 114.4 450.1C149.9 460.1 187.5 459.6 224.2 455.8C287.5 449.2 353.9 413.2 393.9 362.5C411.7 339.9 426.7 315.1 438.7 288.9C458.4 245.9 469.8 199.1 471.8 151.9C473.5 111.3 471.8 66.2998 439.6 36.6998C407.5 7.29984 358.6 2.09984 320.8 23.6998Z" fill="white" stroke="black" stroke-miterlimit="10"/>
<path d="M254.3 488.4C369.175 488.4 462.3 463.328 462.3 432.4C462.3 401.472 369.175 376.4 254.3 376.4C139.425 376.4 46.2998 401.472 46.2998 432.4C46.2998 463.328 139.425 488.4 254.3 488.4Z" fill="#2F352B" stroke="black" stroke-miterlimit="10"/>
<path d="M254.3 488.4C369.175 488.4 462.3 463.328 462.3 432.4C462.3 401.472 369.175 376.4 254.3 376.4C139.425 376.4 46.2998 401.472 46.2998 432.4C46.2998 463.328 139.425 488.4 254.3 488.4Z" fill="#474747" stroke="black" stroke-miterlimit="10"/>
<path d="M290 39.1998V176.2C290 181.9 285.4 186.6 279.6 186.6H35.1002C29.4002 186.6 24.7002 182 24.7002 176.2V39.1998C24.7002 33.4998 29.3002 28.7998 35.1002 28.7998H279.6C285.3 28.8998 290 33.4998 290 39.1998Z" fill="white" stroke="black" stroke-miterlimit="10"/>
<path d="M290 39.1998V43.2998H24.7002V39.1998C24.7002 33.4998 29.3002 28.7998 35.1002 28.7998H279.6C285.3 28.8998 290 33.4998 290 39.1998Z" fill="#FF94AD" stroke="#1A2E35" stroke-width="1.1596" stroke-miterlimit="10"/>
<path d="M290 39.1998V176.2C290 181.9 285.4 186.6 279.6 186.6H35.1002C29.4002 186.6 24.7002 182 24.7002 176.2V39.1998C24.7002 33.4998 29.3002 28.7998 35.1002 28.7998H279.6C285.3 28.8998 290 33.4998 290 39.1998Z" stroke="#1A2E35" stroke-width="1.1596" stroke-miterlimit="10" stroke-linecap="round" stroke-linejoin="round"/>
<path d="M290 39.1998V43.2998H24.7002V39.1998C24.7002 33.4998 29.3002 28.7998 35.1002 28.7998H279.6C285.3 28.8998 290 33.4998 290 39.1998Z" stroke="#1A2E35" stroke-width="1.1596" stroke-miterlimit="10" stroke-linecap="round" stroke-linejoin="round"/>
<path d="M54.5003 36.1C54.5003 37.6 53.3003 38.7 51.9003 38.7C50.4003 38.7 49.3003 37.5 49.3003 36.1C49.3003 34.6 50.5003 33.5 51.9003 33.5C53.3003 33.5 54.5003 34.7 54.5003 36.1Z" fill="#070707" stroke="black" stroke-miterlimit="10"/>
<path d="M68.4002 36.1C68.4002 37.6 67.2002 38.7 65.8002 38.7C64.3002 38.7 63.2002 37.5 63.2002 36.1C63.2002 34.6 64.4002 33.5 65.8002 33.5C67.2002 33.5 68.4002 34.7 68.4002 36.1Z" fill="#070707" stroke="black" stroke-miterlimit="10"/>
<path d="M79.6 38.7C81.0359 38.7 82.2 37.5359 82.2 36.1C82.2 34.6641 81.0359 33.5 79.6 33.5C78.1641 33.5 77 34.6641 77 36.1C77 37.5359 78.1641 38.7 79.6 38.7Z" fill="#070707" stroke="black" stroke-miterlimit="10"/>
<path d="M120.3 99.4998H44.2C42.2 99.4998 40.5 97.7998 40.5 95.7998V58.4998C40.5 56.4998 42.2 54.7998 44.2 54.7998H120.4C122.4 54.7998 124.1 56.4998 124.1 58.4998V95.7998C124 97.7998 122.4 99.4998 120.3 99.4998Z" stroke="#1A2E35" stroke-width="1.1596" stroke-miterlimit="10" stroke-linecap="round" stroke-linejoin="round"/>
<path d="M45.3999 93.8994H117.8" stroke="#1A2E35" stroke-width="1.1596" stroke-miterlimit="10" stroke-linecap="round" stroke-linejoin="round"/>
<path d="M59.1998 85.2998H50.7998V93.6998H59.1998V85.2998Z" fill="#FF94AD" stroke="#1A2E35" stroke-width="1.1596" stroke-miterlimit="10"/>
<path d="M71.5001 74.2998H63.1001V93.8998H71.5001V74.2998Z" fill="#FF94AD" stroke="#1A2E35" stroke-width="1.1596" stroke-miterlimit="10"/>
<path d="M85.2999 77.7002H76.8999V94.1002H85.2999V77.7002Z" fill="#FF94AD" stroke="#1A2E35" stroke-width="1.1596" stroke-miterlimit="10"/>
<path d="M99.9 61.2998H91.5V93.4998H99.9V61.2998Z" fill="#FF94AD" stroke="#1A2E35" stroke-width="1.1596" stroke-miterlimit="10"/>
<path d="M114.4 61.5996H106V93.7996H114.4V61.5996Z" fill="#FF94AD" stroke="#1A2E35" stroke-width="1.1596" stroke-miterlimit="10"/>
<path d="M227.6 101.8C240.579 101.8 251.1 91.2785 251.1 78.2998C251.1 65.3211 240.579 54.7998 227.6 54.7998C214.621 54.7998 204.1 65.3211 204.1 78.2998C204.1 91.2785 214.621 101.8 227.6 101.8Z" fill="#FF94AD" stroke="#1A2E35" stroke-width="1.1596" stroke-miterlimit="10"/>
<path opacity="0.3" d="M220.1 82.0992L220 78.5992L226.7 78.4992C228.1 78.4992 229.4 77.4992 230 75.9992L220 76.1992L219.9 72.7992L229.9 72.5992C229.5 71.6992 228.8 70.9992 228 70.5992C227.5 70.3992 227 70.2992 226.5 70.2992L219.8 70.3992L219.7 66.9992L235.5 66.6992L235.6 70.0992L232.1 70.1992C232.5 70.8992 232.9 71.6992 233.1 72.5992H235.6L235.7 75.9992H233.2C232.6 79.3992 229.9 81.8992 226.8 81.8992H224.3L232.7 90.9992L230.6 93.4992L220.1 82.0992Z" fill="black" stroke="black" stroke-miterlimit="10"/>
<path d="M235.3 66.9994L235.4 69.7994L231.7 69.8994C232.3 70.6994 232.7 71.6994 232.9 72.7994H235.4L235.5 75.5994H233C232.5 78.8994 229.9 81.4994 226.8 81.4994L223.7 81.5994L232.3 90.8994L230.5 92.8994L220.3 81.8994L220.2 78.7994L226.7 78.6994C228.4 78.6994 229.8 77.3994 230.3 75.6994L220.2 75.8994L220.1 73.0994L230.2 72.8994C229.8 71.7994 229 70.7994 228 70.3994C227.5 70.1994 227 69.9994 226.4 70.0994L219.9 70.1994L219.8 67.3994L235.3 66.9994ZM235.9 66.3994H235.4L220.1 66.6994H219.6V67.1994L219.7 69.9994V70.4994H220.2L226.7 70.3994C227.2 70.3994 227.6 70.4994 228.1 70.6994C228.8 70.9994 229.3 71.5994 229.7 72.1994L220.3 72.3994H219.8V72.8994L219.9 75.6994V76.1994H220.4L229.8 75.9994C229.2 77.1994 228.1 77.8994 226.9 77.8994L220.4 77.9994H219.9V78.4994L220 81.5994V81.7994L220.1 81.8994L230.3 92.8994L230.7 93.2994L231.1 92.7994L232.9 90.7994L233.2 90.3994L232.9 90.0994L225.1 81.6994H227C230.2 81.5994 232.9 79.1994 233.7 75.7994H235.8H236.3V75.2994L236.2 72.4994V71.9994H235.7H233.6C233.4 71.2994 233.2 70.6994 232.9 70.0994H235.7H236.2V69.5994L236.1 66.7994L235.9 66.3994Z" fill="#070707" stroke="black" stroke-miterlimit="10"/>
<path d="M38.5 122.3H45.4" stroke="#EC103C" stroke-width="1.1596" stroke-miterlimit="10" stroke-linecap="round" stroke-linejoin="round"/>
<path d="M38.5 135.6H45.4" stroke="#EC103C" stroke-width="1.1596" stroke-miterlimit="10" stroke-linecap="round" stroke-linejoin="round"/>
<path d="M38.5 148.8H45.4" stroke="#EC103C" stroke-width="1.1596" stroke-miterlimit="10" stroke-linecap="round" stroke-linejoin="round"/>
<path d="M38.5 162.1H45.4" stroke="#EC103C" stroke-width="1.1596" stroke-miterlimit="10" stroke-linecap="round" stroke-linejoin="round"/>
<path d="M60.5 172.1V166.8" stroke="#EC103C" stroke-width="1.1596" stroke-miterlimit="10" stroke-linecap="round" stroke-linejoin="round"/>
<path d="M71.3999 172.1V166.8" stroke="#EC103C" stroke-width="1.1596" stroke-miterlimit="10" stroke-linecap="round" stroke-linejoin="round"/>
<path d="M82.2998 172.1V166.8" stroke="#EC103C" stroke-width="1.1596" stroke-miterlimit="10" stroke-linecap="round" stroke-linejoin="round"/>
<path d="M93.2002 172.1V166.8" stroke="#EC103C" stroke-width="1.1596" stroke-miterlimit="10" stroke-linecap="round" stroke-linejoin="round"/>
<path d="M104 172.1V166.8" stroke="#EC103C" stroke-width="1.1596" stroke-miterlimit="10" stroke-linecap="round" stroke-linejoin="round"/>
<path d="M114.9 172.1V166.8" stroke="#EC103C" stroke-width="1.1596" stroke-miterlimit="10" stroke-linecap="round" stroke-linejoin="round"/>
<path d="M125.8 172.1V166.8" stroke="#EC103C" stroke-width="1.1596" stroke-miterlimit="10" stroke-linecap="round" stroke-linejoin="round"/>
<path d="M136.7 172.1V166.8" stroke="#EC103C" stroke-width="1.1596" stroke-miterlimit="10" stroke-linecap="round" stroke-linejoin="round"/>
<path d="M147.6 172.1V166.8" stroke="#EC103C" stroke-width="1.1596" stroke-miterlimit="10" stroke-linecap="round" stroke-linejoin="round"/>
<path d="M158.4 172.1V166.8" stroke="#EC103C" stroke-width="1.1596" stroke-miterlimit="10" stroke-linecap="round" stroke-linejoin="round"/>
<path d="M169.3 172.1V166.8" stroke="#EC103C" stroke-width="1.1596" stroke-miterlimit="10" stroke-linecap="round" stroke-linejoin="round"/>
<path d="M180.2 172.1V166.8" stroke="#EC103C" stroke-width="1.1596" stroke-miterlimit="10" stroke-linecap="round" stroke-linejoin="round"/>
<path d="M191.1 172.1V166.8" stroke="#EC103C" stroke-width="1.1596" stroke-miterlimit="10" stroke-linecap="round" stroke-linejoin="round"/>
<path d="M202 172.1V166.8" stroke="#EC103C" stroke-width="1.1596" stroke-miterlimit="10" stroke-linecap="round" stroke-linejoin="round"/>
<path d="M212.8 172.1V166.8" stroke="#EC103C" stroke-width="1.1596" stroke-miterlimit="10" stroke-linecap="round" stroke-linejoin="round"/>
<path d="M223.3 172.1V166.8" stroke="#EC103C" stroke-width="1.1596" stroke-miterlimit="10" stroke-linecap="round" stroke-linejoin="round"/>
<path d="M233.8 172.1V166.8" stroke="#EC103C" stroke-width="1.1596" stroke-miterlimit="10" stroke-linecap="round" stroke-linejoin="round"/>
<path d="M244.2 172.1V166.8" stroke="#EC103C" stroke-width="1.1596" stroke-miterlimit="10" stroke-linecap="round" stroke-linejoin="round"/>
<path d="M271.9 114.2V165.8C271.9 169.3 268.3 172.2 263.9 172.2H46.5C43.6 172.2 41 170.9 39.6 169C38.9 168.1 38.5 166.9 38.5 165.8V114.2C38.5 110.7 42.1 107.8 46.5 107.8H263.9C268.3 107.8 271.9 110.6 271.9 114.2Z" stroke="#2F352B" stroke-width="1.1596" stroke-miterlimit="10"/>
<path d="M205.8 14.2998L136.4 107.8L109.9 143.5L80.8999 125L45.3999 172.1H44.8999C42.5999 172.1 40.4999 170.8 39.3999 168.9L79.2999 116L108.3 134.4L128.1 107.7L200.4 10.2998L205.8 14.2998Z" fill="#EC103C" stroke="black" stroke-miterlimit="10"/>
<path d="M188.2 15.5L213.7 0L206.6 26.8L202.1 14.4L188.2 15.5Z" fill="#EC103C" stroke="black" stroke-miterlimit="10"/>
<path d="M429.5 309.8H21.7L-24 350.4" stroke="#1A2E35" stroke-width="1.1596" stroke-miterlimit="10" stroke-linecap="round" stroke-linejoin="round"/>
<path d="M21.8999 281.3V202.3" stroke="#1A2E35" stroke-width="1.1596" stroke-miterlimit="10" stroke-linecap="round" stroke-linejoin="round"/>
<path d="M21.8999 305.199V289.899" stroke="#1A2E35" stroke-width="1.1596" stroke-miterlimit="10" stroke-linecap="round" stroke-linejoin="round"/>
<path d="M405 117.5C405 117.5 405 112.7 398.3 106C391.6 99.3 387.3 95.5 387.3 95.5C387.3 95.5 384 106.5 390.2 113.2C394.8 117.9 399.7 122.2 405 126.1V117.5Z" fill="#FF94AD" stroke="black" stroke-miterlimit="10"/>
<path d="M395.3 147.3C395.3 147.3 395.3 142.5 388.6 135.8C381.9 129.1 377.6 125.3 377.6 125.3C377.6 125.3 374.3 136.3 380.5 143C385.1 147.7 390 152 395.3 155.9V147.3Z" fill="#FF94AD" stroke="black" stroke-miterlimit="10"/>
<path d="M404.5 125.6C404.5 125.6 405 120.8 412.4 114.9C419.8 109 424.4 105.6 424.4 105.6C424.4 105.6 426.6 116.9 419.7 122.9C414.7 127.1 409.3 130.9 403.6 134.2L404.5 125.6Z" fill="#FF94AD" stroke="black" stroke-miterlimit="10"/>
<path d="M392.8 160.9C392.8 160.9 393.8 156.2 401.7 151.1C409.6 146 414.6 143.1 414.6 143.1C414.6 143.1 415.6 154.5 408.1 159.8C402.6 163.4 396.9 166.6 390.9 169.3L392.8 160.9Z" fill="#FF94AD" stroke="black" stroke-miterlimit="10"/>
<path d="M395 199.3C395 199.3 395 194.5 401.7 187.8C408.4 181.1 412.7 177.3 412.7 177.3C412.7 177.3 416 188.3 409.8 195C405.2 199.7 400.3 204 395 207.9V199.3Z" fill="#FF94AD" stroke="black" stroke-miterlimit="10"/>
<path d="M394.9 208.6C394.9 208.6 395.6 203.9 389.9 196.3C384.2 188.7 380.5 184.3 380.5 184.3C380.5 184.3 375.7 194.7 380.8 202.2C384.7 207.5 388.9 212.5 393.6 217.1L394.9 208.6Z" fill="#FF94AD" stroke="black" stroke-miterlimit="10"/>
<path d="M388.3 236.4C388.3 236.4 388.3 231.6 395 224.9C401.7 218.2 406 214.4 406 214.4C406 214.4 409.3 225.4 403.1 232.1C398.5 236.8 393.6 241.1 388.3 245V236.4Z" fill="#FF94AD" stroke="black" stroke-miterlimit="10"/>
<path d="M392.8 261.6C392.8 261.6 391.6 257 396.4 248.8C401.2 240.6 404.4 235.9 404.4 235.9C404.4 235.9 410.4 245.7 406.1 253.7C402.9 259.4 399.2 264.8 395 269.9L392.8 261.6Z" fill="#FF94AD" stroke="black" stroke-miterlimit="10"/>
<path d="M405.6 116.3C405.3 121.3 404.6 126.2 403.8 131.1C401.2 144.8 394.5 153.6 391.9 165.9C389.3 178.2 396.8 194.1 394.8 210C392.8 225.8 386.6 234.7 388.3 245.2C390 255.8 399.3 284.4 399.3 284.4" stroke="#0C0C0C" stroke-width="1.1596" stroke-linecap="round" stroke-linejoin="round"/>
<path d="M404.5 128.8L411.7 123.3" stroke="#FF94AD" stroke-width="1.3655" stroke-linecap="round" stroke-linejoin="round"/>
<path d="M404.8 122.4L401.8 117.1" stroke="#0C0C0C" stroke-width="1.1596" stroke-linecap="round" stroke-linejoin="round"/>
<path d="M392.2 165.3C392.2 165.3 398.2 160.8 404.4 156.3" stroke="#0C0C0C" stroke-width="1.1596" stroke-linecap="round" stroke-linejoin="round"/>
<path d="M395.3 155.9C395.3 155.9 390.3 146 384.6 139.5" stroke="#FF94AD" stroke-width="1.3655" stroke-linecap="round" stroke-linejoin="round"/>
<path d="M395.3 206.1C398.8 199.8 403.1 193.9 408.2 188.8" stroke="#0C0C0C" stroke-width="1.1596" stroke-linecap="round" stroke-linejoin="round"/>
<path d="M394.1 212.8C392.3 208.5 390.1 204.3 387.6 200.4C384.1 195.2 383.6 194.5 383.6 194.5" stroke="#0C0C0C" stroke-width="1.1596" stroke-linecap="round" stroke-linejoin="round"/>
<path d="M388.3 245.2C389.8 241.4 391.6 237.7 393.7 234.2C395.8 230.9 398.1 227.9 400.7 225" stroke="#0C0C0C" stroke-width="1.1596" stroke-linecap="round" stroke-linejoin="round"/>
<path d="M395 269.9C395 269.9 394.3 264.2 396.8 259.3C399.3 254.4 402.2 248.1 403.3 245.6" stroke="#0C0C0C" stroke-width="1.1596" stroke-linecap="round" stroke-linejoin="round"/>
<path d="M361.2 181.3C361.2 181.3 360.7 178.3 364.1 173.4C367.6 168.5 369.8 165.6 369.8 165.6C369.8 165.6 373.1 172.1 369.9 177C367.5 180.4 364.9 183.7 362 186.7L361.2 181.3Z" fill="#FF94AD" stroke="black" stroke-miterlimit="10"/>
<path d="M370.5 199C370.5 199 370 196 373.4 191.1C376.9 186.2 379.2 183.3 379.2 183.3C379.2 183.3 382.5 189.8 379.3 194.7C376.9 198.1 374.3 201.4 371.4 204.4L370.5 199Z" fill="#FF94AD" stroke="black" stroke-miterlimit="10"/>
<path d="M362.3 186.4C362.3 186.4 361.5 183.5 356.2 180.6C350.9 177.7 347.6 176.1 347.6 176.1C347.6 176.1 347.5 183.4 352.4 186.4C356 188.5 359.8 190.3 363.7 191.7L362.3 186.4Z" fill="#FF94AD" stroke="black" stroke-miterlimit="10"/>
<path d="M373.5 207.2C373.5 207.2 372.4 204.4 366.8 202C361.3 199.6 357.8 198.4 357.8 198.4C357.8 198.4 358.4 205.7 363.7 208.2C367.5 209.9 371.5 211.3 375.5 212.3L373.5 207.2Z" fill="#FF94AD" stroke="black" stroke-miterlimit="10"/>
<path d="M376.3 231.5C376.3 231.5 375.8 228.5 370.9 225C366 221.5 362.9 219.6 362.9 219.6C362.9 219.6 362 226.9 366.6 230.4C370 232.8 373.5 235 377.3 236.9L376.3 231.5Z" fill="#FF94AD" stroke="black" stroke-miterlimit="10"/>
<path d="M377.4 237.4C377.4 237.4 376.5 234.5 379.2 229.2C381.9 223.8 383.8 220.7 383.8 220.7C383.8 220.7 388 226.7 385.5 232C383.6 235.7 381.5 239.3 379 242.7L377.4 237.4Z" fill="#FF94AD" stroke="black" stroke-miterlimit="10"/>
<path d="M385.8 261.5C385.8 261.5 386.1 258.5 390.9 254.7C395.6 251 398.6 248.9 398.6 248.9C398.6 248.9 399.9 256.1 395.5 259.9C392.3 262.5 388.8 264.9 385.2 267L385.8 261.5Z" fill="#FF94AD" stroke="black" stroke-miterlimit="10"/>
<path d="M384.5 254.1C384.5 254.1 384 251.1 379.1 247.6C374.2 244.1 371.1 242.2 371.1 242.2C371.1 242.2 370.2 249.5 374.8 253C378.2 255.5 381.8 257.6 385.5 259.5L384.5 254.1Z" fill="#FF94AD" stroke="black" stroke-miterlimit="10"/>
<path d="M384.4 270.4C384.4 270.4 384.7 267.4 380.8 262.8C376.9 258.2 374.4 255.5 374.4 255.5C374.4 255.5 371.7 262.3 375.3 266.9C377.9 270.1 380.9 273.1 384 275.9L384.4 270.4Z" fill="#FF94AD" stroke="black" stroke-miterlimit="10"/>
<path d="M360.7 180.6C361.5 183.7 362.4 186.7 363.5 189.7C366.6 198 371.7 202.8 374.7 210.2C377.7 217.6 374.7 228.4 377.7 238.1C380.7 247.8 385.5 252.6 385.6 259.5C385.6 266.4 383 285.3 383 285.3" stroke="#0C0C0C" stroke-width="1.1596" stroke-linecap="round" stroke-linejoin="round"/>
<path d="M362.7 188.3L357.6 185.7" stroke="#0C0C0C" stroke-width="1.1596" stroke-linecap="round" stroke-linejoin="round"/>
<path d="M361.8 184.4L363.1 180.7" stroke="#0C0C0C" stroke-width="1.1596" stroke-linecap="round" stroke-linejoin="round"/>
<path d="M374.3 209.9C374.3 209.9 370 207.7 365.6 205.6" stroke="#0C0C0C" stroke-width="1.1596" stroke-linecap="round" stroke-linejoin="round"/>
<path d="M371.4 204.4C372.7 200.4 374.3 196.6 376.3 193" stroke="#0C0C0C" stroke-width="1.1596" stroke-linecap="round" stroke-linejoin="round"/>
<path d="M376.9 235.8C374.1 232.2 370.7 229 366.9 226.4" stroke="#0C0C0C" stroke-width="1.1596" stroke-linecap="round" stroke-linejoin="round"/>
<path d="M378.3 239.9C379 237 379.9 234.2 381 231.4C382.6 227.8 382.9 227.3 382.9 227.3" stroke="#0C0C0C" stroke-width="1.1596" stroke-linecap="round" stroke-linejoin="round"/>
<path d="M385.2 264.7C385.2 264.7 388.6 260.5 390.7 259C392 258.1 393.2 257 394.3 255.9" stroke="#0C0C0C" stroke-width="1.1596" stroke-linecap="round" stroke-linejoin="round"/>
<path d="M385.5 259.6C384.1 257.4 382.6 255.3 380.9 253.3C379.2 251.5 377.4 249.8 375.5 248.3" stroke="#0C0C0C" stroke-width="1.1596" stroke-linecap="round" stroke-linejoin="round"/>
<path d="M384 275.8C383.8 273.5 383 271.2 381.7 269.3C379.6 266.5 377.1 262.8 376.1 261.4" stroke="#0C0C0C" stroke-width="1.1596" stroke-linecap="round" stroke-linejoin="round"/>
<path d="M406.3 318H375.8C374.5 318 373.5 317 373.5 315.7L369.1 282H412.8L408.4 315.7C408.5 317 407.5 318 406.3 318Z" fill="#FF94AD" stroke="black" stroke-miterlimit="10"/>
<path d="M412.5 287.8H369.2C367.3 287.8 365.8 286.3 365.8 284.4C365.8 282.5 367.3 281 369.2 281H412.5C414.4 281 415.9 282.5 415.9 284.4C415.9 286.2 414.4 287.8 412.5 287.8Z" fill="#FF94AD" stroke="black" stroke-miterlimit="10"/>
<path d="M314.8 153C314.8 173 300.9 189.7 282.2 194H282.1C281 194.2 279.9 194.5 278.8 194.6C276.8 194.9 274.8 195 272.8 195C249.5 195 230.7 176.1 230.7 152.9C230.7 130.2 248.7 111.6 271.3 110.8C271.7 110.8 272.1 110.8 272.5 110.8C272.6 110.8 272.7 110.8 272.9 110.8C273 110.8 273.2 110.8 273.3 110.8C279.2 110.8 284.7 112.1 289.8 114.3C304.4 120.9 314.8 135.7 314.8 153Z" fill="#FF94AD"/>
<path opacity="0.4" d="M289.6 114.4C241 111.9 240.7 165.8 240.7 165.8C240.7 165.8 233.3 148.2 245.4 128.7C252.2 117.8 264 113 273.1 110.8C279 110.9 284.5 112.2 289.6 114.4Z" fill="white" stroke="black" stroke-miterlimit="10"/>
<path d="M314.8 152.999C314.8 172.999 300.8 189.799 282.1 193.999C279.1 194.699 276 195.099 272.7 195.099C249.4 195.099 230.6 176.199 230.6 152.999C230.6 130.299 248.6 111.699 271.2 110.899C271.7 110.899 272.2 110.899 272.7 110.899C295.9 110.899 314.8 129.699 314.8 152.999Z" stroke="#1A2E35" stroke-width="1.1596" stroke-miterlimit="10" stroke-linecap="round" stroke-linejoin="round"/>
<path d="M314.8 152.999C314.8 172.999 300.8 189.799 282.1 193.999C281.6 193.999 281.1 193.999 280.6 193.999C257.3 193.999 238.5 175.099 238.5 151.899C238.5 131.899 252.5 115.099 271.2 110.899C271.7 110.899 272.2 110.899 272.7 110.899C295.9 110.899 314.8 129.699 314.8 152.999Z" stroke="#1A2E35" stroke-width="1.1596" stroke-miterlimit="10" stroke-linecap="round" stroke-linejoin="round"/>
<path d="M251.2 189.2L260.1 188.8" stroke="#1A2E35" stroke-width="1.1596" stroke-miterlimit="10" stroke-linecap="round" stroke-linejoin="round"/>
<path d="M246.9 186.2L254.6 185.6" stroke="#1A2E35" stroke-width="1.1596" stroke-miterlimit="10" stroke-linecap="round" stroke-linejoin="round"/>
<path d="M243.4 183.099L251.2 182.399" stroke="#1A2E35" stroke-width="1.1596" stroke-miterlimit="10" stroke-linecap="round" stroke-linejoin="round"/>
<path d="M242.3 123.8H249" stroke="#1A2E35" stroke-width="1.1596" stroke-miterlimit="10" stroke-linecap="round" stroke-linejoin="round"/>
<path d="M245.6 120.699L252.2 120.399" stroke="#1A2E35" stroke-width="1.1596" stroke-miterlimit="10" stroke-linecap="round" stroke-linejoin="round"/>
<path d="M249.8 117.6L256.7 117" stroke="#1A2E35" stroke-width="1.1596" stroke-miterlimit="10" stroke-linecap="round" stroke-linejoin="round"/>
<path opacity="0.3" d="M282.2 193.999H282.1C279.1 194.699 276 195.099 272.7 195.099C249.4 195.099 230.6 176.199 230.6 152.999C230.6 130.299 248.6 111.699 271.2 110.899C271.6 110.899 272 110.899 272.4 110.899C262.1 114.099 244.9 122.399 240.3 139.699C233.7 164.099 248.4 191.899 282.2 193.999Z" fill="black" stroke="black" stroke-miterlimit="10"/>
<path opacity="0.1" d="M314.8 152.999C314.8 172.999 300.9 189.699 282.2 193.999H282.1C281 194.199 279.9 194.499 278.8 194.599L289.7 114.399C304.4 120.899 314.8 135.699 314.8 152.999Z" fill="black" stroke="black" stroke-miterlimit="10"/>
<path opacity="0.3" d="M270.4 164.1L267.6 158.4L278.5 152.9C280.8 151.7 282.2 149.1 281.9 146.3L265.6 154.5L262.9 149L279.2 140.8C277.9 139.6 276.2 138.9 274.5 138.9C273.6 138.9 272.7 139.1 271.8 139.5L260.9 145L258.2 139.5L283.9 126.7L286.6 132.2L281 135C282.3 135.8 283.5 136.9 284.5 138.2L288.6 136.1L291.3 141.6L287.2 143.7C288.8 149.8 286.3 155.9 281.2 158.5L277.1 160.5L298 168.8L296.4 174.5L270.4 164.1Z" fill="black" stroke="black" stroke-miterlimit="10"/>
<path d="M283.6 127.3L285.9 131.9L279.9 134.9C281.5 135.8 283 137.1 284.2 138.7L288.3 136.7L290.6 141.3L286.5 143.3C288.2 149.2 286 155.3 280.9 157.9L275.9 160.4L297.4 168.9L296.1 173.6L270.7 163.5L268.2 158.4L278.7 153.2C281.5 151.8 282.8 148.6 282.3 145.4L265.8 153.6L263.5 149L280 140.8C278.5 139.2 276.5 138.3 274.5 138.3C273.5 138.3 272.5 138.5 271.6 139L261.1 144.2L258.8 139.6L283.6 127.3ZM284.1 126L283.2 126.4L258.3 138.8L257.4 139.2L257.8 140.1L260.1 144.7L260.5 145.6L261.4 145.2L271.9 140C272.7 139.6 273.5 139.4 274.4 139.4C275.7 139.4 277.1 139.9 278.2 140.7L263 148.3L262.1 148.7L262.5 149.6L264.8 154.2L265.2 155.1L266.1 154.7L281.3 147.1C281.3 149.5 280.1 151.5 278.1 152.5L267.6 157.7L266.7 158.1L267.1 159L269.6 164.1L269.8 164.4L270.1 164.5L295.5 174.6L296.5 175L296.8 174L298.1 169.3L298.3 168.5L297.8 168.2L278.3 160.5L281.4 158.9C286.6 156.3 289.2 150.1 287.7 144L291 142.3L291.9 141.9L291.5 141L289.2 136.4L288.8 135.5L287.9 135.9L284.5 137.6C283.7 136.7 282.8 135.8 281.8 135.1L286.3 132.9L287.2 132.5L286.8 131.6L284.5 127L284.1 126Z" fill="#070707" stroke="black" stroke-miterlimit="10"/>
<path d="M338.7 86.6998C331.7 96.5998 318.9 99.9998 308.2 95.5998C308.2 95.5998 308.1 95.5998 308 95.4998C307.2 95.1998 306.4 94.7998 305.6 94.2998C304.8 93.7998 303.9 93.2998 303.1 92.7998C291.6 84.6998 288.9 68.7998 297 57.2998C304.8 46.2998 319.8 43.2998 331.2 50.2998C331.4 50.3998 331.6 50.4998 331.8 50.6998C332.1 50.8998 332.3 50.9998 332.6 51.1998C333 51.4998 333.4 51.7998 333.8 52.0998C344.2 60.3998 346.5 75.5998 338.7 86.6998Z" fill="#FF94AD"/>
<path opacity="0.4" d="M300.2 86.9998C300.2 86.9998 296 74.6998 301.6 65.6998C308.5 54.3998 319.2 49.1998 333.7 51.9998C333.7 51.9998 325.8 46.6998 312.7 50.4998C299.5 54.2998 292.5 72.3998 300.2 86.9998Z" fill="white" stroke="black" stroke-miterlimit="10"/>
<path d="M338.7 86.6998C331.7 96.5998 318.9 99.9998 308.2 95.4998C306.5 94.7998 304.8 93.8998 303.2 92.7998C291.7 84.6998 289 68.7998 297.1 57.2998C305 46.0998 320.4 43.1998 331.8 50.6998C332.1 50.8998 332.3 50.9998 332.6 51.1998C344.1 59.2998 346.8 75.1998 338.7 86.6998Z" stroke="#1A2E35" stroke-width="1.1596" stroke-miterlimit="10" stroke-linecap="round" stroke-linejoin="round"/>
<path d="M338.7 86.6993C331.7 96.5993 318.9 99.9993 308.2 95.4993C307.9 95.2993 307.7 95.1993 307.4 94.9993C295.9 86.8993 293.2 70.9993 301.3 59.4993C308.3 49.5993 321.1 46.1993 331.8 50.6993C332.1 50.8993 332.3 50.9993 332.6 51.1993C344.1 59.2993 346.8 75.1993 338.7 86.6993Z" stroke="#1A2E35" stroke-width="1.1596" stroke-miterlimit="10" stroke-linecap="round" stroke-linejoin="round"/>
<path opacity="0.3" d="M331.2 50.2997C324.2 49.0997 315.4 48.3997 310.7 51.3997C302 56.9997 296.5 64.0997 296.6 75.4997C296.7 86.8997 307.4 94.9997 307.4 94.9997L308 95.4997C306.3 94.7997 304.7 93.8997 303.2 92.7997C291.7 84.6997 289 68.7997 297.1 57.2997C304.9 46.1997 319.9 43.2997 331.2 50.2997Z" fill="black" stroke="black" stroke-miterlimit="10"/>
<path opacity="0.1" d="M338.7 86.7C331.7 96.6 318.9 100 308.2 95.6C308.2 95.6 308.1 95.6 308 95.5C307.2 95.2 306.4 94.8 305.6 94.3L333.7 52C344.2 60.4 346.5 75.6 338.7 86.7Z" fill="black" stroke="black" stroke-miterlimit="10"/>
<path opacity="0.3" d="M311.8 74.9992L313 71.6992L319.3 73.8992C320.7 74.3992 322.2 73.8992 323.2 72.6992L313.7 69.2992L314.8 66.0992L324.3 69.4992C324.3 68.4992 323.9 67.5992 323.2 66.8992C322.8 66.4992 322.4 66.2992 321.9 66.0992L315.6 63.8992L316.7 60.6992L331.6 65.9992L330.5 69.1992L327.2 67.9992C327.4 68.7992 327.4 69.6992 327.3 70.5992L329.7 71.3992L328.6 74.5992L326.2 73.7992C324.4 76.6992 321 78.0992 318.1 77.0992L315.7 76.2992L320.4 87.6992L317.6 89.2992L311.8 74.9992Z" fill="black" stroke="black" stroke-miterlimit="10"/>
<path d="M331.4 66.1994L330.4 68.8994L326.9 67.6994C327.2 68.6994 327.2 69.7994 327 70.8994L329.3 71.6994L328.3 74.3994L326 73.5994C324.3 76.4994 321 77.9994 318.1 76.8994L315.2 75.8994L320 87.6994L317.6 88.9994L311.9 75.0994L312.9 72.1994L319 74.3994C320.6 74.9994 322.4 74.2994 323.5 72.8994L313.9 69.4994L314.9 66.7994L324.5 70.1994C324.5 68.9994 324.1 67.8994 323.4 67.0994C323 66.6994 322.6 66.3994 322 66.1994L315.9 63.9994L316.9 61.2994L331.4 66.1994ZM332.1 65.8994L331.6 65.6994L317.2 60.5994L316.7 60.3994L316.5 60.8994L315.5 63.5994L315.3 64.0994L315.8 64.2994L321.9 66.4994C322.3 66.6994 322.7 66.8994 323.1 67.2994C323.6 67.7994 323.9 68.4994 324 69.2994L315.2 66.1994L314.7 65.9994L314.5 66.4994L313.5 69.1994L313.3 69.6994L313.8 69.8994L322.6 72.9994C321.6 73.8994 320.4 74.1994 319.2 73.7994L313.1 71.5994L312.6 71.3994L312.4 71.8994L311.4 74.7994L311.3 74.9994L311.4 75.1994L317.1 89.0994L317.3 89.6994L317.8 89.3994L320.2 88.0994L320.6 87.8994L320.4 87.4994L316 76.7994L317.8 77.3994C320.8 78.4994 324.2 77.0994 326.1 74.1994L328 74.8994L328.5 75.0994L328.7 74.5994L329.7 71.8994L329.9 71.3994L329.4 71.1994L327.5 70.4994C327.6 69.7994 327.6 69.1994 327.5 68.4994L330.1 69.3994L330.6 69.5994L330.8 69.0994L331.8 66.3994L332.1 65.8994Z" fill="#070707" stroke="black" stroke-miterlimit="10"/>
<path d="M325.5 413.199C314.6 426.099 301.9 437.399 287.4 446.099C282.9 448.799 278.2 451.199 273.5 453.399C240.6 468.199 203 469.199 167.9 460.699C94.0998 442.799 54.8998 377.599 49.8998 305.299C48.5998 285.699 45.5998 264.599 53.4998 245.999C61.3998 227.599 77.3998 215.899 95.5998 207.799C108.7 201.999 123 197.999 135.9 194.799C159.4 188.999 183.8 191.599 205.6 201.999C220.8 209.199 231.6 221.699 244.4 232.199C245.8 233.299 247.1 234.399 248.5 235.499C261.4 245.899 275 255.399 289.1 263.999C310.6 277.099 332.5 289.399 346.3 311.399C368 346.599 349.6 384.699 325.5 413.199Z" fill="#FF94AD" stroke="black" stroke-miterlimit="10"/>
<path opacity="0.4" d="M325.5 413.199C314.6 426.099 301.9 437.399 287.4 446.099C282.9 448.799 278.2 451.199 273.5 453.399C240.6 468.199 203 469.199 167.9 460.699C94.0998 442.799 54.8998 377.599 49.8998 305.299C48.5998 285.699 45.5998 264.599 53.4998 245.999C61.3998 227.599 77.3998 215.899 95.5998 207.799C108.7 201.999 123 197.999 135.9 194.799C159.4 188.999 183.8 191.599 205.6 201.999C220.8 209.199 231.6 221.699 244.4 232.199C245.8 233.299 247.1 234.399 248.5 235.499C261.4 245.899 275 255.399 289.1 263.999C310.6 277.099 332.5 289.399 346.3 311.399C368 346.599 349.6 384.699 325.5 413.199Z" fill="white" stroke="black" stroke-miterlimit="10"/>
<path d="M248.4 235.499C247 234.399 245.7 233.299 244.3 232.199C231.5 221.599 220.7 209.199 205.5 201.999C183.7 191.599 159.3 188.999 135.8 194.799C105.1 202.399 66.9998 214.099 53.4998 245.999C45.5998 264.599 48.5998 285.699 49.8998 305.299C54.8998 377.599 93.9998 442.799 167.9 460.699C208.1 470.399 251.4 467.799 287.4 446.199C301.9 437.499 314.6 426.199 325.5 413.299C349.5 384.799 368 346.599 346.1 311.599C332.4 289.599 310.4 277.299 288.9 264.199C274.9 255.499 261.3 245.899 248.4 235.499Z" stroke="black" stroke-width="1.1596" stroke-miterlimit="10"/>
<path d="M136.5 364.6C130.4 366.5 124.3 368.8 118.7 371.8" stroke="black" stroke-width="1.1596" stroke-miterlimit="10" stroke-linecap="round" stroke-linejoin="round"/>
<path d="M174.2 357.399C174.2 357.399 162.1 358.199 147.5 361.599" stroke="black" stroke-width="1.1596" stroke-miterlimit="10" stroke-linecap="round" stroke-linejoin="round"/>
<path d="M166.3 355.5C166.3 355.5 131.6 335.3 89.7998 351.5" stroke="black" stroke-width="1.1596" stroke-miterlimit="10" stroke-linecap="round" stroke-linejoin="round"/>
<path opacity="0.1" d="M325.5 413.2C314.6 426.1 301.9 437.4 287.4 446.1C282.9 448.8 278.2 451.2 273.5 453.4C269.7 452.2 266 450.9 262.4 449.3C240.8 440 222.6 424.3 204.9 408.9C194.2 399.6 183.3 390.1 170.5 384C153.4 375.8 133.2 374.2 115 379.4C124.4 368.7 137.6 361.4 151.7 359.2C142.5 350.9 129.8 347.4 117.4 347.1C105 346.9 98.1997 348.4 86.0997 351.1C90.0997 343.7 100.9 336.9 109.4 337.1C100.9 336.9 91.2997 336.3 85.2997 335.4C74.3997 333.6 69.4997 320.8 67.7997 309.8C63.2997 279.7 67.8997 247.5 84.2997 221.9C87.6997 216.5 91.4997 211.8 95.5997 207.7C108.7 201.9 123 197.9 135.9 194.7C159.4 188.9 183.8 191.5 205.6 201.9C220.8 209.1 231.6 221.6 244.4 232.1C245.8 233.2 247.1 234.3 248.5 235.4C261.4 245.8 275 255.3 289.1 263.9C310.6 277 332.5 289.3 346.3 311.3C368 346.6 349.6 384.7 325.5 413.2Z" fill="black" stroke="black" stroke-miterlimit="10"/>
<path d="M337.6 412.399C337.6 412.399 347.3 420.599 358 427.399C371.8 428.299 365.6 444.999 365.6 444.999L353.8 452.599C353.8 452.599 333.6 436.599 322.6 431.399C311.6 426.099 337.6 412.399 337.6 412.399Z" fill="white" stroke="black" stroke-miterlimit="10"/>
<path opacity="0.3" d="M239.7 236.9C239.7 236.9 237.8 218.2 234.8 212.9L189 203.5V200C189 200 190.1 193.8 179.9 190C169.7 186.1 148.4 191.2 142.9 195.3C137.4 199.4 139.4 206.6 139.4 206.6C139.4 206.6 121 215.9 112.7 219.5C104.4 223.1 92.8997 229.9 92.8997 229.9C92.8997 229.9 89.1997 272.9 89.8997 282.9C90.5997 292.9 89.2997 302.3 90.1997 307.8C91.0997 313.3 91.6996 316.5 97.4996 321.2C103.3 325.9 108.6 332.9 123.8 326L121.7 324.3L221.8 290.6L239.7 236.9Z" fill="black" stroke="black" stroke-miterlimit="10"/>
<path d="M239.7 236.9C239.7 236.9 237.8 218.2 234.8 212.9L189 203.5V200C189 200 190.1 193.8 179.9 190C169.7 186.1 148.4 191.2 142.9 195.3C137.4 199.4 139.4 206.6 139.4 206.6C139.4 206.6 121 215.9 112.7 219.5C104.4 223.1 92.8997 229.9 92.8997 229.9C92.8997 229.9 89.1997 272.9 89.8997 282.9C90.5997 292.9 89.2997 302.3 90.1997 307.8C91.0997 313.3 91.6996 316.5 97.4996 321.2C103.3 325.9 108.6 332.9 123.8 326L121.7 324.3L221.8 290.6L239.7 236.9Z" fill="#2F352B" stroke="black" stroke-miterlimit="10"/>
<path d="M239.7 236.9C239.7 236.9 237.8 218.2 234.8 212.9L189 203.5V200C189 200 190.1 193.8 179.9 190C169.7 186.1 148.4 191.2 142.9 195.3C137.4 199.4 139.4 206.6 139.4 206.6C139.4 206.6 121 215.9 112.7 219.5C104.4 223.1 92.8997 229.9 92.8997 229.9C92.8997 229.9 89.1997 272.9 89.8997 282.9C90.5997 292.9 89.2997 302.3 90.1997 307.8C91.0997 313.3 91.6996 316.5 97.4996 321.2C103.3 325.9 108.6 332.9 123.8 326L121.7 324.3L221.8 290.6L239.7 236.9Z" fill="#EC103C" stroke="black" stroke-miterlimit="10"/>
<path opacity="0.1" d="M235.4 215.2H216.2C212.5 215.2 209.3 217.9 208.7 221.6L199.3 278.5C199.3 278.5 186.3 279.6 177.1 286.3C167.9 293 145.2 245.1 109.5 245.1C109.5 245.1 119.8 268.6 122.1 287.4C122.1 287.4 99.6995 285 95.9995 293.7C92.2995 302.5 97.6995 318.9 107.1 312.5C116.6 306.2 125.4 295.5 131.8 302.2C138.2 308.9 166.4 312.5 166.4 312.5L209.9 290.7L226.8 282.8L235.4 215.2Z" fill="black" stroke="black" stroke-miterlimit="10"/>
<path d="M174.5 187.1C174.5 187.1 185.4 190.1 187.1 193.8C188.9 197.4 188.7 206.7 188.7 206.7C188.7 206.7 185.7 214.9 177 222.8L168.9 206.7L169.6 225C169.6 225 154.2 222.4 147.7 217.5C141.2 212.6 141.2 212.6 141.2 212.6C141.2 212.6 138.4 203.4 138.8 200.2C139.2 197 151 190.7 151 190.7L174.5 187.1Z" fill="#FF94AD"/>
<path d="M355.7 468.5C355.4 467.8 360.2 459.4 356.4 450.8C352.7 442.2 346.7 445.5 346.7 445.5C346.7 445.5 329.8 434.7 322.6 431.3C315.5 427.9 307.8 422.5 307.8 422.5L300.3 432.6L307.3 454.1L355.7 468.5Z" fill="#B2B2B2" stroke="black" stroke-miterlimit="10"/>
<path d="M346.1 445.1L367.9 458.4C367.9 458.4 383.2 448.6 390.5 441.8C397.8 435 414.1 420.6 414.1 420.6L424.5 406.6C424.5 406.6 417.3 397.6 405.2 404.8C389.6 414.1 370.6 427.5 357.9 427.4C358 427.4 360.5 443 346.1 445.1Z" fill="#B2B2B2" stroke="black" stroke-miterlimit="10"/>
<path d="M170.8 130.8C170.8 130.8 180.7 145.7 182.5 150.6C184.3 155.4 185.7 162.6 185.4 166C185 169.4 181.4 187.9 179.6 188.4L177.8 190.4L178.9 198.2C178.9 198.2 171.2 211.6 148.5 201.8C148.5 201.8 147.6 186.2 144.9 181.3C142.1 176.4 138 182.2 133.9 168.1C129.8 154 142.9 139.2 142.9 139.2L170.8 130.8Z" fill="white" stroke="black" stroke-miterlimit="10"/>
<path opacity="0.5" d="M415.1 402.2C415.1 402.2 403.9 404.1 400.3 410.8C396.7 417.4 389.7 429.7 387.3 435.7C384.9 441.7 365.2 456 365.2 456L367.8 458.4C367.8 458.4 383.8 448.5 393.5 439.1C403.2 429.7 424.5 406 424.5 406C424.5 406 423 404.5 415.1 402.2Z" fill="white" stroke="black" stroke-miterlimit="10"/>
<path opacity="0.5" d="M303.1 429L300.3 432.7L308.8 450.4L355.6 467.2L357.8 460.3C357.8 460.3 358.5 453.3 342.1 448.1C325.7 442.8 315.6 439.3 311 435.7C306.4 432.1 303.1 429 303.1 429Z" fill="white" stroke="black" stroke-miterlimit="10"/>
<path d="M148.6 297.9C148.6 297.9 134.3 295.7 127.6 307.5C120.9 319.2 121.6 324.3 121.6 324.3C121.6 324.3 131.1 332.9 144.1 332.5C157.1 332.1 176.1 317.1 182.3 312.2C188.5 307.3 204.1 293.4 214.7 296.3L215.8 286.2C215.8 286.2 214.8 281.7 205.7 282.9C196.6 284.1 193 289.3 190.1 289.3C187.2 289.3 184.4 286.5 178.5 296.5C178.5 296.6 157.8 300.3 148.6 297.9Z" fill="white" stroke="black" stroke-miterlimit="10"/>
<path d="M167.2 152.3C167.5 154.2 167.9 156 168.5 157.9C168.8 158.8 169.1 159.7 169.7 160.3C170.8 161.5 172.6 161.8 174.2 162C174.5 162 174.8 162.1 174.9 162.3C175.1 162.5 175.1 162.8 175.1 163C175.1 164.8 174.5 166.6 173.5 168.1" stroke="#1A2E35" stroke-width="1.1596" stroke-miterlimit="10" stroke-linecap="round" stroke-linejoin="round"/>
<path opacity="0.1" d="M312.8 417L303.2 429C303.2 429 313.8 438.7 324.7 442.4C335.6 446 354.7 452.9 357.9 458.1L356.7 451.8C356.7 451.8 326.8 433.5 319.9 429.1C313 424.7 312.8 417 312.8 417Z" fill="black" stroke="black" stroke-miterlimit="10"/>
<path opacity="0.1" d="M346.1 445.1L365.2 456C365.2 456 374.6 449.6 379.3 444.8C384 440 389.6 434.8 393.2 424.1C398.1 409.3 412 402.3 412 402.3C412 402.3 392.6 411.4 382.6 418.6C372.5 425.8 362.7 428.7 357 428.2C357 428.1 361.6 442.6 346.1 445.1Z" fill="black" stroke="black" stroke-miterlimit="10"/>
<path d="M160.5 170.8C160.5 170.8 168 176.7 175.8 174.5C175.8 174.5 168.5 189.1 160.5 170.8Z" fill="white" stroke="black" stroke-width="1.1596" stroke-miterlimit="10" stroke-linecap="round" stroke-linejoin="round"/>
<path d="M160.299 158C160.499 159.6 159.999 161 159.199 161.1C158.399 161.2 157.499 160 157.299 158.4C157.099 156.8 157.599 155.4 158.399 155.3C159.199 155.2 159.999 156.4 160.299 158Z" fill="#070707" stroke="black" stroke-miterlimit="10"/>
<path d="M176.6 155.1C176.8 156.7 176.3 158.1 175.5 158.2C174.7 158.3 173.8 157.1 173.6 155.5C173.4 153.9 173.9 152.5 174.7 152.4C175.5 152.2 176.4 153.4 176.6 155.1Z" fill="#070707" stroke="black" stroke-miterlimit="10"/>
<path d="M159.1 151.1C159.1 151.1 154.7 148.8 151.6 153.7" stroke="#1A2E35" stroke-width="1.1596" stroke-miterlimit="10" stroke-linecap="round" stroke-linejoin="round"/>
<path d="M170.3 148.1C170.3 148.1 174.9 144.1 177.6 148.1" stroke="#1A2E35" stroke-width="1.1596" stroke-miterlimit="10" stroke-linecap="round" stroke-linejoin="round"/>
<path d="M144.2 166.1C144.2 166.1 141.4 161.9 138.4 162.1C135.4 162.2 134.2 166.4 135.3 170.4C136.4 174.4 140.8 180.1 144.2 179.5C147.6 179 149 176.8 149 176.8" stroke="#1A2E35" stroke-width="1.1596" stroke-miterlimit="10" stroke-linecap="round" stroke-linejoin="round"/>
<path d="M171.2 134.2C174.4 136.8 177.7 139.7 179.4 143.6C180.8 146.9 181.1 150.5 182.4 153.9C183.8 157.5 185.3 161.2 185.4 165.1C185.5 168.6 184.7 172.3 184 175.8C183.4 178.8 182.9 181.9 181.9 184.7C180.3 188.9 177.4 191.4 173.6 193.4C170.8 194.8 166.1 196.9 163 195C161.2 193.9 158.6 190.5 156.3 187.5" stroke="black" stroke-width="1.1596" stroke-miterlimit="10" stroke-linecap="round" stroke-linejoin="round"/>
<path d="M144.2 179.5C144.2 179.5 149.2 191.7 148 200.3" stroke="#1A2E35" stroke-width="1.1596" stroke-miterlimit="10" stroke-linecap="round" stroke-linejoin="round"/>
<path d="M142.9 164C144.2 163 145 161.3 144.8 159.7C144.6 157.8 143.3 156.1 143.6 154.2C143.7 153.3 144.2 152.5 144.6 151.6C146 148.5 145.7 144.7 144 141.8C144 141.8 159.8 142.5 167.3 137.8C174.7 133.1 180.4 121 175.9 115.2C171.4 109.4 162.7 117.3 156.2 118.2C149.7 119.1 126.6 122.7 123 131.7C119.3 140.6 124.9 143.8 125.1 152.3C125.3 160.8 125.3 176.8 137.9 175.4C137.9 175.4 133.2 169.3 136.4 162.9C138.6 160.2 142.9 164 142.9 164Z" fill="#0C0C0C" stroke="black" stroke-miterlimit="10"/>
<path d="M173.9 125.399C173.9 125.399 180.4 129.799 181.5 139.299C182.2 145.699 193.5 157.999 185.4 164.999C185.4 164.999 183.5 157.499 182.4 153.799C181.3 150.099 179.9 143.399 178 140.999C176.1 138.599 166.2 130.599 166.2 130.599L173.9 125.399Z" fill="#0C0C0C" stroke="black" stroke-miterlimit="10"/>
<path d="M145.599 200.1C145.599 200.1 153.399 205.2 167.899 205.5L169.599 225C169.599 225 153.299 223.8 141.099 212.6C141.099 212.6 137.799 203.9 138.699 200.2C139.599 196.5 147.299 192.8 147.299 192.8" stroke="black" stroke-width="1.1596" stroke-miterlimit="10" stroke-linecap="round" stroke-linejoin="round"/>
<path d="M178.5 191.3L179 198.2C173.7 203.6 168 205.3 168 205.3L177.1 222.6C177.1 222.6 187.9 214.2 189 205.3C189 205.3 189.1 196.2 187.2 193.6C185.3 191 178.4 189.8 178.4 189.8" stroke="#050505" stroke-width="1.1596" stroke-miterlimit="10" stroke-linecap="round" stroke-linejoin="round"/>
<path opacity="0.8" d="M134.5 137.5C135.7 134.6 138.8 132.9 141.9 132.4C145 131.9 148.2 132.3 151.3 132.2C155.6 132.1 159.9 131.1 163.6 128.7C167.2 126.4 170.1 122.8 171 118.5" stroke="white" stroke-width="1.1596" stroke-miterlimit="10" stroke-linecap="round" stroke-linejoin="round"/>
<path opacity="0.8" d="M127 137C129 131 135.3 127.4 141.6 126.8C144.7 126.5 147.8 126.9 150.9 126.5C154 126.1 157.2 124.9 158.8 122.2" stroke="white" stroke-width="1.1596" stroke-miterlimit="10" stroke-linecap="round" stroke-linejoin="round"/>
<path d="M123.7 326C108.6 333.8 103.3 325.8 94.8996 319.1C86.4996 312.4 91.9996 300.6 90.2996 281.5C88.5996 262.4 92.8996 230 92.8996 230C92.8996 230 96.6996 229.1 107.1 222.8C117.5 216.4 139.5 206.7 139.5 206.7" stroke="#020202" stroke-width="1.1596" stroke-miterlimit="10" stroke-linecap="round" stroke-linejoin="round"/>
<path d="M138.6 297.1C138.6 297.1 136.2 289.5 129.5 289.3C122.7 289.1 112.1 292.1 104.5 306.5" stroke="black" stroke-width="1.1596" stroke-miterlimit="10" stroke-linecap="round" stroke-linejoin="round"/>
<path d="M127.899 288.9C127.499 288.9 127.099 288.8 126.699 288.6C121.199 286.6 115.099 286.3 109.399 287.8" stroke="black" stroke-width="1.1596" stroke-miterlimit="10" stroke-linecap="round" stroke-linejoin="round"/>
<path d="M105.5 240.3C117.8 253.9 123.8 271.8 129.4 289.2" stroke="#020202" stroke-width="1.1596" stroke-miterlimit="10" stroke-linecap="round" stroke-linejoin="round"/>
<path d="M189 203.6C189 203.6 211.3 208.9 222.1 210.2C233 211.5 234.7 213 234.7 213L236.7 220.6" stroke="#020202" stroke-width="1.1596" stroke-miterlimit="10" stroke-linecap="round" stroke-linejoin="round"/>
<path d="M292.7 216.8L216.9 219.7L210.7 297.7H223.7L289.5 283L297.8 218.7L292.7 216.8Z" fill="#606060"/>
<g opacity="0.15">
<path d="M214.6 300L294.3 250L289.5 283L214.6 300Z" fill="#2D2D2D" stroke="black" stroke-miterlimit="10"/>
<path opacity="0.7" d="M214.6 300L294 250.3L289.5 283L214.6 300Z" fill="#2D2D2D" stroke="black" stroke-miterlimit="10"/>
</g>
<path d="M214.6 297.9L221.3 222.7L297.8 218.7L289.5 283L214.6 297.9Z" stroke="black" stroke-width="1.1596" stroke-miterlimit="10" stroke-linecap="round" stroke-linejoin="round"/>
<path d="M289.5 282.999C289.5 282.999 324.5 281.999 335.5 289.199C346.5 296.399 352.9 332.699 351.4 351.999C349.9 371.299 336.7 415.499 336.7 415.499L311.4 386.799C311.4 386.799 298.9 341.399 305.7 323.699C305.7 323.699 272.1 325.599 258.8 321.399C258.8 321.399 246.9 301.999 226.6 295.499L289.5 282.999Z" fill="#181818" stroke="black" stroke-miterlimit="10"/>
<path d="M342 416.3C331.3 406.6 321 393.3 317.9 388.5C305.6 369.6 288.7 351.3 271.3 337.2C257.2 325.8 254.1 307.2 236.7 297.9C208 282.5 183.2 313.1 173.9 319.3C164.6 325.5 148.6 332.5 148.6 332.5C148.6 332.5 154.5 354.5 171.7 357.1C188.9 359.8 206.4 347.8 214.7 353.6C223 359.3 229 385 256.3 400C278.6 412.3 308.9 424.2 324.5 432.3C328 434.1 330.6 436 332.5 437.1C337.9 440 343.7 443.5 349.1 447L367.9 458.4C367.9 458.4 386.7 447.3 394 437C395 435.6 397 431.9 398.9 428.4C403 420.7 408.2 413.7 415.4 409.8C420.4 407.1 424.8 406.3 424.6 406C424.1 405.1 415.1 400.5 409 403C396.1 408.3 370.2 428.9 358 427.4C358 427.4 349.1 422.7 342 416.3Z" stroke="black" stroke-width="1.1596" stroke-miterlimit="10"/>
<path d="M342 416.3C330.7 420.9 326.2 427.9 324.4 432.3C308.8 424.2 278.4 412.3 256.2 400C229 385 222.9 359.3 214.6 353.6C206.3 347.9 188.9 359.8 171.6 357.1C154.4 354.4 148.5 332.5 148.5 332.5C148.5 332.5 164.6 325.5 173.8 319.3C183.1 313.1 204.5 282.5 236.6 297.9C254.299 306.4 257.1 325.8 271.2 337.2C288.6 351.3 305.6 369.6 317.8 388.5C321 393.2 331.3 406.6 342 416.3Z" fill="#181818" stroke="black" stroke-miterlimit="10"/>
<path d="M257.2 317.999C257.2 317.999 248.5 300.299 234.6 296.899" stroke="white" stroke-width="1.1596" stroke-miterlimit="10" stroke-linecap="round" stroke-linejoin="round"/>
<path d="M211.7 282.8C202.1 280.7 191.6 291.3 187.2 289.3C183.9 287.8 178.5 296.5 178.5 296.5C178.5 296.5 164.5 298.7 151.6 297.9C138.7 297.1 132.6 299.6 128 306.5L121.6 323.4C121.6 323.4 138.4 338.5 156.4 329.7C174.4 320.9 198.2 294.4 214.7 294.5" stroke="#1A2E35" stroke-width="1.1596" stroke-miterlimit="10" stroke-linecap="round" stroke-linejoin="round"/>
<path d="M345.399 444.6C345.399 444.6 361.099 445.9 357.399 427.1" stroke="black" stroke-width="1.1596" stroke-miterlimit="10"/>
<path d="M419.5 415.5C418.3 417.9 403.9 430.1 391.5 440.8C391.5 440.6 394.9 434.1 396.4 431.3C399.7 425.1 408.2 408.2 424.5 406C426.8 407.4 419.5 415.5 419.5 415.5Z" fill="#070707" stroke="black" stroke-miterlimit="10"/>
<path d="M413.3 402.3C396.9 405.6 393.1 426.6 387.3 435.6C381.5 444.6 365.2 456.7 365.2 456.7" stroke="black" stroke-width="1.1596" stroke-miterlimit="10"/>
<path d="M356.4 451.4C359.1 456.3 357.8 462 356.4 465.5C355.2 468.5 353.8 470.6 353.8 470.6C330.5 466.8 307.3 454.3 307.3 454.3L301.3 435.7L300.3 432.7L309.3 420.5" stroke="black" stroke-width="1.1596" stroke-miterlimit="10"/>
<path d="M356.4 465.5C355.2 468.5 353.8 470.6 353.8 470.6C330.5 466.8 307.3 454.3 307.3 454.3L301.3 435.7C304.3 439.6 309.9 445.4 318.2 447.7C329.6 450.9 350.5 454.7 356.4 465.5Z" fill="#070707" stroke="black" stroke-miterlimit="10"/>
<path d="M210.7 295L216.9 219.7L292.7 216.8L297.8 218.7" stroke="black" stroke-width="1.1596" stroke-miterlimit="10" stroke-linecap="round" stroke-linejoin="round"/>
<path d="M357.3 435.6C357.3 435.6 367.7 437.4 375.6 430.9C383.6 424.4 396.4 409.7 396.4 409.7" stroke="black" stroke-width="1.1596" stroke-miterlimit="10"/>
<path d="M367.9 426.3C367.9 426.3 365.4 430.1 367.9 437.6" stroke="black" stroke-width="1.1596" stroke-miterlimit="10" stroke-linecap="round" stroke-linejoin="round"/>
<path d="M375.199 422.7C375.199 422.7 373.199 428.3 376.099 434" stroke="black" stroke-width="1.1596" stroke-miterlimit="10" stroke-linecap="round" stroke-linejoin="round"/>
<path d="M384 417.6C384 417.6 381.9 423.9 384 429.5" stroke="black" stroke-width="1.1596" stroke-miterlimit="10" stroke-linecap="round" stroke-linejoin="round"/>
<path d="M311.5 419L303.2 429C303.2 429 311.6 438.1 323.4 441.9C335.2 445.7 356.3 452.2 358.1 459" stroke="black" stroke-width="1.1596" stroke-miterlimit="10"/>
</g>
<defs>
<clipPath id="clip0_4710_365">
<rect width="500" height="500" fill="white"/>
</clipPath>
</defs>
</svg>
