<svg width="680" height="577" viewBox="0 0 680 577" fill="none" xmlns="http://www.w3.org/2000/svg">
<path d="M559.2 188V183.8C559.2 181.5 557.3 179.6 555 179.6H532.3C530 179.6 528.1 181.5 528.1 183.8V188V192.7V236.9C528.1 239.2 530 241.1 532.3 241.1H599.8C602.1 241.1 604 239.2 604 236.9V192.2C604 189.9 602.1 188 599.8 188H559.2Z" fill="white" stroke="black" stroke-width="2.6161" stroke-miterlimit="10"/>
<path d="M530.999 457.4L533.899 460.1C535.699 461.7 538.299 462 540.299 460.7L540.499 460.6C543.399 458.7 543.099 454.2 539.899 452.8C537.799 451.8 535.199 452.4 533.699 454.2L530.999 457.4Z" fill="#10A261"/>
<path d="M440.699 532.7C441.199 531.9 494.599 453.9 535.399 422.4L534.399 421.2C493.399 452.9 439.899 531.1 439.399 531.9L440.699 532.7Z" fill="#A7A9AC"/>
<path d="M541.8 403C541.8 403 543 408.2 541.1 413.4C545.8 410.5 551.1 410.5 551.1 410.5C551.1 410.5 549.3 415.5 545 418.9C550.5 418.9 555 421.8 555 421.8C555 421.8 550.4 425.4 544.4 425.7C538.5 426 533.5 422.8 533.5 422.8C533.5 422.8 532.2 417.1 534.5 411.6C536.8 406.2 541.8 403 541.8 403Z" fill="#10A261"/>
<path d="M489.399 468.7C515.299 456.8 531.799 458.2 531.999 458.2L532.099 456.7C531.399 456.6 514.999 455.199 488.699 467.299L489.399 468.7Z" fill="#A7A9AC"/>
<path d="M455.599 407.1L452.7 404.3C451 402.6 450.599 400 451.899 397.9L451.999 397.7C453.799 394.7 458.199 394.8 459.899 397.9C460.999 400 460.499 402.6 458.799 404.2L455.599 407.1Z" fill="#2F352B"/>
<path d="M458.199 474.7C458.399 444.6 465.699 419.9 479.999 401.2L478.799 400.3C464.399 419.3 456.899 444.3 456.699 474.8L458.199 474.7Z" fill="#A7A9AC"/>
<path d="M497.799 393C497.799 393 492.599 392.1 487.399 394.1C490.099 389.3 489.899 384 489.899 384C489.899 384 484.999 386 481.699 390.5C481.399 385 478.399 380.6 478.399 380.6C478.399 380.6 474.999 385.4 474.999 391.3C474.999 397.2 478.399 402.1 478.399 402.1C478.399 402.1 484.199 403.1 489.599 400.6C494.899 398.1 497.799 393 497.799 393Z" fill="#10A261"/>
<path d="M460.6 447.1C455 425.5 456.3 406.3 456.3 406.1L454.7 406C454.7 406.2 453.4 425.7 459.1 447.5L460.6 447.1Z" fill="#A7A9AC"/>
<path d="M432.1 513.5L462.6 467.3C463.2 466.4 522.4 377.6 589 324.1L588 322.9C521.2 376.6 461.9 465.6 461.3 466.5L430.8 512.7L432.1 513.5Z" fill="#10A261" stroke="black" stroke-miterlimit="10"/>
<path d="M516.399 403.1C516.399 403.1 547.399 358.5 614.399 380.5C614.399 380.6 575.999 422.8 516.399 403.1Z" fill="#10A261" stroke="black" stroke-miterlimit="10"/>
<path d="M518 385.1C518 385.1 559.7 350.3 531.7 285.5C531.7 285.5 493.1 327.4 518 385.1Z" fill="#10A261" stroke="black" stroke-miterlimit="10"/>
<path d="M540.899 367.9C540.899 367.9 595.199 368.6 616.199 301.2C616.099 301.2 559.499 307.9 540.899 367.9Z" fill="#10A261" stroke="black" stroke-miterlimit="10"/>
<path d="M508.6 406C524.1 381.5 526.2 353.8 526.3 353.5L524.7 353.4C524.7 353.7 522.6 381.1 507.3 405.2L508.6 406Z" fill="#10A261" stroke="black" stroke-miterlimit="10"/>
<path d="M503.899 411.7C519.499 397.6 556.699 396.5 557.099 396.5V394.9C555.499 394.9 518.899 396.1 502.899 410.5L503.899 411.7Z" fill="#10A261" stroke="black" stroke-miterlimit="10"/>
<path d="M429.699 566.2L467.999 540.3C468.699 539.8 542.799 490.3 611.299 470.4L610.899 468.9C542.199 488.9 467.899 538.5 467.199 539L428.899 564.9L429.699 566.2Z" fill="#10A261" stroke="black" stroke-miterlimit="10"/>
<path d="M529.999 508.001C529.999 508.001 568.199 483.501 612.799 522.001C612.699 522.001 569.599 542.201 529.999 508.001Z" fill="#10A261" stroke="black" stroke-miterlimit="10"/>
<path d="M537 494.6C537 494.6 580.3 481.1 579.5 422.2C579.5 422.2 536.3 442.2 537 494.6Z" fill="#10A261" stroke="black" stroke-miterlimit="10"/>
<path d="M560.1 488.6C560.1 488.6 601.8 506.5 639.5 461.3C639.5 461.4 593.7 448.4 560.1 488.6Z" fill="#10A261" stroke="black" stroke-miterlimit="10"/>
<path d="M494.9 518.7C494.9 518.7 535.5 498.4 525.2 440.4C525.2 440.4 485.8 467.1 494.9 518.7Z" fill="#10A261" stroke="black" stroke-miterlimit="10"/>
<path d="M496.999 525.801C496.999 525.801 539.299 509.501 575.299 556.201C575.299 556.201 528.999 567.301 496.999 525.801Z" fill="#10A261" stroke="black" stroke-miterlimit="10"/>
<path d="M523.099 507.8C542.899 493.9 553.499 473.1 553.599 472.9L552.199 472.2C552.099 472.4 541.699 492.8 522.199 506.5L523.099 507.8Z" fill="#10A261" stroke="black" stroke-miterlimit="10"/>
<path d="M517.699 510.8C534.199 505 563.199 516 563.499 516.1L564.099 514.6C562.899 514.1 534.199 503.2 517.199 509.3L517.699 510.8Z" fill="#10A261" stroke="black" stroke-miterlimit="10"/>
<path d="M488.599 527.4C488.699 527.4 497.999 523.7 512.299 531.4L512.999 530C497.899 521.9 488.299 525.7 487.899 525.9L488.599 527.4Z" fill="#10A261"/>
<path d="M488.599 527.4C488.699 527.4 497.999 523.7 512.299 531.4L512.999 530C497.899 521.9 488.299 525.7 487.899 525.9L488.599 527.4ZM488.599 527.4L488.299 526.7" stroke="black" stroke-miterlimit="10"/>
<path d="M485.199 529.5C485.699 529.2 498.699 521.4 502.699 502.8L501.199 502.5C497.399 520.4 484.599 528.1 484.399 528.2L485.199 529.5Z" fill="#10A261" stroke="black" stroke-miterlimit="10"/>
<path d="M83.9998 267.3V255.3L77.0998 254.2C75.3998 253.9 73.8998 252.7 73.2998 251.1C72.8998 249.9 72.3998 248.8 71.8998 247.7C71.0998 246.1 71.2998 244.2 72.3998 242.8L76.4998 237.2L67.9998 228.7L62.3998 232.8C60.9998 233.8 59.0998 234.1 57.4998 233.3C56.3998 232.8 55.1998 232.3 54.0998 231.9C52.3998 231.3 51.2998 229.8 50.9998 228.1L49.8998 221.2H37.8998L36.7998 228.1C36.4998 229.8 35.2998 231.3 33.6998 231.9C32.4998 232.3 31.3998 232.8 30.2998 233.3C28.6998 234.1 26.7998 233.9 25.3998 232.8L19.7998 228.7L11.2998 237.2L15.3998 242.8C16.3998 244.2 16.6998 246.1 15.8998 247.7C15.3998 248.8 14.8998 250 14.4998 251.1C13.8998 252.8 12.3998 253.9 10.6998 254.2L3.7998 255.3V267.3L10.6998 268.4C12.3998 268.7 13.8998 269.9 14.4998 271.5C14.8998 272.7 15.3998 273.8 15.8998 274.9C16.6998 276.5 16.4998 278.4 15.3998 279.8L11.2998 285.4L19.7998 293.9L25.3998 289.8C26.7998 288.8 28.6998 288.5 30.2998 289.3C31.3998 289.8 32.5998 290.3 33.6998 290.7C35.3998 291.3 36.4998 292.8 36.7998 294.5L37.8998 301.4H49.8998L50.9998 294.5C51.2998 292.8 52.4998 291.3 54.0998 290.7C55.2998 290.3 56.3998 289.8 57.4998 289.3C59.0998 288.5 60.9998 288.7 62.3998 289.8L67.9998 293.9L76.4998 285.4L72.3998 279.8C71.3998 278.4 71.0998 276.5 71.8998 274.9C72.3998 273.8 72.8998 272.6 73.2998 271.5C73.8998 269.8 75.3998 268.7 77.0998 268.4L83.9998 267.3ZM43.8998 275.3C36.1998 275.3 29.8998 269.1 29.8998 261.3C29.8998 253.6 36.0998 247.3 43.8998 247.3C51.6998 247.3 57.8998 253.5 57.8998 261.3C57.8998 269 51.5998 275.3 43.8998 275.3Z" fill="#EC103C"/>
<path d="M128.6 206.7V198.4L123.9 197.7C122.7 197.5 121.7 196.7 121.3 195.6C121 194.8 120.7 194 120.3 193.2C119.8 192.1 119.9 190.8 120.6 189.8L123.4 185.9L117.6 180.1L113.7 182.9C112.7 183.6 111.4 183.8 110.3 183.2C109.5 182.8 108.7 182.5 107.9 182.2C106.8 181.8 105.9 180.8 105.8 179.6L105.1 174.9H96.7998L96.0998 179.6C95.8998 180.8 95.0998 181.8 93.9998 182.2C93.1998 182.5 92.3998 182.8 91.5998 183.2C90.4998 183.7 89.1998 183.6 88.1998 182.9L84.2998 180.1L78.4998 185.9L81.2998 189.8C81.9998 190.8 82.1998 192.1 81.5998 193.2C81.1998 194 80.8998 194.8 80.5998 195.6C80.1998 196.7 79.1998 197.6 77.9998 197.7L73.2998 198.4V206.7L77.9998 207.4C79.1998 207.6 80.1998 208.4 80.5998 209.5C80.8998 210.3 81.1998 211.1 81.5998 211.9C82.0998 213 81.9998 214.3 81.2998 215.3L78.4998 219.2L84.2998 225L88.1998 222.2C89.1998 221.5 90.4998 221.3 91.5998 221.9C92.3998 222.3 93.1998 222.6 93.9998 222.9C95.0998 223.3 95.9998 224.3 96.0998 225.5L96.7998 230.2H105.1L105.8 225.5C106 224.3 106.8 223.3 107.9 222.9C108.7 222.6 109.5 222.3 110.3 221.9C111.4 221.4 112.7 221.5 113.7 222.2L117.6 225L123.4 219.2L120.6 215.3C119.9 214.3 119.7 213 120.3 211.9C120.7 211.1 121 210.3 121.3 209.5C121.7 208.4 122.7 207.5 123.9 207.4L128.6 206.7ZM100.9 212.2C95.5998 212.2 91.2998 207.9 91.2998 202.6C91.2998 197.3 95.5998 193 100.9 193C106.2 193 110.5 197.3 110.5 202.6C110.6 207.9 106.2 212.2 100.9 212.2Z" fill="#BCBEC0" stroke="black" stroke-miterlimit="10"/>
<path d="M463.1 369.6V343.6L448.2 341.3C444.4 340.7 441.2 338.2 440 334.5C439.1 331.9 438.1 329.4 436.9 327C435.2 323.6 435.7 319.5 437.9 316.4L446.8 304.3L428.4 285.9L416.3 294.8C413.2 297.1 409.1 297.5 405.7 295.8C403.3 294.6 400.8 293.6 398.2 292.7C394.6 291.5 392 288.2 391.4 284.5L389.1 269.6H363.1L360.8 284.5C360.2 288.3 357.7 291.5 354 292.7C351.4 293.6 348.9 294.6 346.5 295.8C343.1 297.5 339 297 335.9 294.8L323.8 285.9L305.4 304.3L314.3 316.4C316.6 319.5 317 323.6 315.3 327C314.1 329.4 313.1 331.9 312.2 334.5C311 338.1 307.7 340.7 304 341.3L289.1 343.6V369.6L304 371.9C307.8 372.5 311 375 312.2 378.7C313.1 381.3 314.1 383.8 315.3 386.2C317 389.6 316.5 393.7 314.3 396.8L305.4 408.9L323.8 427.3L335.9 418.4C339 416.1 343.1 415.7 346.5 417.4C348.9 418.6 351.4 419.6 354 420.5C357.6 421.7 360.2 425 360.8 428.7L363.1 443.6H389.1L391.4 428.7C392 424.9 394.5 421.7 398.2 420.5C400.8 419.6 403.3 418.6 405.7 417.4C409.1 415.7 413.2 416.2 416.3 418.4L428.4 427.3L446.8 408.9L437.9 396.8C435.6 393.7 435.2 389.6 436.9 386.2C438.1 383.8 439.1 381.3 440 378.7C441.2 375.1 444.5 372.5 448.2 371.9L463.1 369.6ZM376.2 386.8C359.5 386.8 345.9 373.3 345.9 356.5C345.9 339.7 359.4 326.2 376.2 326.2C393 326.2 406.5 339.7 406.5 356.5C406.5 373.3 392.9 386.8 376.2 386.8Z" stroke="#BCBEC0" stroke-width="2.9072" stroke-miterlimit="10" stroke-linecap="round"/>
<path d="M276.6 558H60.0002L44.5002 349.7C43.5002 335.8 54.4002 324 68.3002 324H276.5V558H276.6Z" fill="#474747"/>
<path d="M87.4006 533.7C85.8006 514.8 84.2006 495.9 82.8006 476.9C81.3006 458 79.9006 439 78.5006 420.1L74.4006 363.3L73.4006 349.1C73.2006 346.8 73.1006 344.2 73.5006 341.8C73.9006 339.4 74.8006 337 76.1006 334.9C78.7006 330.7 82.8006 327.4 87.5006 325.9C89.8006 325.1 92.4006 325 94.8006 325H101.901C102.301 325 102.601 325.3 102.601 325.7C102.601 326.1 102.301 326.4 101.901 326.4H94.8006C94.2006 326.4 93.6006 326.4 93.0006 326.5C92.4006 326.6 91.9006 326.5 91.3006 326.6C90.7006 326.7 90.2006 326.8 89.6006 326.9L88.0006 327.4C83.7006 328.8 79.9006 331.9 77.6006 335.8C76.4006 337.7 75.7006 339.9 75.3006 342.2C74.9006 344.4 75.0006 346.7 75.3006 349.1L76.4006 363.3L80.8006 420.1C82.3006 439 83.6006 458 85.0006 476.9C86.4006 495.8 87.6006 514.8 88.8006 533.7C88.8006 534.1 88.5006 534.4 88.2006 534.4C87.7006 534.4 87.4006 534.1 87.4006 533.7Z" fill="#111111"/>
<path d="M88.4002 547.4C88.1002 546.9 88.0002 546.3 87.9002 545.7C87.8002 545.1 87.8002 544.6 87.7002 544C87.7002 542.9 87.7002 541.7 87.9002 540.6C88.0002 540.2 88.4002 540 88.7002 540C89.0002 540.1 89.2002 540.2 89.2002 540.5C89.6002 541.6 89.8002 542.7 89.9002 543.9C90.0002 544.5 90.0002 545 90.0002 545.6C90.0002 546.2 89.9002 546.7 89.7002 547.3C89.6002 547.7 89.1002 547.9 88.7002 547.8C88.6002 547.7 88.5002 547.5 88.4002 547.4Z" fill="#111111"/>
<path d="M504.101 481.8H611.001L630.501 555.2H523.601L504.101 481.8Z" fill="#EC103C"/>
<path d="M610.6 481.8H503.7L484.2 555.2H591.1L610.6 481.8Z" fill="white" stroke="black" stroke-width="2.9072" stroke-miterlimit="10" stroke-linecap="round"/>
<path d="M517 504.2H503.3L505.7 495.2H519.4L517 504.2Z" stroke="#211B26" stroke-width="0.5814" stroke-miterlimit="10"/>
<path d="M530.7 504.2H517L519.4 495.2H533.1L530.7 504.2Z" stroke="#211B26" stroke-width="0.5814" stroke-miterlimit="10"/>
<path d="M544.4 504.2H530.7L533.1 495.2H546.8L544.4 504.2Z" stroke="#211B26" stroke-width="0.5814" stroke-miterlimit="10"/>
<path d="M558 504.2H544.4L546.8 495.2H560.4L558 504.2Z" stroke="#211B26" stroke-width="0.5814" stroke-miterlimit="10"/>
<path d="M571.7 504.2H558L560.4 495.2H574.1L571.7 504.2Z" stroke="#211B26" stroke-width="0.5814" stroke-miterlimit="10"/>
<path d="M585.4 504.2H571.7L574.1 495.2H587.8L585.4 504.2Z" stroke="#211B26" stroke-width="0.5814" stroke-miterlimit="10"/>
<path d="M599.1 504.2H585.4L587.8 495.2H601.5L599.1 504.2Z" stroke="#211B26" stroke-width="0.5814" stroke-miterlimit="10"/>
<path d="M514.5 513.6H500.8L503.2 504.5H516.9L514.5 513.6Z" stroke="#211B26" stroke-width="0.5814" stroke-miterlimit="10"/>
<path d="M528.2 513.6H514.5L516.9 504.5H530.6L528.2 513.6Z" stroke="#211B26" stroke-width="0.5814" stroke-miterlimit="10"/>
<path d="M541.9 513.6H528.2L530.6 504.5H544.3L541.9 513.6Z" stroke="#211B26" stroke-width="0.5814" stroke-miterlimit="10"/>
<path d="M555.5 513.6H541.9L544.3 504.5H557.9L555.5 513.6Z" stroke="#211B26" stroke-width="0.5814" stroke-miterlimit="10"/>
<path d="M569.2 513.6H555.5L557.9 504.5H571.6L569.2 513.6Z" stroke="#211B26" stroke-width="0.5814" stroke-miterlimit="10"/>
<path d="M582.9 513.6H569.2L571.6 504.5H585.3L582.9 513.6Z" stroke="#211B26" stroke-width="0.5814" stroke-miterlimit="10"/>
<path d="M596.6 513.6H582.9L585.3 504.5H599L596.6 513.6Z" stroke="#211B26" stroke-width="0.5814" stroke-miterlimit="10"/>
<path d="M512 522.899H498.4L500.8 513.899H514.4L512 522.899Z" stroke="#211B26" stroke-width="0.5814" stroke-miterlimit="10"/>
<path d="M525.7 522.899H512L514.4 513.899H528.1L525.7 522.899Z" stroke="#211B26" stroke-width="0.5814" stroke-miterlimit="10"/>
<path d="M539.4 522.899H525.7L528.1 513.899H541.8L539.4 522.899Z" stroke="#211B26" stroke-width="0.5814" stroke-miterlimit="10"/>
<path d="M553.1 522.899H539.4L541.8 513.899H555.5L553.1 522.899Z" stroke="#211B26" stroke-width="0.5814" stroke-miterlimit="10"/>
<path d="M566.701 522.899H553.101L555.501 513.899H569.101L566.701 522.899Z" stroke="#211B26" stroke-width="0.5814" stroke-miterlimit="10"/>
<path d="M580.4 522.899H566.7L569.1 513.899H582.8L580.4 522.899Z" stroke="#211B26" stroke-width="0.5814" stroke-miterlimit="10"/>
<path d="M594.1 522.899H580.4L582.8 513.899H596.5L594.1 522.899Z" stroke="#211B26" stroke-width="0.5814" stroke-miterlimit="10"/>
<path d="M509.5 532.3H495.9L498.3 523.3H511.9L509.5 532.3Z" stroke="#211B26" stroke-width="0.5814" stroke-miterlimit="10"/>
<path d="M523.2 532.3H509.5L511.9 523.3H525.6L523.2 532.3Z" stroke="#211B26" stroke-width="0.5814" stroke-miterlimit="10"/>
<path d="M536.9 532.3H523.2L525.6 523.3H539.3L536.9 532.3Z" stroke="#211B26" stroke-width="0.5814" stroke-miterlimit="10"/>
<path d="M550.6 532.3H536.9L539.3 523.3H553L550.6 532.3Z" stroke="#211B26" stroke-width="0.5814" stroke-miterlimit="10"/>
<path d="M564.201 532.3H550.601L553.001 523.3H566.601L564.201 532.3Z" stroke="#211B26" stroke-width="0.5814" stroke-miterlimit="10"/>
<path d="M577.9 532.3H564.2L566.6 523.3H580.3L577.9 532.3Z" stroke="#211B26" stroke-width="0.5814" stroke-miterlimit="10"/>
<path d="M591.6 532.3H577.9L580.3 523.3H594L591.6 532.3Z" stroke="#211B26" stroke-width="0.5814" stroke-miterlimit="10"/>
<path d="M507.1 541.7H493.4L495.8 532.6H509.5L507.1 541.7Z" stroke="#211B26" stroke-width="0.5814" stroke-miterlimit="10"/>
<path d="M520.701 541.7H507.101L509.501 532.6H523.101L520.701 541.7Z" stroke="#211B26" stroke-width="0.5814" stroke-miterlimit="10"/>
<path d="M534.4 541.7H520.7L523.1 532.6H536.8L534.4 541.7Z" stroke="#211B26" stroke-width="0.5814" stroke-miterlimit="10"/>
<path d="M548.1 541.7H534.4L536.8 532.6H550.5L548.1 541.7Z" stroke="#211B26" stroke-width="0.5814" stroke-miterlimit="10"/>
<path d="M561.801 541.7H548.101L550.501 532.6H564.201L561.801 541.7Z" stroke="#211B26" stroke-width="0.5814" stroke-miterlimit="10"/>
<path d="M575.4 541.7H561.8L564.2 532.6H577.8L575.4 541.7Z" stroke="#211B26" stroke-width="0.5814" stroke-miterlimit="10"/>
<path d="M589.1 541.7H575.4L577.8 532.6H591.5L589.1 541.7Z" stroke="#211B26" stroke-width="0.5814" stroke-miterlimit="10"/>
<path d="M504.6 551H490.9L493.3 542H507L504.6 551Z" stroke="#211B26" stroke-width="0.5814" stroke-miterlimit="10"/>
<path d="M518.201 551H504.601L507.001 542H520.701L518.201 551Z" stroke="#211B26" stroke-width="0.5814" stroke-miterlimit="10"/>
<path d="M531.9 551H518.2L520.7 542H534.3L531.9 551Z" stroke="#211B26" stroke-width="0.5814" stroke-miterlimit="10"/>
<path d="M545.6 551H531.9L534.3 542H548L545.6 551Z" stroke="#211B26" stroke-width="0.5814" stroke-miterlimit="10"/>
<path d="M559.301 551H545.601L548.001 542H561.701L559.301 551Z" stroke="#211B26" stroke-width="0.5814" stroke-miterlimit="10"/>
<path d="M572.9 551H559.3L561.7 542H575.4L572.9 551Z" stroke="#211B26" stroke-width="0.5814" stroke-miterlimit="10"/>
<path d="M586.6 551H572.9L575.4 542H589L586.6 551Z" stroke="#211B26" stroke-width="0.5814" stroke-miterlimit="10"/>
<path d="M602.1 492.6H572.3L573.6 487.5H603.5L602.1 492.6Z" fill="#2F352B"/>
<path d="M7.09961 558H673.3" stroke="#211B26" stroke-width="5.8144" stroke-miterlimit="10" stroke-linecap="round"/>
<path d="M162.4 222.2C162.4 222.2 120.6 274.5 136.5 311.3C152.4 348.1 187.6 298.4 189.2 239.8L162.4 222.2Z" fill="#161616"/>
<path d="M204.687 246.834C209.575 238.368 203.379 225.64 190.848 218.406C178.317 211.171 164.197 212.168 159.309 220.634C154.421 229.099 160.617 241.827 173.148 249.062C185.679 256.297 199.8 255.299 204.687 246.834Z" fill="#8A9186"/>
<path d="M286.599 201.4C286.599 201.4 296.299 173 282.999 142.3C269.699 111.6 233.299 91.7004 199.099 120.8C199.099 120.8 166.099 111.1 152.299 149.7C139.699 184.9 154.599 213.1 154.599 213.1C154.599 213.1 174.099 259.3 219.299 259.4C266.499 259.5 280.699 230.8 286.599 201.4Z" fill="#161616"/>
<path d="M305.499 287.8L263.899 281.6L183.499 279.7L127.799 297.2C120.299 301.3 114.499 307.9 111.499 316C103.099 338.9 85.1992 389.5 73.6992 434.4L125.399 446.5L142.299 401.6L155.799 468.3L141.799 558.1H299.199L314.199 441.8L319.899 418L338.999 463.3L378.799 443.4L323.599 304.6C320.499 296.4 313.799 290.2 305.499 287.8Z" fill="white" stroke="black" stroke-width="1.1024" stroke-miterlimit="10"/>
<path d="M341.7 315.101C334.2 303.501 323.2 294.701 310.4 289.801C308.8 289.001 307.2 288.301 305.5 287.901L264.8 278.001L184.4 276.101L136.5 292.901C124.1 297.301 113.4 305.401 105.8 316.101L62.5996 377.401C62.5996 377.401 90.8996 406.801 137.8 413.401L142.3 401.501L145.9 432.901L150 468.201L130.2 558.001H299.3L314.3 441.701L320 417.901L321.2 401.501L321.4 400.901L321.8 402.301C356.2 396.001 376.3 368.501 376.3 368.501L341.7 315.101Z" fill="#EC103C" stroke="#050505" stroke-width="1.1024" stroke-miterlimit="10"/>
<path d="M477.8 558.001H188.5C182.3 558.001 177.3 553.001 177.3 546.801V542.601H477.8V558.001Z" fill="#474747" stroke="#1A2E35" stroke-width="0.5" stroke-miterlimit="10"/>
<path d="M497.3 406.9H342.8C332.6 406.9 323.7 413.6 320.9 423.4L287 541.4L286.7 542.6H477.9L511.5 425.6C514.1 416.3 507.1 406.9 497.3 406.9Z" fill="#606060" stroke="#1A2E35" stroke-width="2" stroke-miterlimit="10"/>
<path opacity="0.15" d="M495.4 408.201L287 541.401L477.8 542.601L511.8 424.001C511.8 424.001 510.6 406.101 495.4 408.201Z" fill="#2D2D2D"/>
<path d="M273.499 220.5C286.92 220.5 297.799 209.621 297.799 196.2C297.799 182.78 286.92 171.9 273.499 171.9C260.079 171.9 249.199 182.78 249.199 196.2C249.199 209.621 260.079 220.5 273.499 220.5Z" fill="#211B26"/>
<path d="M271.999 221.3C285.42 221.3 296.299 210.421 296.299 197C296.299 183.58 285.42 172.7 271.999 172.7C258.579 172.7 247.699 183.58 247.699 197C247.699 210.421 258.579 221.3 271.999 221.3Z" fill="#686868"/>
<path d="M256 267.201C255.4 264.001 254.7 259.801 254.4 255.501C254.4 255.501 297.5 254.701 274.8 170.801C274.8 170.801 270.7 127.101 225.8 126.601C210 126.401 195 133.701 186 146.601C176.1 160.901 171.3 184.901 193.3 222.901C193.3 222.901 197.8 244.001 195.9 258.901C195.3 263.801 192.8 268.301 189.1 271.401C183.3 276.301 162.5 283.501 162.5 283.501C162.5 283.501 206.3 350.401 249.4 346.801C280 344.301 281.5 281.901 281.5 281.901C273.3 279.301 267 276.901 262.8 275.301C259.2 274.001 256.7 270.901 256 267.201Z" fill="white" stroke="black" stroke-width="1.1024" stroke-miterlimit="10"/>
<path d="M196.5 194.301C196.5 194.301 218.1 182.501 212.7 147.201C212.7 147.201 230.2 176.001 275.4 170.801C275.4 170.801 284 140.701 252.5 126.601C221 112.501 181.3 123.401 174.2 160.501C167.2 197.501 186 198.201 196.5 194.301Z" fill="#161616"/>
<path d="M196.5 194.3C196.5 194.3 191.1 182.2 180.6 186C170.1 189.8 172.6 215.3 188.6 222.6C204.4 230 203.5 205.8 196.5 194.3Z" fill="#EAAF92"/>
<path d="M254.101 194.301C254.801 196.901 255.601 199.401 256.401 201.901C257.201 204.401 258.201 206.901 259.301 209.301L259.701 210.201C259.901 210.501 260.001 210.901 260.101 211.301C260.301 212.001 260.301 212.801 260.101 213.501C259.901 214.201 259.601 214.901 259.101 215.501C258.601 216.101 258.001 216.501 257.401 216.801C254.901 218.201 252.101 218.601 249.401 218.501C249.201 218.501 249.101 218.301 249.101 218.201C249.101 218.001 249.201 217.901 249.401 217.901C252.001 217.801 254.701 217.301 256.901 216.001C257.501 215.701 258.001 215.301 258.301 214.901C258.701 214.401 258.901 213.901 259.101 213.301C259.201 212.701 259.201 212.101 259.101 211.501C259.001 211.201 258.901 210.901 258.801 210.701L258.401 209.801C257.201 207.401 256.301 204.801 255.501 202.201C254.701 199.601 254.001 197.001 253.501 194.401C253.501 194.201 253.601 194.101 253.801 194.001C253.901 194.001 254.001 194.101 254.101 194.301Z" fill="#211B26"/>
<path d="M249.8 228.701C249.8 228.701 244.8 233.501 240.1 230.501C235.4 227.601 237.4 222.001 237.4 222.001L249.8 228.701Z" stroke="#050505" stroke-width="1.1024" stroke-miterlimit="10"/>
<path d="M233.3 201.601C236.007 201.601 238.2 199.407 238.2 196.701C238.2 193.995 236.007 191.801 233.3 191.801C230.594 191.801 228.4 193.995 228.4 196.701C228.4 199.407 230.594 201.601 233.3 201.601Z" fill="#211B26"/>
<path d="M180.7 195.2C183 195.4 185.1 196.2 187 197.5C188.9 198.7 190.5 200.4 191.6 202.4C192.7 204.4 193.3 206.6 193.5 208.8C193.6 209.4 193.6 209.9 193.6 210.5V212.2L193.3 215.5C193.3 215.7 193.1 215.8 192.9 215.8C192.7 215.8 192.6 215.6 192.6 215.5L192.7 212.3C192.6 211.2 192.6 210.1 192.4 209.1C192.1 207 191.5 204.9 190.5 203.1C189.4 201.3 188 199.7 186.3 198.5C184.6 197.3 182.6 196.4 180.5 196C180.3 196 180.2 195.8 180.2 195.6C180.3 195.3 180.5 195.2 180.7 195.2Z" fill="#211B26"/>
<path d="M254.4 255.5C254.4 255.5 228.4 257.9 210.5 239.9C210.5 239.9 215.4 268.1 255.7 265.8C255.7 265.8 255.1 262.5 254.4 255.5Z" fill="#211B26"/>
<path d="M268.7 201.601C271.406 201.601 273.6 199.407 273.6 196.701C273.6 193.995 271.406 191.801 268.7 191.801C265.994 191.801 263.8 193.995 263.8 196.701C263.8 199.407 265.994 201.601 268.7 201.601Z" fill="#211B26"/>
<path d="M235.7 182.201C234.2 182.401 232.6 182.601 231 182.901C229.5 183.201 227.9 183.601 226.4 184.201C224.9 184.701 223.5 185.401 222.1 186.101C220.7 186.801 219.4 187.801 218.1 188.701C217.8 188.901 217.4 188.901 217.2 188.601C217 188.301 217 188.001 217.2 187.801C218.4 186.601 219.6 185.401 221.1 184.501C222.5 183.501 224.1 182.701 225.7 182.101C227.3 181.501 229 181.001 230.7 180.801C232.4 180.601 234.1 180.601 235.8 180.901C236.2 181.001 236.4 181.301 236.3 181.701C236.3 181.901 236.1 182.101 235.7 182.201Z" fill="#211B26"/>
<path d="M262.5 181.501C263.6 181.001 264.7 180.801 265.8 180.801C266.9 180.801 268.1 181.001 269.2 181.301C270.3 181.601 271.3 182.101 272.3 182.801C273.3 183.401 274 184.301 274.7 185.101C274.9 185.401 274.9 185.801 274.6 186.001C274.4 186.201 274 186.201 273.8 186.001C273 185.401 272.2 184.801 271.3 184.401C270.5 183.901 269.6 183.601 268.6 183.401C267.7 183.201 266.7 183.001 265.8 182.901C264.8 182.801 263.8 182.801 262.9 182.801H262.8C262.4 182.801 262.2 182.501 262.2 182.101C262.2 181.801 262.3 181.601 262.5 181.501Z" fill="#211B26"/>
<path d="M191.2 203.3C190.4 203.6 189.7 204.1 188.9 204.6C188.2 205.1 187.5 205.6 186.9 206.2C186.3 206.8 185.8 207.5 185.5 208.3C185.1 209.1 185 209.9 184.9 210.8C184.9 211 184.8 211.1 184.6 211.1C184.5 211.1 184.3 211 184.3 210.8C184.3 209.9 184.3 208.9 184.7 208C185 207.1 185.5 206.3 186.2 205.5C186.8 204.8 187.5 204.1 188.3 203.6C189.1 203.1 189.9 202.6 190.8 202.3C191.1 202.2 191.4 202.3 191.5 202.6C191.6 202.8 191.5 203.1 191.2 203.3Z" fill="#211B26"/>
<path d="M186.3 222.3C199.721 222.3 210.6 211.421 210.6 198C210.6 184.58 199.721 173.7 186.3 173.7C172.879 173.7 162 184.58 162 198C162 211.421 172.879 222.3 186.3 222.3Z" fill="#211B26"/>
<path d="M184.8 221.3C198.221 221.3 209.1 210.421 209.1 197C209.1 183.58 198.221 172.7 184.8 172.7C171.379 172.7 160.5 183.58 160.5 197C160.5 210.421 171.379 221.3 184.8 221.3Z" fill="#686868"/>
<path d="M184.8 213.8C194.078 213.8 201.6 206.279 201.6 197C201.6 187.722 194.078 180.2 184.8 180.2C175.522 180.2 168 187.722 168 197C168 206.279 175.522 213.8 184.8 213.8Z" stroke="#2F352B" stroke-width="2.2049" stroke-miterlimit="10"/>
<path d="M179.4 196.7C179.3 196.2 176 183.3 176.4 166.7C176.9 147.7 182 131.6 191.3 119.5C193.9 116.1 198.9 115.8 201.9 118.9C174.4 146 186.5 194.4 186.6 194.9L179.4 196.7Z" fill="#686868"/>
<path d="M184.7 200.9C184.7 200.9 199.5 234 243.6 234" stroke="#211B26" stroke-width="2.9072" stroke-miterlimit="10" stroke-linecap="round"/>
<path d="M248.1 233.5C248.1 235.8 246.3 237.6 244 237.6C241.7 237.6 234.1 237.6 234.1 233.5C234.1 229.4 241.7 229.4 244 229.4C246.3 229.4 248.1 231.2 248.1 233.5Z" fill="#2F352B"/>
<path d="M215.5 276.101L150 468.201L146.5 437.401L194.6 293.601L215.5 276.101Z" fill="#211B26"/>
<path d="M97.4999 485.101C114.5 489.101 131.8 479.901 137.8 463.501L202 291.101L178.4 276.101L101.5 416.901L96.5999 415.301L73.7999 434.401L71.6999 444.401C67.7999 462.801 79.2999 480.801 97.4999 485.101Z" fill="white" stroke="black" stroke-miterlimit="10"/>
<path d="M225.7 230.701L212.9 212.801C210.9 210.001 207 209.101 204 210.901L189.7 219.201C184.5 222.201 181.1 227.501 180.4 233.501L178.3 276.101L158.5 312.301L177.6 356.501L201.3 292.901L212.1 281.301C218 275.001 220.2 266.201 218.1 257.901L215.5 247.801L223.5 242.401C227.4 239.801 228.4 234.501 225.7 230.701Z" fill="white" stroke="black" stroke-miterlimit="10"/>
<path d="M197.1 295.8C199.6 293.4 202.1 291 204.6 288.6C205.8 287.4 207 286.1 208.2 284.9C209.4 283.7 210.6 282.4 211.6 281.1C213.5 279 215.1 276.5 216.2 273.8C216.8 272.5 217.2 271.1 217.5 269.7C217.8 268.3 218 266.9 218.1 265.4C218.2 264 218.1 262.5 217.9 261.1C217.7 259.7 217.4 258.3 217 256.8L214.8 248.2L214.7 247.7L215.1 247.4L221.9 242.8C223.1 242 224.1 241.3 224.9 240.3C225.6 239.3 226.2 238.1 226.4 236.9C226.6 235.7 226.5 234.4 226.1 233.2C225.9 232.6 225.6 232 225.3 231.5C225 231 224.5 230.4 224.1 229.8L219.3 223.1L214.5 216.4C213.7 215.3 212.9 214.1 212.1 213.1C211.4 212.1 210.3 211.4 209.2 211.1C208.1 210.8 206.8 210.7 205.7 211.1C205.1 211.3 204.6 211.5 204 211.9L202.2 212.9L195.1 217L191.5 219.1C190.3 219.8 189.2 220.4 188.1 221.3C186 222.9 184.3 225 183.1 227.3C182.5 228.5 182 229.7 181.7 231C181.4 232.3 181.2 233.5 181.2 234.9L180.8 243.1L179.1 276V276.2L179 276.3C175.6 282.6 172 288.8 168.5 295.1C168.4 295.4 168 295.4 167.8 295.3C167.6 295.2 167.5 294.8 167.6 294.6C171 288.3 174.3 281.9 177.7 275.6L177.6 275.9L179.1 243L179.5 234.8C179.5 233.5 179.7 232 180.1 230.6C180.5 229.2 181 227.9 181.6 226.6C182.9 224 184.7 221.8 187 220C188.1 219.1 189.4 218.4 190.5 217.7L194.1 215.6L201.2 211.4L203 210.4C203.6 210.1 204.3 209.7 205 209.4C206.5 208.9 208.1 208.9 209.6 209.4C211.1 209.9 212.4 210.8 213.4 212C214.3 213.2 215 214.2 215.8 215.4L220.6 222.1L225.4 228.8C225.8 229.4 226.2 229.9 226.6 230.5C227 231.1 227.3 231.8 227.6 232.5C228.1 233.9 228.2 235.5 227.9 237C227.6 238.5 227 239.9 226.1 241.1C225.2 242.3 223.9 243.2 222.8 243.9L216 248.5L216.3 247.7L218.5 256.3C218.9 257.7 219.2 259.2 219.4 260.7C219.6 262.2 219.7 263.7 219.6 265.3C219.5 266.8 219.3 268.3 219 269.8C218.7 271.3 218.2 272.7 217.6 274.1C216.4 276.9 214.7 279.5 212.6 281.7V281.6C211.4 283 210.3 284.3 209 285.5C207.8 286.8 206.5 288 205.3 289.2C202.8 291.6 200.3 294 197.7 296.4C197.5 296.6 197.2 296.6 197 296.4C196.9 296.3 196.9 296 197.1 295.8Z" fill="#211B26"/>
<path d="M214.999 248.201C213.699 246.101 212.499 243.901 211.299 241.701L209.499 238.401L208.599 236.701C208.299 236.101 207.999 235.301 207.899 234.601C207.799 233.101 208.299 231.601 209.299 230.501C210.299 229.401 211.899 228.901 213.299 229.001C213.999 229.101 214.699 229.301 215.399 229.601C215.999 229.901 216.599 230.501 216.999 230.901L219.599 233.601C219.799 233.801 219.799 234.101 219.599 234.301C219.399 234.501 219.099 234.501 218.899 234.301L216.099 231.801C215.599 231.301 215.299 231.001 214.799 230.801C214.299 230.601 213.799 230.401 213.299 230.401C212.299 230.401 211.299 230.801 210.599 231.501C209.899 232.201 209.599 233.301 209.699 234.301C209.799 234.801 209.899 235.201 210.199 235.801L211.099 237.501L212.799 240.801C213.899 243.001 214.999 245.301 215.999 247.601C216.099 247.901 215.999 248.201 215.699 248.301C215.399 248.501 215.199 248.401 214.999 248.201Z" fill="#211B26"/>
<path d="M214.599 215.101C213.999 216.001 214.399 215.301 214.299 215.501H214.199L214.099 215.401L213.799 215.301C213.599 215.201 213.399 215.101 213.199 215.101C212.799 215.001 212.399 214.901 211.899 214.901C210.999 214.901 210.199 215.001 209.399 215.401C208.999 215.601 208.599 215.801 208.199 216.101L206.999 216.801L204.499 218.301C201.199 220.201 197.799 222.101 194.499 224.001C191.199 225.701 188.799 228.701 187.799 232.201C186.799 235.901 185.799 239.601 184.699 243.301C184.599 243.601 184.299 243.701 184.099 243.701C183.799 243.601 183.699 243.401 183.699 243.101C184.599 239.301 185.399 235.601 186.299 231.901C186.799 229.901 187.699 228.101 188.999 226.501C190.299 224.901 191.899 223.601 193.699 222.701C196.999 220.801 200.399 218.901 203.799 217.101L206.299 215.701L207.599 215.001C207.999 214.801 208.399 214.501 208.899 214.301C209.899 213.901 210.999 213.701 212.099 213.901C212.599 214.001 213.099 214.101 213.599 214.301C213.799 214.401 214.099 214.501 214.299 214.601L214.599 214.801L214.799 214.901L214.899 215.001C214.699 214.901 215.099 214.301 214.599 215.101Z" fill="#211B26"/>
<path d="M136.899 338.8C135.299 335 133.799 331.3 132.099 327.6C130.399 324 128.399 320.5 126.099 317.1C125.899 316.8 125.999 316.3 126.299 316.1C126.599 315.9 126.999 316 127.199 316.2C129.999 319.3 132.299 322.8 134.199 326.6C136.099 330.3 137.499 334.3 138.299 338.4C138.399 338.8 138.099 339.1 137.699 339.2C137.299 339.2 136.999 339.1 136.899 338.8Z" fill="#211B26"/>
<path d="M247.499 423.6C243.299 428.1 238.199 431.4 232.499 433.8C226.899 436.1 220.799 437.4 214.699 437.3C211.699 437.3 208.599 437 205.599 436.5C202.599 435.9 199.699 435.2 196.799 434.1C191.099 432.1 185.699 429.3 180.799 425.9C180.499 425.7 180.399 425.3 180.599 424.9C180.799 424.6 181.199 424.5 181.499 424.7C186.599 427.7 191.899 430.3 197.399 432.2C202.999 434 208.799 435.1 214.599 435.1C220.399 435 226.199 433.9 231.599 431.8C236.999 429.7 242.099 426.6 246.399 422.7C246.699 422.4 247.099 422.5 247.399 422.7C247.699 423 247.699 423.4 247.499 423.6Z" fill="#211B26"/>
<path d="M313.099 443.101L314.899 435.601C315.499 433.101 316.199 430.601 316.599 428.101C317.599 423.101 318.499 418.101 318.999 413.101C320.099 403.001 320.299 392.801 319.299 382.701C318.799 377.601 318.099 372.601 317.099 367.601C316.099 362.601 314.799 357.701 313.399 352.801C310.499 343.001 306.999 333.401 302.799 324.101C302.599 323.701 302.799 323.301 303.099 323.201C303.399 323.001 303.799 323.201 303.999 323.501C308.499 332.701 312.199 342.301 315.299 352.201C316.799 357.101 318.199 362.101 319.199 367.101C320.199 372.201 320.999 377.301 321.499 382.401C321.999 387.501 322.199 392.701 322.099 397.801C321.999 403.001 321.699 408.101 320.999 413.201C320.299 418.301 319.399 423.401 318.099 428.401C316.899 433.401 315.499 438.301 314.199 443.301C314.099 443.701 313.699 443.901 313.399 443.801C313.199 443.901 312.999 443.501 313.099 443.101Z" fill="#211B26"/>
<path d="M106.599 408.7C104.599 409.8 102.599 411.2 100.799 412.6C98.9995 414.1 97.2995 415.7 95.7995 417.5C94.2995 419.3 92.9994 421.2 91.8994 423.3C90.7994 425.3 89.8994 427.6 89.0994 429.8C88.9994 430.2 88.5994 430.4 88.1994 430.2C87.8994 430.1 87.6995 429.7 87.7995 429.4C88.2995 427 88.9994 424.6 90.0994 422.3C91.0994 420 92.4994 417.9 94.0994 416C95.6994 414.1 97.4994 412.3 99.4994 410.8C101.499 409.3 103.699 408.1 106.099 407.3C106.499 407.2 106.799 407.4 106.999 407.7C106.999 408.2 106.899 408.5 106.599 408.7Z" fill="#211B26"/>
<path d="M339.1 124H471.3C480.3 124 487.7 131.3 487.7 140.4V206.5C487.7 215.5 480.4 222.9 471.3 222.9H339.1C338.5 222.9 337.9 222.9 337.2 222.8L322.7 252.3V206.5V190.3V140.3C322.7 131.3 330 124 339.1 124Z" fill="#E5E5E5" stroke="black" stroke-miterlimit="10"/>
<g opacity="0.1">
<path d="M470.301 144H341.101V150H470.301V144Z" fill="black"/>
</g>
<g opacity="0.1">
<path d="M470.301 162.5H341.101V168.5H470.301V162.5Z" fill="black"/>
</g>
<g opacity="0.1">
<path d="M470.301 181H341.101V187H470.301V181Z" fill="black"/>
</g>
<g opacity="0.1">
<path d="M470.301 199.5H341.101V205.5H470.301V199.5Z" fill="black"/>
</g>
<mask id="mask0_4719_639" style="mask-type:luminance" maskUnits="userSpaceOnUse" x="279" y="25" width="76" height="75">
<path d="M316.9 99.6C337.5 99.6 354.2 82.9002 354.2 62.3C354.2 41.6998 337.5 25 316.9 25C296.299 25 279.6 41.6998 279.6 62.3C279.6 82.9002 296.299 99.6 316.9 99.6Z" fill="white"/>
</mask>
<g mask="url(#mask0_4719_639)">
<path d="M316.9 99.6C337.5 99.6 354.2 82.9002 354.2 62.3C354.2 41.6998 337.5 25 316.9 25C296.299 25 279.6 41.6998 279.6 62.3C279.6 82.9002 296.299 99.6 316.9 99.6Z" fill="white" stroke="black" stroke-miterlimit="10"/>
</g>
<mask id="mask1_4719_639" style="mask-type:luminance" maskUnits="userSpaceOnUse" x="279" y="25" width="76" height="75">
<path d="M316.9 99.6C337.5 99.6 354.2 82.9002 354.2 62.3C354.2 41.6998 337.5 25 316.9 25C296.299 25 279.6 41.6998 279.6 62.3C279.6 82.9002 296.299 99.6 316.9 99.6Z" fill="white"/>
</mask>
<g mask="url(#mask1_4719_639)">
<path d="M316.9 143.3C337.5 143.3 354.2 126.6 354.2 106C354.2 85.4 337.5 68.7002 316.9 68.7002C296.299 68.7002 279.6 85.4 279.6 106C279.6 126.6 296.299 143.3 316.9 143.3Z" fill="#BCBEC0" stroke="black" stroke-miterlimit="10"/>
</g>
<mask id="mask2_4719_639" style="mask-type:luminance" maskUnits="userSpaceOnUse" x="279" y="25" width="76" height="75">
<path d="M316.9 99.6C337.5 99.6 354.2 82.9002 354.2 62.3C354.2 41.6998 337.5 25 316.9 25C296.299 25 279.6 41.6998 279.6 62.3C279.6 82.9002 296.299 99.6 316.9 99.6Z" fill="white"/>
</mask>
<g mask="url(#mask2_4719_639)">
<path d="M316.899 65.6998C325.294 65.6998 332.099 58.8945 332.099 50.4998C332.099 42.1051 325.294 35.2998 316.899 35.2998C308.504 35.2998 301.699 42.1051 301.699 50.4998C301.699 58.8945 308.504 65.6998 316.899 65.6998Z" fill="#BCBEC0" stroke="black" stroke-miterlimit="10"/>
</g>
<path d="M316.9 99.6C337.5 99.6 354.2 82.9002 354.2 62.3C354.2 41.6998 337.5 25 316.9 25C296.299 25 279.6 41.6998 279.6 62.3C279.6 82.9002 296.299 99.6 316.9 99.6Z" stroke="#BCBEC0" stroke-width="1.5696" stroke-miterlimit="10"/>
<path d="M525.5 41.9004H438.8V95.0004H525.5V41.9004Z" fill="white" stroke="black" stroke-width="2.6161" stroke-miterlimit="10"/>
<path d="M438.8 46.6006L482.2 76.3006L525.5 46.6006" stroke="#BCBEC0" stroke-width="2.6161" stroke-miterlimit="10"/>
<path d="M465.9 65.8008L438.8 95.0008" stroke="#BCBEC0" stroke-width="2.6161" stroke-miterlimit="10"/>
<path d="M525.5 95.0008L498.5 65.8008" stroke="#BCBEC0" stroke-width="2.6161" stroke-miterlimit="10"/>
<path d="M551.999 196.2V192C551.999 189.7 550.099 187.8 547.799 187.8H525.099C522.799 187.8 520.899 189.7 520.899 192V196.2V200.9V245.1C520.899 247.4 522.799 249.3 525.099 249.3H592.599C594.899 249.3 596.799 247.4 596.799 245.1V200.4C596.799 198.1 594.899 196.2 592.599 196.2H551.999Z" fill="white" stroke="black" stroke-width="2.6161" stroke-miterlimit="10"/>
<path d="M545.3 204.6V200.4C545.3 198.1 543.4 196.2 541.1 196.2H518.4C516.1 196.2 514.2 198.1 514.2 200.4V204.6V209.3V253.5C514.2 255.8 516.1 257.7 518.4 257.7H585.9C588.2 257.7 590.1 255.8 590.1 253.5V208.8C590.1 206.5 588.2 204.6 585.9 204.6H545.3Z" fill="white" stroke="black" stroke-width="2.6161" stroke-miterlimit="10"/>
</svg>
