<svg width="60" height="61" viewBox="0 0 60 61" fill="none" xmlns="http://www.w3.org/2000/svg">
<g clip-path="url(#clip0_3549_17)">
<mask id="mask0_3549_17" style="mask-type:luminance" maskUnits="userSpaceOnUse" x="0" y="0" width="60" height="61">
<path d="M60 0.5H0V60.5H60V0.5Z" fill="white"/>
</mask>
<g mask="url(#mask0_3549_17)">
<path d="M20.093 56.2881C19.2326 58.5741 14.2802 62.4081 13.0514 59.3901L8.24177 47.6037C8.22857 47.5725 8.21777 47.5425 8.21177 47.5113C7.88537 46.6029 8.28977 45.8853 9.10697 45.3417C10.7054 44.2773 14.3354 43.8921 15.6206 44.8173L16.5458 44.0661C19.4066 41.6781 21.2978 40.8069 24.0158 40.6617C23.4038 38.7705 23.2502 36.7401 23.4818 34.6581C23.9066 30.8349 26.7338 26.9337 29.1962 23.7225C28.4582 23.0421 28.193 22.0425 28.553 21.1233C26.9882 20.3445 26.747 18.5313 27.689 17.2149C26.3486 15.9561 26.6078 13.5681 28.2806 12.6945C27.1406 10.8573 28.3526 8.23527 30.635 8.05527L28.1966 3.93927C27.629 3.00687 27.9002 2.03727 28.9658 1.66407C30.5102 1.11927 33.5954 1.93647 35.405 2.72847C36.485 1.48167 38.7206 0.356073 40.4714 0.512073C42.0194 0.647673 42.8834 1.77687 42.6014 3.48807L42.3458 5.04207C45.101 5.55927 45.7706 6.45687 47.5466 7.71567C47.7878 6.94407 48.4958 6.41247 49.3082 6.33807L54.9758 5.81127C56.1122 5.70567 56.9894 6.69567 56.9894 7.75647V23.7369C56.9894 24.8217 56.0738 25.8189 54.9518 25.6821L49.2842 24.9921C48.2846 24.8697 47.4614 24.0909 47.4614 23.0469V22.7205C46.3598 23.3841 45.3626 23.8869 44.4338 24.2613C47.0594 27.3021 49.1894 30.1557 49.6826 34.3029C50.0942 37.7697 49.577 40.9797 47.9546 43.6125C51.7778 42.7929 54.0506 46.1301 50.693 48.1269L43.5434 52.3857C43.1726 52.6065 40.7978 53.4849 38.4134 54.2841C36.9914 54.7641 34.0214 55.7133 33.5258 55.7337V55.7373L20.1506 56.2845C20.1338 56.2845 20.1134 56.2845 20.093 56.2881ZM18.4466 56.2341L14.2214 45.8937C14.2178 45.8829 13.1498 46.0641 12.0374 46.2609C11.4086 46.3701 10.6118 46.5669 10.1294 46.8897C10.0574 46.9377 9.96617 46.8765 9.95897 46.8933L14.7722 58.6929C14.789 58.7337 14.7758 58.6353 14.813 58.6281C15.3062 58.5501 16.061 58.0629 16.4966 57.7401C17.4842 57.0093 18.4574 56.2581 18.4466 56.2341ZM25.985 40.6617C27.4166 40.7229 29.363 40.9197 31.3562 41.1213C35.0498 41.4921 34.9862 45.4341 31.9214 46.5225C32.5334 46.7745 33.677 47.1453 34.3262 47.2437C34.8506 47.3217 38.2682 47.4717 38.5946 47.3385L44.3234 45.0021C45.6302 43.9233 46.6778 42.4881 47.3066 40.6785C47.9018 38.9709 48.1226 36.9237 47.837 34.5213C47.3678 30.5589 45.1022 27.8373 42.5198 24.8841C40.1726 25.4625 38.1014 25.2681 35.4446 25.0197C34.319 24.9141 33.0842 24.7989 31.6514 24.7341C31.6202 24.7341 31.5902 24.7305 31.559 24.7269C31.3142 24.6897 31.0862 24.6453 30.8714 24.5877C28.5722 27.5745 25.7114 31.3905 25.3274 34.8609C25.1006 36.8889 25.2806 38.8617 25.985 40.6617ZM16.7702 46.2777C16.6718 46.3557 16.5734 46.4337 16.4738 46.5057L19.7222 54.4617C19.8482 54.4449 19.9634 54.4341 20.0798 54.4305C20.6378 54.4065 25.0802 54.2301 28.8014 54.0765C30.7058 53.9985 32.4338 53.9265 33.3662 53.8857C34.3226 53.6649 36.0842 53.1105 37.8254 52.5249C40.1186 51.7557 42.3254 50.9565 42.5978 50.7933L49.7474 46.5381C50.1926 46.2729 50.5466 45.9465 50.441 45.7869C50.3906 45.7125 50.291 45.6333 50.1554 45.5625C49.5974 45.2769 48.6722 45.2325 47.6618 45.6441L39.2906 49.0593C38.8898 49.2225 37.7978 49.2597 36.6374 49.2297C36.083 49.2129 33.821 49.1169 33.1814 48.9477L24.4154 46.6137C24.011 46.5045 23.7146 46.1301 23.7254 45.6957C23.7386 45.1821 24.1646 44.7777 24.6746 44.7909L30.2978 44.9241C31.7978 44.9577 32.519 43.9821 32.2814 43.4781C32.0738 43.0461 31.3898 42.9885 30.7886 42.9273C23.795 42.2265 21.8798 42.0321 17.7398 45.4917C17.3894 45.7809 17.069 46.0425 16.7702 46.2777ZM18.5318 18.4221C18.8954 18.0585 19.4846 18.0585 19.8482 18.4221C20.2118 18.7857 20.2118 19.3749 19.8482 19.7385L10.2014 29.3853C9.83777 29.7453 9.24857 29.7453 8.88497 29.3853C8.52497 29.0217 8.52497 28.4325 8.88497 28.0689L18.5318 18.4221ZM12.929 18.2649C14.885 20.2209 13.4942 23.5785 10.7282 23.5785C7.96577 23.5785 6.57497 20.2209 8.52737 18.2649C9.74537 17.0505 11.7146 17.0505 12.929 18.2649ZM11.9798 20.4657C11.9798 19.3533 10.6298 18.7953 9.84377 19.5813C9.05777 20.3673 9.61577 21.7173 10.7282 21.7173C11.423 21.7185 11.9798 21.1605 11.9798 20.4657ZM20.2058 25.1361C22.1618 27.0921 20.771 30.4497 18.005 30.4497C15.239 30.4497 13.8518 27.0921 15.8042 25.1361C17.021 23.9217 18.9914 23.9217 20.2058 25.1361ZM19.2566 27.3369C19.2566 26.2245 17.9066 25.6665 17.1206 26.4525C16.3346 27.2385 16.8926 28.5885 18.005 28.5885C18.695 28.5897 19.2566 28.0317 19.2566 27.3369ZM14.3678 12.5445C20.6402 12.5445 25.7258 17.6301 25.7258 23.9025C25.7258 30.1749 20.6402 35.2641 14.3678 35.2641C8.09537 35.2641 3.00977 30.1749 3.00977 23.9025C3.01097 17.6289 8.09537 12.5445 14.3678 12.5445ZM21.083 17.1873C17.375 13.4757 11.3618 13.4757 7.65017 17.1873C3.94217 20.8953 3.94217 26.9085 7.65017 30.6201C11.3618 34.3281 17.375 34.3281 21.083 30.6201C24.7946 26.9085 24.7946 20.8953 21.083 17.1873ZM55.0982 7.66287L49.475 8.18367C49.4174 8.19087 49.3214 8.22087 49.3214 8.28207L49.331 23.0757C49.3646 23.1129 49.4258 23.1369 49.5014 23.1477L55.1042 23.8317L55.1282 23.7393V7.75767L55.0982 7.66287ZM32.795 8.05407C34.3358 8.06487 36.4142 8.10567 38.2202 7.61127C39.1766 7.34967 39.989 6.94407 40.2578 6.31167L40.7714 3.19287C40.8734 2.56407 40.7714 2.40087 40.3118 2.36007C39.1142 2.25087 36.9686 3.33927 36.5942 4.23447C36.3626 4.77927 35.7818 4.97967 35.2982 4.73127C33.6446 3.88047 31.3622 3.27567 30.0014 3.34647L32.795 8.05407ZM35.6114 23.1777C39.8162 23.5689 42.4214 23.8137 47.4626 20.5317V9.88407C46.6286 9.36687 46.0334 8.91447 45.5102 8.51607C44.5202 7.76127 43.8122 7.22367 42.047 6.87687C41.0942 9.71367 36.155 9.92127 33.8906 9.91407L30.8942 9.89727C29.969 9.89727 29.4722 10.9377 29.8058 11.6253C30.0098 12.0441 30.5606 12.3705 31.5782 12.3705V14.2245H29.6966C28.8254 14.2245 28.523 14.9961 28.7642 15.5721C28.8734 15.8337 29.1278 16.0449 29.5334 16.0785C29.7446 16.0545 29.9618 16.0581 30.1898 16.0917C30.6962 16.1697 31.0466 16.6425 30.9722 17.1501C30.8978 17.6361 30.4586 17.9769 29.975 17.9397H29.699C29.2982 17.9805 28.7978 18.7293 29.0666 19.1913C29.2298 19.4697 29.675 19.6773 30.533 19.6713C30.5906 19.6641 30.6518 19.6641 30.713 19.6641C31.2266 19.6641 31.6418 20.0793 31.6418 20.5929C31.6418 21.1065 31.2266 21.5253 30.713 21.5253C30.3734 21.5253 30.1382 21.8553 30.305 22.1721C30.5294 22.5933 31.325 22.8417 31.7918 22.8861C33.2162 22.9533 34.4678 23.0685 35.6114 23.1777ZM37.6214 41.4501V42.2973C37.6214 42.8109 37.2062 43.2297 36.6926 43.2297C36.1754 43.2297 35.7602 42.8109 35.7602 42.2973V41.4501C33.9398 41.1573 32.1746 39.9093 32.1746 38.0313C32.1746 37.5177 32.5898 37.1025 33.1034 37.1025C33.617 37.1025 34.0358 37.5177 34.0358 38.0313C34.0358 39.4329 36.9878 40.3041 38.6894 39.0861C39.0938 38.7969 39.3458 38.4225 39.3458 38.0313C39.3458 36.8649 37.9406 36.6261 36.539 36.3885C34.355 36.0177 32.1746 35.6433 32.1746 32.9121C32.1746 31.0341 33.9398 29.7861 35.7602 29.4933V28.6461C35.7602 28.1325 36.1754 27.7137 36.6926 27.7137C37.2062 27.7137 37.6214 28.1325 37.6214 28.6461V29.4933C39.4418 29.7861 41.207 31.0341 41.207 32.9121C41.207 33.4257 40.7918 33.8409 40.2782 33.8409C39.7646 33.8409 39.3458 33.4257 39.3458 32.9121C39.3458 31.5105 36.3938 30.6393 34.6922 31.8537C34.2878 32.1465 34.0358 32.5209 34.0358 32.9121C34.0358 34.0785 35.441 34.3173 36.8426 34.5549C39.0266 34.9257 41.207 35.2965 41.207 38.0313C41.207 39.9093 39.4418 41.1585 37.6214 41.4501Z" fill="#2F352B"/>
</g>
</g>
<defs>
<clipPath id="clip0_3549_17">
<rect width="60" height="60" fill="white" transform="translate(0 0.5)"/>
</clipPath>
</defs>
</svg>
