<svg width="55" height="62" viewBox="0 0 55 62" fill="none" xmlns="http://www.w3.org/2000/svg">
<g clip-path="url(#clip0_3549_7)">
<path d="M0 41.5107C0 42.3063 0.31607 43.0694 0.87868 43.632C1.44129 44.1946 2.20435 44.5107 3 44.5107H8.24C8.971 46.1217 11.879 48.9027 23.115 49.4227C23.133 49.4987 23.162 49.5707 23.184 49.6457C22.3498 50.1894 21.6409 50.9044 21.1043 51.7432C20.5677 52.582 20.2158 53.5254 20.072 54.5107H13C11.9391 54.5107 10.9217 54.9321 10.1716 55.6822C9.42143 56.4324 9 57.4498 9 58.5107C9 59.0411 9.21071 59.5498 9.58579 59.9249C9.96086 60.3 10.4696 60.5107 11 60.5107H43C43.5304 60.5107 44.0391 60.3 44.4142 59.9249C44.7893 59.5498 45 59.0411 45 58.5107C45 57.4498 44.5786 56.4324 43.8284 55.6822C43.0783 54.9321 42.0609 54.5107 41 54.5107H33.922C33.7859 53.5248 33.4373 52.5803 32.9003 51.7424C32.3634 50.9045 31.6508 50.1932 30.812 49.6577C30.836 49.5787 30.866 49.5037 30.885 49.4227C42.121 48.9027 45.029 46.1227 45.76 44.5107H52C52.7956 44.5107 53.5587 44.1946 54.1213 43.632C54.6839 43.0694 55 42.3063 55 41.5107C55 40.715 54.6839 39.952 54.1213 39.3894C53.5587 38.8267 52.7956 38.5107 52 38.5107H50.816C50.934 38.1907 50.996 37.8517 51 37.5107V27.5107C51.7956 27.5107 52.5587 27.1946 53.1213 26.632C53.6839 26.0694 54 25.3063 54 24.5107V17.5107C53.9978 16.0283 53.5259 14.5848 52.652 13.3875C51.7781 12.1901 50.5471 11.3006 49.136 10.8467C50.0049 10.0199 50.606 8.95169 50.8619 7.77992C51.1177 6.60815 51.0165 5.38659 50.5714 4.27289C50.1262 3.1592 49.3574 2.20449 48.3643 1.53197C47.3712 0.859454 46.1994 0.5 45 0.5C43.8006 0.5 42.6288 0.859454 41.6357 1.53197C40.6426 2.20449 39.8738 3.1592 39.4286 4.27289C38.9835 5.38659 38.8823 6.60815 39.1381 7.77992C39.394 8.95169 39.9951 10.0199 40.864 10.8467C39.4529 11.3006 38.2219 12.1901 37.348 13.3875C36.4741 14.5848 36.0022 16.0283 36 17.5107V24.5107C36 25.3063 36.3161 26.0694 36.8787 26.632C37.4413 27.1946 38.2044 27.5107 39 27.5107V37.5107C39.003 37.8517 39.066 38.1907 39.184 38.5107H38C37.2044 38.5107 36.4413 38.8267 35.8787 39.3894C35.3161 39.952 35 40.715 35 41.5107C35 42.3063 35.3161 43.0694 35.8787 43.632C36.4413 44.1946 37.2044 44.5107 38 44.5107H43.215C41.836 45.6357 38.365 47.0617 30.83 47.4197C30.5968 46.5831 30.0962 45.8459 29.4046 45.3207C28.713 44.7956 27.8684 44.5112 27 44.5112C26.1316 44.5112 25.287 44.7956 24.5954 45.3207C23.9038 45.8459 23.4032 46.5831 23.17 47.4197C15.577 47.0587 12.108 45.6107 10.753 44.5107H17C17.7956 44.5107 18.5587 44.1946 19.1213 43.632C19.6839 43.0694 20 42.3063 20 41.5107C20 40.715 19.6839 39.952 19.1213 39.3894C18.5587 38.8267 17.7956 38.5107 17 38.5107H15.816C15.934 38.1907 15.996 37.8517 16 37.5107V27.5107C16.7956 27.5107 17.5587 27.1946 18.1213 26.632C18.6839 26.0694 19 25.3063 19 24.5107V17.5107C18.9978 16.0283 18.5259 14.5848 17.652 13.3875C16.7781 12.1901 15.5471 11.3006 14.136 10.8467C15.0049 10.0199 15.606 8.95169 15.8619 7.77992C16.1177 6.60815 16.0165 5.38659 15.5714 4.27289C15.1262 3.1592 14.3574 2.20449 13.3643 1.53197C12.3712 0.859454 11.1994 0.5 10 0.5C8.80062 0.5 7.62877 0.859454 6.63568 1.53197C5.64258 2.20449 4.87384 3.1592 4.42865 4.27289C3.98345 5.38659 3.88225 6.60815 4.13811 7.77992C4.39396 8.95169 4.99512 10.0199 5.864 10.8467C4.45287 11.3006 3.22193 12.1901 2.34801 13.3875C1.47408 14.5848 1.00215 16.0283 1 17.5107V24.5107C1 25.3063 1.31607 26.0694 1.87868 26.632C2.44129 27.1946 3.20435 27.5107 4 27.5107V37.5107C4.003 37.8517 4.066 38.1907 4.184 38.5107H3C2.20435 38.5107 1.44129 38.8267 0.87868 39.3894C0.31607 39.952 0 40.715 0 41.5107ZM45 2.51067C46.0609 2.51067 47.0783 2.93209 47.8284 3.68224C48.5786 4.43238 49 5.4498 49 6.51067C49 7.57153 48.5786 8.58895 47.8284 9.33909C47.0783 10.0892 46.0609 10.5107 45 10.5107C43.9391 10.5107 42.9217 10.0892 42.1716 9.33909C41.4214 8.58895 41 7.57153 41 6.51067C41 5.4498 41.4214 4.43238 42.1716 3.68224C42.9217 2.93209 43.9391 2.51067 45 2.51067ZM41 37.5107V26.7307C41.3133 26.4517 41.5643 26.1098 41.7366 25.7273C41.9089 25.3447 41.9987 24.9302 42 24.5107V17.5107C42 17.2455 41.8946 16.9911 41.7071 16.8036C41.5196 16.616 41.2652 16.5107 41 16.5107C40.7348 16.5107 40.4804 16.616 40.2929 16.8036C40.1054 16.9911 40 17.2455 40 17.5107V24.5107C40 24.7759 39.8946 25.0302 39.7071 25.2178C39.5196 25.4053 39.2652 25.5107 39 25.5107C38.7348 25.5107 38.4804 25.4053 38.2929 25.2178C38.1054 25.0302 38 24.7759 38 24.5107V17.5107C38.0016 16.1851 38.5289 14.9142 39.4662 13.9769C40.4036 13.0395 41.6744 12.5123 43 12.5107H47C48.3256 12.5123 49.5964 13.0395 50.5338 13.9769C51.4711 14.9142 51.9984 16.1851 52 17.5107V24.5107C52 24.7759 51.8946 25.0302 51.7071 25.2178C51.5196 25.4053 51.2652 25.5107 51 25.5107C50.7348 25.5107 50.4804 25.4053 50.2929 25.2178C50.1054 25.0302 50 24.7759 50 24.5107V17.5107C50 17.2455 49.8946 16.9911 49.7071 16.8036C49.5196 16.616 49.2652 16.5107 49 16.5107C48.7348 16.5107 48.4804 16.616 48.2929 16.8036C48.1054 16.9911 48 17.2455 48 17.5107V24.5107C48.0013 24.9302 48.0911 25.3447 48.2634 25.7273C48.4357 26.1098 48.6867 26.4517 49 26.7307V37.5107C49 37.7759 48.8946 38.0302 48.7071 38.2178C48.5196 38.4053 48.2652 38.5107 48 38.5107H46V24.5107C46 24.2455 45.8946 23.9911 45.7071 23.8036C45.5196 23.616 45.2652 23.5107 45 23.5107C44.7348 23.5107 44.4804 23.616 44.2929 23.8036C44.1054 23.9911 44 24.2455 44 24.5107V38.5107H42C41.7348 38.5107 41.4804 38.4053 41.2929 38.2178C41.1054 38.0302 41 37.7759 41 37.5107ZM37 41.5107C37 41.2455 37.1054 40.9911 37.2929 40.8036C37.4804 40.616 37.7348 40.5107 38 40.5107H52C52.2652 40.5107 52.5196 40.616 52.7071 40.8036C52.8946 40.9911 53 41.2455 53 41.5107C53 41.7759 52.8946 42.0302 52.7071 42.2178C52.5196 42.4053 52.2652 42.5107 52 42.5107H45.151C45.1021 42.4953 45.0519 42.4846 45.001 42.4787C44.9435 42.4843 44.8866 42.495 44.831 42.5107H38C37.7348 42.5107 37.4804 42.4053 37.2929 42.2178C37.1054 42.0302 37 41.7759 37 41.5107ZM43 58.5107H11C11 57.9802 11.2107 57.4715 11.5858 57.0965C11.9609 56.7214 12.4696 56.5107 13 56.5107H41C41.5304 56.5107 42.0391 56.7214 42.4142 57.0965C42.7893 57.4715 43 57.9802 43 58.5107ZM22.114 54.5107C22.3738 53.2293 23.1251 52.1007 24.207 51.3667C24.9515 52.0992 25.9541 52.5098 26.9985 52.5098C28.0429 52.5098 29.0455 52.0992 29.79 51.3667C30.06 51.5447 30.31 51.7497 30.536 51.9787C31.2327 52.668 31.7077 53.5497 31.9 54.5107H22.114ZM27 46.5107C27.5304 46.5107 28.0391 46.7214 28.4142 47.0965C28.7893 47.4715 29 47.9802 29 48.5107C29 49.0411 28.7893 49.5498 28.4142 49.9249C28.0391 50.3 27.5304 50.5107 27 50.5107C26.4696 50.5107 25.9609 50.3 25.5858 49.9249C25.2107 49.5498 25 49.0411 25 48.5107C25 47.9802 25.2107 47.4715 25.5858 47.0965C25.9609 46.7214 26.4696 46.5107 27 46.5107ZM18 41.5107C18 41.7759 17.8946 42.0302 17.7071 42.2178C17.5196 42.4053 17.2652 42.5107 17 42.5107H3C2.73478 42.5107 2.48043 42.4053 2.29289 42.2178C2.10536 42.0302 2 41.7759 2 41.5107C2 41.2455 2.10536 40.9911 2.29289 40.8036C2.48043 40.616 2.73478 40.5107 3 40.5107H17C17.2652 40.5107 17.5196 40.616 17.7071 40.8036C17.8946 40.9911 18 41.2455 18 41.5107ZM10 2.51067C11.0609 2.51067 12.0783 2.93209 12.8284 3.68224C13.5786 4.43238 14 5.4498 14 6.51067C14 7.57153 13.5786 8.58895 12.8284 9.33909C12.0783 10.0892 11.0609 10.5107 10 10.5107C8.93913 10.5107 7.92172 10.0892 7.17157 9.33909C6.42143 8.58895 6 7.57153 6 6.51067C6 5.4498 6.42143 4.43238 7.17157 3.68224C7.92172 2.93209 8.93913 2.51067 10 2.51067ZM6 37.5107V26.7307C6.31333 26.4517 6.56434 26.1098 6.73664 25.7273C6.90895 25.3447 6.99868 24.9302 7 24.5107V17.5107C7 17.2455 6.89464 16.9911 6.70711 16.8036C6.51957 16.616 6.26522 16.5107 6 16.5107C5.73478 16.5107 5.48043 16.616 5.29289 16.8036C5.10536 16.9911 5 17.2455 5 17.5107V24.5107C5 24.7759 4.89464 25.0302 4.70711 25.2178C4.51957 25.4053 4.26522 25.5107 4 25.5107C3.73478 25.5107 3.48043 25.4053 3.29289 25.2178C3.10536 25.0302 3 24.7759 3 24.5107V17.5107C3.00159 16.1851 3.52888 14.9142 4.46622 13.9769C5.40356 13.0395 6.6744 12.5123 8 12.5107H12C13.3256 12.5123 14.5964 13.0395 15.5338 13.9769C16.4711 14.9142 16.9984 16.1851 17 17.5107V24.5107C17 24.7759 16.8946 25.0302 16.7071 25.2178C16.5196 25.4053 16.2652 25.5107 16 25.5107C15.7348 25.5107 15.4804 25.4053 15.2929 25.2178C15.1054 25.0302 15 24.7759 15 24.5107V17.5107C15 17.2455 14.8946 16.9911 14.7071 16.8036C14.5196 16.616 14.2652 16.5107 14 16.5107C13.7348 16.5107 13.4804 16.616 13.2929 16.8036C13.1054 16.9911 13 17.2455 13 17.5107V24.5107C13.0013 24.9302 13.0911 25.3447 13.2634 25.7273C13.4357 26.1098 13.6867 26.4517 14 26.7307V37.5107C14 37.7759 13.8946 38.0302 13.7071 38.2178C13.5196 38.4053 13.2652 38.5107 13 38.5107H11V24.5107C11 24.2455 10.8946 23.9911 10.7071 23.8036C10.5196 23.616 10.2652 23.5107 10 23.5107C9.73478 23.5107 9.48043 23.616 9.29289 23.8036C9.10536 23.9911 9 24.2455 9 24.5107V38.5107H7C6.73478 38.5107 6.48043 38.4053 6.29289 38.2178C6.10536 38.0302 6 37.7759 6 37.5107Z" fill="#2F352B"/>
</g>
<defs>
<clipPath id="clip0_3549_7">
<rect width="55" height="61" fill="white" transform="translate(0 0.5)"/>
</clipPath>
</defs>
</svg>
