<svg width="700" height="674" viewBox="0 0 700 674" fill="none" xmlns="http://www.w3.org/2000/svg">
<path d="M105.7 328.101C-29.2001 406.001 -29.2001 532.301 105.7 610.101C240.6 687.901 459.3 688.001 594.2 610.101C729.1 532.201 729.1 405.901 594.2 328.101C459.4 250.201 240.6 250.201 105.7 328.101Z" fill="#FAFAFA"/>
<path d="M300.4 642.7C336.409 642.7 365.6 625.866 365.6 605.1C365.6 584.334 336.409 567.5 300.4 567.5C264.391 567.5 235.2 584.334 235.2 605.1C235.2 625.866 264.391 642.7 300.4 642.7Z" fill="#E1E1E1"/>
<path d="M409.6 615.7C448.204 615.7 479.5 597.613 479.5 575.3C479.5 552.988 448.204 534.9 409.6 534.9C370.995 534.9 339.7 552.988 339.7 575.3C339.7 597.613 370.995 615.7 409.6 615.7Z" fill="#E1E1E1"/>
<path d="M83.2999 557.801L69.1999 566.001C69.2999 558.301 68.7999 543.601 64.6999 524.601C55.2999 481.001 36.1999 473.401 26.9999 456.401C17.1999 438.501 29.7999 427.801 41.5999 429.701C52.1999 431.301 68.8999 444.301 77.1999 471.101C88.1999 506.401 85.4999 541.701 83.2999 557.801Z" fill="#018957"/>
<path opacity="0.5" d="M83.2999 557.801L69.1999 566.001C69.2999 558.301 68.7999 543.601 64.6999 524.601C55.2999 481.001 36.1999 473.401 26.9999 456.401C17.1999 438.501 29.7999 427.801 41.5999 429.701C52.1999 431.301 68.8999 444.301 77.1999 471.101C88.1999 506.401 85.4999 541.701 83.2999 557.801Z" fill="white"/>
<path d="M74.9999 554.401C74.5999 554.301 74.2999 554.001 74.3999 553.601C81.8999 501.101 58.4999 455.901 39.4999 440.501C39.1999 440.201 39.0999 439.801 39.3999 439.501C39.6999 439.201 40.0999 439.101 40.3999 439.401C59.6999 455.001 83.4999 500.801 75.8999 553.901C75.7999 554.101 75.3999 554.401 74.9999 554.401Z" fill="white"/>
<path d="M76.2 561.901L69.1 566L67.9 566.701C65.6 556.101 59.4 545.1 47.6 533.3C33.8 519.5 14.6 506.5 18 494.9C21.4 483.3 36.9 486.301 47.6 493.201C57.8 499.701 79.2 523.601 76.2 561.901Z" fill="#018957"/>
<path opacity="0.65" d="M76.2 561.901L69.1 566L67.9 566.701C65.6 556.101 59.4 545.1 47.6 533.3C33.8 519.5 14.6 506.5 18 494.9C21.4 483.3 36.9 486.301 47.6 493.201C57.8 499.701 79.2 523.601 76.2 561.901Z" fill="white"/>
<path d="M72.5001 558.6C72.2001 558.6 71.9001 558.3 71.9001 557.9C70.9001 532.2 42.7001 498.9 29.2001 493.4C28.8001 493.2 28.6001 492.8 28.8001 492.4C29.0001 492 29.4001 491.8 29.8001 492C43.9001 497.7 72.4001 531.1 73.4001 557.8C73.4001 558.2 73.1001 558.6 72.7001 558.6C72.5001 558.7 72.5001 558.7 72.5001 558.6Z" fill="white"/>
<path d="M128.7 636.5L251.2 450.4L168.5 402.7L46 588.8L128.7 636.5Z" fill="#34D399"/>
<path opacity="0.2" d="M128.7 636.5L251.2 450.4L168.5 402.7L46 588.8L128.7 636.5Z" fill="white"/>
<path d="M251.2 450.4L128.7 636.5L178.3 607.9L267.6 472.7L251.2 450.4Z" fill="#34D399"/>
<path opacity="0.2" d="M251.2 450.4L128.7 636.5L178.3 607.9L267.6 472.7L251.2 450.4Z" fill="black"/>
<path d="M473.6 46.9004L481.7 83.1004L515 102.6L506.7 66.0004L473.6 46.9004Z" fill="#34D399"/>
<path opacity="0.2" d="M473.6 46.9004L481.7 83.1004L515 102.6L506.7 66.0004L473.6 46.9004Z" fill="black"/>
<path d="M401.8 225.6L506.7 66.0004L473.6 46.9004L599.5 11.4004L622.4 132.8L589.4 113.7L484.5 273.4L401.8 225.6Z" fill="#34D399"/>
<path opacity="0.2" d="M401.8 225.6L506.7 66.0004L473.6 46.9004L599.5 11.4004L622.4 132.8L589.4 113.7L484.5 273.4L401.8 225.6Z" fill="white"/>
<path d="M589.4 113.7L484.5 273.4L503.1 294.5L597.8 150.4L630.7 169.4L622.4 132.8L589.4 113.7Z" fill="#34D399"/>
<path opacity="0.2" d="M589.4 113.7L484.5 273.4L503.1 294.5L597.8 150.4L630.7 169.4L622.4 132.8L589.4 113.7Z" fill="black"/>
<path d="M420.4 246.901L401.8 225.801L484.5 273.401L503.1 294.501L420.4 246.901Z" fill="#34D399"/>
<path opacity="0.4" d="M420.4 246.901L401.8 225.801L484.5 273.401L503.1 294.501L420.4 246.901Z" fill="black"/>
<path opacity="0.2" d="M597.8 150.4L589.4 113.7L622.4 132.8L630.7 169.4L597.8 150.4Z" fill="black"/>
<path d="M469.9 538.501C469.9 547.301 469.8 559.101 469.9 566.701C469.9 568.301 469.9 570.401 469.9 573.101C468.7 581.001 462.8 588.701 452.4 594.801C428.7 608.501 390.3 608.501 366.6 594.801C354.4 587.701 348.5 578.401 348.9 569.201V569.101C349 568.301 349 567.501 349.2 566.701V566.601C350.2 557.601 351 548.601 351.5 540.201C352.3 526.801 352.2 520.901 352.1 513.701C352 504.801 348.3 497.801 338.9 490.001C329.5 482.101 310.9 455.201 310.9 455.201L434.5 391.701L469.6 503.001C469.4 502.901 469.9 529.801 469.9 538.501Z" fill="#FFAAA8"/>
<path d="M435.2 368.6C435.2 368.6 432.9 378 421.8 365.6C410.8 353.2 392.7 334.3 373.7 316.1C364.6 307.4 328 278 303.5 255.7C295.7 247.6 284.6 242 276.9 247.9C269.3 253.8 269.2 268.2 274.1 275.3C278.4 281.6 287.5 290.4 294.4 296.7C294.4 297.1 294.3 297.5 294.3 297.8C293 309.3 290.6 322.2 289.5 336.2C288.8 344.5 278.8 355 279 363.5C281.9 375.6 298 388.7 309.4 397.8C320.8 406.9 325.7 410.6 325.6 413.4C325.4 417.8 307 401.8 298.8 396.2C299.3 422.3 282.6 425.4 282.6 425.4C285.1 430.4 299.3 441.5 319.5 467.3C327.5 477.5 408.6 410.3 408.6 410.3L427.9 397.9L441.5 375.5L435.2 368.6Z" fill="#FFAAA8"/>
<path d="M428.5 391.601C420.9 401.201 391 431.701 414.5 472.201C412 469.801 410.6 468.001 410.1 467.201C406.7 462.701 404.1 457.701 402.2 452.401C402.1 452.201 402.1 452.001 402 451.801C396.7 436.401 398.5 420.701 408.5 407.501C416.4 397.101 430.7 387.001 432.6 375.801C432.7 375.401 432.7 375.001 432.7 374.601C433 378.101 433.4 385.501 428.5 391.601Z" fill="#FF9090"/>
<path opacity="0.5" d="M272.6 253.601C269.6 260.501 270.5 269.901 274.1 275.301C278.4 281.601 287.5 290.401 294.4 296.701C294.4 297.001 294.3 297.301 294.3 297.601C297.4 300.201 300.7 303.001 304.3 306.201C313 313.901 324.5 323.801 333.2 331.501C337.6 335.301 358.3 352.001 365.8 358.701C354.2 346.001 328.3 323.001 315.2 310.101C305.3 300.401 290.8 286.801 286.1 281.401C281.4 276.001 278.6 272.301 276.9 270.301C271.1 263.201 272.4 255.001 272.6 253.601Z" fill="#FF9090"/>
<path d="M294.7 436.601C298.8 436.201 304 433.201 306.2 429.701C309.3 424.601 309.8 420.701 309 412.801C308.8 410.801 308.3 407.101 306.8 401.901C304.1 400.001 301.3 397.901 298.8 396.101C299.3 422.201 282.6 425.301 282.6 425.301C283.7 427.601 287.3 431.101 292.7 436.701C293.3 436.701 294 436.601 294.7 436.601Z" fill="#FF9090"/>
<path d="M281.4 331.2C280.7 331.8 290 340.7 291 341.2C294.4 343.1 301 340.7 303.8 338.4C305.6 336.9 306.9 334.9 307.8 332.8C310.9 325.5 309.4 317.2 307.8 309.4C307.6 308.2 307.2 306.8 306.1 306.2C305.9 310.3 302.3 312 299.7 314.5C297.2 316.8 294.6 319.2 292.1 321.5C288.5 324.7 284.9 328 281.4 331.2Z" fill="#FF9090"/>
<path d="M302.4 336L350.7 384.8L294.3 337.5L302.4 336Z" fill="#FF9090"/>
<path d="M295.8 377.7C300.5 376.2 304.4 372.4 306 367.8C307.4 363.8 307.1 359.5 306.9 355.3C306.7 351.7 306.4 348.1 305.1 344.8L282.5 352.5C280.5 356.3 278.9 360 279 363.5C280.2 368.4 283.3 373.4 287.8 378.2C290.3 378.6 293.3 378.5 295.8 377.7Z" fill="#FF9090"/>
<path d="M289.8 296.301C299.7 295.401 304.9 299.801 307.2 308.701C308 312.101 308.1 317.401 307.2 324.001C306.3 330.601 300 338.601 291.9 337.401C291.8 337.401 291.6 337.401 291.5 337.301C278.4 335.201 277 328.201 277 316.801C276.9 305.501 280.9 297.101 289.8 296.301Z" fill="#FFAAA8"/>
<path opacity="0.5" d="M301.5 298.9C302.2 299.5 306.4 303.6 306.5 315.1C306.5 327.6 300.3 330.2 293.4 331.3C286.5 332.4 277.2 328.1 277.2 321.9C277.8 330.3 280.6 335.6 291.6 337.4C291.7 337.4 291.9 337.4 292 337.5C300.1 338.7 306.3 330.8 307.3 324.1C308.2 317.5 308.1 312.1 307.3 308.8C306 304.3 304.2 301 301.5 298.9Z" fill="#FF9090"/>
<path d="M290 336.1C299.1 335.3 303.8 339.3 305.9 347.4C306.7 350.5 306.7 355.4 305.9 361.4C305.1 367.4 299.3 374.7 291.9 373.6C291.8 373.6 291.7 373.6 291.5 373.5C279.6 371.6 278.2 365.2 278.2 354.8C278.3 344.5 281.9 336.8 290 336.1Z" fill="#FFAAA8"/>
<path opacity="0.5" d="M302.6 340.4C303.9 342.3 304.8 347 304.1 354C303.1 363.3 301.1 367.8 293 368.4C284.6 369 279.4 365.1 278.5 361C279.3 367.7 282.1 372 291.5 373.5C291.6 373.5 291.7 373.5 291.9 373.6C299.3 374.7 305 367.4 305.9 361.4C306.7 355.4 306.7 350.5 305.9 347.4C305.1 344.5 304.1 342.2 302.6 340.4Z" fill="#FF9090"/>
<path d="M290.5 392.2C299.9 391.3 307 395.8 307 403.9V418.4C307 426.1 300.2 432.2 292.5 431.1C292.4 431.1 292.3 431.1 292.1 431C279.7 429 279.9 417.7 279.7 411.7C279.6 405.9 282.1 393 290.5 392.2Z" fill="#FFAAA8"/>
<path opacity="0.5" d="M302.4 394.801C306.5 399.101 304.9 407.901 304.6 416.501C304.4 422.501 301.3 427.501 293.1 427.501C284.9 427.501 281.2 422.501 280.1 417.601C280.8 423.301 283.1 429.701 292.2 431.101C292.3 431.101 292.4 431.101 292.6 431.201C300.3 432.301 307.1 426.301 307.1 418.501V404.001C306.9 400.001 305.2 396.901 302.4 394.801Z" fill="#FF9090"/>
<path d="M186.1 389.401L388.7 235.801L471.4 283.501L268.7 437.101L186.1 389.401Z" fill="#34D399"/>
<path d="M471.4 283.501L490 304.601L285.2 459.401L268.7 437.101L471.4 283.501Z" fill="#34D399"/>
<path opacity="0.2" d="M471.4 283.501L490 304.601L285.2 459.401L268.7 437.101L471.4 283.501Z" fill="black"/>
<path d="M186.1 389.4L202.5 411.7L285.2 459.4L268.7 437.1L186.1 389.4Z" fill="#34D399"/>
<path opacity="0.4" d="M186.1 389.4L202.5 411.7L285.2 459.4L268.7 437.1L186.1 389.4Z" fill="black"/>
<path d="M469.4 502.9C469.4 481.4 471 452.5 474.5 427.5C478.1 402.6 477.4 381.3 476.3 375.2C475.2 369.2 474.9 360.4 465.6 349.3C461.2 344.1 451.6 336.4 443.6 327C435.5 317.5 428 307 423.7 301.2C419.4 295.4 408.8 304.7 409.3 323.1C409.7 338.1 420 351.3 424 356.9C428.8 363.8 432.3 370.4 432.7 374.5C433 378 433.4 385.4 428.5 391.5C420.9 401.1 391 431.6 414.5 472.1V509.2L469.4 502.9Z" fill="#FFAAA8"/>
<path d="M425.6 312.501C425.6 312.501 434.7 324.901 437.6 326.501C440.5 328.101 441.3 324.501 441.3 324.501C437.1 318.601 429.3 307.901 423.6 301.301C424.5 302.501 426.1 307.101 425.6 312.501Z" fill="#FFAAA8"/>
<path opacity="0.6" d="M425.6 312.501C425.6 312.501 434.7 324.901 437.6 326.501C440.3 328.001 441.3 324.501 441.3 324.501C437.1 318.601 429.3 307.901 423.6 301.301C424.5 302.501 426.1 307.101 425.6 312.501Z" fill="white"/>
<path d="M441.4 324.501C441.4 324.501 440.5 323.101 440 322.601C440.4 325.501 438.3 326.801 438.3 326.801C440.8 327.501 441.4 324.501 441.4 324.501Z" fill="#FF9090"/>
<path d="M351.8 591.001C349.2 586.601 344.9 582.501 338.8 579.001C317.6 566.801 283.2 566.801 262 579.001C255.9 582.501 251.6 586.601 249 591.001H246.1V602.101C246.5 609.801 251.8 617.501 262 623.401C283.2 635.601 317.6 635.601 338.8 623.401C349 617.501 354.3 609.901 354.7 602.101V591.001H351.8Z" fill="#018957"/>
<path opacity="0.25" d="M351.8 591.001C349.2 586.601 344.9 582.501 338.8 579.001C317.6 566.801 283.2 566.801 262 579.001C255.9 582.501 251.6 586.601 249 591.001H246.1V602.101C246.5 609.801 251.8 617.501 262 623.401C283.2 635.601 317.6 635.601 338.8 623.401C349 617.501 354.3 609.901 354.7 602.101V591.001H351.8Z" fill="black"/>
<path opacity="0.1" d="M300.4 569.801C286.5 569.801 272.6 572.901 262 579.001C255.9 582.501 251.6 586.601 249 591.001H246.1V602.101C246.5 609.801 251.8 617.501 262 623.401C272.6 629.501 286.5 632.601 300.4 632.601V569.801Z" fill="black"/>
<path opacity="0.1" d="M270.8 574.9C267.7 576.1 264.8 577.4 262.1 579C256 582.5 251.7 586.6 249.1 591H246.2V602.1C246.6 609.8 251.9 617.5 262.1 623.4C264.8 625 267.8 626.3 270.8 627.5V574.9Z" fill="black"/>
<path d="M330.1 574.9C333.2 576.1 336.1 577.4 338.8 579C344.9 582.5 349.2 586.6 351.8 591H354.7V602.1C354.3 609.8 349 617.5 338.8 623.4C336.1 625 333.1 626.3 330.1 627.5V574.9Z" fill="#018957"/>
<path d="M262 568.801C240.8 581.001 240.8 600.901 262 613.201C280.6 623.901 309.2 625.301 330.3 617.201C330.6 617.101 330.9 617.001 331.1 616.901C333.8 615.801 336.4 614.601 338.8 613.201C356.5 603.001 359.4 587.501 347.6 575.501C345.3 573.101 342.3 570.901 338.8 568.801C317.6 556.601 283.2 556.501 262 568.801Z" fill="#018957"/>
<path opacity="0.2" d="M262 568.801C240.8 581.001 240.8 600.901 262 613.201C280.6 623.901 309.2 625.301 330.3 617.201C330.6 617.101 330.9 617.001 331.1 616.901C333.8 615.801 336.4 614.601 338.8 613.201C356.5 603.001 359.4 587.501 347.6 575.501C345.3 573.101 342.3 570.901 338.8 568.801C317.6 556.601 283.2 556.501 262 568.801Z" fill="black"/>
<path opacity="0.5" d="M347.7 575.501C347.9 575.801 355.3 583.601 353.4 594.901C351.5 605.701 336.4 614.801 331.2 616.901C333.9 615.801 336.5 614.601 338.9 613.201C356.5 602.901 359.5 587.401 347.7 575.501Z" fill="#F5F5F5"/>
<path opacity="0.5" d="M253.2 606.501C253 606.201 245.6 598.401 247.5 587.101C249.4 576.301 264.5 567.201 269.7 565.101C267 566.201 264.4 567.401 262 568.801C244.3 579.001 241.4 594.501 253.2 606.501Z" fill="#F5F5F5"/>
<path d="M336.2 611.601C355.9 600.201 355.9 581.801 336.2 570.401C316.5 559.001 284.5 559.001 264.8 570.401C245.1 581.801 245.1 600.201 264.8 611.601C284.5 622.901 316.4 622.901 336.2 611.601Z" fill="#018957"/>
<path opacity="0.4" d="M336.2 611.601C355.9 600.201 355.9 581.801 336.2 570.401C316.5 559.001 284.5 559.001 264.8 570.401C245.1 581.801 245.1 600.201 264.8 611.601C284.5 622.901 316.4 622.901 336.2 611.601Z" fill="white"/>
<path opacity="0.2" d="M348.7 599.601C352.8 592.101 351.4 583.801 344.7 576.801C343.5 575.501 342 574.301 340.4 573.101C339.2 572.201 337.8 571.301 336.3 570.401C335.5 569.901 334.7 569.501 333.8 569.101C335.9 572.601 335.1 576.301 323.2 576.901C299.9 578.301 329.4 600.501 329.4 600.501C329.4 600.501 344.5 593.301 348.7 599.601Z" fill="white"/>
<path opacity="0.5" d="M346.2 593.501C349.7 593.101 351.4 589.501 350.1 585.501C348.7 581.501 344.8 578.501 341.3 578.901C337.8 579.301 336.1 582.901 337.4 586.901C338.8 590.901 342.8 593.901 346.2 593.501Z" fill="white"/>
<path d="M309.4 612C308.3 603.4 270.5 579.4 270.5 579.4C270.5 579.4 262.1 576 264.9 570.2C263.4 571 262.1 571.9 260.9 572.8C260 573.4 259.2 574.1 258.4 574.7C247.2 584.4 247.1 597.2 258.4 607C259.2 607.7 260 608.3 260.9 608.9C262.1 609.7 263.3 610.6 264.6 611.3C265.9 612.1 267.2 612.7 268.6 613.4C269.7 613.9 270.8 614.4 272 614.9C273.2 615.4 274.3 615.8 275.5 616.2C279.1 617.4 282.9 618.3 286.8 618.9C287.6 619 288.5 619.2 289.3 619.3C293 619.8 296.8 620 300.6 620C305.2 620 309.9 619.6 314.4 618.9C314.4 619 308.4 617.7 309.4 612Z" fill="#018957"/>
<path opacity="0.3" d="M309.4 612C308.3 603.4 270.5 579.4 270.5 579.4C270.5 579.4 262.1 576 264.9 570.2C263.4 571 262.1 571.9 260.9 572.8C260 573.4 259.2 574.1 258.4 574.7C247.2 584.4 247.1 597.2 258.4 607C259.2 607.7 260 608.3 260.9 608.9C262.1 609.7 263.3 610.6 264.6 611.3C265.9 612.1 267.2 612.7 268.6 613.4C269.7 613.9 270.8 614.4 272 614.9C273.2 615.4 274.3 615.8 275.5 616.2C279.1 617.4 282.9 618.3 286.8 618.9C287.6 619 288.5 619.2 289.3 619.3C293 619.8 296.8 620 300.6 620C305.2 620 309.9 619.6 314.4 618.9C314.4 619 308.4 617.7 309.4 612Z" fill="white"/>
<path d="M273.8 575.6C259.7 583.7 259.1 596.7 272.1 605.3C272.6 605.7 273.2 606 273.8 606.4C288.5 614.9 312.3 614.9 327 606.4C341.7 597.9 341.7 584.2 327 575.7C326.4 575.4 325.8 575 325.2 574.7C310.4 567.1 287.9 567.4 273.8 575.6Z" fill="#018957"/>
<path opacity="0.2" d="M273.8 575.6C259.7 583.7 259.1 596.7 272.1 605.3C272.6 605.7 273.2 606 273.8 606.4C288.5 614.9 312.3 614.9 327 606.4C341.7 597.9 341.7 584.2 327 575.7C326.4 575.4 325.8 575 325.2 574.7C310.4 567.1 287.9 567.4 273.8 575.6Z" fill="black"/>
<path d="M300.4 611.701C320.282 611.701 336.4 602.388 336.4 590.901C336.4 579.413 320.282 570.101 300.4 570.101C280.518 570.101 264.4 579.413 264.4 590.901C264.4 602.388 280.518 611.701 300.4 611.701Z" fill="#018957"/>
<path opacity="0.5" d="M300.4 611.701C320.282 611.701 336.4 602.388 336.4 590.901C336.4 579.413 320.282 570.101 300.4 570.101C280.518 570.101 264.4 579.413 264.4 590.901C264.4 602.388 280.518 611.701 300.4 611.701Z" fill="black"/>
<path d="M275 582.001C289 573.901 311.8 573.901 325.9 582.001C331.6 585.301 335 589.501 336.1 593.801C335.1 598.101 331.7 602.301 325.9 605.601C311.9 613.701 289.1 613.701 275 605.601C269.3 602.301 265.9 598.101 264.8 593.801C265.9 589.501 269.3 585.401 275 582.001Z" fill="#018957"/>
<path opacity="0.35" d="M275 582.001C289 573.901 311.8 573.901 325.9 582.001C331.6 585.301 335 589.501 336.1 593.801C335.1 598.101 331.7 602.301 325.9 605.601C311.9 613.701 289.1 613.701 275 605.601C269.3 602.301 265.9 598.101 264.8 593.801C265.9 589.501 269.3 585.401 275 582.001Z" fill="black"/>
<path d="M323.1 597.201C323.1 596.501 323.1 593.601 323.1 592.901C323.1 591.101 321.9 589.401 319.3 587.901C319.3 587.901 319.2 587.901 319.2 587.801C314.4 585.001 309.4 585.401 304.9 586.501C303 587.001 301.2 587.601 299.6 588.201C297.3 589.001 295.5 589.601 293.9 590.001C292.9 590.201 292 590.301 291.2 590.301C290.4 590.301 289.7 590.101 289 589.701C289.1 589.701 289.1 589.601 289.2 589.601C289.4 589.501 289.6 589.401 289.8 589.301C290.3 589.001 290.8 588.801 291.3 588.601C294.1 587.401 296.8 587.501 299.3 588.401L303.9 583.701V579.401C299.8 578.001 295.5 577.901 291.3 578.901C290 579.201 288.6 579.701 287.3 580.301L282.7 577.601L277.2 580.801V585.101L279.1 586.201C278.6 587.001 278.3 587.901 278.3 588.701C278.3 589.401 278.3 592.201 278.3 593.001C278.3 594.801 279.6 596.501 282.2 598.001C284.8 599.501 287.3 600.101 289.8 600.201C290.3 600.201 290.8 600.201 291.3 600.201C294.2 600.101 296.9 599.301 299.5 598.401C300 598.201 300.6 598.001 301.1 597.901L296.5 602.601V606.901C303.1 609.501 309.4 608.301 314.3 606.101L318.9 608.701L324.4 605.501V601.201L322.5 600.101C322.8 599.001 323.1 598.101 323.1 597.201ZM311.5 596.801C311.1 597.001 310.7 597.301 310.2 597.401C306.9 598.801 303.6 598.501 301.2 597.501C305.5 596.001 309.1 594.701 312.2 596.301C312 596.501 311.7 596.701 311.5 596.801Z" fill="#018957"/>
<path d="M304.9 586.501C303 587.001 301.2 587.601 299.5 588.201C297.2 589.001 295.4 589.601 293.8 590.001C292.8 590.201 291.9 590.301 291.1 590.301C290.2 590.201 289.3 590.001 288.5 589.501C286.7 588.501 286.5 587.001 289 585.301C289.2 585.201 289.4 585.101 289.6 585.001C290.1 584.701 290.6 584.501 291.1 584.301C293.9 583.101 296.6 583.201 299.1 584.101L303.7 579.401C299.6 578.001 295.3 577.901 291.1 578.901C289.8 579.201 288.4 579.701 287.1 580.301L282.5 577.601L277 580.801L281.6 583.401C277 586.901 276.9 590.601 282.1 593.601C284.7 595.101 287.2 595.701 289.7 595.801C290.2 595.801 290.7 595.801 291.2 595.801C294.1 595.701 296.8 594.901 299.4 594.001C304.7 592.201 309 590.201 312.5 592.201C314.9 593.601 314.2 595.301 311.6 596.801C311.2 597.001 310.8 597.301 310.3 597.401C307 598.801 303.5 598.501 301.1 597.501L296.3 602.301C302.9 604.901 309.2 603.701 314.1 601.501L318.7 604.101L324.2 600.901L319.6 598.301C324.2 594.801 324.7 590.901 319.4 587.801C319.4 587.801 319.3 587.801 319.3 587.701C314.3 585.001 309.3 585.401 304.9 586.501Z" fill="#018957"/>
<g opacity="0.3">
<path d="M304.9 586.501C303 587.001 301.2 587.601 299.5 588.201C297.2 589.001 295.4 589.601 293.8 590.001C292.8 590.201 291.9 590.301 291.1 590.301C290.2 590.201 289.3 590.001 288.5 589.501C286.7 588.501 286.5 587.001 289 585.301C289.2 585.201 289.4 585.101 289.6 585.001C290.1 584.701 290.6 584.501 291.1 584.301C293.9 583.101 296.6 583.201 299.1 584.101L303.7 579.401C299.6 578.001 295.3 577.901 291.1 578.901C289.8 579.201 288.4 579.701 287.1 580.301L282.5 577.601L277 580.801L281.6 583.401C277 586.901 276.9 590.601 282.1 593.601C284.7 595.101 287.2 595.701 289.7 595.801C290.2 595.801 290.7 595.801 291.2 595.801C294.1 595.701 296.8 594.901 299.4 594.001C304.7 592.201 309 590.201 312.5 592.201C314.9 593.601 314.2 595.301 311.6 596.801C311.2 597.001 310.8 597.301 310.3 597.401C307 598.801 303.5 598.501 301.1 597.501L296.3 602.301C302.9 604.901 309.2 603.701 314.1 601.501L318.7 604.101L324.2 600.901L319.6 598.301C324.2 594.801 324.7 590.901 319.4 587.801C319.4 587.801 319.3 587.801 319.3 587.701C314.3 585.001 309.3 585.401 304.9 586.501Z" fill="white"/>
</g>
<path opacity="0.45" d="M277 580.701L282.5 578.201L287.1 580.201L282.5 577.601L277 580.701Z" fill="#F5F5F5"/>
<path opacity="0.45" d="M290.5 579.001C293.5 578.401 298.3 578.201 302.3 579.401L299.1 583.901L303.7 579.201C298.8 577.701 294.5 577.801 290.5 579.001Z" fill="#F5F5F5"/>
<path opacity="0.45" d="M319.2 587.801C319.2 587.901 319.2 587.901 319.2 587.801C324.6 591.001 324.1 594.801 319.5 598.401C323.6 594.001 322.8 590.901 318.4 588.401C314 585.901 308.4 585.901 304.9 586.601C309.3 585.401 314.3 585.001 319.2 587.801Z" fill="#F5F5F5"/>
<path opacity="0.45" d="M319.5 598.4L323 601.1L318.5 604.2L324 601.1L319.5 598.4Z" fill="#F5F5F5"/>
<path opacity="0.45" d="M310.2 597.501C305.4 599.801 301.4 598.301 301.4 598.301L296.2 602.401L301 597.601C303.4 598.501 306.9 598.901 310.2 597.501Z" fill="#F5F5F5"/>
<path opacity="0.45" d="M293.8 590.001C291.7 590.801 288.7 590.701 287.2 589.401C285.6 588.001 286.6 586.601 289 585.301C286.4 587.001 286.7 588.501 288.5 589.501C289.3 590.001 290.2 590.201 291.1 590.301C291.9 590.301 292.8 590.201 293.8 590.001Z" fill="#F5F5F5"/>
<path opacity="0.45" d="M281.5 583.4C281.1 583.7 277.8 586.8 279.3 589.9C280.9 593.2 285.7 595.3 289.6 595.7C287.1 595.6 284.6 595 282 593.5C276.8 590.6 276.9 586.9 281.5 583.4Z" fill="#F5F5F5"/>
<path d="M362.1 575.3C359.5 570.9 355.2 566.8 349.1 563.3C327.9 551.1 293.5 551.1 272.3 563.3C266.2 566.8 261.9 570.9 259.3 575.3H256.4V586.4C256.8 594.1 262.1 601.8 272.3 607.7C293.5 619.9 327.9 619.9 349.1 607.7C359.3 601.8 364.6 594.2 365 586.4V575.3H362.1Z" fill="#018957"/>
<path opacity="0.25" d="M362.1 575.3C359.5 570.9 355.2 566.8 349.1 563.3C327.9 551.1 293.5 551.1 272.3 563.3C266.2 566.8 261.9 570.9 259.3 575.3H256.4V586.4C256.8 594.1 262.1 601.8 272.3 607.7C293.5 619.9 327.9 619.9 349.1 607.7C359.3 601.8 364.6 594.2 365 586.4V575.3H362.1Z" fill="black"/>
<path opacity="0.1" d="M310.7 554.2C296.8 554.2 282.9 557.3 272.3 563.4C266.2 566.9 261.9 571 259.3 575.4H256.4V586.5C256.8 594.2 262.1 601.9 272.3 607.8C282.9 613.9 296.8 617 310.7 617V554.2Z" fill="black"/>
<path opacity="0.1" d="M281 559.2C277.9 560.4 275 561.7 272.3 563.3C266.2 566.8 261.9 570.9 259.3 575.3H256.4V586.4C256.8 594.1 262.1 601.8 272.3 607.7C275 609.3 278 610.6 281 611.8V559.2Z" fill="black"/>
<path d="M340.4 559.2C343.5 560.4 346.4 561.7 349.1 563.3C355.2 566.8 359.5 570.9 362.1 575.3H365V586.4C364.6 594.1 359.3 601.8 349.1 607.7C346.4 609.3 343.4 610.6 340.4 611.8V559.2Z" fill="#018957"/>
<path d="M272.3 553.201C251.1 565.401 251.1 585.301 272.3 597.601C290.9 608.301 319.5 609.701 340.6 601.601C340.9 601.501 341.2 601.401 341.4 601.301C344.1 600.201 346.7 599.001 349.1 597.601C366.8 587.401 369.7 571.901 357.9 559.901C355.6 557.501 352.6 555.301 349.1 553.201C327.9 540.901 293.5 540.901 272.3 553.201Z" fill="#018957"/>
<path opacity="0.2" d="M272.3 553.201C251.1 565.401 251.1 585.301 272.3 597.601C290.9 608.301 319.5 609.701 340.6 601.601C340.9 601.501 341.2 601.401 341.4 601.301C344.1 600.201 346.7 599.001 349.1 597.601C366.8 587.401 369.7 571.901 357.9 559.901C355.6 557.501 352.6 555.301 349.1 553.201C327.9 540.901 293.5 540.901 272.3 553.201Z" fill="black"/>
<path opacity="0.5" d="M357.9 559.801C358.1 560.101 365.5 567.901 363.6 579.201C361.7 590.001 346.6 599.101 341.4 601.201C344.1 600.101 346.7 598.901 349.1 597.501C366.8 587.301 369.7 571.801 357.9 559.801Z" fill="#F5F5F5"/>
<path opacity="0.5" d="M263.5 590.901C263.3 590.601 255.9 582.801 257.8 571.501C259.7 560.701 274.8 551.601 280 549.501C277.3 550.601 274.7 551.801 272.3 553.201C254.6 563.401 251.7 578.901 263.5 590.901Z" fill="#F5F5F5"/>
<path d="M346.4 595.9C366.1 584.5 366.1 566.1 346.4 554.7C326.7 543.3 294.7 543.3 275 554.7C255.3 566.1 255.3 584.5 275 595.9C294.7 607.3 326.7 607.3 346.4 595.9Z" fill="#018957"/>
<path opacity="0.4" d="M346.4 595.9C366.1 584.5 366.1 566.1 346.4 554.7C326.7 543.3 294.7 543.3 275 554.7C255.3 566.1 255.3 584.5 275 595.9C294.7 607.3 326.7 607.3 346.4 595.9Z" fill="white"/>
<path opacity="0.2" d="M358.9 584C363 576.5 361.6 568.2 354.9 561.2C353.7 559.9 352.2 558.7 350.6 557.5C349.4 556.6 348 555.7 346.5 554.8C345.7 554.3 344.9 553.9 344 553.5C346.1 557 345.3 560.7 333.4 561.3C310.1 562.7 339.6 584.9 339.6 584.9C339.6 584.9 354.8 577.6 358.9 584Z" fill="white"/>
<path opacity="0.5" d="M356.5 577.9C360 577.5 361.7 573.9 360.4 569.9C359 565.9 355.1 562.9 351.6 563.3C348.1 563.7 346.4 567.3 347.7 571.3C349.1 575.3 353 578.2 356.5 577.9Z" fill="white"/>
<path d="M319.7 596.401C318.6 587.801 280.8 563.801 280.8 563.801C280.8 563.801 272.4 560.401 275.2 554.601C273.7 555.401 272.4 556.301 271.2 557.201C270.3 557.801 269.5 558.501 268.7 559.101C257.5 568.801 257.4 581.601 268.7 591.401C269.5 592.101 270.3 592.701 271.2 593.301C272.4 594.101 273.6 595.001 274.9 595.701C276.2 596.501 277.5 597.101 278.9 597.801C280 598.301 281.1 598.801 282.3 599.301C283.5 599.801 284.6 600.201 285.8 600.601C289.4 601.801 293.2 602.701 297.1 603.301C297.9 603.401 298.8 603.601 299.6 603.701C303.3 604.201 307.1 604.401 310.9 604.401C315.5 604.401 320.2 604.001 324.7 603.301C324.7 603.301 318.6 602.101 319.7 596.401Z" fill="#018957"/>
<path opacity="0.3" d="M319.7 596.401C318.6 587.801 280.8 563.801 280.8 563.801C280.8 563.801 272.4 560.401 275.2 554.601C273.7 555.401 272.4 556.301 271.2 557.201C270.3 557.801 269.5 558.501 268.7 559.101C257.5 568.801 257.4 581.601 268.7 591.401C269.5 592.101 270.3 592.701 271.2 593.301C272.4 594.101 273.6 595.001 274.9 595.701C276.2 596.501 277.5 597.101 278.9 597.801C280 598.301 281.1 598.801 282.3 599.301C283.5 599.801 284.6 600.201 285.8 600.601C289.4 601.801 293.2 602.701 297.1 603.301C297.9 603.401 298.8 603.601 299.6 603.701C303.3 604.201 307.1 604.401 310.9 604.401C315.5 604.401 320.2 604.001 324.7 603.301C324.7 603.301 318.6 602.101 319.7 596.401Z" fill="white"/>
<path d="M284.1 559.9C270 568 269.4 581 282.4 589.6C282.9 590 283.5 590.3 284.1 590.7C298.8 599.2 322.6 599.2 337.3 590.7C352 582.2 352 568.5 337.3 560C336.7 559.7 336.1 559.3 335.5 559C320.7 551.5 298.2 551.8 284.1 559.9Z" fill="#018957"/>
<path opacity="0.2" d="M284.1 559.9C270 568 269.4 581 282.4 589.6C282.9 590 283.5 590.3 284.1 590.7C298.8 599.2 322.6 599.2 337.3 590.7C352 582.2 352 568.5 337.3 560C336.7 559.7 336.1 559.3 335.5 559C320.7 551.5 298.2 551.8 284.1 559.9Z" fill="black"/>
<path d="M310.7 596.1C330.582 596.1 346.7 586.788 346.7 575.3C346.7 563.812 330.582 554.5 310.7 554.5C290.818 554.5 274.7 563.812 274.7 575.3C274.7 586.788 290.818 596.1 310.7 596.1Z" fill="#018957"/>
<path opacity="0.5" d="M310.7 596.1C330.582 596.1 346.7 586.788 346.7 575.3C346.7 563.812 330.582 554.5 310.7 554.5C290.818 554.5 274.7 563.812 274.7 575.3C274.7 586.788 290.818 596.1 310.7 596.1Z" fill="black"/>
<path d="M285.3 566.4C299.3 558.3 322.1 558.3 336.2 566.4C341.9 569.7 345.3 573.9 346.4 578.2C345.4 582.5 342 586.7 336.2 590C322.2 598.1 299.4 598.1 285.3 590C279.6 586.7 276.2 582.5 275.1 578.2C276.2 573.9 279.5 569.7 285.3 566.4Z" fill="#018957"/>
<path opacity="0.35" d="M285.3 566.4C299.3 558.3 322.1 558.3 336.2 566.4C341.9 569.7 345.3 573.9 346.4 578.2C345.4 582.5 342 586.7 336.2 590C322.2 598.1 299.4 598.1 285.3 590C279.6 586.7 276.2 582.5 275.1 578.2C276.2 573.9 279.5 569.7 285.3 566.4Z" fill="black"/>
<path d="M333.4 581.6C333.4 580.9 333.4 578 333.4 577.3C333.4 575.5 332.2 573.8 329.6 572.3C329.6 572.3 329.5 572.3 329.5 572.2C324.7 569.4 319.7 569.8 315.2 570.9C313.3 571.4 311.5 572 309.9 572.6C307.6 573.4 305.8 574 304.2 574.4C303.2 574.6 302.3 574.7 301.5 574.7C300.7 574.7 300 574.5 299.3 574.1C299.4 574.1 299.4 574 299.5 574C299.7 573.9 299.9 573.8 300.1 573.7C300.6 573.4 301.1 573.2 301.6 573C304.4 571.8 307.1 571.9 309.6 572.8L314.2 568.1V563.8C310.1 562.4 305.8 562.3 301.6 563.3C300.3 563.6 298.9 564.1 297.6 564.7L293 562L287.5 565.2V569.5L289.4 570.6C288.9 571.4 288.6 572.3 288.6 573.1C288.6 573.8 288.6 576.6 288.6 577.4C288.6 579.2 289.9 580.9 292.5 582.4C295.1 583.9 297.6 584.5 300.1 584.6C300.6 584.6 301.1 584.6 301.6 584.6C304.5 584.5 307.2 583.7 309.8 582.8C310.3 582.6 310.9 582.4 311.4 582.3L306.8 587V591.3C313.4 593.9 319.7 592.7 324.6 590.5L329.2 593.1L334.7 589.9V585.6L332.8 584.5C333.1 583.4 333.4 582.5 333.4 581.6ZM321.8 581.2C321.4 581.4 321 581.7 320.5 581.8C317.2 583.2 313.9 582.9 311.5 581.9C315.8 580.4 319.4 579.1 322.5 580.7C322.2 580.9 322 581 321.8 581.2Z" fill="#018957"/>
<path d="M315.2 570.9C313.3 571.4 311.5 572 309.8 572.6C307.5 573.4 305.7 574 304.1 574.4C303.1 574.6 302.2 574.7 301.4 574.7C300.5 574.6 299.6 574.4 298.8 573.9C297 572.9 296.8 571.4 299.3 569.7C299.5 569.6 299.7 569.5 299.9 569.4C300.4 569.1 300.9 568.9 301.4 568.7C304.2 567.5 306.9 567.6 309.4 568.5L314 563.8C309.9 562.4 305.6 562.3 301.4 563.3C300.1 563.6 298.7 564.1 297.4 564.7L292.8 562L287.3 565.2L291.9 567.8C287.3 571.3 287.2 575 292.4 578C295 579.5 297.5 580.1 300 580.2C300.5 580.2 301 580.2 301.5 580.2C304.4 580.1 307.1 579.3 309.7 578.4C315 576.6 319.3 574.6 322.8 576.6C325.2 578 324.5 579.7 321.9 581.2C321.5 581.4 321.1 581.7 320.6 581.8C317.3 583.2 313.8 582.9 311.4 581.9L306.6 586.7C313.2 589.3 319.5 588.1 324.4 585.9L329 588.5L334.5 585.3L329.9 582.7C334.5 579.2 335 575.3 329.7 572.2C329.7 572.2 329.6 572.2 329.6 572.1C324.6 569.4 319.6 569.8 315.2 570.9Z" fill="#018957"/>
<g opacity="0.3">
<path d="M315.2 570.9C313.3 571.4 311.5 572 309.8 572.6C307.5 573.4 305.7 574 304.1 574.4C303.1 574.6 302.2 574.7 301.4 574.7C300.5 574.6 299.6 574.4 298.8 573.9C297 572.9 296.8 571.4 299.3 569.7C299.5 569.6 299.7 569.5 299.9 569.4C300.4 569.1 300.9 568.9 301.4 568.7C304.2 567.5 306.9 567.6 309.4 568.5L314 563.8C309.9 562.4 305.6 562.3 301.4 563.3C300.1 563.6 298.7 564.1 297.4 564.7L292.8 562L287.3 565.2L291.9 567.8C287.3 571.3 287.2 575 292.4 578C295 579.5 297.5 580.1 300 580.2C300.5 580.2 301 580.2 301.5 580.2C304.4 580.1 307.1 579.3 309.7 578.4C315 576.6 319.3 574.6 322.8 576.6C325.2 578 324.5 579.7 321.9 581.2C321.5 581.4 321.1 581.7 320.6 581.8C317.3 583.2 313.8 582.9 311.4 581.9L306.6 586.7C313.2 589.3 319.5 588.1 324.4 585.9L329 588.5L334.5 585.3L329.9 582.7C334.5 579.2 335 575.3 329.7 572.2C329.7 572.2 329.6 572.2 329.6 572.1C324.6 569.4 319.6 569.8 315.2 570.9Z" fill="white"/>
</g>
<path opacity="0.45" d="M287.3 565.1L292.8 562.6L297.4 564.6L292.8 561.9L287.3 565.1Z" fill="#F5F5F5"/>
<path opacity="0.45" d="M300.7 563.4C303.7 562.8 308.5 562.6 312.5 563.8L309.3 568.3L313.9 563.6C309.1 562.1 304.7 562.2 300.7 563.4Z" fill="#F5F5F5"/>
<path opacity="0.45" d="M329.4 572.2C329.5 572.2 329.5 572.2 329.4 572.2C334.8 575.4 334.3 579.2 329.7 582.8C333.8 578.4 333 575.3 328.6 572.8C324.2 570.3 318.6 570.3 315.1 571C319.6 569.8 324.6 569.4 329.4 572.2Z" fill="#F5F5F5"/>
<path opacity="0.45" d="M329.8 582.801L333.3 585.501L328.8 588.601L334.3 585.401L329.8 582.801Z" fill="#F5F5F5"/>
<path opacity="0.45" d="M320.5 581.801C315.7 584.101 311.701 582.601 311.701 582.601L306.5 586.701L311.3 581.901C313.7 582.901 317.1 583.301 320.5 581.801Z" fill="#F5F5F5"/>
<path opacity="0.45" d="M304.1 574.301C302 575.101 299 575.001 297.5 573.701C295.9 572.301 296.9 570.901 299.3 569.601C296.7 571.301 297 572.801 298.8 573.801C299.6 574.301 300.5 574.501 301.4 574.601C302.2 574.601 303.1 574.501 304.1 574.301Z" fill="#F5F5F5"/>
<path opacity="0.45" d="M291.8 567.801C291.4 568.101 288.1 571.201 289.6 574.301C291.2 577.601 296 579.701 299.9 580.101C297.4 580.001 294.9 579.401 292.3 577.901C287.1 574.901 287.1 571.301 291.8 567.801Z" fill="#F5F5F5"/>
<path d="M349.8 557.1C347.2 552.7 342.9 548.6 336.8 545.1C315.6 532.9 281.2 532.9 260 545.1C253.9 548.6 249.6 552.7 247 557.1H244V568.2C244.4 575.9 249.7 583.6 259.9 589.5C281.1 601.7 315.5 601.7 336.7 589.5C346.9 583.6 352.2 576 352.6 568.2V557.1H349.8Z" fill="#018957"/>
<path opacity="0.25" d="M349.8 557.1C347.2 552.7 342.9 548.6 336.8 545.1C315.6 532.9 281.2 532.9 260 545.1C253.9 548.6 249.6 552.7 247 557.1H244V568.2C244.4 575.9 249.7 583.6 259.9 589.5C281.1 601.7 315.5 601.7 336.7 589.5C346.9 583.6 352.2 576 352.6 568.2V557.1H349.8Z" fill="black"/>
<path opacity="0.1" d="M298.4 535.9C284.5 535.9 270.6 539 260 545.1C253.9 548.6 249.6 552.7 247 557.1H244V568.2C244.4 575.9 249.7 583.6 259.9 589.5C270.5 595.6 284.4 598.7 298.3 598.7V535.9H298.4Z" fill="black"/>
<path opacity="0.1" d="M268.7 541C265.6 542.2 262.7 543.5 260 545.1C253.9 548.6 249.6 552.7 247 557.1H244V568.2C244.4 575.9 249.7 583.6 259.9 589.5C262.6 591.1 265.6 592.4 268.6 593.6V541H268.7Z" fill="black"/>
<path d="M328 541C331.1 542.2 334 543.5 336.7 545.1C342.8 548.6 347.1 552.7 349.7 557.1H352.6V568.2C352.2 575.9 346.9 583.6 336.7 589.5C334 591.1 331 592.4 328 593.6V541Z" fill="#018957"/>
<path d="M259.9 534.901C238.7 547.101 238.7 567.001 259.9 579.301C278.5 590.001 307.1 591.401 328.2 583.301C328.5 583.201 328.8 583.101 329 583.001C331.7 581.901 334.3 580.701 336.7 579.301C354.4 569.101 357.3 553.601 345.5 541.601C343.2 539.201 340.2 537.001 336.7 534.901C315.6 522.601 281.2 522.601 259.9 534.901Z" fill="#018957"/>
<path opacity="0.2" d="M259.9 534.901C238.7 547.101 238.7 567.001 259.9 579.301C278.5 590.001 307.1 591.401 328.2 583.301C328.5 583.201 328.8 583.101 329 583.001C331.7 581.901 334.3 580.701 336.7 579.301C354.4 569.101 357.3 553.601 345.5 541.601C343.2 539.201 340.2 537.001 336.7 534.901C315.6 522.601 281.2 522.601 259.9 534.901Z" fill="black"/>
<path opacity="0.5" d="M345.6 541.501C345.8 541.801 353.2 549.601 351.3 560.901C349.4 571.701 334.3 580.801 329.1 582.901C331.8 581.801 334.4 580.601 336.8 579.201C354.5 569.001 357.4 553.501 345.6 541.501Z" fill="#F5F5F5"/>
<path opacity="0.5" d="M251.1 572.601C250.9 572.301 243.5 564.501 245.4 553.201C247.3 542.401 262.4 533.301 267.6 531.201C264.9 532.301 262.3 533.501 259.9 534.901C242.3 545.101 239.3 560.601 251.1 572.601Z" fill="#F5F5F5"/>
<path d="M298.4 586.201C326.29 586.201 348.9 573.128 348.9 557.001C348.9 540.874 326.29 527.801 298.4 527.801C270.51 527.801 247.9 540.874 247.9 557.001C247.9 573.128 270.51 586.201 298.4 586.201Z" fill="#018957"/>
<path opacity="0.4" d="M298.4 586.201C326.29 586.201 348.9 573.128 348.9 557.001C348.9 540.874 326.29 527.801 298.4 527.801C270.51 527.801 247.9 540.874 247.9 557.001C247.9 573.128 270.51 586.201 298.4 586.201Z" fill="white"/>
<path opacity="0.2" d="M250.2 565.701C246.1 558.201 247.5 549.901 254.2 542.901C255.4 541.601 256.9 540.401 258.5 539.201C259.7 538.301 261.1 537.401 262.6 536.501C263.4 536.001 264.2 535.601 265.1 535.201C263 538.701 263.8 542.401 275.7 543.001C299 544.401 269.5 566.601 269.5 566.601C269.5 566.601 254.3 559.401 250.2 565.701Z" fill="white"/>
<path opacity="0.5" d="M252.6 559.601C249.1 559.201 247.4 555.601 248.7 551.601C250.1 547.601 254 544.601 257.5 545.001C261 545.401 262.7 549.001 261.4 553.001C260 557.001 256.1 560.001 252.6 559.601Z" fill="white"/>
<path d="M289.4 578.101C290.5 569.501 328.3 545.501 328.3 545.501C328.3 545.501 336.7 542.101 333.9 536.301C335.4 537.101 336.7 538.001 337.9 538.901C338.8 539.501 339.6 540.201 340.4 540.801C351.6 550.501 351.7 563.301 340.4 573.101C339.6 573.801 338.8 574.401 337.9 575.001C336.7 575.801 335.5 576.701 334.2 577.401C332.9 578.201 331.6 578.801 330.2 579.501C329.1 580.001 328 580.501 326.8 581.001C325.6 581.501 324.5 581.901 323.3 582.301C319.7 583.501 315.9 584.401 312 585.001C311.2 585.101 310.3 585.301 309.5 585.401C305.8 585.901 302 586.101 298.2 586.101C293.6 586.101 288.9 585.701 284.4 585.001C284.4 585.001 290.5 583.801 289.4 578.101Z" fill="#018957"/>
<path opacity="0.3" d="M289.4 578.101C290.5 569.501 328.3 545.501 328.3 545.501C328.3 545.501 336.7 542.101 333.9 536.301C335.4 537.101 336.7 538.001 337.9 538.901C338.8 539.501 339.6 540.201 340.4 540.801C351.6 550.501 351.7 563.301 340.4 573.101C339.6 573.801 338.8 574.401 337.9 575.001C336.7 575.801 335.5 576.701 334.2 577.401C332.9 578.201 331.6 578.801 330.2 579.501C329.1 580.001 328 580.501 326.8 581.001C325.6 581.501 324.5 581.901 323.3 582.301C319.7 583.501 315.9 584.401 312 585.001C311.2 585.101 310.3 585.301 309.5 585.401C305.8 585.901 302 586.101 298.2 586.101C293.6 586.101 288.9 585.701 284.4 585.001C284.4 585.001 290.5 583.801 289.4 578.101Z" fill="white"/>
<path d="M325 541.701C339.1 549.801 339.7 562.801 326.7 571.401C326.2 571.801 325.6 572.101 325 572.501C310.3 581.001 286.5 581.001 271.8 572.501C257.1 564.001 257.1 550.301 271.8 541.801C272.4 541.501 273 541.101 273.6 540.801C288.4 533.201 310.9 533.501 325 541.701Z" fill="#018957"/>
<path opacity="0.2" d="M325 541.701C339.1 549.801 339.7 562.801 326.7 571.401C326.2 571.801 325.6 572.101 325 572.501C310.3 581.001 286.5 581.001 271.8 572.501C257.1 564.001 257.1 550.301 271.8 541.801C272.4 541.501 273 541.101 273.6 540.801C288.4 533.201 310.9 533.501 325 541.701Z" fill="black"/>
<path d="M323.8 542.301C337.8 550.401 337.8 563.601 323.8 571.701C309.8 579.801 287 579.801 272.9 571.701C258.9 563.601 258.9 550.401 272.9 542.301C287 534.201 309.8 534.201 323.8 542.301Z" fill="#018957"/>
<path opacity="0.5" d="M323.8 542.301C337.8 550.401 337.8 563.601 323.8 571.701C309.8 579.801 287 579.801 272.9 571.701C258.9 563.601 258.9 550.401 272.9 542.301C287 534.201 309.8 534.201 323.8 542.301Z" fill="black"/>
<path d="M323.8 548.1C309.8 540 287 540 272.9 548.1C267.2 551.4 263.8 555.6 262.7 559.9C263.7 564.2 267.1 568.4 272.9 571.7C286.9 579.8 309.7 579.8 323.8 571.7C329.5 568.4 332.9 564.2 334 559.9C332.9 555.6 329.6 551.4 323.8 548.1Z" fill="#018957"/>
<path opacity="0.35" d="M323.8 548.1C309.8 540 287 540 272.9 548.1C267.2 551.4 263.8 555.6 262.7 559.9C263.7 564.2 267.1 568.4 272.9 571.7C286.9 579.8 309.7 579.8 323.8 571.7C329.5 568.4 332.9 564.2 334 559.9C332.9 555.6 329.6 551.4 323.8 548.1Z" fill="black"/>
<path d="M250.4 551.501L251.7 541.101L253.1 551.501L271.1 552.301L253.1 553.101L251.7 563.501L250.4 553.101L232.4 552.301L250.4 551.501Z" fill="white"/>
<path opacity="0.15" d="M322.7 569.1L314.8 572L291.8 567.8L287.4 564.9V562.6L285 563.2L280.7 560.5L281.6 560.2L274.8 556.2L277.1 555.3C277.1 555.3 280.4 554.4 280.6 554.4C280.8 554.4 283.7 555.2 284.9 555.9C286.1 556.6 288.2 558.3 290.9 559.3C293.6 560.2 293.8 561.9 298.1 563.2C302.3 564.5 317.3 567.4 317.3 567.4L322.7 569.1Z" fill="black"/>
<path d="M302 546L303 551.5L294.5 553.5L293.6 548L302 546Z" fill="#242821"/>
<path d="M279.7 552.201L280.6 557.601L277.1 555.201L276.2 549.801L279.7 552.201Z" fill="#242821"/>
<path d="M293.6 551.6C291.2 550.6 288 550.4 284.3 551.1C284 551.2 283.8 551.2 283.5 551.3L279.6 552.2L280.6 557.7L284.5 556.8C284.8 556.7 285 556.7 285.3 556.6C289 555.9 292.2 556.1 294.6 557.1L293.6 551.6Z" fill="#018957"/>
<path d="M308.4 550.4L309.4 555.9L303.4 557.2L302.5 551.8L308.4 550.4Z" fill="#242821"/>
<path d="M285 555.801L285.9 561.301L283.5 559.601L282.5 554.101L285 555.801Z" fill="#242821"/>
<path d="M297.9 559.801L296.9 554.301C296.8 553.901 296.6 553.501 296.2 553.101L284.9 555.701L285.9 561.201L297.2 558.601C297.4 558.801 297.6 559.001 297.7 559.301L297.8 559.401C297.8 559.501 297.9 559.501 297.9 559.601C297.9 559.701 297.9 559.801 297.9 559.801Z" fill="#018957"/>
<path d="M304.8 561.3C304.9 561.2 304.9 561.2 304.9 561.2V561.1C304.9 561.1 304.9 561.1 304.9 561C304.9 561 304.9 561 304.9 560.9C304.9 560.9 304.9 560.9 304.9 560.8C304.9 560.8 304.9 560.8 304.9 560.7V560.6C304.9 560.6 304.9 560.6 304.9 560.5C304.9 560.5 304.9 560.5 304.9 560.4C304.9 560.4 304.9 560.4 304.9 560.3C304.9 560.3 304.9 560.3 304.9 560.2C304.9 560.2 304.9 560.2 304.9 560.1V560L303.9 554.5V554.6C303.9 554.6 303.9 554.6 303.9 554.7C303.9 554.7 303.9 554.7 303.9 554.8C303.9 554.8 303.9 554.8 303.9 554.9C303.9 554.9 303.9 554.9 303.9 555C303.9 555 303.9 555 303.9 555.1V555.2C303.9 555.2 303.9 555.2 303.9 555.3C303.9 555.3 303.9 555.3 303.9 555.4C303.9 555.4 303.9 555.4 303.9 555.5C303.9 555.5 303.9 555.5 303.9 555.6V555.7C303.9 555.7 303.9 555.7 303.9 555.8C303.9 555.8 303.9 555.8 303.9 555.9C303.9 555.9 303.9 555.9 303.9 556C303.9 556 303.9 556.1 303.8 556.1C303.8 556.1 303.8 556.1 303.8 556.2C303.8 556.2 303.8 556.2 303.7 556.3C303.7 556.3 303.7 556.3 303.6 556.4C303.6 556.4 303.6 556.4 303.5 556.5C303.5 556.5 303.5 556.5 303.4 556.6C303.4 556.6 303.4 556.6 303.3 556.7C303.3 556.7 303.3 556.7 303.2 556.8C303.2 556.8 303.2 556.8 303.1 556.9C303.1 556.9 303.1 556.9 303 557C303 557 303 557 302.9 557.1C302.9 557.1 302.8 557.1 302.8 557.2C302.8 557.2 302.8 557.2 302.7 557.2C302.7 557.2 302.7 557.2 302.6 557.2C302.6 557.2 302.6 557.2 302.5 557.2C302.5 557.2 302.5 557.2 302.4 557.2C302.4 557.2 302.4 557.2 302.3 557.2C302.3 557.2 302.3 557.2 302.2 557.2C302.2 557.2 302.2 557.2 302.1 557.2C302.1 557.2 302.1 557.2 302 557.2C302 557.2 302 557.2 301.9 557.2C301.9 557.2 301.9 557.2 301.8 557.2C301.8 557.2 301.8 557.2 301.7 557.2C301.7 557.2 301.7 557.2 301.6 557.2C301.6 557.2 301.6 557.2 301.5 557.2C301.5 557.2 301.5 557.2 301.4 557.2C301.4 557.2 301.4 557.2 301.3 557.2C301.3 557.2 301.3 557.2 301.2 557.2C301.2 557.2 301.2 557.2 301.1 557.2C301.1 557.2 301.1 557.2 301 557.2C301 557.2 301 557.2 300.9 557.2C300.9 557.2 300.9 557.2 300.8 557.2C300.8 557.2 300.8 557.2 300.7 557.2C300.7 557.2 300.7 557.2 300.6 557.2C300.6 557.2 300.6 557.2 300.5 557.2C300.5 557.2 300.5 557.2 300.4 557.2C300.4 557.2 300.4 557.2 300.3 557.2C300.3 557.2 300.3 557.2 300.2 557.2C300.2 557.2 300.2 557.2 300.1 557.2C300.1 557.2 300.1 557.2 300 557.2C300 557.2 300 557.2 299.9 557.2C299.9 557.2 299.9 557.2 299.8 557.2C299.8 557.2 299.8 557.2 299.7 557.2H299.6C299.6 557.2 299.6 557.2 299.5 557.2H299.4C299.4 557.2 299.4 557.2 299.3 557.2H299.2C299.2 557.2 299.2 557.2 299.1 557.2H299C299 557.2 299 557.2 298.9 557.2H298.8H298.7H298.6H298.5H298.4H298.3H298.2H298.1H298H297.9H297.8H297.7H297.6H297.5H297.4C297.4 557.2 297.4 557.2 297.3 557.2H297.2C297.2 557.2 297.2 557.2 297.1 557.2C297 557.2 297 557.2 296.9 557.2L297.9 562.7C298 562.7 298 562.7 298.1 562.6C298.1 562.6 298.1 562.6 298.2 562.6H298.3C298.3 562.6 298.3 562.6 298.4 562.6H298.5H298.6H298.7H298.8H298.9H299H299.1H299.2H299.3H299.4H299.5H299.6H299.7H299.8H299.9C299.9 562.6 299.9 562.6 300 562.6H300.1C300.1 562.6 300.1 562.6 300.2 562.6H300.3C300.3 562.6 300.3 562.6 300.4 562.6H300.5C300.5 562.6 300.5 562.6 300.6 562.6H300.7C300.7 562.6 300.7 562.6 300.8 562.6H300.9C300.9 562.6 300.9 562.6 301 562.6C301 562.6 301 562.6 301.1 562.6C301.1 562.6 301.1 562.6 301.2 562.6C301.2 562.6 301.2 562.6 301.3 562.6C301.3 562.6 301.3 562.6 301.4 562.6C301.4 562.6 301.4 562.6 301.5 562.6C301.5 562.6 301.5 562.6 301.6 562.6C301.6 562.6 301.6 562.6 301.7 562.6C301.7 562.6 301.7 562.6 301.8 562.6C301.8 562.6 301.8 562.6 301.9 562.6C301.9 562.6 301.9 562.6 302 562.6C302 562.6 302 562.6 302.1 562.6C302.1 562.6 302.1 562.6 302.2 562.6C302.2 562.6 302.2 562.6 302.3 562.6C302.3 562.6 302.3 562.6 302.4 562.6C302.4 562.6 302.4 562.6 302.5 562.6C302.5 562.6 302.5 562.6 302.6 562.6C302.6 562.6 302.6 562.6 302.7 562.6C302.7 562.6 302.7 562.6 302.8 562.6C302.8 562.6 302.8 562.6 302.9 562.6C302.9 562.6 302.9 562.6 303 562.6C303 562.6 303 562.6 303.1 562.6C303.1 562.6 303.1 562.6 303.2 562.6C303.2 562.6 303.2 562.6 303.3 562.6C303.3 562.6 303.3 562.6 303.4 562.6C303.4 562.6 303.4 562.6 303.5 562.6C303.5 562.6 303.5 562.6 303.6 562.6C303.6 562.6 303.6 562.6 303.7 562.6C303.7 562.6 303.8 562.6 303.8 562.5C303.8 562.5 303.8 562.5 303.9 562.4C303.9 562.4 303.9 562.4 304 562.3C304 562.3 304 562.3 304.1 562.2C304.1 562.2 304.1 562.2 304.2 562.1C304.2 562.1 304.2 562.1 304.3 562C304.3 562 304.3 562 304.4 561.9C304.4 561.9 304.4 561.9 304.5 561.8C304.5 561.8 304.5 561.8 304.6 561.7C304.6 561.7 304.6 561.7 304.7 561.6C304.7 561.6 304.7 561.6 304.7 561.5C304.7 561.5 304.7 561.5 304.8 561.3Z" fill="#018957"/>
<path d="M292.1 560.7L293 566.2L289.6 563.8L288.7 558.4L292.1 560.7Z" fill="#242821"/>
<path d="M299.6 544.4L302.1 546.1L293.7 548.1C295.9 548.4 298.1 549.1 300.1 550.2L306.1 548.8L308.6 550.5L302.6 551.9C305.9 554.8 304.2 557.5 298.5 559C305.3 560.2 313.7 561.9 321.9 563.7L314.9 565.3C308.1 563.9 300.4 562.3 292.2 560.8L288.8 558.5L291.9 557.8C296.9 556.6 298.1 555 296.4 553.4L285.1 556L282.6 554.3L293.7 551.7C291.3 550.7 288.1 550.5 284.4 551.2C284.1 551.3 283.9 551.3 283.6 551.4L279.7 552.3L276.2 549.9L299.6 544.4Z" fill="#018957"/>
<g opacity="0.3">
<path d="M299.6 544.4L302.1 546.1L293.7 548.1C295.9 548.4 298.1 549.1 300.1 550.2L306.1 548.8L308.6 550.5L302.6 551.9C305.9 554.8 304.2 557.5 298.5 559C305.3 560.2 313.7 561.9 321.9 563.7L314.9 565.3C308.1 563.9 300.4 562.3 292.2 560.8L288.8 558.5L291.9 557.8C296.9 556.6 298.1 555 296.4 553.4L285.1 556L282.6 554.3L293.7 551.7C291.3 550.7 288.1 550.5 284.4 551.2C284.1 551.3 283.9 551.3 283.6 551.4L279.7 552.3L276.2 549.9L299.6 544.4Z" fill="white"/>
</g>
<path d="M314.8 565.2L315.8 570.7C309 569.3 301.3 567.7 293.1 566.2L292.1 560.7C300.3 562.2 308 563.8 314.8 565.2Z" fill="#018957"/>
<mask id="mask0_4709_3" style="mask-type:luminance" maskUnits="userSpaceOnUse" x="292" y="560" width="24" height="11">
<path d="M314.8 565.2L315.8 570.7C309 569.3 301.3 567.7 293.1 566.2L292.1 560.7C300.3 562.2 308 563.8 314.8 565.2Z" fill="white"/>
</mask>
<g mask="url(#mask0_4709_3)">
<path d="M314.8 565.2L315.8 570.7C309 569.3 301.3 567.7 293.1 566.2L292.1 560.7C300.3 562.2 308 563.8 314.8 565.2Z" fill="#018957"/>
</g>
<path d="M321.8 563.601L322.7 569.101L315.7 570.701L314.8 565.201L321.8 563.601Z" fill="#242821"/>
<path d="M576 572.6C575.9 572.6 575.8 572.6 575.8 572.5L546.4 555.5C546.3 555.4 546.2 555.3 546.2 555.1C546.2 554.9 546.3 554.8 546.4 554.7L583.2 533.5C583.3 533.4 583.5 533.4 583.7 533.5L613.1 550.5C613.2 550.6 613.3 550.7 613.3 550.9C613.3 551.1 613.2 551.2 613.1 551.3L576.3 572.5C576.1 572.6 576 572.6 576 572.6ZM547.4 555.2L575.9 571.7L611.8 551L583.3 534.5L547.4 555.2Z" fill="#018957"/>
<path d="M576 567.9L575.9 415.7L553.9 403V555.2L576 567.9Z" fill="#018957"/>
<path opacity="0.2" d="M576 567.9L575.9 415.7L553.9 403V555.2L576 567.9Z" fill="black"/>
<path d="M576 567.9L605.4 551V398.7L575.9 415.7L576 567.9Z" fill="#018957"/>
<path d="M605.4 398.7L583.3 386L553.9 403L575.9 415.7L605.4 398.7Z" fill="#018957"/>
<path opacity="0.25" d="M605.4 398.7L583.3 386L553.9 403L575.9 415.7L605.4 398.7Z" fill="white"/>
<path opacity="0.3" d="M605.4 398.7L575.7 415.1L566.1 409.7L554 403L565.9 410.1L575.7 415.9C575.5 419.2 575.4 554.5 575.5 557.8C575.6 561.2 575.7 564.6 576.1 567.9C576.5 564.5 576.7 561.1 576.7 557.8C576.7 554.6 576.7 419.5 576.5 416.3L605.4 398.7Z" fill="white"/>
<path d="M520.8 604.5C520.7 604.5 520.6 604.5 520.6 604.4L491.2 587.4C491.1 587.3 491 587.2 491 587C491 586.8 491.1 586.7 491.2 586.6L528 565.4C528.1 565.3 528.3 565.3 528.5 565.4L557.9 582.4C558 582.5 558.1 582.6 558.1 582.8C558.1 583 558 583.1 557.9 583.2L521 604.4C521 604.5 520.9 604.5 520.8 604.5ZM492.3 587L520.8 603.5L556.7 582.8L528.2 566.3L492.3 587Z" fill="#018957"/>
<path d="M520.8 599.8V508.5L498.7 495.7L498.8 587L520.8 599.8Z" fill="#018957"/>
<path opacity="0.1" d="M520.8 599.8V508.5L498.7 495.7L498.8 587L520.8 599.8Z" fill="white"/>
<path d="M520.8 599.8L550.2 582.8V491.5L520.8 508.5V599.8Z" fill="#018957"/>
<path opacity="0.3" d="M520.8 599.8L550.2 582.8V491.5L520.8 508.5V599.8Z" fill="white"/>
<path d="M550.2 491.5L528.2 478.7L498.7 495.7L520.8 508.5L550.2 491.5Z" fill="#018957"/>
<path opacity="0.55" d="M550.2 491.5L528.2 478.7L498.7 495.7L520.8 508.5L550.2 491.5Z" fill="white"/>
<path opacity="0.3" d="M521.2 509L550.2 491.5L520.5 507.9C517.3 506.1 514.1 504.3 510.9 502.5L498.8 495.8L510.7 502.9C514 504.8 517.2 506.8 520.5 508.7C520.4 512.1 520.3 528.7 520.3 532.1C520.3 535.6 520.2 575.3 520.3 578.8C520.3 582.3 520.4 585.8 520.5 589.3C520.6 592.8 520.7 596.3 521 599.8C521.2 596.3 521.4 592.8 521.5 589.3C521.6 585.8 521.7 582.3 521.7 578.8C521.7 575.3 521.7 535.6 521.7 532.1C521.4 528.8 521.3 512.3 521.2 509Z" fill="white"/>
<path d="M465.7 636.3C465.6 636.3 465.5 636.3 465.5 636.2L436.1 619.2C436 619.1 435.9 619 435.9 618.8C435.9 618.6 436 618.5 436.1 618.4L472.9 597.2C473 597.1 473.2 597.1 473.4 597.2L502.8 614.2C502.9 614.3 503 614.4 503 614.6C503 614.8 502.9 614.9 502.8 615L466 636.2C465.8 636.3 465.7 636.3 465.7 636.3ZM437.2 618.9L465.7 635.4L501.6 614.7L473 598.2L437.2 618.9Z" fill="#018957"/>
<path d="M465.7 631.6V599.5L443.6 586.8V618.9L465.7 631.6Z" fill="#018957"/>
<path opacity="0.45" d="M465.7 631.6V599.5L443.6 586.8V618.9L465.7 631.6Z" fill="black"/>
<path d="M465.7 631.6L495.1 614.6V582.5L465.7 599.5V631.6Z" fill="#018957"/>
<path opacity="0.3" d="M465.7 631.6L495.1 614.6V582.5L465.7 599.5V631.6Z" fill="black"/>
<path d="M495.1 582.5L473 569.8L443.6 586.8L465.7 599.5L495.1 582.5Z" fill="#018957"/>
<path opacity="0.15" d="M495.1 582.5L473 569.8L443.6 586.8L465.7 599.5L495.1 582.5Z" fill="black"/>
<path opacity="0.3" d="M495.1 582.5L465.4 598.9L455.8 593.5L443.7 586.8L455.6 593.9L465.3 599.7C465.1 601.7 465 623.3 465.1 625.3C465.2 627.4 465.3 629.5 465.7 631.6C466.1 629.5 466.3 627.4 466.3 625.3C466.3 623.4 466.3 601.9 466.1 600L495.1 582.5Z" fill="white"/>
<path d="M631.1 540.8C631 540.8 630.9 540.8 630.9 540.7L601.5 523.7C601.4 523.6 601.3 523.5 601.3 523.3C601.3 523.1 601.4 523 601.5 522.9L638.3 501.7C638.4 501.6 638.6 501.6 638.8 501.7L668.2 518.7C668.3 518.8 668.4 518.9 668.4 519.1C668.4 519.3 668.3 519.4 668.2 519.5L631.4 540.7C631.2 540.8 631.2 540.8 631.1 540.8ZM602.6 523.4L631.1 539.9L667 519.2L638.5 502.7L602.6 523.4Z" fill="#018957"/>
<path d="M631.1 536.1V325.4L609 312.7V523.4L631.1 536.1Z" fill="#018957"/>
<path opacity="0.3" d="M631.1 536.1V325.4L609 312.7V523.4L631.1 536.1Z" fill="white"/>
<path d="M631.1 536.1L660.5 519.1V308.4L631.1 325.4V536.1Z" fill="#018957"/>
<path opacity="0.55" d="M631.1 536.1L660.5 519.1V308.4L631.1 325.4V536.1Z" fill="white"/>
<path d="M660.5 308.4L638.4 295.7L609 312.7L631.1 325.4L660.5 308.4Z" fill="#018957"/>
<path opacity="0.75" d="M660.5 308.4L638.4 295.7L609 312.7L631.1 325.4L660.5 308.4Z" fill="white"/>
<path opacity="0.3" d="M631.5 325.9L660.5 308.4L630.8 324.8C627.6 323 624.4 321.2 621.2 319.4L609.1 312.7L621 319.8C624.3 321.7 627.5 323.7 630.8 325.6C630.7 329.5 630.6 378.3 630.6 382.2C630.6 386.2 630.5 508.4 630.6 512.3C630.6 516.3 630.7 520.2 630.8 524.2C630.9 528.2 631 532.1 631.3 536.1C631.5 532.1 631.7 528.2 631.8 524.2C631.9 520.2 632 516.3 632 512.3C632 508.3 632 386.1 632 382.2C631.7 378.4 631.6 329.7 631.5 325.9Z" fill="white"/>
<path opacity="0.5" d="M119.1 195.601L33.8999 244.801L76.4999 166.601L119.1 195.601Z" fill="#018957"/>
<path opacity="0.3" d="M119.1 231.401L33.8999 280.601L76.4999 202.301L119.1 231.401Z" fill="#018957"/>
<path opacity="0.15" d="M119.1 267.201L33.8999 316.401L76.4999 238.101L119.1 267.201Z" fill="#018957"/>
<path opacity="0.2" d="M312.8 369.101C319.6 363.201 328.6 357.801 339.5 352.801C351.8 347.201 366.6 342.301 376.9 336.201C390.3 328.301 395.3 318.801 394.4 309.201C393.8 303.801 390.6 297.801 378.3 293.801C375.1 292.801 371.3 291.901 367.2 291.701C361.1 291.401 355.9 292.601 351.6 293.901C329 300.801 319.3 311.301 311.8 321.501C304.2 331.701 295 337.701 278.4 347.301C271.3 351.401 263.7 355.501 257 359.601C256.9 359.601 256.9 359.701 256.8 359.701C253.4 361.801 249.7 363.801 247 366.101C242.7 369.701 239 373.501 237.5 377.401C236 381.401 236.7 385.601 241.3 389.501C242.5 390.501 244 391.601 246.6 392.201C248.8 392.801 251.5 393.101 254.2 393.101C259.6 393.301 264.8 392.801 269.2 391.901C273.6 391.001 277.3 389.801 280.7 388.601C295.3 383.201 304.7 376.101 312.8 369.101Z" fill="black"/>
<path d="M243.4 167.5C242.2 170.8 238.5 177.8 238.8 178.7C239.4 181.1 239.5 182.6 239 185.4C238.7 187.1 224.1 192.8 224.1 192.8L223.7 190.5C223.5 188.9 223.7 187.4 224.3 185.9C226 182 229.4 173.3 230.5 166.4L243.4 167.5Z" fill="#FFAAA8"/>
<path d="M239.2 183.9L223.8 190.8L224.1 192.8C224.1 192.8 238.7 187.1 239 185.4C239.1 184.9 239.1 184.4 239.2 183.9Z" fill="#FF9090"/>
<path d="M192.4 213.601L187.8 261.201C187.6 263.501 189.1 265.001 191 266.401L195.7 269.801C197 270.701 197.7 271.101 199.5 270.901C200.3 270.801 201.6 270.301 202.3 270.101H202.4L202.7 270.001L256.7 245.401C260.6 243.601 263.3 239.801 263.8 235.501L268 192.201C268.1 191.201 267.5 189.901 266.7 189.401L258.6 183.601C257.8 183.001 256.4 182.901 255.5 183.301L194.3 211.001C193.8 211.201 193.4 211.601 193.1 212.001C192.7 212.501 192.5 213.101 192.4 213.601Z" fill="#018957"/>
<path d="M192.4 213.6L187.8 261.2C187.6 263.5 189.1 265 191 266.4L195.7 269.8C197 270.7 197.7 271.1 199.5 270.9C200.3 270.8 201.6 270.3 202.3 270.1C200.2 270.8 198.7 269.6 199 267.3L203.4 222.5C203.5 221.8 203.8 220.9 204.3 220.2L193.1 212.2C192.7 212.5 192.5 213.1 192.4 213.6Z" fill="#018957"/>
<path d="M203.3 222.401C203.4 220.901 204.7 219.201 206 218.601L263.9 192.301C266.2 191.301 267.9 192.501 267.6 195.001L263.7 235.601C263.3 239.901 260.6 243.701 256.6 245.501L202.6 270.101C200.3 271.101 198.6 269.901 198.9 267.401L203.3 222.401Z" fill="#018957"/>
<path opacity="0.2" d="M265.5 194.101C265.5 194.201 265.5 194.301 265.5 194.601L261.6 235.201C261.3 238.701 259.1 241.801 255.9 243.201L201.9 267.801C201.6 267.901 201.5 268.001 201.4 268.001C201.4 267.901 201.4 267.701 201.4 267.501L205.8 222.701C205.9 221.901 206.5 221.001 207.2 220.701L265.1 194.401C265.2 194.101 265.4 194.101 265.5 194.101ZM265.6 191.801C265.1 191.801 264.6 191.901 264 192.201L206.1 218.501C204.7 219.101 203.5 220.801 203.4 222.301L199 267.101C198.8 269.001 199.7 270.101 201.2 270.101C201.7 270.101 202.2 270.001 202.8 269.701L256.8 245.101C260.7 243.301 263.4 239.501 263.9 235.201L267.8 194.601C267.9 193.001 267 191.801 265.6 191.801Z" fill="black"/>
<path d="M261.3 185.4L199.9 213.6C198.1 214.4 196.9 216.1 196.7 218L191.9 267L192.7 267.6L197.5 218.1C197.7 216.5 198.7 215.1 200.1 214.4L262 185.9L261.3 185.4Z" fill="#018957"/>
<path opacity="0.2" d="M197.7 215.4C197.2 216.2 196.8 217.1 196.7 218L191.9 267L192.7 267.6L197.5 218.1C197.6 217.3 197.9 216.5 198.3 215.9L197.7 215.4Z" fill="black"/>
<path opacity="0.2" d="M198.4 215.901C198.9 215.301 199.5 214.701 200.2 214.401L262.1 185.901L261.3 185.301L199.9 213.501C199 213.901 198.3 214.501 197.7 215.301" fill="black"/>
<path d="M240 189.401L239.3 196.801L242 198.701L243 188.901C243 188.401 242.7 188.201 242.3 188.401L240 189.401Z" fill="#018957"/>
<path opacity="0.4" d="M240 189.401L239.3 196.801L242 198.701L243 188.901C243 188.401 242.7 188.201 242.3 188.401L240 189.401Z" fill="black"/>
<path d="M219.1 194.701L217.9 206.601L220.5 208.501L222.5 207.601L223.5 197.801C223.5 197.301 224 196.701 224.4 196.501L239.2 189.801L242.3 188.401C242.8 188.201 243.1 188.401 243 188.901L242 198.701L244 197.801L245.2 185.901C245.2 185.801 245.2 185.801 245.2 185.701C245.2 185.201 244.9 184.701 244.5 184.401L243.4 183.601C243 183.301 242.3 183.201 241.8 183.401L220 193.301C219.5 193.701 219.1 194.201 219.1 194.701Z" fill="#018957"/>
<path opacity="0.2" d="M221.6 196.601L220.4 208.501L222.4 207.601L223.4 197.801C223.4 197.301 223.9 196.701 224.3 196.501L239.1 189.801L242.2 188.401C242.7 188.201 243 188.401 242.9 188.901L241.9 198.701L243.9 197.801L245.1 185.901C245.1 185.801 245.1 185.801 245.1 185.701C245.1 185.301 244.8 185.101 244.3 185.301L222.5 195.201C222.1 195.501 221.7 196.101 221.6 196.601Z" fill="black"/>
<path d="M236.8 188.901C237.1 188.901 237.4 189.001 237.7 189.201C238.1 188.501 238.9 188.101 239.6 188.101C239.9 188.101 240.3 188.201 240.4 188.601C240.4 188.701 240.4 188.801 240.4 188.901C240.3 190.001 240.1 191.101 239.9 192.201C239.8 193.001 239.6 193.801 239 194.301C238.5 194.701 237.8 194.901 237.2 194.601C237 195.101 236.5 195.501 236 195.701C235.9 195.701 234.3 195.901 234.4 195.701C233.8 196.801 232.6 197.901 230.9 197.601C230.9 197.601 230.5 198.801 228.3 198.501C226.1 198.201 225.2 195.901 225.2 195.901C225.3 195.201 225.6 195.001 226.3 194.701C226.7 194.601 227.1 194.401 227.4 194.201C227.9 193.901 228.2 193.401 228.6 192.901C229 192.501 229.4 192.001 229.9 191.801C230.4 191.601 231.1 191.601 231.5 192.001C231.5 191.601 231.8 191.201 232.2 190.901C232.5 190.601 232.8 190.301 233.2 190.301C233.3 190.301 234.3 190.501 234.2 190.701C234.5 190.101 234.9 189.401 235.5 189.101C236 189.001 236.4 188.901 236.8 188.901Z" fill="#FFAAA8"/>
<path d="M245.6 166.401C244.7 170.801 242.3 174.701 243.3 178.301C244 180.801 244.2 180.501 243.9 183.001C243.8 183.901 243.4 185.401 243.1 186.301C242.9 186.801 242.7 187.401 242.5 187.901C242.3 188.501 242.1 189.001 241.8 189.501C241.4 190.201 240.9 190.701 240.4 191.301C239.5 192.301 238.7 193.301 237.6 194.101C237.5 194.101 237.5 194.201 237.4 194.201C237.1 194.301 236.8 194.201 236.6 194.001C235.6 193.001 236.4 191.401 236.9 190.401C237.5 189.201 238.1 188.001 238.1 186.701C238.1 186.501 238.1 186.001 238.1 185.201L236.8 184.901C236.8 184.901 232.4 183.901 232.4 181.701C232.3 179.601 234 177.601 235.2 175.101C236.5 172.601 237 171.001 238.3 164.601L245.6 166.401Z" fill="#FFAAA8"/>
<path d="M241.8 189.6C240.8 191.2 239.5 192.7 238.1 193.9C237.9 194.1 237.7 194.4 237.2 194.4C235.2 194 236.1 191.3 236.8 190.2C237.4 189.1 238 188 238 186.7C238.1 188 237.5 189.2 237 190.3C236.5 191.4 235.5 193.6 237.2 194.1C239 193.1 240.6 191.2 241.8 189.6Z" fill="#FF9090"/>
<path d="M237.8 184.801C237.3 184.501 236.7 184.301 236.2 184.001C235.8 183.701 235.5 183.401 235.2 183.001C234.6 182.101 234 180.901 234.2 179.701C234.2 179.601 234.1 179.501 234.1 179.601C233.6 180.901 234 182.401 234.7 183.501C235 184.001 235.5 184.501 236 184.801C236.3 185.001 236.6 185.101 236.9 185.201C237.3 185.301 237.5 185.301 237.8 185.101C237.9 185.101 237.9 184.801 237.8 184.801Z" fill="#FF9090"/>
<path d="M271.4 79.0002C262 78.3002 254.5 80.1002 249.6 92.5002C244.1 106.5 238.7 117.3 236 127.4C233.3 137.6 229.3 169.8 229.3 169.8C229.3 169.8 236.4 176 244.2 173.2L256 136.6L271.4 107V79.0002Z" fill="#E7E7E7"/>
<path d="M378.3 309.9C379 309.4 379.9 311.1 379.9 312.2C380 315.2 377.9 319.7 373.5 323.6C369.1 327.5 358.4 331.7 355.4 333.3C352.3 334.9 348 339.3 345.3 341.4C340.3 345.3 335.8 345.9 333 345.1C331.9 344.8 331.3 343.8 330.8 342.9C329.7 340.8 329.6 340.3 329.9 340.2L378.3 309.9Z" fill="#2B454E"/>
<path d="M327.1 333.9C327.8 336.2 329.3 339.7 330.8 341.6C332.3 342.8 334.5 342.7 336 342.4C340.2 341.5 343.6 339.4 347 336.3C349.1 334.5 351.3 332.5 354.2 331.1C357.4 329.5 364.6 326.4 367.7 324.7C370.4 323.3 373.4 320.8 375.2 318.4C376.7 316.3 378.7 312.5 378.5 310.5C377.1 306.4 375.5 304.4 372.6 304.3C369.6 304.2 366.2 305.8 361.5 307.9C360.1 308.5 358.4 309.4 357.6 309.7C354.7 310.9 352.1 312.1 350 313.1C348.2 314 346.4 314.8 344.3 314.8C343.3 314.8 342.5 314.7 341.7 314.1C340.7 313.4 340 312 339.1 312.4C339.1 312.4 325.2 323.5 324.1 324.4C323 325.5 325.1 327 327.1 333.9Z" fill="#999999"/>
<path d="M359 309.1C359.6 309.1 360.4 309.5 360.9 309.8C361.5 310.2 362.1 310.6 362.6 311.2C363.2 311.9 362.4 312.6 361.5 311.9C360.9 311.4 360.2 310.9 359.2 310.4C358.7 310.2 357.8 310 357.3 310.2C356.9 310.4 356.5 310.6 356.5 310.6C356.3 309.8 358.1 309 359 309.1Z" fill="#FAFAFA"/>
<path d="M351.6 312.1C352.1 311.7 352.6 311.6 353.3 311.7C354.1 311.8 354.7 312.2 355.3 312.7C355.8 313.1 356.801 314.2 357.201 314.7C357.501 315.2 356.3 315.8 355.9 315.3C355.5 314.8 354.7 314 354.1 313.5C353.8 313.2 352.4 312.2 351.5 312.6L351.1 312.8C351 312.6 351.2 312.4 351.3 312.2C351.4 312.2 351.5 312.2 351.6 312.1Z" fill="#FAFAFA"/>
<path d="M347.5 314.3C348 314.2 348.2 314.1 348.7 314.3C349.1 314.5 349.7 314.8 350 315.2C350.9 316.1 351.2 316.6 351.7 317.5C352.1 318.1 350.8 318.6 350.5 318.2C349.6 316.9 349.1 316 347.9 315.4C346.9 314.9 346.3 314.9 346.3 314.9C346.3 314.8 346.4 314.7 346.6 314.6C346.8 314.4 347.3 314.3 347.5 314.3Z" fill="#FAFAFA"/>
<path d="M314.8 308.601C314.8 308.601 322.6 322.401 324.7 325.401C325.4 326.401 327.6 325.701 328.8 325.601C330.1 325.501 332 325.301 333.4 325.701C337.4 326.801 339.7 326.301 338.7 321.001C338.5 319.901 338.9 319.201 340.2 318.701C341.2 318.401 342.3 318.301 343.1 317.601C343.2 317.401 343 317.301 342.8 317.201C341.5 316.601 340.8 316.101 339.9 314.201C337.1 308.201 334.6 295.801 334.6 295.801L314.8 308.601Z" fill="#FFAAA8"/>
<path d="M255.8 339.401C258.2 335.601 259.5 328.201 264.7 313.301L284.2 327.501L273.1 349.201C272.5 350.301 272.4 351.901 272.2 352.201C269.6 356.101 255.8 339.401 255.8 339.401Z" fill="#FFAAA8"/>
<path d="M248.6 347.601C248.6 347.401 248.5 345.601 248.6 345.401C249.1 343.501 250.3 342.901 251.8 341.801C253.7 340.501 255.5 338.901 256 338.201C256.5 337.501 256.6 337.101 257.4 336.801C258.8 336.201 260.9 336.201 263.6 337.601C268 339.901 269.4 342.701 269.1 345.701C268.9 348.001 268.7 351.101 270.7 352.401C271.5 353.001 272.9 349.301 272.9 349.301C274.2 351.401 272.4 354.301 271.5 358.601C270.9 361.501 271 362.801 271.4 365.801C271.8 369.501 272.4 369.501 274.3 369.801C276 370.001 280.9 369.701 283.8 371.801C287.9 374.601 286.8 378.401 286.8 378.401C286.3 379.801 281.9 386.801 265.7 384.201C261 383.401 251.2 376.101 251.3 375.401C251.4 374.801 251.3 373.901 251.3 373.301C251.2 371.601 251.2 370.001 251.1 368.301C251 366.801 251.2 365.001 250.8 363.601C250.5 362.301 250.3 361.101 250.2 359.701C249.9 356.401 249.6 353.101 249.3 349.801C249.3 348.701 248.5 348.501 248.6 347.601Z" fill="#999999"/>
<path d="M246.6 346.901C245 348.401 246 352.901 248.1 358.301C249 360.701 250.8 364.801 250.3 369.101C249.8 373.501 249.7 375.501 250.8 377.601C252.6 380.801 261.9 384.901 267.5 386.201C267.5 386.201 262.4 379.801 261.9 370.201C261.3 360.601 260.6 354.401 256.2 350.101C250.6 344.701 246.6 346.901 246.6 346.901Z" fill="#444444"/>
<path d="M286.9 378.301C286.9 378.301 283.701 384.401 271.201 384.201C266.301 384.101 263.6 381.701 263.5 374.201C263.4 365.201 262.601 356.101 259.701 351.601C256.801 347.101 252.1 345.001 248.5 345.301C247.9 345.401 247.1 346.001 246.5 346.901C246.5 346.901 250.1 345.701 255.7 350.401C259.8 353.801 261 361.001 260.9 369.901C260.9 373.701 260.6 378.101 261.8 381.001C262.8 383.701 265.1 385.501 267.8 386.301C274.6 388.201 283.901 385.101 286.201 382.201C287.601 380.201 286.9 378.301 286.9 378.301Z" fill="#D3D3D3" stroke="black" stroke-miterlimit="10"/>
<path d="M271.901 368.101C271.901 368.101 272.801 368.701 272.901 369.601C273.001 370.401 272.701 372.401 270.901 373.501C270.101 374.001 269.501 373.801 270.701 372.201C271.901 370.701 271.901 368.101 271.901 368.101Z" fill="#FAFAFA"/>
<path d="M271.3 363.4C271.3 363.4 271.7 363.7 271.8 364.9C271.9 365.6 270.8 368.3 269.5 368.9C268.2 369.5 268.9 368 269.5 367.3C270 366.5 271.1 364.7 271.3 363.4Z" fill="#FAFAFA"/>
<path d="M271.7 358.301C271.7 358.301 272.1 358.401 271.7 360.101C271.5 360.701 269.8 362.401 269 362.501C268.2 362.601 267.7 362.201 268.8 361.401C269.5 360.801 271.5 359.101 271.7 358.301Z" fill="#FAFAFA"/>
<path d="M303.6 165.701C303.6 165.701 311.2 174.801 315.7 191.701C321.2 212.301 323.4 228.101 325.1 239.601C326.2 246.801 327.2 253.801 329.7 267.601C332.1 280.801 338 309.301 338 309.301C338 309.301 337 313.601 331.1 316.201C325.2 318.801 318.9 317.801 318.9 317.801C318.9 317.801 314.9 310.901 306.5 294.701C300.8 283.701 299.9 277.701 298.8 272.101C298 267.901 297 259.601 297.1 255.801L265.6 202.301C265.6 202.301 262.2 198.801 259.3 191.401C254.9 180.201 260.5 164.101 260.5 164.101L303.6 165.701Z" fill="#2B454E"/>
<path d="M303.6 165.701C303.6 165.701 311.2 174.801 315.7 191.701C321.2 212.301 323.4 228.101 325.1 239.601C326.2 246.801 327.2 253.801 329.7 267.601C332.1 280.801 338 309.301 338 309.301C338 309.301 337 313.601 331.1 316.201C325.2 318.801 318.9 317.801 318.9 317.801C318.9 317.801 314.9 310.901 306.5 294.701C300.8 283.701 299.9 277.701 298.8 272.101C298 267.901 297 259.601 297.1 255.801L265.6 202.301C265.6 202.301 262.2 198.801 259.3 191.401C254.9 180.201 260.5 164.101 260.5 164.101L303.6 165.701Z" fill="#EC103C"/>
<path d="M324.5 235.4C322.8 224.3 320.6 209.9 315.7 191.6C314.3 186.3 312.6 181.8 310.9 178.1L271 177.4C268 184.3 265.7 193 272.2 203.6L273.9 216.2L297.2 255.7C297.1 259.5 298.1 267.8 298.9 272C300 277.6 300.9 283.6 306.6 294.6C306.8 295.1 307.1 295.5 307.3 296C309.8 292.2 313.8 286.1 315.3 282.6C317.6 277.2 319.2 266.7 321.6 253.5C322.4 248.8 323.6 241.7 324.5 235.4Z" fill="#EC103C"/>
<path d="M277.3 165.7C275.3 167.7 270.4 174.5 269.6 184.9C269.3 189.3 270.5 197.6 275.7 203.9C277.3 227 281.9 271.6 281.9 271.6C275.8 277.9 274.2 282 270.7 293.2C268.6 300.1 262.3 320.8 259.9 328.5C274.7 329.1 277.5 341.9 277.5 341.9C277.5 341.9 295.5 312.9 304.6 296.5C311.3 284.4 312.2 281.5 314 274.3C315.8 267.1 316.2 260.4 318.4 245.3C320.6 230.2 324.5 209.5 325.6 194.7C326.7 179.9 326.9 164.2 326.9 164.2L277.3 165.7Z" fill="#EC103C"/>
<path d="M257.7 183.8C259.2 183.4 261.3 181.9 262.1 180.6C262.6 179.8 262.9 178.7 263.2 177.3C263.6 175.8 264.1 173.9 265.1 171.7L266.2 172.2C265.3 174.2 264.8 176 264.4 177.6C264 179.1 263.7 180.3 263.1 181.2C262.1 182.7 259.7 184.5 257.7 184.9C257.8 184.6 257.8 184.2 257.7 183.8Z" fill="#EC103C"/>
<path d="M287.5 197.101C287.2 197.101 286.9 197.101 286.7 197.001C284.9 196.601 283.5 195.401 280.7 191.801C278.6 189.101 278.8 187.101 279.1 183.801C279.2 182.601 280.5 176.201 280.6 174.501L281.8 175.201C281.7 176.901 280.5 182.701 280.4 184.001C280 187.201 279.9 188.701 281.7 191.101C284.3 194.401 285.5 195.501 287 195.901C288.4 196.201 294.8 195.201 296.5 194.001C297.5 193.301 299.1 185.001 300.1 177.601L301.3 177.801C300.8 181.501 299.1 193.801 297.2 195.101C295.4 196.101 290 197.101 287.5 197.101Z" fill="#EC103C"/>
<path d="M260.3 85.7006C256.1 93.8006 256.6 101.101 257.8 112.401C258.9 122.901 259.7 129.401 260.7 142.401C261.8 157.201 259.8 166.601 259.8 166.601C259.8 166.601 260.2 172.901 278.7 177.601C311.2 185.901 326.8 176.401 326.8 176.401C326.8 176.401 327.6 158.101 326.3 134.201C324.9 107.401 324.4 103.501 322.4 97.1006C320.9 93.6006 318 90.4006 314.1 88.6006C310.9 87.1006 303.2 84.6006 298.6 82.8006C287.9 78.7006 275.6 78.9006 275.6 78.9006C266.2 78.4006 262.5 81.5006 260.3 85.7006Z" fill="#F5F5F5"/>
<path d="M273.2 80.5004C273.9 80.5004 274.6 80.5004 275.4 80.6004H275.5H275.6C275.6 80.6004 275.7 80.6004 276 80.6004C278 80.6004 288.7 80.8004 298 84.4004C299.9 85.1004 302.2 86.0004 304.6 86.8004C308 88.0004 311.6 89.3004 313.5 90.1004C316.8 91.6004 319.6 94.4004 321 97.7004C323 103.7 323.4 107.1 324.9 134.3C326 155 325.5 171.6 325.4 175.5C323.2 176.5 316.1 179.5 303.9 179.5C296.3 179.5 288 178.4 279.2 176.1C263.9 172.2 261.7 167.4 261.5 166.6C261.8 164.8 263.3 155.9 262.3 142.3C261.5 131.3 260.8 125 259.9 116.9L259.4 112.3C258.2 101 257.7 94.2004 261.7 86.4004C263.1 83.5004 265.7 80.5004 273.2 80.5004ZM273.2 78.9004C265.6 78.9004 262.3 81.8004 260.2 85.7004C256 93.8004 256.5 101.1 257.7 112.4C258.8 122.9 259.6 129.4 260.6 142.4C261.7 157.2 259.7 166.6 259.7 166.6C259.7 166.6 260.1 172.9 278.6 177.6C288.5 180.1 296.8 181 303.6 181C319.1 181 326.6 176.4 326.6 176.4C326.6 176.4 327.4 158.1 326.1 134.2C324.7 107.4 324.2 103.5 322.2 97.1004C320.7 93.6004 317.8 90.4004 313.9 88.6004C310.7 87.1004 303 84.6004 298.4 82.8004C288.9 79.1004 278.1 78.9004 275.8 78.9004C275.5 78.9004 275.4 78.9004 275.4 78.9004C274.7 79.0004 273.9 78.9004 273.2 78.9004Z" fill="#E1E1E1"/>
<path d="M299.3 73.7006L298.4 83.6006C293 84.8006 279.9 83.9006 277.4 80.6006L277.9 71.6006L299.3 73.7006Z" fill="#FFAAA8"/>
<path d="M313.3 48.4004C313.3 48.4004 315.8 50.3004 317.7 56.8004L314 59.5004C312.8 55.0004 311.5 50.3004 313.3 48.4004Z" fill="#FF9090"/>
<path d="M303.8 30.1001C313 30.7001 314.5 35.5001 313.2 51.2001C316.4 66.1001 312 72.0001 310 74.0001C305.7 76.3001 301.2 76.7001 295.3 75.1001C290.7 73.9001 279.2 70.5001 274.3 63.3001C268.6 54.8001 267.1 42.0001 273.2 37.2001C281.7 30.5001 300.1 29.9001 303.8 30.1001Z" fill="#FFAAA8"/>
<path d="M310 74.0002C308.9 75.1002 302.8 77.0002 299 76.6002L299.3 73.7002C299.3 73.7002 304.5 74.7002 310 74.0002Z" fill="#FF9090"/>
<path d="M304.7 41.0006C304.5 41.7006 304.2 42.3006 303.8 42.9006C302.8 44.5006 301.3 45.4006 299.7 46.4006C300.3 48.3006 300.9 50.3006 300.9 52.3006C300.9 53.0006 300.9 53.6006 300.5 54.2006C299.9 55.2006 298.8 55.1006 298.3 54.2006C297.7 53.1006 297.3 52.0006 296.4 51.1006C295.4 50.0006 294.1 49.2006 292.6 49.1006C287 48.6006 287 57.2006 289.3 60.1006C292.9 64.9006 295.9 61.8006 295.9 61.8006C295.9 61.8006 297.8 69.2006 292.4 72.4006C292.4 72.4006 283.8 74.5006 277.9 71.5006C275.2 66.0006 271.6 62.7006 268.7 56.8006C263.6 46.5006 266.1 37.4006 269.5 35.5006C268.5 30.7006 271.5 25.9006 277.7 23.0006C283.9 20.1006 292.4 21.6006 298.9 22.6006C302.8 23.2006 306.8 23.0006 310.6 21.9006C311.1 21.8006 311.7 21.6006 312.2 21.6006C312.8 21.6006 313.3 21.8006 313.7 22.3006C314.1 22.9006 314 23.7006 313.7 24.4006C313.4 25.1006 312.9 25.6006 312.7 26.3006C314 25.9006 315.5 26.9006 316.1 28.2006C317 30.0006 316.6 32.2006 315.5 33.8006C314.4 35.4006 312.6 36.5006 310.7 37.0006C308.8 37.6006 306.8 37.6006 304.9 37.6006C305.1 38.7006 305 39.9006 304.7 41.0006Z" fill="#1A2E35"/>
<path d="M298.8 79.3004C300.2 79.2004 301.7 82.1004 304.5 85.0004C304.5 85.0004 296.7 89.5004 285.1 87.8004C273.5 86.0004 271.3 79.0004 271.3 79.0004C271.3 79.0004 274 77.0004 275.4 75.6004C277.1 73.9004 277.9 73.9004 277.9 73.9004L277.8 76.3004C277.8 76.3004 280 78.6004 287.1 80.0004C294.1 81.4004 298.8 79.3004 298.8 79.3004Z" fill="#E7E7E7"/>
<path d="M339.9 147.701C339.9 147.701 336.6 131.101 334.2 119.401C331.8 107.701 332.7 94.2006 314.3 89.6006C311.3 94.2006 309.3 101.301 310.3 110.201C311.3 119.101 315.4 133.001 316.4 137.601C317.4 142.301 320.9 151.601 325.2 158.201C331 166.901 341.9 181.501 346.3 186.901C348.3 189.401 350.1 191.901 352 194.601C354 197.401 356.5 199.501 358.9 202.001C360 203.101 361.5 204.001 363 204.401C364 204.701 365 204.301 365.9 204.601C366.9 204.901 367.5 205.801 368.6 205.801C369.9 205.801 370.9 205.001 372.1 205.101C373.3 205.201 374.5 205.701 375.7 205.601C376.8 205.601 377.6 205.401 378.7 205.901C379.6 206.301 380.8 207.501 381.8 206.901C382.9 206.201 382.6 205.001 382.2 204.001C381.5 202.201 379.5 200.401 377.8 199.501C375.8 198.501 374.1 197.001 372.1 196.201C370.2 195.501 368.6 193.901 367.2 192.301C366.3 191.201 365.6 189.601 367.6 189.601C369.9 189.601 372.7 190.401 374.7 189.001C376.1 188.001 375.6 186.701 374.3 186.101C372 185.101 369.9 184.001 367.7 182.601C365.5 181.301 363.6 179.701 361.4 178.401C360.3 177.701 359 177.201 357.8 176.701C354.4 175.301 352.9 171.901 351.2 168.801C348.6 164.501 342.6 153.301 339.9 147.701Z" fill="#FFAAA8"/>
<path d="M313.4 129.901C313.4 129.901 310.2 117.201 309.4 111.901C308.6 106.601 308.1 92.8008 313.6 88.3008C317.6 89.3008 328.1 91.1008 331.2 101.101C334.2 111.101 338.9 137.301 338.9 137.301L352.7 169.801C352.7 169.801 352.8 172.801 347 176.701C341.2 180.601 338.3 179.301 338.3 179.301C338.3 179.301 326.9 162.101 321.4 153.601C317.5 148.001 316.6 144.301 313.4 129.901Z" fill="#E7E7E7"/>
<path d="M209.3 75.5002V55.9002L225.8 54.2002C226.2 54.2002 226.5 54.2002 226.7 54.4002C227.5 54.9002 235.1 59.2002 235.3 59.4002C236.1 59.9002 236.4 61.0002 235.7 61.8002L217.9 80.5002L209.3 75.5002Z" fill="#018957"/>
<path d="M157.6 119.7V59.1004C157.6 58.2004 158.2 57.2004 159 56.7004L208.4 28.2004C209.2 27.8004 210.4 27.8004 211.2 28.2004L218.9 32.7004C219.7 33.1004 220.3 34.2004 220.3 35.1004V95.7004C220.3 96.6004 219.7 97.6004 218.9 98.1004L169.5 126.6C168.7 127 167.5 127 166.7 126.6L159 122.1C158.3 121.6 157.6 120.6 157.6 119.7Z" fill="#018957"/>
<path opacity="0.15" d="M169.2 126.801C168.5 127.101 168 126.701 168 125.901V65.3008C168 64.9008 168.2 64.4008 168.4 63.9008L158 57.8008C157.8 58.2008 157.6 58.7008 157.6 59.1008V119.701C157.6 120.601 158.2 121.701 159 122.101L166.7 126.601C167.4 127.001 168.5 127.101 169.2 126.801Z" fill="black"/>
<path d="M234.4 59.2004L220.2 60.7004V35.2004C220.2 34.3004 219.6 34.0004 218.8 34.4004L169.4 62.9004C168.6 63.3004 168 64.4004 168 65.3004V125.9C168 126.8 168.6 127.1 169.4 126.7L218.8 98.2004C219.6 97.8004 220.2 96.7004 220.2 95.8004V78.1004L235.7 61.8004C236.7 60.8004 235.9 59.1004 234.4 59.2004Z" fill="#018957"/>
<path opacity="0.35" d="M234.4 59.2004L220.2 60.7004V35.2004C220.2 34.3004 219.6 34.0004 218.8 34.4004L169.4 62.9004C168.6 63.3004 168 64.4004 168 65.3004V125.9C168 126.8 168.6 127.1 169.4 126.7L218.8 98.2004C219.6 97.8004 220.2 96.7004 220.2 95.8004V78.1004L235.7 61.8004C236.7 60.8004 235.9 59.1004 234.4 59.2004Z" fill="white"/>
<path d="M208.5 86.6004C208.6 86.3004 208.6 86.0004 208.5 85.9004L206.4 83.6004C205.9 83.1004 205.8 82.0004 206.1 80.9004C206.1 80.9004 206.1 80.9004 206.1 80.8004C206.4 79.6004 207.1 78.6004 207.8 78.0004L211.2 75.5004C211.4 75.4004 211.6 75.1004 211.6 74.8004C211.8 73.4004 211.9 71.9004 211.9 70.5004C211.9 69.1004 211.8 67.7004 211.6 66.4004C211.6 66.2004 211.4 66.1004 211.2 66.1004L207.8 67.5004C207 67.8004 206.4 67.5004 206.1 66.7004V66.6004C205.8 65.8004 205.9 64.6004 206.4 63.6004L208.5 58.8004C208.6 58.5004 208.6 58.2004 208.5 58.1004C207.3 56.5004 205.8 55.3004 204.1 54.7004C203.9 54.6004 203.7 54.8004 203.6 55.0004L200.9 59.4004C200.3 60.4004 199.5 61.0004 198.7 61.0004C198 61.0004 197.4 60.4004 197.4 59.5004L197 55.2004C197 54.9004 196.8 54.8004 196.6 54.9004C194.6 55.6004 192.3 56.9004 190.3 58.5004C190.1 58.7004 190 58.9004 189.9 59.2004L189.5 63.9004C189.4 64.9004 188.9 66.1004 188.2 67.0004C188.2 67.0004 188.2 67.0004 188.2 67.1004C187.5 67.9004 186.6 68.3004 186 68.0004L183.3 66.7004C183.1 66.6004 182.9 66.7004 182.8 67.0004C181.1 69.6004 179.6 72.5004 178.3 75.5004C178.2 75.8004 178.2 76.1004 178.3 76.2004L180.4 78.5004C180.9 79.0004 181 80.1004 180.7 81.2004V81.3004C180.4 82.5004 179.8 83.5004 179 84.0004L175.6 86.5004C175.4 86.6004 175.3 86.9004 175.2 87.2004C175 88.6004 174.9 90.1004 174.9 91.6004C174.9 93.0004 175 94.4004 175.2 95.6004C175.2 95.8004 175.4 95.9004 175.6 95.9004L179 94.5004C179.7 94.2004 180.4 94.5004 180.7 95.3004C181 96.1004 180.9 97.3004 180.4 98.3004L178.3 103.1C178.2 103.4 178.2 103.7 178.3 103.8C179.5 105.4 181 106.6 182.7 107.2C182.9 107.3 183.1 107.1 183.2 106.9L185.9 102.5C186.5 101.5 187.3 100.9 188.1 100.9C188.8 100.9 189.3 101.5 189.4 102.4L189.8 106.7C189.8 107 190 107.1 190.2 107C191.2 106.7 192.3 106.2 193.3 105.6C194.4 105 195.4 104.2 196.5 103.4C196.7 103.2 196.8 102.9 196.9 102.7L197.3 98.0004C197.4 96.9004 197.9 95.8004 198.6 94.9004C199.4 94.1004 200.2 93.7004 200.8 94.0004L203.5 95.3004C203.7 95.4004 203.9 95.3004 204 95.0004C205.8 92.5004 207.3 89.6004 208.5 86.6004ZM193.4 93.5004C188.2 96.5004 184.1 93.3004 184.1 86.4004C184.1 79.5004 188.3 71.5004 193.5 68.6004C198.6 65.7004 202.8 68.8004 202.8 75.7004C202.8 82.6004 198.6 90.6004 193.4 93.5004Z" fill="white"/>
</svg>
