<svg width="59" height="60" viewBox="0 0 59 60" fill="none" xmlns="http://www.w3.org/2000/svg">
<g clip-path="url(#clip0_3549_2)">
<path d="M36.0812 29.4504L35.41 29.0754C35.4221 28.9254 35.4278 28.7754 35.4278 28.6254C35.4278 28.4773 35.4215 28.3273 35.409 28.1754L36.0812 27.8004C36.2633 27.6988 36.4064 27.5394 36.4877 27.3473C36.569 27.1553 36.584 26.9416 36.5303 26.7401C36.1751 25.4148 35.4607 24.2134 34.4659 23.2685C34.3208 23.1305 34.1353 23.0425 33.9365 23.0175C33.7378 22.9926 33.5363 23.0319 33.3615 23.1298L32.6921 23.547C32.4116 23.3574 32.1162 23.1906 31.809 23.0482V22.3038C31.809 22.0974 31.7408 21.8967 31.615 21.7329C31.4892 21.5691 31.3129 21.4515 31.1134 21.3982C29.7698 21.0327 28.3529 21.034 27.01 21.402C26.8106 21.4554 26.6345 21.5731 26.5089 21.7369C26.3833 21.9006 26.3152 22.1012 26.3153 22.3076V23.0482C26.0214 23.1825 25.74 23.3425 25.4743 23.5263L24.7646 23.1317C24.5899 23.0346 24.3888 22.9959 24.1905 23.021C23.9922 23.0461 23.8072 23.1338 23.6621 23.2713C22.6665 24.215 21.9508 25.4154 21.594 26.7401C21.5404 26.9414 21.5554 27.1548 21.6365 27.3466C21.7177 27.5384 21.8604 27.6978 22.0421 27.7995L22.7143 28.1754C22.7018 28.3279 22.6956 28.4779 22.6956 28.6254C22.6956 28.7754 22.7021 28.9245 22.7143 29.0754L22.0421 29.4504C21.86 29.5522 21.717 29.7119 21.6359 29.9041C21.5547 30.0963 21.54 30.3101 21.594 30.5117C21.9496 31.8365 22.664 33.0374 23.6584 33.9823C23.8034 34.1199 23.9885 34.2076 24.1869 34.2326C24.3852 34.2576 24.5863 34.2185 24.7609 34.121L25.4321 33.7038C25.7128 33.8933 26.0081 34.0601 26.3153 34.2026V34.947C26.3152 35.1533 26.3833 35.3539 26.5089 35.5177C26.6345 35.6814 26.8106 35.7991 27.01 35.8526C27.6798 36.033 28.3703 36.1247 29.064 36.1254H29.1606C29.8208 36.115 30.4771 36.0221 31.1143 35.8488C31.3137 35.7954 31.4898 35.6777 31.6154 35.5139C31.741 35.3502 31.809 35.1496 31.809 34.9432V34.2026C32.1029 34.0683 32.3843 33.9083 32.65 33.7245L33.3596 34.1192C33.5343 34.2163 33.7355 34.2552 33.9338 34.2301C34.1321 34.2049 34.3172 34.1171 34.4621 33.9795C35.4578 33.0357 36.1734 31.8353 36.5303 30.5107C36.5838 30.3093 36.5687 30.0959 36.4874 29.904C36.4061 29.7122 36.2631 29.552 36.0812 29.4504ZM33.475 27.8445C33.5786 28.3599 33.5786 28.8909 33.475 29.4063C33.4378 29.6 33.4626 29.8005 33.5459 29.9792C33.6292 30.158 33.7668 30.3059 33.939 30.402L34.4875 30.7085C34.2747 31.2204 33.9865 31.6976 33.6325 32.1242L33.565 32.0867C33.2696 31.92 32.9341 31.8378 32.5951 31.849C32.2561 31.8602 31.9268 31.9645 31.6431 32.1504C31.4315 32.2928 31.2082 32.417 30.9756 32.5217C30.6637 32.6649 30.3998 32.8949 30.2152 33.1841C30.0307 33.4734 29.9334 33.8098 29.935 34.1529V34.1838C29.6712 34.2241 29.4049 34.246 29.1381 34.2495C28.821 34.2522 28.5041 34.2309 28.1903 34.1857V34.152C28.1916 33.809 28.0941 33.4729 27.9096 33.1838C27.7251 32.8948 27.4613 32.6649 27.1496 32.5217C26.9166 32.417 26.6929 32.2925 26.4812 32.1495C26.1976 31.9638 25.8684 31.8597 25.5295 31.8487C25.1907 31.8376 24.8554 31.9199 24.5603 32.0867L24.4881 32.127C24.1347 31.6992 23.8472 31.2212 23.635 30.7085L24.1853 30.402C24.3572 30.306 24.4945 30.1584 24.5778 29.98C24.6611 29.8017 24.6861 29.6016 24.6493 29.4082C24.5455 28.8915 24.5455 28.3593 24.6493 27.8426C24.6861 27.6492 24.6611 27.4491 24.5778 27.2708C24.4945 27.0924 24.3572 26.9448 24.1853 26.8488L23.6368 26.5423C23.8497 26.0304 24.1379 25.5533 24.4918 25.1267L24.5593 25.1642C24.8546 25.3311 25.1902 25.4135 25.5292 25.4023C25.8683 25.391 26.1976 25.2866 26.4812 25.1004C26.6928 24.9579 26.9161 24.8337 27.1487 24.7292C27.4605 24.5859 27.7244 24.3558 27.9089 24.0666C28.0935 23.7773 28.1908 23.441 28.1893 23.0979V23.067C28.7675 22.9786 29.3557 22.978 29.934 23.0651V23.0979C29.9324 23.441 30.0297 23.7774 30.2143 24.0667C30.3988 24.356 30.6628 24.586 30.9746 24.7292C31.2077 24.8338 31.4313 24.9583 31.6431 25.1013C31.9268 25.2872 32.2562 25.3914 32.5952 25.4024C32.9342 25.4135 33.2697 25.3311 33.565 25.1642L33.6362 25.1238C33.9892 25.5517 34.2764 26.0297 34.4884 26.5423L33.9381 26.8488C33.7662 26.945 33.6289 27.0928 33.5458 27.2714C33.4627 27.4499 33.4379 27.651 33.475 27.8445Z" fill="#2F352B"/>
<path d="M29.0625 25.3438C28.4135 25.3438 27.7791 25.5362 27.2395 25.8967C26.6999 26.2573 26.2794 26.7698 26.031 27.3693C25.7827 27.9689 25.7177 28.6286 25.8443 29.2651C25.9709 29.9016 26.2834 30.4863 26.7423 30.9452C27.2012 31.4041 27.7859 31.7166 28.4224 31.8432C29.0589 31.9698 29.7186 31.9048 30.3182 31.6565C30.9178 31.4081 31.4302 30.9876 31.7908 30.448C32.1513 29.9084 32.3438 29.274 32.3438 28.625C32.3428 27.7551 31.9967 26.921 31.3816 26.3059C30.7665 25.6908 29.9324 25.3446 29.0625 25.3438ZM29.0625 30.0312C28.7844 30.0312 28.5125 29.9488 28.2812 29.7943C28.05 29.6397 27.8697 29.42 27.7633 29.163C27.6569 28.9061 27.629 28.6234 27.6833 28.3507C27.7375 28.0779 27.8715 27.8273 28.0681 27.6306C28.2648 27.434 28.5154 27.3 28.7882 27.2458C29.0609 27.1915 29.3437 27.2194 29.6006 27.3258C29.8576 27.4322 30.0772 27.6125 30.2318 27.8437C30.3863 28.075 30.4688 28.3469 30.4688 28.625C30.4683 28.9978 30.3199 29.3551 30.0563 29.6187C29.7927 29.8823 29.4353 30.0308 29.0625 30.0312Z" fill="#2F352B"/>
<path d="M19.6873 18.3125C18.9416 18.3132 18.2267 18.6098 17.6994 19.1371C17.1721 19.6644 16.8755 20.3793 16.8748 21.125V37.0625H15.9373C15.6887 37.0625 15.4502 37.1613 15.2744 37.3371C15.0986 37.5129 14.9998 37.7514 14.9998 38V39.875C15.0005 40.6207 15.2971 41.3356 15.8244 41.8629C16.3517 42.3902 17.0666 42.6868 17.8123 42.6875H40.3123C41.058 42.6868 41.7729 42.3902 42.3002 41.8629C42.8275 41.3356 43.1241 40.6207 43.1248 39.875V38C43.1248 37.7514 43.026 37.5129 42.8502 37.3371C42.6744 37.1613 42.4359 37.0625 42.1873 37.0625H41.2498V21.125C41.2491 20.3793 40.9525 19.6644 40.4252 19.1371C39.8979 18.6098 39.183 18.3132 38.4373 18.3125H19.6873ZM41.2498 39.875C41.2496 40.1236 41.1507 40.3619 40.9749 40.5376C40.7992 40.7134 40.5609 40.8123 40.3123 40.8125H17.8123C17.5637 40.8123 17.3254 40.7134 17.1497 40.5376C16.9739 40.3619 16.875 40.1236 16.8748 39.875V38.9375H41.2498V39.875ZM39.3748 21.125V37.0625H18.7498V21.125C18.75 20.8764 18.8489 20.6381 19.0247 20.4624C19.2004 20.2866 19.4387 20.1877 19.6873 20.1875H38.4373C38.6859 20.1877 38.9242 20.2866 39.0999 20.4624C39.2757 20.6381 39.3746 20.8764 39.3748 21.125ZM0.9373 51.125H2.8123V57.6875C2.8123 57.9361 2.91107 58.1746 3.08689 58.3504C3.2627 58.5262 3.50116 58.625 3.7498 58.625H14.9998C15.2484 58.625 15.4869 58.5262 15.6627 58.3504C15.8385 58.1746 15.9373 57.9361 15.9373 57.6875V51.125H17.8123C17.9977 51.125 18.1789 51.07 18.333 50.9669C18.4872 50.8639 18.6073 50.7175 18.6782 50.5462C18.7492 50.375 18.7678 50.1865 18.7316 50.0047C18.6954 49.8228 18.6062 49.6558 18.4751 49.5247L10.0376 41.0872C9.86181 40.9114 9.62339 40.8127 9.3748 40.8127C9.12621 40.8127 8.8878 40.9114 8.71199 41.0872L0.274488 49.5247C0.143416 49.6558 0.0541604 49.8228 0.0180033 50.0047C-0.0181538 50.1865 0.000411496 50.375 0.0713522 50.5462C0.142293 50.7175 0.262424 50.8639 0.416558 50.9669C0.570692 51.07 0.751909 51.125 0.9373 51.125ZM10.3123 56.75H8.4373V53.9375H10.3123V56.75ZM9.3748 43.0756L15.5492 49.25H14.9998C14.7512 49.25 14.5127 49.3488 14.3369 49.5246C14.1611 49.7004 14.0623 49.9389 14.0623 50.1875V56.75H12.1873V53C12.1873 52.7514 12.0885 52.5129 11.9127 52.3371C11.7369 52.1613 11.4984 52.0625 11.2498 52.0625H7.4998C7.25116 52.0625 7.0127 52.1613 6.83689 52.3371C6.66107 52.5129 6.5623 52.7514 6.5623 53V56.75H4.6873V50.1875C4.6873 49.9389 4.58853 49.7004 4.41271 49.5246C4.2369 49.3488 3.99844 49.25 3.7498 49.25H3.20043L9.3748 43.0756ZM44.0623 22.0625H57.1873C57.4359 22.0625 57.6744 21.9637 57.8502 21.7879C58.026 21.6121 58.1248 21.3736 58.1248 21.125V2.375C58.1243 1.87787 57.9266 1.40125 57.5751 1.04972C57.2236 0.6982 56.7469 0.500496 56.2498 0.5H44.9998C44.5027 0.500496 44.026 0.6982 43.6745 1.04972C43.323 1.40125 43.1253 1.87787 43.1248 2.375V21.125C43.1248 21.3736 43.2236 21.6121 43.3994 21.7879C43.5752 21.9637 43.8137 22.0625 44.0623 22.0625ZM51.5623 17.375V20.1875H49.6873V17.375H51.5623ZM44.9998 2.375H56.2498V20.1875H53.4373V17.375H54.3748V15.5H46.8748V17.375H47.8123V20.1875H44.9998V2.375Z" fill="#2F352B"/>
<path d="M45.9375 4.25H47.8125V6.125H45.9375V4.25ZM49.6875 4.25H51.5625V6.125H49.6875V4.25ZM53.4375 4.25H55.3125V6.125H53.4375V4.25ZM45.9375 8H47.8125V9.875H45.9375V8ZM49.6875 8H51.5625V9.875H49.6875V8ZM53.4375 8H55.3125V9.875H53.4375V8ZM45.9375 11.75H47.8125V13.625H45.9375V11.75ZM49.6875 11.75H51.5625V13.625H49.6875V11.75ZM53.4375 11.75H55.3125V13.625H53.4375V11.75ZM5.625 23C5.62922 19.2717 7.11215 15.6973 9.74847 13.061C12.3848 10.4246 15.9592 8.94172 19.6875 8.9375H32.8125V10.8125C32.8125 10.9784 32.8566 11.1414 32.9402 11.2847C33.0238 11.428 33.144 11.5466 33.2884 11.6283C33.4328 11.71 33.5964 11.7519 33.7623 11.7497C33.9282 11.7476 34.0906 11.7014 34.2328 11.6159L38.9203 8.80344C39.0589 8.72009 39.1736 8.6023 39.2532 8.46151C39.3329 8.32073 39.3747 8.16174 39.3747 8C39.3747 7.83826 39.3329 7.67927 39.2532 7.53849C39.1736 7.3977 39.0589 7.27991 38.9203 7.19656L34.2328 4.38406C34.0906 4.29861 33.9282 4.25243 33.7623 4.25026C33.5964 4.24808 33.4328 4.28999 33.2884 4.37169C33.144 4.45339 33.0238 4.57195 32.9402 4.71528C32.8566 4.85861 32.8125 5.02157 32.8125 5.1875V7.0625H19.6875C15.4621 7.06721 11.411 8.74785 8.42319 11.7357C5.43535 14.7235 3.75471 18.7746 3.75 23V38H5.625V23ZM34.6875 6.84312L36.615 8L34.6875 9.15688V6.84312ZM54.375 37.0625V27.6875H52.5V37.0625C52.4958 40.7908 51.0128 44.3652 48.3765 47.0015C45.7402 49.6378 42.1658 51.1208 38.4375 51.125H29.0625V49.25C29.0625 49.0841 29.0184 48.9211 28.9348 48.7778C28.8512 48.6345 28.731 48.5159 28.5866 48.4342C28.4422 48.3525 28.2786 48.3106 28.1127 48.3128C27.9468 48.3149 27.7844 48.3611 27.6422 48.4466L22.9547 51.2591C22.8161 51.3424 22.7014 51.4602 22.6218 51.601C22.5421 51.7418 22.5003 51.9008 22.5003 52.0625C22.5003 52.2242 22.5421 52.3832 22.6218 52.524C22.7014 52.6648 22.8161 52.7826 22.9547 52.8659L27.6422 55.6784C27.7844 55.7639 27.9468 55.8101 28.1127 55.8122C28.2786 55.8144 28.4422 55.7725 28.5866 55.6908C28.731 55.6091 28.8512 55.4905 28.9348 55.3472C29.0184 55.2039 29.0625 55.0409 29.0625 54.875V53H38.4375C42.6629 52.9953 46.714 51.3146 49.7018 48.3268C52.6896 45.339 54.3703 41.2879 54.375 37.0625ZM27.1875 53.2194L25.26 52.0625L27.1875 50.9056V53.2194Z" fill="#2F352B"/>
</g>
<defs>
<clipPath id="clip0_3549_2">
<rect width="59" height="59" fill="white" transform="translate(0 0.5)"/>
</clipPath>
</defs>
</svg>
