<svg width="630" height="510" viewBox="0 0 630 510" fill="none" xmlns="http://www.w3.org/2000/svg">
<g opacity="0.3">
<path d="M564.3 286.3C549.4 331.5 517.2 381.1 469.9 397.3C398.4 421.7 392 480.3 262.2 479.9C242 479.8 223.2 477.7 205.9 473.8C196.6 471.7 187.7 469.1 179.2 466.1C102.3 438.4 60.1997 372.4 54.1997 301.9C46.2997 209.2 109.4 162.4 150.5 134.9C191.6 107.4 238.4 5.00023 366 4.40023C385.5 4.30023 404.9 6.20023 423.9 10.6002C467.2 20.5002 511.8 44.5002 538.6 81.1002C540.6 83.8002 542.5 86.7002 544.4 89.5002C580.5 145.7 584.7 224.6 564.3 286.3Z" fill="#EC103C"/>
<path opacity="0.7" d="M564.3 286.3C549.4 331.5 517.2 381.1 469.9 397.3C398.4 421.7 392 480.3 262.2 479.9C242 479.8 223.2 477.7 205.9 473.8C196.6 471.7 187.7 469.1 179.2 466.1C102.3 438.4 60.1997 372.4 54.1997 301.9C46.2997 209.2 109.4 162.4 150.5 134.9C191.6 107.4 238.4 5.00023 366 4.40023C385.5 4.30023 404.9 6.20023 423.9 10.6002C467.2 20.5002 511.8 44.5002 538.6 81.1002C540.6 83.8002 542.5 86.7002 544.4 89.5002C580.5 145.7 584.7 224.6 564.3 286.3Z" fill="#EC103C"/>
</g>
<path d="M71.5 486.3H564.4" stroke="#1A2E35" stroke-width="1.1063" stroke-miterlimit="10" stroke-linecap="round" stroke-linejoin="round"/>
<path d="M110 155.5C110 163.9 106.1 171.4 99.8998 176.2C95.3998 179.7 89.7998 181.8 83.6998 181.8C77.5998 181.8 71.8998 179.7 67.3998 176.2C61.2998 171.4 57.2998 163.9 57.2998 155.5C57.2998 141 69.0998 129.2 83.5998 129.2C98.1998 129.2 110 141 110 155.5Z" stroke="#1A2E35" stroke-width="1.1063" stroke-miterlimit="10" stroke-linecap="round" stroke-linejoin="round"/>
<path d="M89.4817 160.741C94.6498 157.548 96.2504 150.769 93.0567 145.601C89.863 140.433 83.0844 138.832 77.9163 142.026C72.7482 145.22 71.1476 151.998 74.3413 157.166C77.535 162.334 84.3136 163.935 89.4817 160.741Z" stroke="#1A2E35" stroke-width="1.1063" stroke-miterlimit="10" stroke-linecap="round" stroke-linejoin="round"/>
<path d="M99.8994 176.201C95.3994 179.701 89.7994 181.801 83.6994 181.801C77.5994 181.801 71.8994 179.701 67.3994 176.201C68.9994 168.701 75.6994 163.101 83.6994 163.101C91.5994 163.101 98.2994 168.701 99.8994 176.201Z" stroke="#1A2E35" stroke-width="1.1063" stroke-miterlimit="10" stroke-linecap="round" stroke-linejoin="round"/>
<path d="M594.099 429.401C594.099 437.801 590.199 445.301 583.999 450.101C579.499 453.601 573.899 455.701 567.799 455.701C561.699 455.701 555.999 453.601 551.499 450.101C545.399 445.301 541.399 437.801 541.399 429.401C541.399 414.901 553.199 403.101 567.699 403.101C582.399 403.101 594.099 414.801 594.099 429.401Z" stroke="#10A261" stroke-width="1.1063" stroke-miterlimit="10" stroke-linecap="round" stroke-linejoin="round"/>
<path d="M569.58 436.147C575.576 435.171 579.645 429.519 578.669 423.523C577.693 417.527 572.041 413.457 566.044 414.433C560.048 415.41 555.979 421.062 556.955 427.058C557.931 433.054 563.584 437.124 569.58 436.147Z" stroke="#10A261" stroke-width="1.1063" stroke-miterlimit="10" stroke-linecap="round" stroke-linejoin="round"/>
<path d="M584.1 450.001C579.6 453.501 574 455.601 567.9 455.601C561.8 455.601 556.1 453.501 551.6 450.001C553.2 442.501 559.9 436.901 567.9 436.901C575.8 437.001 582.4 442.601 584.1 450.001Z" stroke="#10A261" stroke-width="1.1063" stroke-miterlimit="10" stroke-linecap="round" stroke-linejoin="round"/>
<path d="M49.1996 196.801L47.8996 196.001L49.5996 193.601L47.0996 192.601L47.6996 191.201L50.0996 192.501L49.7996 189.601H51.4996L51.1996 192.501L53.5996 191.201L54.0996 192.601L51.5996 193.601L53.2996 195.901L51.8996 196.701L50.4996 194.101L49.1996 196.801Z" fill="#10A261"/>
<path d="M57.6 196.801L56.3 196.001L58 193.601L55.5 192.601L56.1 191.201L58.5 192.501L58.2 189.601H59.9L59.6 192.501L62 191.201L62.5 192.601L60 193.601L61.7 195.901L60.3 196.701L58.9 194.101L57.6 196.801Z" fill="#10A261"/>
<path d="M66.1 196.801L64.8 196.001L66.5 193.601L64 192.601L64.6 191.201L67 192.501L66.7 189.601H68.4L68.1 192.501L70.5 191.201L71 192.601L68.5 193.601L70.2 195.901L68.8 196.701L67.4 194.101L66.1 196.801Z" fill="#10A261"/>
<path d="M74.4994 196.801L73.1994 196.001L74.8994 193.601L72.3994 192.601L72.9994 191.201L75.3994 192.501L75.0994 189.601H76.7994L76.4994 192.501L78.8994 191.201L79.3994 192.601L76.8994 193.601L78.5994 195.901L77.1994 196.701L75.7994 194.101L74.4994 196.801Z" fill="#10A261"/>
<path d="M82.8998 196.801L81.5998 196.001L83.2998 193.601L80.7998 192.601L81.3998 191.201L83.7998 192.501L83.4998 189.601H85.1998L84.8998 192.501L87.2998 191.201L87.7998 192.601L85.2998 193.601L86.9998 196.001L85.5998 196.801L84.1998 194.201L82.8998 196.801Z" fill="#10A261"/>
<path d="M91.3992 196.801L89.9992 196.001L91.6992 193.601L89.1992 192.601L89.7992 191.201L92.1992 192.501L91.8992 189.601H93.5992L93.2992 192.501L95.6992 191.201L96.1992 192.601L93.6992 193.601L95.3992 195.901L93.9992 196.701L92.5992 194.101L91.3992 196.801Z" fill="#10A261"/>
<path d="M99.7992 196.801L98.4992 196.001L100.199 193.601L97.6992 192.601L98.2992 191.201L100.699 192.501L100.399 189.601H102.099L101.799 192.501L104.199 191.201L104.699 192.601L102.199 193.601L103.899 195.901L102.499 196.701L101.099 194.101L99.7992 196.801Z" fill="#10A261"/>
<path d="M108.2 196.801L106.9 196.001L108.6 193.601L106.1 192.601L106.7 191.201L109.1 192.501L108.8 189.601H110.5L110.2 192.501L112.6 191.201L113.1 192.601L110.6 193.601L112.3 195.901L110.9 196.701L109.5 194.101L108.2 196.801Z" fill="#10A261"/>
<path d="M116.6 196.801L115.3 196.001L117 193.601L114.5 192.601L115.1 191.201L117.5 192.501L117.2 189.601H118.9L118.6 192.501L121 191.201L121.5 192.601L119 193.601L120.7 195.901L119.3 196.701L117.9 194.101L116.6 196.801Z" fill="#10A261"/>
<path d="M226.9 31.4998L225.6 30.6998L227.3 28.2998L224.8 27.2998L225.4 25.8998L227.8 27.1998L227.5 24.2998H229.2L228.9 27.1998L231.3 25.8998L231.8 27.2998L229.3 28.2998L231 30.5998L229.6 31.3998L228.2 28.7998L226.9 31.4998Z" fill="#020202"/>
<path d="M235.3 31.4998L234 30.6998L235.7 28.2998L233.2 27.2998L233.8 25.8998L236.2 27.1998L235.9 24.2998H237.6L237.3 27.1998L239.7 25.8998L240.2 27.2998L237.7 28.2998L239.4 30.5998L238 31.3998L236.6 28.7998L235.3 31.4998Z" fill="#020202"/>
<path d="M243.8 31.4998L242.5 30.6998L244.2 28.2998L241.7 27.2998L242.3 25.8998L244.7 27.1998L244.4 24.2998H246.1L245.8 27.1998L248.2 25.8998L248.7 27.2998L246.2 28.2998L247.9 30.5998L246.5 31.3998L245.1 28.7998L243.8 31.4998Z" fill="#020202"/>
<path d="M252.2 31.4998L250.9 30.6998L252.6 28.2998L250.1 27.2998L250.7 25.8998L253.1 27.1998L252.8 24.2998H254.5L254.2 27.1998L256.6 25.8998L257.1 27.2998L254.6 28.2998L256.3 30.5998L254.9 31.3998L253.5 28.7998L252.2 31.4998Z" fill="#020202"/>
<path d="M260.6 31.4994L259.3 30.6994L261 28.2994L258.5 27.2994L259 25.9994L261.4 27.2994L261.1 24.3994H262.8L262.5 27.2994L265 25.9994L265.5 27.3994L263 28.3994L264.7 30.6994L263.3 31.4994L261.9 28.8994L260.6 31.4994Z" fill="#020202"/>
<path d="M268.999 31.4998L267.699 30.6998L269.399 28.2998L266.899 27.2998L267.499 25.8998L269.899 27.1998L269.599 24.2998H271.299L270.999 27.1998L273.399 25.8998L273.899 27.2998L271.399 28.2998L273.099 30.5998L271.699 31.3998L270.299 28.7998L268.999 31.4998Z" fill="#020202"/>
<path d="M277.499 31.4998L276.199 30.6998L277.899 28.2998L275.399 27.2998L275.999 25.8998L278.399 27.1998L278.099 24.2998H279.799L279.499 27.1998L281.899 25.8998L282.399 27.2998L279.899 28.2998L281.599 30.5998L280.199 31.3998L278.799 28.7998L277.499 31.4998Z" fill="#020202"/>
<path d="M285.9 31.4998L284.6 30.6998L286.3 28.2998L283.8 27.2998L284.4 25.8998L286.8 27.1998L286.5 24.2998H288.2L287.9 27.1998L290.3 25.8998L290.8 27.2998L288.3 28.2998L290 30.5998L288.6 31.3998L287.2 28.7998L285.9 31.4998Z" fill="#020202"/>
<path d="M294.3 31.4998L293 30.6998L294.7 28.2998L292.2 27.2998L292.8 25.8998L295.2 27.1998L294.9 24.2998H296.6L296.3 27.1998L298.7 25.8998L299.2 27.2998L296.7 28.2998L298.4 30.5998L297 31.3998L295.6 28.7998L294.3 31.4998Z" fill="#020202"/>
<path d="M484.7 142.1L483.4 141.3L485.1 138.9L482.6 137.9L483.2 136.5L485.6 137.8L485.3 134.9H487L486.7 137.8L489.1 136.5L489.6 137.9L487.1 138.9L488.8 141.2L487.4 142L486 139.4L484.7 142.1Z" fill="#020202"/>
<path d="M493.1 142.1L491.8 141.3L493.5 138.9L491 137.9L491.6 136.5L494 137.8L493.7 134.9H495.4L495.1 137.8L497.5 136.5L498 137.9L495.5 138.9L497.2 141.2L495.8 142L494.4 139.4L493.1 142.1Z" fill="#020202"/>
<path d="M501.6 142.1L500.3 141.3L502 138.9L499.5 137.9L500.1 136.5L502.5 137.8L502.2 134.9H503.9L503.6 137.8L506 136.5L506.5 137.9L504 138.9L505.7 141.2L504.3 142L502.9 139.4L501.6 142.1Z" fill="#020202"/>
<path d="M509.999 142.1L508.699 141.3L510.399 138.9L507.899 137.9L508.499 136.5L510.899 137.8L510.599 134.9H512.299L511.999 137.8L514.399 136.5L514.899 137.9L512.399 138.9L514.099 141.2L512.699 142L511.299 139.4L509.999 142.1Z" fill="#020202"/>
<path d="M518.4 142.1L517.1 141.3L518.8 138.9L516.3 137.9L516.9 136.5L519.3 137.8L519 134.9H520.7L520.4 137.8L522.8 136.5L523.3 137.9L520.8 138.9L522.5 141.2L521.1 142L519.7 139.4L518.4 142.1Z" fill="#020202"/>
<path d="M526.799 142.1L525.499 141.3L527.199 138.9L524.699 137.9L525.299 136.5L527.699 137.8L527.399 134.9H529.099L528.799 137.8L531.199 136.5L531.699 137.9L529.199 138.9L530.899 141.2L529.499 142L528.099 139.4L526.799 142.1Z" fill="#020202"/>
<path d="M535.299 142.1L533.999 141.3L535.699 138.9L533.199 137.9L533.799 136.5L536.199 137.8L535.899 134.9H537.599L537.299 137.8L539.699 136.5L540.199 137.9L537.699 138.9L539.399 141.2L537.999 142L536.599 139.4L535.299 142.1Z" fill="#020202"/>
<path d="M543.7 142.1L542.4 141.3L544.1 138.9L541.6 137.9L542.2 136.5L544.6 137.8L544.3 134.9H546L545.7 137.8L548.1 136.5L548.6 137.9L546.1 138.9L547.8 141.2L546.4 142L545 139.4L543.7 142.1Z" fill="#020202"/>
<path d="M552.1 142.1L550.8 141.3L552.5 138.9L550 137.9L550.6 136.5L553 137.8L552.7 134.9H554.4L554.1 137.8L556.5 136.5L557 137.9L554.5 138.9L556.2 141.2L554.8 142L553.4 139.4L552.1 142.1Z" fill="#020202"/>
<path d="M540.999 74.5H497.699V116.9H540.999V74.5Z" stroke="#10A261" stroke-width="1.1063" stroke-miterlimit="10" stroke-linecap="round" stroke-linejoin="round"/>
<path d="M505.699 74.5002V64.7002C505.699 57.1002 511.899 51.0002 519.399 51.0002C526.999 51.0002 533.099 57.2002 533.099 64.7002V74.5002H539.399V64.7002C539.399 53.7002 530.399 44.7002 519.399 44.7002C508.399 44.7002 499.399 53.7002 499.399 64.7002V74.5002H505.699Z" stroke="#10A261" stroke-width="1.1063" stroke-miterlimit="10"/>
<path d="M524.399 90.9004C524.399 88.1004 522.199 85.9004 519.399 85.9004C516.599 85.9004 514.399 88.1004 514.399 90.9004C514.399 93.0004 515.699 94.8004 517.599 95.5004V105.4H521.199V95.5004C522.999 94.8004 524.399 93.0004 524.399 90.9004Z" stroke="#10A261" stroke-width="1.1063" stroke-miterlimit="10" stroke-linecap="round" stroke-linejoin="round"/>
<path d="M139.3 424.1H96V466.5H139.3V424.1Z" stroke="#10A261" stroke-width="1.1063" stroke-miterlimit="10" stroke-linecap="round" stroke-linejoin="round"/>
<path d="M104 424.1V414.3C104 406.7 110.2 400.6 117.7 400.6C125.3 400.6 131.4 406.8 131.4 414.3V424.1H137.7V414.3C137.7 403.3 128.7 394.3 117.7 394.3C106.7 394.3 97.7002 403.3 97.7002 414.3V424.1H104Z" stroke="#10A261" stroke-width="1.1063" stroke-miterlimit="10" stroke-linecap="round" stroke-linejoin="round"/>
<path d="M122.7 440.5C122.7 437.7 120.5 435.5 117.7 435.5C114.9 435.5 112.7 437.7 112.7 440.5C112.7 442.6 114 444.4 115.9 445.1V455H119.5V445.1C121.4 444.4 122.7 442.6 122.7 440.5Z" stroke="#1A2E35" stroke-width="1.1063" stroke-miterlimit="10" stroke-linecap="round" stroke-linejoin="round"/>
<path d="M81.6991 369.5C85.5991 367.4 91.4991 359.4 91.4991 359.4C91.5991 359.3 84.9991 357.1 84.5991 357C79.5991 355.9 69.3991 356.8 66.5991 361.7C64.4991 365.2 66.3991 369.5 69.8991 371.1C73.6991 372.7 78.3991 371.3 81.6991 369.5Z" fill="#10A261" stroke="#10A261" stroke-width="1.1063" stroke-miterlimit="10" stroke-linecap="round" stroke-linejoin="round"/>
<path d="M106.599 384.5C109.699 381.5 113.099 372.9 113.399 372.3C118.199 374.2 123.299 375.8 128.499 377.2C131.499 378 134.499 378.7 137.599 379.3C136.199 379.2 134.899 379.1 134.699 379.2C129.599 379.5 119.999 383 118.599 388.5C117.599 392.5 120.399 396.1 124.299 396.7C128.299 397.3 132.499 394.7 135.199 392.1C137.999 389.4 140.999 382.2 141.799 380.2C142.999 380.4 144.099 380.7 145.299 380.9C150.899 382 156.499 383.1 161.999 384.3C163.899 384.7 165.799 385.2 167.699 385.7C166.399 385.6 165.399 385.6 165.199 385.6C160.099 385.9 150.499 389.4 149.099 394.9C148.099 398.9 150.899 402.5 154.799 403.1C158.799 403.7 162.999 401.1 165.699 398.5C168.299 396 171.199 389.3 172.199 387C174.099 387.6 175.999 388.1 177.899 388.7C179.099 389.2 180.399 389.5 181.599 390C182.799 390.5 183.999 391 185.199 391.5C187.499 392.5 189.799 393.6 191.999 394.6C193.499 395.3 194.999 396 196.399 396.8C194.499 396.3 190.699 395.5 190.399 395.5C185.399 395 175.299 397 173.099 402.2C171.499 405.9 173.799 410 177.499 411.2C181.299 412.4 185.899 410.5 188.999 408.3C192.399 405.9 196.899 398.2 197.499 397.3C199.899 398.5 202.199 399.7 204.399 400.8C209.199 403.3 213.499 405.7 216.999 407.8L219.299 404.9C215.599 402.8 211.099 400.4 205.999 397.9C203.599 396.7 200.899 395.4 198.199 394.1C198.399 393.4 199.499 389.5 200.099 385.7C204.399 385.3 211.799 381.7 212.799 381.2C214.099 383.5 215.399 385.8 216.599 388C219.099 392.5 221.199 396.6 222.999 400.2L225.499 397C223.799 393.8 221.799 390.2 219.599 386.3C218.199 383.9 216.699 381.4 215.199 378.9C215.999 378.2 222.799 372.4 224.599 368.6C226.199 365.2 227.299 360.4 225.399 356.8C223.599 353.3 219.199 351.8 215.799 354C211.099 357.1 210.899 367.4 212.199 372.2C212.299 372.5 213.499 375.5 214.299 377.4C213.699 376.4 212.999 375.3 212.399 374.3C211.099 372.2 209.699 370.1 208.199 367.9C207.399 366.8 206.699 365.8 205.899 364.7C205.199 363.6 204.199 362.6 203.399 361.5C201.399 359 199.299 356.6 197.099 354.3C198.899 353.1 205.399 348.9 207.599 345.8C209.699 342.7 211.499 338.1 210.199 334.3C208.899 330.6 204.799 328.4 201.099 330.1C195.999 332.5 194.199 342.6 194.799 347.6C194.799 347.9 195.699 351.5 196.199 353.4C194.899 352 193.599 350.6 192.199 349.2C188.199 345.2 183.999 341.3 179.799 337.3C178.499 336.1 177.299 334.9 175.999 333.7C176.699 333.3 184.499 328.4 186.899 324.9C188.999 321.8 190.799 317.2 189.499 313.4C188.199 309.7 184.099 307.5 180.399 309.2C175.299 311.6 173.499 321.7 174.099 326.7C174.099 327.1 175.399 332.2 175.799 333.5C172.999 330.8 170.299 328.1 167.699 325.4C164.099 321.6 160.799 317.7 157.899 313.6C158.199 313.4 166.399 308.4 168.799 304.8C170.899 301.7 172.699 297.1 171.399 293.3C170.099 289.6 165.999 287.4 162.299 289.1C157.199 291.5 155.399 301.6 155.999 306.6C155.999 307 157.399 312.5 157.699 313.5C157.499 313.3 157.299 313 157.199 312.8C154.099 308.4 151.699 303.8 149.599 299.4C148.399 296.8 147.399 294.3 146.499 291.8C148.099 291 155.499 287.4 157.999 284.4C160.399 281.5 162.699 277.1 161.899 273.2C160.999 269.4 157.199 266.7 153.299 268C147.899 269.8 145.099 279.6 145.099 284.7C145.099 285 145.499 287.8 145.699 289.8C145.299 288.7 144.899 287.5 144.499 286.4C143.099 282.3 142.099 278.5 141.299 275.1C140.799 273.2 140.399 271.4 140.099 269.8C141.299 268.2 145.999 261.7 146.899 257.9C147.699 254.2 147.799 249.3 145.199 246.2C142.699 243.2 138.099 242.6 135.199 245.6C131.299 249.7 133.299 259.7 135.699 264.2C135.899 264.6 139.799 270.3 139.899 270.2L139.999 270.1C140.299 271.7 140.599 273.4 141.099 275.2C141.899 278.6 142.799 282.4 144.099 286.6C145.399 290.7 146.899 295.1 148.899 299.7C150.899 304.2 153.199 308.9 156.299 313.4C156.299 313.5 156.399 313.5 156.399 313.6C155.099 312.6 151.399 309.8 151.099 309.6C146.699 307 136.799 304.6 132.499 308.4C129.399 311.1 129.799 315.7 132.699 318.4C135.699 321.1 140.599 321.3 144.299 320.6C148.499 319.8 156.099 314.5 156.699 314.1C159.599 318.4 162.999 322.5 166.599 326.5C168.699 328.8 170.799 331 172.999 333.3C171.899 332.4 170.799 331.7 170.699 331.6C166.299 329 156.399 326.6 152.099 330.4C148.999 333.1 149.399 337.7 152.299 340.4C155.299 343.1 160.199 343.3 163.899 342.6C167.699 341.9 174.199 337.5 175.999 336.3C176.799 337.1 177.699 338 178.499 338.8C182.599 342.8 186.699 346.8 190.599 350.9C191.999 352.3 193.299 353.8 194.599 355.2C193.599 354.4 192.699 353.8 192.599 353.7C188.199 351.1 178.299 348.7 173.999 352.5C170.899 355.2 171.299 359.8 174.199 362.5C177.199 365.2 182.099 365.4 185.799 364.7C189.399 364 195.499 360 197.599 358.7C198.899 360.2 200.199 361.8 201.399 363.3C202.199 364.4 202.999 365.3 203.699 366.5C204.399 367.6 205.199 368.7 205.899 369.7C207.199 371.8 208.599 374 209.899 376.1C210.799 377.5 211.599 378.9 212.399 380.3C211.099 378.9 208.399 376.1 208.099 375.9C205.499 373.8 200.399 371.4 195.899 370.9C195.499 370.6 195.099 370.3 194.699 370.1C191.299 368.2 186.799 369.3 185.199 373.1C182.999 378.3 188.499 387 192.299 390.3C192.499 390.5 195.199 392.3 196.899 393.5C195.799 393 194.699 392.5 193.599 392C191.299 391 188.999 390 186.599 389C185.399 388.5 184.199 388.1 182.899 387.6C181.699 387.1 180.299 386.7 179.099 386.3C176.099 385.3 172.999 384.5 169.899 383.7C170.799 381.7 173.899 374.6 173.899 370.8C173.899 367 172.899 362.2 169.699 359.8C166.599 357.4 161.999 357.8 159.799 361.3C156.799 366.1 160.899 375.5 164.199 379.4C164.399 379.6 167.099 382.1 168.599 383.5C166.699 383.1 164.799 382.6 162.899 382.2C157.299 381.1 151.699 380.1 145.999 379.1C144.299 378.8 142.599 378.5 140.799 378.2C141.099 377.5 144.999 369.1 144.999 364.9C144.999 361.1 143.999 356.3 140.799 353.9C137.699 351.5 133.099 351.9 130.899 355.4C127.899 360.2 131.999 369.6 135.299 373.5C135.499 373.8 139.399 377.4 140.399 378.2C136.599 377.5 132.799 376.8 129.099 375.9C123.999 374.7 119.099 373.3 114.399 371.5C114.599 371.2 118.599 362.5 118.599 358.1C118.599 354.3 117.599 349.5 114.399 347.1C111.299 344.7 106.699 345.1 104.499 348.6C101.499 353.4 105.599 362.8 108.899 366.7C109.199 367 113.299 370.9 114.099 371.5C113.799 371.4 113.499 371.3 113.199 371.2C108.199 369.3 103.699 366.8 99.4992 364.2C97.0992 362.7 94.8992 361.2 92.6992 359.6C93.5992 358.1 97.7992 350.9 98.1992 347C98.5992 343.2 98.0992 338.3 95.2992 335.6C92.4992 332.9 87.7992 332.8 85.2992 336C81.7992 340.5 84.8992 350.2 87.6992 354.4C87.8992 354.6 89.6992 356.8 90.9992 358.3C89.9992 357.6 88.9992 356.9 88.0992 356.2C84.6992 353.6 81.7992 350.9 79.1992 348.6C77.6992 347.3 76.4992 346 75.2992 344.8C75.3992 342.8 75.7992 334.8 74.3992 331.2C73.0992 327.7 70.3992 323.5 66.4992 322.4C62.6992 321.3 58.5992 323.4 57.7992 327.4C56.7992 333 63.9992 340.2 68.3992 342.7C68.7992 342.9 75.1992 345.5 75.1992 345.4V345.3C76.2992 346.5 77.5992 347.7 78.8992 349C81.3992 351.4 84.2992 354.1 87.6992 356.8C90.9992 359.5 94.6992 362.4 98.8992 365.1C103.099 367.8 107.599 370.4 112.599 372.5C112.699 372.5 112.699 372.5 112.799 372.6C111.099 372.4 106.499 372.2 106.099 372.2C100.999 372.5 91.3992 376 89.9992 381.4C88.9992 385.4 91.7992 389 95.6992 389.6C99.6992 389.7 103.899 387.1 106.599 384.5Z" fill="#10A261" stroke="#10A261" stroke-width="1.1063" stroke-miterlimit="10" stroke-linecap="round" stroke-linejoin="round"/>
<path d="M145.199 291.3C145.299 291.3 141.099 285.8 140.799 285.5C137.299 281.9 128.299 276.9 123.199 279.5C119.499 281.3 118.699 285.9 120.799 289.2C122.899 292.6 127.599 294 131.399 294.4C135.899 294.7 145.199 291.3 145.199 291.3Z" fill="#10A261" stroke="#10A261" stroke-width="1.1063" stroke-miterlimit="10" stroke-linecap="round" stroke-linejoin="round"/>
<path d="M547.099 369.5C543.199 367.4 537.299 359.4 537.299 359.4C537.199 359.3 543.799 357.1 544.199 357C549.199 355.9 559.399 356.8 562.199 361.7C564.299 365.2 562.399 369.5 558.899 371.1C555.199 372.7 550.499 371.3 547.099 369.5Z" fill="#10A261" stroke="#10A261" stroke-width="1.1063" stroke-miterlimit="10" stroke-linecap="round" stroke-linejoin="round"/>
<path d="M522.199 384.5C519.099 381.5 515.699 372.9 515.399 372.3C510.599 374.2 505.499 375.8 500.299 377.2C497.299 378 494.299 378.7 491.199 379.3C492.599 379.2 493.899 379.1 494.099 379.2C499.199 379.5 508.799 383 510.199 388.5C511.199 392.5 508.399 396.1 504.499 396.7C500.499 397.3 496.299 394.7 493.599 392.1C490.799 389.4 487.799 382.2 486.999 380.2C485.799 380.4 484.699 380.7 483.499 380.9C477.899 382 472.299 383.1 466.799 384.3C464.899 384.7 462.999 385.2 461.099 385.7C462.399 385.6 463.399 385.6 463.599 385.6C468.699 385.9 478.299 389.4 479.699 394.9C480.699 398.9 477.899 402.5 473.999 403.1C469.999 403.7 465.799 401.1 463.099 398.5C460.499 396 457.599 389.3 456.599 387C454.699 387.6 452.799 388.1 450.899 388.7C449.699 389.2 448.399 389.5 447.199 390C445.999 390.5 444.799 391 443.599 391.5C441.299 392.5 438.999 393.6 436.799 394.6C435.299 395.3 433.799 396 432.399 396.8C434.299 396.3 438.099 395.5 438.399 395.5C443.399 395 453.499 397 455.699 402.2C457.299 405.9 454.999 410 451.299 411.2C447.499 412.4 442.899 410.5 439.799 408.3C436.399 405.9 431.899 398.2 431.299 397.3C428.899 398.5 426.599 399.7 424.399 400.8C419.599 403.3 415.299 405.7 411.799 407.8L409.499 404.9C413.199 402.8 417.699 400.4 422.799 397.9C425.199 396.7 427.899 395.4 430.599 394.1C430.399 393.4 429.299 389.5 428.699 385.7C424.399 385.3 416.999 381.7 415.999 381.2C414.699 383.5 413.399 385.8 412.199 388C409.699 392.5 407.599 396.6 405.799 400.2L403.299 397C404.999 393.8 406.999 390.2 409.199 386.3C410.599 383.9 412.099 381.4 413.599 378.9C412.799 378.2 405.999 372.4 404.199 368.6C402.599 365.2 401.499 360.4 403.399 356.8C405.199 353.3 409.599 351.8 412.999 354C417.699 357.1 417.899 367.4 416.599 372.2C416.499 372.5 415.299 375.5 414.499 377.4C415.099 376.4 415.799 375.3 416.399 374.3C417.699 372.2 419.099 370.1 420.599 367.9C421.399 366.8 422.099 365.8 422.899 364.7C423.599 363.6 424.599 362.6 425.399 361.5C427.399 359 429.499 356.6 431.699 354.3C429.899 353.1 423.399 348.9 421.199 345.8C419.099 342.7 417.299 338.1 418.599 334.3C419.899 330.6 423.999 328.4 427.699 330.1C432.799 332.5 434.599 342.6 433.999 347.6C433.999 347.9 433.099 351.5 432.599 353.4C433.899 352 435.199 350.6 436.599 349.2C440.599 345.2 444.799 341.3 448.999 337.3C450.299 336.1 451.499 334.9 452.799 333.7C452.099 333.3 444.299 328.4 441.899 324.9C439.799 321.8 437.999 317.2 439.299 313.4C440.599 309.7 444.699 307.5 448.399 309.2C453.499 311.6 455.299 321.7 454.699 326.7C454.699 327.1 453.399 332.2 452.999 333.5C455.799 330.8 458.499 328.1 461.099 325.4C464.699 321.6 467.999 317.7 470.899 313.6C470.599 313.4 462.399 308.4 459.999 304.8C457.899 301.7 456.099 297.1 457.399 293.3C458.699 289.6 462.799 287.4 466.499 289.1C471.599 291.5 473.399 301.6 472.799 306.6C472.799 307 471.399 312.5 471.099 313.5C471.299 313.3 471.499 313 471.599 312.8C474.699 308.4 477.099 303.8 479.199 299.4C480.399 296.8 481.399 294.3 482.299 291.8C480.699 291 473.299 287.4 470.799 284.4C468.399 281.5 466.099 277.1 466.899 273.2C467.799 269.4 471.599 266.7 475.499 268C480.899 269.8 483.699 279.6 483.699 284.7C483.699 285 483.299 287.8 483.099 289.8C483.499 288.7 483.899 287.5 484.299 286.4C485.699 282.3 486.699 278.5 487.499 275.1C487.999 273.2 488.399 271.4 488.699 269.8C487.499 268.2 482.799 261.7 481.899 257.9C481.099 254.2 480.999 249.3 483.599 246.2C486.099 243.2 490.699 242.6 493.599 245.6C497.499 249.7 495.499 259.7 493.099 264.2C492.899 264.6 488.999 270.3 488.899 270.2L488.799 270.1C488.499 271.7 488.199 273.4 487.699 275.2C486.899 278.6 485.999 282.4 484.699 286.6C483.399 290.7 481.899 295.1 479.899 299.7C477.899 304.2 475.599 308.9 472.499 313.4C472.499 313.5 472.399 313.5 472.399 313.6C473.699 312.6 477.399 309.8 477.699 309.6C482.099 307 491.999 304.6 496.299 308.4C499.399 311.1 498.999 315.7 496.099 318.4C493.099 321.1 488.199 321.3 484.499 320.6C480.299 319.8 472.699 314.5 472.099 314.1C469.199 318.4 465.799 322.5 462.199 326.5C460.099 328.8 457.999 331 455.799 333.3C456.899 332.4 457.999 331.7 458.099 331.6C462.499 329 472.399 326.6 476.699 330.4C479.799 333.1 479.399 337.7 476.499 340.4C473.499 343.1 468.599 343.3 464.899 342.6C461.099 341.9 454.599 337.5 452.799 336.3C451.999 337.1 451.099 338 450.299 338.8C446.199 342.8 442.099 346.8 438.199 350.9C436.799 352.3 435.499 353.8 434.199 355.2C435.199 354.4 436.099 353.8 436.199 353.7C440.599 351.1 450.499 348.7 454.799 352.5C457.899 355.2 457.499 359.8 454.599 362.5C451.599 365.2 446.699 365.4 442.999 364.7C439.399 364 433.299 360 431.199 358.7C429.899 360.2 428.599 361.8 427.399 363.3C426.599 364.4 425.799 365.3 425.099 366.5C424.399 367.6 423.599 368.7 422.899 369.7C421.599 371.8 420.199 374 418.899 376.1C417.999 377.5 417.199 378.9 416.399 380.3C417.699 378.9 420.399 376.1 420.699 375.9C423.299 373.8 428.399 371.4 432.899 370.9C433.299 370.6 433.699 370.3 434.099 370.1C437.499 368.2 441.999 369.3 443.599 373.1C445.799 378.3 440.299 387 436.499 390.3C436.299 390.5 433.599 392.3 431.899 393.5C432.999 393 434.099 392.5 435.199 392C437.499 391 439.799 390 442.199 389C443.399 388.5 444.599 388.1 445.899 387.6C447.099 387.1 448.499 386.7 449.699 386.3C452.699 385.3 455.799 384.5 458.899 383.7C457.999 381.7 454.899 374.6 454.899 370.8C454.899 367 455.899 362.2 459.099 359.8C462.199 357.4 466.799 357.8 468.999 361.3C471.999 366.1 467.899 375.5 464.599 379.4C464.399 379.6 461.699 382.1 460.199 383.5C462.099 383.1 463.999 382.6 465.899 382.2C471.499 381.1 477.099 380.1 482.799 379.1C484.499 378.8 486.199 378.5 487.999 378.2C487.699 377.5 483.799 369.1 483.799 364.9C483.799 361.1 484.799 356.3 487.999 353.9C491.099 351.5 495.699 351.9 497.899 355.4C500.899 360.2 496.799 369.6 493.499 373.5C493.299 373.8 489.399 377.4 488.399 378.2C492.199 377.5 495.999 376.8 499.699 375.9C504.799 374.7 509.699 373.3 514.399 371.5C514.199 371.2 510.199 362.5 510.199 358.1C510.199 354.3 511.199 349.5 514.399 347.1C517.499 344.7 522.099 345.1 524.299 348.6C527.299 353.4 523.199 362.8 519.899 366.7C519.599 367 515.499 370.9 514.699 371.5C514.999 371.4 515.299 371.3 515.599 371.2C520.599 369.3 525.099 366.8 529.299 364.2C531.699 362.7 533.899 361.2 536.099 359.6C535.199 358.1 530.999 350.9 530.599 347C530.199 343.2 530.699 338.3 533.499 335.6C536.299 332.9 540.999 332.8 543.499 336C546.999 340.5 543.899 350.2 541.099 354.4C540.899 354.6 539.099 356.8 537.799 358.3C538.799 357.6 539.799 356.9 540.699 356.2C544.099 353.6 546.999 350.9 549.599 348.6C551.099 347.3 552.299 346 553.499 344.8C553.399 342.8 552.999 334.8 554.399 331.2C555.699 327.7 558.399 323.5 562.299 322.4C566.099 321.3 570.199 323.4 570.999 327.4C571.999 333 564.799 340.2 560.399 342.7C559.999 342.9 553.599 345.5 553.599 345.4V345.3C552.499 346.5 551.199 347.7 549.899 349C547.399 351.4 544.499 354.1 541.099 356.8C537.799 359.5 534.099 362.4 529.899 365.1C525.699 367.8 521.199 370.4 516.199 372.5C516.099 372.5 516.099 372.5 515.999 372.6C517.699 372.4 522.299 372.2 522.699 372.2C527.799 372.5 537.399 376 538.799 381.4C539.799 385.4 536.999 389 533.099 389.6C529.199 389.7 524.999 387.1 522.199 384.5Z" fill="#10A261" stroke="#10A261" stroke-width="1.1063" stroke-miterlimit="10" stroke-linecap="round" stroke-linejoin="round"/>
<path d="M483.699 291.3C483.599 291.3 487.799 285.8 488.099 285.5C491.599 281.9 500.599 276.9 505.699 279.5C509.399 281.3 510.199 285.9 508.099 289.2C505.999 292.6 501.299 294 497.499 294.4C492.999 294.7 483.699 291.3 483.699 291.3Z" fill="#10A261" stroke="#10A261" stroke-width="1.1063" stroke-miterlimit="10" stroke-linecap="round" stroke-linejoin="round"/>
<path d="M451.3 115.3V101H441.9L179.8 363.1V386.9L451.3 115.3Z" fill="white"/>
<path d="M179.8 175.4V268.5L347.3 101H254.2L179.8 175.4Z" fill="white"/>
<path d="M410.9 460.5L451.3 420.1V326.9L317.8 460.5H410.9Z" fill="white"/>
<path d="M460.6 486.3H170.5C164.9 486.3 160.3 481.7 160.3 476.1V85.4002C160.3 79.8002 164.9 75.2002 170.5 75.2002H460.6C466.2 75.2002 470.8 79.8002 470.8 85.4002V476.1C470.8 481.7 466.2 486.3 460.6 486.3Z" fill="#020202"/>
<path d="M451.3 101H179.8V460.5H451.3V101Z" fill="white" stroke="black" stroke-miterlimit="10"/>
<path opacity="0.2" d="M160.3 138.2V253.3L338.3 75.2002H223.3L160.3 138.2Z" fill="#E5E5E5" stroke="black" stroke-miterlimit="10"/>
<path opacity="0.2" d="M470.8 88.8998V85.2998C470.8 79.7998 466.3 75.2998 460.8 75.2998H455.1L160.3 370.1V399.4L470.8 88.8998Z" fill="#E5E5E5" stroke="black" stroke-miterlimit="10"/>
<path opacity="0.2" d="M470.8 465.2V350.2L334.8 486.3H449.8L470.8 465.2Z" fill="#E5E5E5" stroke="black" stroke-miterlimit="10"/>
<path d="M379.199 242.4H251.899V264H379.199V242.4Z" fill="white" stroke="#1A2E35" stroke-width="1.1063" stroke-miterlimit="10" stroke-linecap="round" stroke-linejoin="round"/>
<path d="M379.199 282.601H251.899V304.201H379.199V282.601Z" fill="white" stroke="#1A2E35" stroke-width="1.1063" stroke-miterlimit="10" stroke-linecap="round" stroke-linejoin="round"/>
<path d="M345.399 344.7H285.799C283.099 344.7 280.999 342.5 280.999 339.9V328C280.999 325.3 283.199 323.2 285.799 323.2H345.399C348.099 323.2 350.199 325.4 350.199 328V339.9C350.199 342.5 347.999 344.7 345.399 344.7Z" fill="#10A261" stroke="#020202" stroke-width="1.1063" stroke-miterlimit="10" stroke-linecap="round" stroke-linejoin="round"/>
<path d="M337.4 174.3C337.4 181.3 334.1 187.5 329 191.5C325.3 194.4 320.6 196.2 315.5 196.2C310.4 196.2 305.7 194.5 302 191.5C296.9 187.5 293.6 181.3 293.6 174.3C293.6 162.2 303.4 152.4 315.5 152.4C327.6 152.4 337.4 162.2 337.4 174.3Z" fill="white" stroke="#10A261" stroke-width="1.1063" stroke-miterlimit="10" stroke-linecap="round" stroke-linejoin="round"/>
<path d="M321.937 177.345C325.49 173.791 325.49 168.029 321.937 164.476C318.383 160.922 312.621 160.922 309.067 164.476C305.514 168.029 305.514 173.791 309.067 177.345C312.621 180.898 318.383 180.898 321.937 177.345Z" fill="#10A261" stroke="#10A261" stroke-width="1.1063" stroke-miterlimit="10" stroke-linecap="round" stroke-linejoin="round"/>
<path d="M329 191.501C325.3 194.401 320.6 196.201 315.5 196.201C310.4 196.201 305.7 194.501 302 191.501C303.4 185.301 308.9 180.601 315.5 180.601C322.1 180.701 327.7 185.301 329 191.501Z" fill="#10A261" stroke="#10A261" stroke-width="1.1063" stroke-miterlimit="10" stroke-linecap="round" stroke-linejoin="round"/>
<path d="M302.399 221.5V211.9H304.099V220.2H306.399V221.4H302.399V221.5Z" fill="#020202"/>
<path d="M309.799 221.601C309.099 221.601 308.599 221.501 308.199 221.201C307.799 220.901 307.499 220.601 307.299 220.101C307.099 219.601 306.999 219.101 306.999 218.401V214.801C306.999 214.201 307.099 213.601 307.299 213.101C307.499 212.601 307.799 212.301 308.199 212.001C308.599 211.801 309.099 211.601 309.799 211.601C310.499 211.601 310.999 211.701 311.399 212.001C311.799 212.201 312.099 212.601 312.299 213.101C312.499 213.601 312.599 214.101 312.599 214.801V218.401C312.599 219.001 312.499 219.601 312.299 220.101C312.099 220.601 311.799 220.901 311.399 221.201C311.099 221.501 310.499 221.601 309.799 221.601ZM309.799 220.301C310.099 220.301 310.299 220.201 310.399 220.101C310.499 220.001 310.599 219.801 310.699 219.601C310.699 219.401 310.799 219.101 310.799 218.901V214.501C310.799 214.201 310.799 214.001 310.699 213.801C310.699 213.601 310.599 213.401 310.399 213.301C310.299 213.201 309.999 213.101 309.799 213.101C309.499 213.101 309.299 213.201 309.199 213.301C309.099 213.401 308.999 213.601 308.899 213.801C308.899 214.001 308.799 214.301 308.799 214.501V218.901C308.799 219.201 308.799 219.401 308.899 219.601C308.899 219.801 308.999 220.001 309.199 220.101C309.299 220.201 309.499 220.301 309.799 220.301Z" fill="#020202"/>
<path d="M316.3 221.6C315.7 221.6 315.2 221.5 314.8 221.2C314.4 220.9 314.2 220.6 314 220.1C313.8 219.6 313.8 219 313.8 218.4V215.2C313.8 214.5 313.9 213.9 314 213.4C314.2 212.9 314.4 212.5 314.8 212.3C315.2 212 315.7 211.9 316.4 211.9C317.1 211.9 317.6 212 318 212.2C318.4 212.4 318.7 212.7 318.8 213.1C319 213.5 319.1 214 319.1 214.6V215.1H317.4V214.6C317.4 214.3 317.4 214 317.3 213.8C317.3 213.6 317.2 213.4 317 213.3C316.9 213.2 316.7 213.1 316.4 213.1C316.1 213.1 315.9 213.2 315.7 213.3C315.6 213.4 315.5 213.6 315.4 213.9C315.4 214.1 315.3 214.4 315.3 214.7V218.7C315.3 219 315.3 219.3 315.4 219.6C315.5 219.8 315.6 220 315.7 220.2C315.8 220.3 316.1 220.4 316.3 220.4C316.6 220.4 316.8 220.3 316.9 220.2C317 220.1 317.2 219.9 317.2 219.6C317.3 219.3 317.3 219.1 317.3 218.7V217.8H316.3V216.7H318.9V221.5H318L317.9 220.6C317.8 220.9 317.6 221.2 317.3 221.4C317.1 221.5 316.7 221.6 316.3 221.6Z" fill="#020202"/>
<path d="M320.499 221.5V211.9H322.199V221.5H320.499Z" fill="#020202"/>
<path d="M323.699 221.5V211.9H324.899L327.199 217.3V211.9H328.599V221.5H327.399L325.099 215.8V221.5H323.699Z" fill="#020202"/>
<path d="M294.999 258.7C294.299 258.7 293.799 258.6 293.399 258.3C292.999 258 292.799 257.6 292.599 257.1C292.499 256.6 292.399 256 292.399 255.3V249H293.699V255.4C293.699 255.8 293.699 256.2 293.799 256.5C293.899 256.8 293.999 257.1 294.199 257.3C294.399 257.5 294.699 257.6 294.999 257.6C295.399 257.6 295.699 257.5 295.799 257.3C295.999 257.1 296.099 256.8 296.199 256.5C296.299 256.2 296.299 255.8 296.299 255.4V249H297.599V255.3C297.599 256 297.499 256.6 297.399 257.1C297.299 257.6 296.999 258 296.699 258.3C296.199 258.6 295.699 258.7 294.999 258.7Z" fill="#CCCCCC"/>
<path d="M301.199 258.7C300.599 258.7 300.199 258.6 299.799 258.3C299.399 258.1 299.199 257.7 298.999 257.3C298.799 256.9 298.699 256.4 298.699 255.8L299.899 255.5C299.899 255.8 299.999 256.2 300.099 256.5C300.199 256.8 300.299 257.1 300.499 257.3C300.699 257.5 300.999 257.6 301.299 257.6C301.599 257.6 301.899 257.5 302.099 257.3C302.299 257.1 302.399 256.8 302.399 256.5C302.399 256.1 302.299 255.7 302.099 255.5C301.899 255.2 301.699 255 301.399 254.7L299.799 253.3C299.499 253 299.299 252.7 299.099 252.4C298.999 252.1 298.899 251.7 298.899 251.2C298.899 250.5 299.099 250 299.499 249.6C299.899 249.2 300.399 249 301.099 249C301.499 249 301.799 249 302.099 249.1C302.399 249.2 302.599 249.3 302.799 249.6C302.999 249.8 303.099 250.1 303.299 250.4C303.399 250.7 303.499 251.1 303.499 251.5L302.399 251.8C302.399 251.5 302.299 251.2 302.299 250.9C302.199 250.6 302.099 250.4 301.899 250.3C301.699 250.1 301.499 250.1 301.099 250.1C300.699 250.1 300.499 250.2 300.299 250.4C300.099 250.6 299.999 250.8 299.999 251.2C299.999 251.5 299.999 251.7 300.099 251.9C300.199 252.1 300.399 252.3 300.599 252.5L302.199 253.9C302.599 254.2 302.899 254.6 303.199 255C303.499 255.4 303.599 256 303.599 256.6C303.599 257.1 303.499 257.5 303.299 257.8C303.099 258.1 302.799 258.4 302.499 258.6C301.999 258.6 301.599 258.7 301.199 258.7Z" fill="#CCCCCC"/>
<path d="M304.499 258.6V249H308.199V250H305.799V253.2H307.699V254.1H305.799V257.6H308.199V258.6H304.499Z" fill="#CCCCCC"/>
<path d="M309.3 258.6V249H311.2C311.8 249 312.4 249.1 312.8 249.3C313.2 249.5 313.5 249.7 313.7 250.1C313.9 250.5 314 251 314 251.6C314 252 314 252.3 313.9 252.6C313.8 252.9 313.7 253.2 313.5 253.4C313.3 253.6 313.1 253.8 312.8 253.9L314.2 258.7H312.9L311.6 254.2H310.6V258.7H309.3V258.6ZM310.6 253.2H311.1C311.5 253.2 311.8 253.2 312 253.1C312.2 253 312.4 252.8 312.5 252.6C312.6 252.4 312.7 252.1 312.7 251.6C312.7 251 312.6 250.6 312.4 250.4C312.2 250.2 311.8 250 311.2 250H310.6V253.2Z" fill="#CCCCCC"/>
<path d="M315.399 258.6V249H316.299L318.999 255.3V249H320.099V258.6H319.299L316.599 252.1V258.6H315.399Z" fill="#CCCCCC"/>
<path d="M321.1 258.6L323.1 249H324.4L326.4 258.6H325.1L324.7 256.2H322.8L322.3 258.6H321.1ZM323 255.2H324.6L323.8 250.9L323 255.2Z" fill="#CCCCCC"/>
<path d="M327.399 258.6L327.599 249H328.899L330.599 256.7L332.299 249H333.599L333.799 258.6H332.699L332.599 251.7L330.999 258.6H330.199L328.599 251.7L328.499 258.6H327.399Z" fill="#CCCCCC"/>
<path d="M335.199 258.6V249H338.899V250H336.499V253.2H338.399V254.1H336.499V257.6H338.899V258.6H335.199Z" fill="#CCCCCC"/>
<path d="M291.6 298.1V288.5H294C294.6 288.5 295 288.6 295.4 288.8C295.7 289 296 289.3 296.1 289.7C296.3 290.1 296.3 290.6 296.3 291.1C296.3 291.6 296.2 292 296 292.4C295.8 292.8 295.6 293.1 295.2 293.3C294.9 293.5 294.4 293.6 293.9 293.6H292.9V298H291.6V298.1ZM292.9 292.7H293.5C293.9 292.7 294.2 292.7 294.4 292.6C294.6 292.5 294.8 292.4 294.9 292.1C295 291.9 295 291.6 295 291.2C295 290.7 295 290.4 294.9 290.2C294.8 290 294.7 289.8 294.5 289.7C294.3 289.6 294 289.6 293.5 289.6H292.9V292.7Z" fill="#CCCCCC"/>
<path d="M296.3 298.1L298.3 288.5H299.6L301.6 298.1H300.3L299.9 295.7H298L297.5 298.1H296.3ZM298.2 294.8H299.8L299 290.5L298.2 294.8Z" fill="#CCCCCC"/>
<path d="M304.899 298.2C304.299 298.2 303.899 298.1 303.499 297.8C303.099 297.6 302.899 297.2 302.699 296.8C302.499 296.4 302.399 295.9 302.399 295.3L303.599 295C303.599 295.3 303.699 295.7 303.799 296C303.899 296.3 303.999 296.6 304.199 296.8C304.399 297 304.699 297.1 304.999 297.1C305.299 297.1 305.599 297 305.799 296.8C305.999 296.6 306.099 296.3 306.099 296C306.099 295.6 305.999 295.2 305.799 295C305.599 294.7 305.399 294.5 305.099 294.2L303.499 292.8C303.199 292.5 302.999 292.2 302.799 291.9C302.699 291.6 302.599 291.2 302.599 290.7C302.599 290 302.799 289.5 303.199 289.1C303.599 288.7 304.099 288.5 304.799 288.5C305.199 288.5 305.499 288.5 305.799 288.6C306.099 288.7 306.299 288.8 306.499 289.1C306.699 289.3 306.799 289.6 306.999 289.9C307.099 290.2 307.199 290.6 307.199 291L306.099 291.3C306.099 291 305.999 290.7 305.999 290.4C305.899 290.1 305.799 289.9 305.599 289.8C305.399 289.6 305.199 289.6 304.799 289.6C304.499 289.6 304.199 289.7 303.999 289.9C303.799 290.1 303.699 290.3 303.699 290.7C303.699 291 303.699 291.2 303.799 291.4C303.899 291.6 304.099 291.8 304.299 292L305.899 293.4C306.299 293.7 306.599 294.1 306.899 294.5C307.199 294.9 307.299 295.5 307.299 296.1C307.299 296.6 307.199 297 306.999 297.3C306.799 297.6 306.499 297.9 306.199 298.1C305.699 298.1 305.299 298.2 304.899 298.2Z" fill="#CCCCCC"/>
<path d="M310.399 298.2C309.799 298.2 309.399 298.1 308.999 297.8C308.599 297.6 308.399 297.2 308.199 296.8C307.999 296.4 307.899 295.9 307.899 295.3L309.099 295C309.099 295.3 309.199 295.7 309.299 296C309.399 296.3 309.499 296.6 309.699 296.8C309.899 297 310.199 297.1 310.499 297.1C310.799 297.1 311.099 297 311.299 296.8C311.499 296.6 311.599 296.3 311.599 296C311.599 295.6 311.499 295.2 311.299 295C311.099 294.7 310.899 294.5 310.599 294.2L308.999 292.8C308.699 292.5 308.499 292.2 308.299 291.9C308.199 291.6 308.099 291.2 308.099 290.7C308.099 290 308.299 289.5 308.699 289.1C309.099 288.7 309.599 288.5 310.299 288.5C310.699 288.5 310.999 288.5 311.299 288.6C311.599 288.7 311.799 288.8 311.999 289.1C312.199 289.3 312.299 289.6 312.499 289.9C312.599 290.2 312.699 290.6 312.699 291L311.599 291.3C311.599 291 311.499 290.7 311.499 290.4C311.399 290.1 311.299 289.9 311.099 289.8C310.899 289.6 310.699 289.6 310.299 289.6C309.999 289.6 309.699 289.7 309.499 289.9C309.299 290.1 309.199 290.3 309.199 290.7C309.199 291 309.199 291.2 309.299 291.4C309.399 291.6 309.599 291.8 309.799 292L311.399 293.4C311.799 293.7 312.099 294.1 312.399 294.5C312.699 294.9 312.799 295.5 312.799 296.1C312.799 296.6 312.699 297 312.499 297.3C312.299 297.6 311.999 297.9 311.699 298.1C311.299 298.1 310.899 298.2 310.399 298.2Z" fill="#CCCCCC"/>
<path d="M314.999 298.1L313.399 288.5H314.499L315.499 295.4L316.799 288.6H317.699L318.999 295.5L319.999 288.6H321.099L319.599 298.2H318.599L317.299 291.1L315.999 298.2H314.999V298.1Z" fill="#CCCCCC"/>
<path d="M324.699 298.2C324.099 298.2 323.499 298.1 323.199 297.8C322.799 297.5 322.499 297.2 322.399 296.7C322.199 296.2 322.199 295.7 322.199 295.1V291.5C322.199 290.9 322.299 290.3 322.499 289.9C322.699 289.4 322.899 289.1 323.299 288.9C323.699 288.7 324.199 288.5 324.799 288.5C325.399 288.5 325.999 288.6 326.299 288.9C326.699 289.1 326.999 289.5 327.099 289.9C327.299 290.3 327.399 290.9 327.399 291.5V295.1C327.399 295.7 327.299 296.3 327.099 296.7C326.899 297.2 326.699 297.5 326.299 297.8C325.899 298.1 325.399 298.2 324.699 298.2ZM324.699 297.2C325.099 297.2 325.299 297.1 325.499 297C325.699 296.9 325.799 296.7 325.899 296.4C325.999 296.1 325.999 295.8 325.999 295.5V291.3C325.999 290.9 325.999 290.6 325.899 290.4C325.799 290.1 325.699 289.9 325.499 289.8C325.299 289.7 325.099 289.6 324.699 289.6C324.299 289.6 324.099 289.7 323.899 289.8C323.699 289.9 323.599 290.1 323.499 290.4C323.399 290.7 323.399 291 323.399 291.3V295.5C323.399 295.9 323.399 296.2 323.499 296.4C323.599 296.7 323.699 296.9 323.899 297C324.099 297.1 324.399 297.2 324.699 297.2Z" fill="#CCCCCC"/>
<path d="M328.6 298.1V288.5H330.5C331.1 288.5 331.7 288.6 332.1 288.8C332.5 289 332.8 289.2 333 289.6C333.2 290 333.3 290.5 333.3 291.1C333.3 291.5 333.3 291.8 333.2 292.1C333.1 292.4 333 292.7 332.8 292.9C332.6 293.1 332.4 293.3 332.1 293.4L333.5 298.2H332.2L331 293.7H330V298.2H328.6V298.1ZM330 292.7H330.5C330.9 292.7 331.2 292.7 331.4 292.6C331.6 292.5 331.8 292.3 331.9 292.1C332 291.9 332.1 291.6 332.1 291.1C332.1 290.5 332 290.1 331.8 289.9C331.6 289.7 331.2 289.5 330.6 289.5H330V292.7Z" fill="#CCCCCC"/>
<path d="M334.8 298.1V288.5H336.9C337.6 288.5 338.2 288.6 338.6 288.8C339 289 339.3 289.3 339.5 289.8C339.7 290.2 339.8 290.8 339.8 291.4V294.9C339.8 295.6 339.7 296.1 339.5 296.6C339.3 297.1 339 297.4 338.6 297.7C338.2 297.9 337.7 298.1 337 298.1H334.8ZM336.1 297.2H336.9C337.4 297.2 337.7 297.1 337.9 296.9C338.1 296.7 338.2 296.4 338.3 296.1C338.3 295.7 338.4 295.3 338.4 294.8V291.7C338.4 291.2 338.4 290.8 338.3 290.5C338.2 290.2 338.1 290 337.9 289.8C337.7 289.7 337.4 289.6 336.9 289.6H336.2V297.2H336.1Z" fill="#CCCCCC"/>
<path d="M301.399 338.2C300.799 338.2 300.299 338.1 299.999 337.9C299.599 337.7 299.299 337.3 299.099 336.9C298.899 336.5 298.799 335.9 298.799 335.3L300.299 335C300.299 335.4 300.399 335.7 300.399 336C300.499 336.3 300.599 336.5 300.699 336.7C300.899 336.9 301.099 336.9 301.299 336.9C301.599 336.9 301.799 336.8 301.899 336.6C301.999 336.4 302.099 336.2 302.099 336C302.099 335.6 301.999 335.2 301.799 335C301.599 334.7 301.399 334.5 300.999 334.2L299.799 333.1C299.499 332.8 299.199 332.5 298.999 332.1C298.799 331.7 298.699 331.3 298.699 330.8C298.699 330 298.899 329.5 299.399 329.1C299.799 328.7 300.399 328.5 301.199 328.5C301.599 328.5 301.999 328.6 302.299 328.7C302.599 328.8 302.799 329 302.999 329.3C303.199 329.5 303.299 329.8 303.399 330.1C303.499 330.4 303.499 330.7 303.599 331.1L302.099 331.4C302.099 331.1 302.099 330.8 301.999 330.6C301.899 330.4 301.899 330.2 301.699 330C301.599 329.9 301.399 329.8 301.099 329.8C300.799 329.8 300.599 329.9 300.499 330.1C300.399 330.3 300.299 330.5 300.299 330.7C300.299 331 300.399 331.3 300.499 331.5C300.599 331.7 300.799 331.9 301.099 332.1L302.299 333.1C302.699 333.4 302.999 333.8 303.299 334.3C303.599 334.7 303.699 335.3 303.699 335.9C303.699 336.4 303.599 336.8 303.399 337.1C303.199 337.5 302.899 337.7 302.599 337.9C302.299 338.1 301.899 338.2 301.399 338.2Z" fill="#E5E5E5"/>
<path d="M304.799 338.1V328.5H306.499V338.1H304.799Z" fill="#E5E5E5"/>
<path d="M310.399 338.2C309.799 338.2 309.299 338.1 308.899 337.8C308.499 337.5 308.299 337.2 308.099 336.7C307.899 336.2 307.899 335.6 307.899 335V331.8C307.899 331.1 307.999 330.5 308.099 330C308.299 329.5 308.499 329.1 308.899 328.9C309.299 328.6 309.799 328.5 310.499 328.5C311.199 328.5 311.699 328.6 312.099 328.8C312.499 329 312.799 329.3 312.899 329.8C313.099 330.2 313.199 330.7 313.199 331.3V331.8H311.499V331.3C311.499 331 311.499 330.7 311.399 330.5C311.399 330.3 311.299 330.1 311.099 330C310.999 329.9 310.799 329.8 310.499 329.8C310.199 329.8 309.999 329.9 309.799 330C309.699 330.1 309.599 330.3 309.499 330.6C309.499 330.8 309.399 331.1 309.399 331.4V335.4C309.399 335.7 309.399 336 309.499 336.3C309.599 336.5 309.699 336.7 309.799 336.9C309.899 337 310.199 337.1 310.399 337.1C310.699 337.1 310.899 337 310.999 336.9C311.099 336.8 311.299 336.6 311.299 336.3C311.399 336 311.399 335.8 311.399 335.4V334.5H310.399V333.4H312.999V338.2H311.899L311.799 337.3C311.699 337.6 311.499 337.9 311.199 338.1C311.199 338.1 310.799 338.2 310.399 338.2Z" fill="#E5E5E5"/>
<path d="M314.6 338.1V328.5H315.8L318.1 333.9V328.5H319.5V338.1H318.3L316 332.4V338.1H314.6Z" fill="#E5E5E5"/>
<path d="M323.899 338.1V328.5H325.599V338.1H323.899Z" fill="#E5E5E5"/>
<path d="M327.1 338.1V328.5H328.3L330.6 333.9V328.5H332V338.1H330.8L328.5 332.4V338.1H327.1Z" fill="#E5E5E5"/>
<path d="M445.899 182.001C445.899 182.001 444.499 193.001 444.999 194.601C445.499 196.201 448.699 202.501 448.899 203.001C449.099 203.501 445.199 206.901 445.899 208.401C446.599 210.001 450.499 211.901 450.499 211.901C450.499 211.901 460 222.801 461.2 222.601C462.4 222.401 466.999 220.001 466.999 220.001L469.6 226.101L495.7 215.101L487.799 202.101C487.799 202.101 479.599 181.301 471.899 174.601C464.199 167.901 449.099 174.401 445.899 182.001Z" fill="white" stroke="black" stroke-width="1.1063" stroke-miterlimit="10" stroke-linecap="round" stroke-linejoin="round"/>
<path d="M461.199 222.601L467.799 215.501L466.999 220.001L461.199 222.601Z" fill="#020202" stroke="black" stroke-width="1.1063" stroke-miterlimit="10" stroke-linecap="round" stroke-linejoin="round"/>
<path d="M447.499 199.5C447.499 199.5 450.499 206.2 448.699 207.2C446.899 208.2 443.399 201.9 443.399 201.9L459.999 191.4" stroke="black" stroke-width="1.1063" stroke-miterlimit="10" stroke-linecap="round" stroke-linejoin="round"/>
<path d="M452.999 211.201C452.999 211.201 455.599 210.001 454.599 206.601" stroke="black" stroke-width="1.1063" stroke-miterlimit="10" stroke-linecap="round" stroke-linejoin="round"/>
<path d="M446.8 195.4C446.8 195.4 446.8 193.1 449.4 194.2" stroke="black" stroke-width="1.1063" stroke-miterlimit="10" stroke-linecap="round" stroke-linejoin="round"/>
<path d="M449.399 200.501L451.499 204.201" stroke="black" stroke-width="1.1063" stroke-miterlimit="10" stroke-linecap="round" stroke-linejoin="round"/>
<path d="M447.5 174.3C448 174.5 447.3 166.9 444.9 168.9C442.4 170.8 442.3 177.8 442.3 177.8C442.3 177.8 439.1 173.9 438.4 177.1C437.7 180.3 442.4 185.5 444.2 185.3C446 185.1 453.3 178.3 453 180.4C452.6 182.5 450.4 186.2 451.8 186.9C453.2 187.6 456.7 186.2 456.7 186.2C456.7 186.2 457.2 194.1 459.3 193.7C461.4 193.3 463 190 464.6 192.1C466.2 194.2 477 204.9 477.7 204.9C478.4 204.9 487.9 202.1 487.9 202.1C487.9 202.1 488.6 191.2 489.1 184.1C489.6 176.9 485.4 167.3 479.3 163.4C473.2 159.5 464.1 160.4 459.7 163.4C455.2 166.4 447.5 174.3 447.5 174.3Z" fill="#020202" stroke="black" stroke-width="1.1063" stroke-miterlimit="10" stroke-linecap="round" stroke-linejoin="round"/>
<path d="M460.3 197C460.3 197 458.9 187 462.4 188.8C465.9 190.6 468.7 199.8 467.8 201.9C466.9 204 464.8 202.6 464.8 202.6" fill="white"/>
<path d="M460.3 197C460.3 197 458.9 187 462.4 188.8C465.9 190.6 468.7 199.8 467.8 201.9C466.9 204 464.8 202.6 464.8 202.6" stroke="black" stroke-width="1.1063" stroke-miterlimit="10" stroke-linecap="round" stroke-linejoin="round"/>
<path d="M466.3 225.3L462.5 236.2C462.5 236.2 474.2 229.8 485.5 226C496.8 222.2 504.3 221.1 504.3 221.1L498.5 212.6C498.5 212.5 474.8 214.8 466.3 225.3Z" fill="#10A261" stroke="black" stroke-width="1.1063" stroke-miterlimit="10" stroke-linecap="round" stroke-linejoin="round"/>
<path d="M406.2 250.8L430.4 291.4C430.6 291.7 430.9 291.9 431.3 291.8L454 286.2C454.5 286.1 454.8 285.5 454.5 285L433.5 248.6C433.3 248.3 433.1 248.2 432.8 248.2L406.9 249.6C406.2 249.6 405.9 250.2 406.2 250.8Z" fill="#020202" stroke="black" stroke-width="1.1063" stroke-miterlimit="10" stroke-linecap="round" stroke-linejoin="round"/>
<path d="M408.899 252.401L430.599 288.901L451.699 283.701L432.799 251.101L408.899 252.401Z" fill="#E8E8E8" stroke="black" stroke-miterlimit="10"/>
<path d="M448.6 259C448.6 259 442.2 262.4 439.9 263.5C437.6 264.6 436.3 265.4 437.8 266.7C439.3 268 444.4 265 444.4 265L448.5 263.3L448.6 259Z" fill="white" stroke="#1A2E35" stroke-width="1.1063" stroke-miterlimit="10" stroke-linecap="round" stroke-linejoin="round"/>
<path d="M500.6 488.5L502 499.6C502 499.6 500.6 502 496 502.5C491.4 503 488 503.7 488 503.7L489.3 492.9L500.6 488.5Z" fill="white" stroke="#1A2E35" stroke-width="1.1063" stroke-miterlimit="10" stroke-linecap="round" stroke-linejoin="round"/>
<path d="M502.1 499.6L501.9 498C497.6 499.7 492.4 500.2 488.5 500.4L488.1 503.7C488.1 503.7 491.5 503 496.1 502.5C500.6 502 502.1 499.6 502.1 499.6Z" fill="white" stroke="#1A2E35" stroke-width="1.1063" stroke-miterlimit="10" stroke-linecap="round" stroke-linejoin="round"/>
<path d="M467.8 483.9L455.3 491.6C455.3 491.6 449.8 493 446.6 493.3C443.5 493.5 443.5 496.9 444.9 498.1C446.3 499.3 451.1 501.4 457.2 502.7C469.3 505.4 486.6 504.4 488.1 503.7C489.5 503 490.8 501.8 491 500.8C491.2 499.8 491 490.4 491 490.4C491 490.4 472.7 488.2 467.8 483.9Z" fill="white" stroke="#1A2E35" stroke-width="1.1063" stroke-miterlimit="10" stroke-linecap="round" stroke-linejoin="round"/>
<path d="M455.5 499.6C448.4 497.5 445.5 495.7 444.4 494.5C443.7 495.7 444 497.3 444.9 498.1C446.3 499.3 451.1 501.4 457.2 502.7C469.3 505.4 486.6 504.4 488.1 503.7C489.5 503 490.6 501.9 490.9 501C482.9 501.7 465.6 502.6 455.5 499.6Z" fill="white" stroke="#1A2E35" stroke-width="1.1063" stroke-miterlimit="10" stroke-linecap="round" stroke-linejoin="round"/>
<path d="M507.2 331C507.2 331 507.2 342.9 503.2 349.3C499.2 355.7 493.7 361.4 493.7 362.3C493.7 363.2 488.4 404.4 488.4 406.6C488.4 408.8 488.2 415.2 489.5 418.5C490.8 421.8 495.9 442.7 499 461.4C502.1 480.1 500.8 484.7 500.8 484.7C500.8 484.7 502.1 488 502.1 488.9C502.1 489.8 501.4 492.2 501.4 492.2C501.4 492.2 497.9 493.3 494.6 493.3C491.3 493.3 489.3 492.9 489.3 492.9C489.3 492.9 489.1 489.4 489.7 487.6C490.4 485.8 489.9 481 489.9 479.9C489.9 478.8 481.5 421.8 481.5 417.4C481.5 413 481.3 366.3 481.3 366.3L479.3 333.9C479.5 333.9 490.9 333.4 507.2 331Z" fill="#10A261" stroke="black" stroke-width="1.1063" stroke-miterlimit="10" stroke-linecap="round" stroke-linejoin="round"/>
<path d="M491.6 355.9C491.6 355.9 486.3 365.6 485.9 366.5C485.5 367.4 485.5 375.1 485.5 376.9C485.5 378.7 484.4 412.1 484.6 416.8C484.8 421.4 488.3 435.7 489.4 444.3C490.5 452.9 492.5 478 492.7 478.7C492.9 479.4 493.8 482.4 493.4 484.4C493 486.4 491.9 488.6 491.9 488.6C491.9 488.6 492.6 492.3 492.1 493.4C491.7 494.5 485.699 495.6 477.299 493.2C468.899 490.8 465.4 485.5 465.4 485.5C465.4 485.5 465.799 484.4 465.799 482.2C465.799 480 468 479.6 468 479.6L463.799 450.1C463.799 450.1 459.8 440.9 459.6 439.3C459.4 437.8 460.499 434 460.299 432.5C460.099 431 457.4 427.7 457.2 426.1C457 424.6 449.699 399.9 449.299 378.1C448.899 356.3 449.7 336 449.7 336C449.7 336 455.3 338.9 472.4 337.8C489.5 336.7 496.4 336.5 504.6 333" fill="#10A261"/>
<path d="M491.6 355.9C491.6 355.9 486.3 365.6 485.9 366.5C485.5 367.4 485.5 375.1 485.5 376.9C485.5 378.7 484.4 412.1 484.6 416.8C484.8 421.4 488.3 435.7 489.4 444.3C490.5 452.9 492.5 478 492.7 478.7C492.9 479.4 493.8 482.4 493.4 484.4C493 486.4 491.9 488.6 491.9 488.6C491.9 488.6 492.6 492.3 492.1 493.4C491.7 494.5 485.699 495.6 477.299 493.2C468.899 490.8 465.4 485.5 465.4 485.5C465.4 485.5 465.799 484.4 465.799 482.2C465.799 480 468 479.6 468 479.6L463.799 450.1C463.799 450.1 459.8 440.9 459.6 439.3C459.4 437.8 460.499 434 460.299 432.5C460.099 431 457.4 427.7 457.2 426.1C457 424.6 449.699 399.9 449.299 378.1C448.899 356.3 449.7 336 449.7 336C449.7 336 455.3 338.9 472.4 337.8C489.5 336.7 496.4 336.5 504.6 333" stroke="#020202" stroke-width="1.1063" stroke-miterlimit="10" stroke-linecap="round" stroke-linejoin="round"/>
<path d="M473.4 465.8L474.8 480.5C474.8 480.5 472.9 481.7 473.6 484.1C474.3 486.5 474.8 488 474.8 488" stroke="#020202" stroke-width="1.1063" stroke-miterlimit="10" stroke-linecap="round" stroke-linejoin="round"/>
<path d="M460.8 392.3C461 393.4 461.1 394.4 461.3 395.4C465.2 415.2 469.5 430.1 469.7 430.9C469.9 431.6 466.8 434.3 468 435.7C469.2 437.1 470.7 437.9 470.7 437.9L472.9 461" stroke="#020202" stroke-width="1.1063" stroke-miterlimit="10" stroke-linecap="round" stroke-linejoin="round"/>
<path d="M459.4 341.8C459.4 341.8 458 366.3 460 385.8" stroke="#020202" stroke-width="1.1063" stroke-miterlimit="10" stroke-linecap="round" stroke-linejoin="round"/>
<path d="M453.9 341.3C453.9 341.3 453.2 350 458 354.3" stroke="#020202" stroke-width="1.1063" stroke-miterlimit="10" stroke-linecap="round" stroke-linejoin="round"/>
<path d="M490.8 342.5C485.3 344.9 473.2 345.2 473.2 345.2L474.6 348.8C474.6 348.8 483 348.3 486.4 347.1" stroke="#020202" stroke-width="1.1063" stroke-miterlimit="10" stroke-linecap="round" stroke-linejoin="round"/>
<path d="M449.699 335.8C449.699 335.8 452.699 341.3 475.899 340.1C499.199 338.8 508.099 335 508.299 333.1C508.499 331.2 507.899 326.7 507.899 326.7C507.899 326.7 463.999 329.9 449.699 335.8Z" fill="white" stroke="black" stroke-width="1.1063" stroke-miterlimit="10" stroke-linecap="round" stroke-linejoin="round"/>
<path d="M462.5 236.2C462.5 236.2 449.5 242.2 449.3 244.1C449.1 246 442.3 297.7 442.3 297.7L432 285.7C432 285.7 432.2 281.4 431.6 279.7C431 278 430.7 276.7 429.3 276.1C427.8 275.5 422.9 274.2 421.6 273.1C420.3 272 416.7 268.6 415.8 269.9C414.9 271.2 413.2 273.3 413.7 274.8C414.1 276.3 415.8 279.3 415.8 280.1C415.8 280.9 415.8 287.4 418.6 290.3C421.4 293.3 425.4 294.6 425.4 294.6C425.4 294.6 432 312.1 434.4 315.5C436.7 318.9 446.6 326.8 446.6 326.8C446.6 326.8 444.3 332.3 444.9 332.8C445.5 333.2 448.5 337.7 449.4 337.7C450.3 337.7 475.9 333.4 477.8 333.2C479.7 333 498.9 333.2 500.4 332.6C501.9 332 506.8 329.8 507.9 329C509 328.1 510.7 326.7 509.8 323.2C508.9 319.8 508.1 295.7 508.1 293.5C508.1 291.4 512.4 274.5 514.3 267.9C516.2 261.3 519.8 241.9 520.1 238.7C520.3 235.5 517.8 228 516.9 227.6C516 227.2 504.5 221 504.5 221C504.5 221 485.3 222.5 462.5 236.2Z" fill="white" stroke="black" stroke-width="1.1063" stroke-miterlimit="10" stroke-linecap="round" stroke-linejoin="round"/>
<path d="M446.5 326.9C446.5 326.9 454 325.6 455.2 324.6C456.5 323.5 467.8 290.5 468.2 288.5C468.6 286.6 469.3 263.3 469.3 263.3" stroke="black" stroke-width="1.1063" stroke-miterlimit="10" stroke-linecap="round" stroke-linejoin="round"/>
<path d="M469.1 277.8L472.7 264.8" stroke="black" stroke-width="1.1063" stroke-miterlimit="10" stroke-linecap="round" stroke-linejoin="round"/>
<path d="M441.3 310.4C440.7 306.8 442.2 297.6 442.2 297.6C442.2 297.6 443.7 306.6 446.5 310.2" stroke="black" stroke-width="1.1063" stroke-miterlimit="10" stroke-linecap="round" stroke-linejoin="round"/>
<path d="M432 285.7C432 285.7 432.2 281.4 431.6 279.7C431 278 430.7 276.7 429.3 276.1C427.8 275.5 422.9 274.2 421.6 273.1C420.3 272 416.7 268.6 415.8 269.9C414.9 271.2 413.2 273.3 413.7 274.8C414.1 276.3 415.8 279.3 415.8 280.1C415.8 280.9 415.8 287.4 418.6 290.3C421.4 293.3 425.4 294.6 425.4 294.6C425.4 294.6 425.8 295.6 426.4 297.1C427.7 294 430.3 290.1 435.5 289.6L432 285.7Z" fill="white" stroke="black" stroke-width="1.1063" stroke-miterlimit="10" stroke-linecap="round" stroke-linejoin="round"/>
<path d="M428.5 301.3C428.5 301.3 430 296 436.2 293.8" stroke="black" stroke-width="1.1063" stroke-miterlimit="10" stroke-linecap="round" stroke-linejoin="round"/>
<path d="M477.6 333.3L499.2 326.9" stroke="black" stroke-width="1.1063" stroke-miterlimit="10" stroke-linecap="round" stroke-linejoin="round"/>
<path d="M503.2 276.7C503.2 276.7 489.6 291.4 478.5 299.6" stroke="black" stroke-width="1.1063" stroke-miterlimit="10" stroke-linecap="round" stroke-linejoin="round"/>
<path d="M496.2 287.7C496.2 287.7 485.9 298 481.5 301.3" stroke="black" stroke-width="1.1063" stroke-miterlimit="10" stroke-linecap="round" stroke-linejoin="round"/>
</svg>
