<svg width="600" height="500" viewBox="0 0 600 500" fill="none" xmlns="http://www.w3.org/2000/svg">
<g opacity="0.3">
<path d="M222.401 465.6C172.901 487.5 111.401 478.3 69.6006 443.8C27.8006 409.3 7.00064 351.6 15.9006 298.2C19.7006 275.4 28.9006 252.8 45.5006 236.7C78.1006 205 131.101 204 165.801 174.7C196.501 148.8 207.101 105.9 234.001 76.0997C267.501 38.8997 320.901 27.5997 370.801 23.5997C419.201 19.6997 475.801 24.6997 503.301 64.6997C516.801 84.2997 520.501 109 531.201 130.2C544.401 156.5 567.801 176.6 581.201 202.7C601.101 241.3 595.601 291.5 567.901 325C555.201 340.4 538.301 352.4 528.001 369.4C517.801 386.2 514.801 406.6 504.501 423.3C478.101 466.7 416.801 470 366.501 463.1C316.401 456.3 261.501 448.3 222.401 465.6Z" fill="#10A261"/>
</g>
<path d="M481.7 84.4993C480.4 84.0993 478.9 84.6993 478 85.6993C477.1 86.7993 476.8 88.2993 477.2 89.5993C477.7 91.5993 479.7 93.0993 481.7 93.0993C483.7 92.9993 485.6 91.2993 485.8 89.1993C486 87.1993 484.4 85.1993 481.7 84.4993Z" fill="white" stroke="black" stroke-miterlimit="10"/>
<path d="M481.601 93.9995C479.201 93.9995 477.001 92.1995 476.401 89.8995C476.001 88.1995 476.301 86.3995 477.401 85.1995C478.501 83.7995 480.401 83.1995 482.001 83.6995C485.001 84.4995 487.001 86.8995 486.801 89.3995C486.601 91.8995 484.301 93.9995 481.901 94.0995C481.701 93.9995 481.601 93.9995 481.601 93.9995ZM480.901 85.2995C480.101 85.2995 479.301 85.6995 478.801 86.2995C478.101 87.0995 477.901 88.2995 478.201 89.3995C478.601 90.9995 480.201 92.2995 481.801 92.1995C483.401 92.0995 484.901 90.7995 485.001 89.1995C485.201 87.4995 483.701 85.9995 481.501 85.3995C481.301 85.2995 481.101 85.2995 480.901 85.2995Z" fill="black"/>
<path d="M134.6 81.399C136.1 78.599 136.1 75.199 136.5 71.999C137.1 65.799 137.4 57.799 141.6 53.299C145.8 48.799 154.2 48.099 160.2 49.899C161.8 50.399 163.4 51.299 164.1 52.799C165 54.899 163.9 57.199 163.5 59.399C162.9 62.299 163.6 65.499 164.8 68.099C163.5 68.499 162.2 68.799 160.9 69.199C160.7 69.199 160.6 69.299 160.4 69.399C160.2 69.499 160.1 69.799 160.1 69.999C159.8 70.899 159.4 71.899 159.1 72.799C159 73.199 158.8 73.599 158.6 73.899C158.1 74.499 157.2 74.599 156.4 74.699C154.6 74.899 152.8 75.099 151 75.099C150.4 79.599 150.3 84.099 150.5 88.499C149.5 88.099 141.1 93.599 138.9 92.399C136.7 91.099 133.6 86.399 134.6 81.399Z" fill="white" stroke="black" stroke-miterlimit="10"/>
<path d="M139.7 93.399C139.2 93.399 138.8 93.299 138.4 93.099C135.8 91.599 132.6 86.599 133.7 81.199C133.7 81.099 133.7 80.999 133.8 80.999C135 78.799 135.2 76.299 135.4 73.599C135.4 72.999 135.5 72.499 135.6 71.899C135.7 71.199 135.7 70.399 135.8 69.699C136.4 63.699 137 56.899 140.9 52.699C145.4 47.799 154.3 47.199 160.4 48.999C162.6 49.699 164.2 50.899 164.9 52.399C165.7 54.199 165.2 56.099 164.8 57.999C164.7 58.599 164.5 59.099 164.4 59.599C163.9 62.099 164.4 64.999 165.6 67.799C165.7 67.999 165.7 68.299 165.6 68.499C165.5 68.699 165.3 68.899 165 68.999L161.1 70.099H161C161 70.199 160.9 70.199 160.9 70.299L159.9 73.099C159.8 73.499 159.6 73.999 159.2 74.399C158.4 75.299 157.2 75.399 156.4 75.499C154.9 75.699 153.3 75.899 151.7 75.899C151.2 79.999 151.1 84.199 151.3 88.399C151.3 88.699 151.2 88.999 150.9 89.199C150.7 89.299 150.5 89.399 150.2 89.399C149.8 89.499 148.3 90.199 147.1 90.699C144 92.199 141.5 93.399 139.7 93.399ZM135.5 81.699C134.6 86.299 137.5 90.599 139.3 91.599C140.3 92.099 144.5 90.099 146.5 89.099C148 88.399 148.9 87.899 149.6 87.699C149.4 83.399 149.6 79.099 150.1 74.899C150.2 74.499 150.5 74.099 151 74.099C152.8 74.099 154.6 73.899 156.3 73.699C157 73.599 157.6 73.499 157.9 73.199C158.1 72.999 158.2 72.699 158.3 72.399L159.3 69.599C159.4 69.399 159.5 68.899 159.9 68.599C160.2 68.399 160.5 68.299 160.7 68.199L163.7 67.399C162.6 64.499 162.2 61.599 162.7 59.099C162.8 58.499 163 57.999 163.1 57.399C163.5 55.799 163.9 54.299 163.3 52.999C162.7 51.699 161.1 50.899 159.9 50.599C154.3 48.899 146.3 49.499 142.2 53.799C138.7 57.599 138.1 64.099 137.5 69.799C137.4 70.599 137.4 71.299 137.3 71.999C137.2 72.499 137.2 73.099 137.1 73.699C137 76.399 136.8 79.199 135.5 81.699Z" fill="black"/>
<path d="M151 75.8998C150.9 75.8998 150.9 75.8998 150.8 75.8998C148.5 75.3998 147.2 74.9998 145.5 73.5998C145.1 73.2998 145.1 72.6998 145.4 72.3998C145.7 71.9998 146.3 71.9998 146.6 72.2998C148 73.3998 149 73.7998 151.2 74.1998C151.7 74.2998 152 74.7998 151.9 75.1998C151.8 75.5998 151.4 75.8998 151 75.8998Z" fill="black"/>
<path d="M135.901 69.0993C138.501 67.6993 140.801 65.6993 142.601 63.3993C141.401 62.3993 140.601 60.8993 140.601 59.3993C140.701 57.8993 141.701 56.3993 143.201 55.9993C144.701 55.6993 146.401 56.7993 146.501 58.3993C147.901 56.8993 149.201 55.3993 150.501 53.7993C155.001 55.2993 159.901 55.5993 164.601 54.6993C165.801 54.4993 167.001 54.0993 167.901 53.2993C168.501 52.6993 168.801 51.8993 169.201 51.0993C172.501 43.6993 166.301 39.6993 160.201 38.2993C157.501 37.6993 152.101 37.3993 149.301 37.7993C142.201 38.8993 136.801 45.5993 135.401 48.0993C132.101 53.9993 132.401 62.3993 135.901 69.0993Z" fill="black"/>
<path d="M134.901 81.1992C136.001 84.3992 138.501 86.9992 141.601 88.1992C144.701 89.3992 148.301 89.0992 151.001 87.4992C161.001 87.5992 169.601 95.4992 173.301 104.799C173.801 105.999 174.201 107.299 174.201 108.599C174.201 110.999 172.901 113.099 171.601 114.999C166.401 122.899 161.301 130.899 156.101 138.799C145.801 134.599 134.901 131.899 123.801 130.799C126.301 116.299 129.401 101.899 134.901 81.1992Z" fill="#EC103C"/>
<path d="M156.001 139.699C155.901 139.699 155.801 139.699 155.701 139.599C145.401 135.499 134.601 132.799 123.601 131.599C123.401 131.599 123.101 131.399 123.001 131.299C122.901 131.099 122.801 130.899 122.801 130.599C125.501 115.299 128.901 100.399 134.001 80.8992C134.101 80.4992 134.401 80.2992 134.801 80.1992C135.201 80.1992 135.501 80.3992 135.701 80.7992C136.701 83.6992 139.001 86.0992 141.901 87.1992C144.701 88.2992 148.101 87.9992 150.501 86.5992C150.601 86.4992 150.801 86.4992 151.001 86.4992C155.901 86.4992 160.801 88.3992 165.101 91.8992C169.001 95.0992 172.201 99.4992 174.101 104.299C174.601 105.499 175.001 106.899 175.001 108.399C175.001 111.099 173.501 113.399 172.201 115.299L156.701 139.099C156.601 139.599 156.301 139.699 156.001 139.699ZM124.701 130.099C135.301 131.299 145.701 133.899 155.601 137.799L170.701 114.599C171.801 112.899 173.201 110.799 173.201 108.599C173.201 107.399 172.801 106.199 172.401 105.099C168.601 95.3992 159.901 88.5992 151.201 88.3992C148.301 89.9992 144.501 90.2992 141.201 88.9992C138.601 87.9992 136.501 86.0992 135.101 83.7992C130.401 101.799 127.301 115.799 124.701 130.099Z" fill="#EC103C"/>
<path d="M303.601 440.399C406.271 440.399 489.501 357.885 489.501 256.099C489.501 154.313 406.271 71.7988 303.601 71.7988C200.931 71.7988 117.701 154.313 117.701 256.099C117.701 357.885 200.931 440.399 303.601 440.399Z" fill="white" stroke="black" stroke-miterlimit="10"/>
<path d="M303.601 441.299C278.401 441.299 253.901 436.399 230.901 426.699C208.701 417.399 188.701 403.999 171.501 386.999C154.301 369.999 140.901 350.199 131.501 328.099C121.801 305.299 116.801 280.999 116.801 255.999C116.801 230.999 121.701 206.799 131.501 183.899C140.901 161.899 154.401 141.999 171.501 124.999C188.701 107.999 208.601 94.5992 230.901 85.2992C253.901 75.5992 278.401 70.6992 303.601 70.6992C328.801 70.6992 353.301 75.5992 376.301 85.2992C398.501 94.5992 418.501 107.999 435.701 124.999C452.901 141.999 466.301 161.799 475.701 183.899C485.401 206.699 490.401 230.999 490.401 255.999C490.401 280.999 485.501 305.199 475.701 328.099C466.301 350.099 452.801 369.999 435.701 386.999C418.501 403.999 398.601 417.399 376.301 426.699C353.301 436.399 328.801 441.299 303.601 441.299ZM303.601 72.6992C201.601 72.6992 118.601 154.999 118.601 256.099C118.601 357.199 201.601 439.499 303.601 439.499C405.601 439.499 488.601 357.199 488.601 256.099C488.601 154.999 405.601 72.6992 303.601 72.6992Z" fill="black"/>
<path d="M480.2 140.4C444.9 78.6998 370.4 50.7998 298.8 50.4998C230.2 50.1998 125.8 87.3998 99.5003 201.9C55.9003 391.7 207 452.3 273.8 461.9C340.6 471.5 414.7 448.7 457.3 396.8C470 381.3 483.3 363.3 491.2 344.9C519.3 279.8 515.4 202.1 480.2 140.4ZM450.2 348.5C408.1 413.2 349.6 431.9 286.2 428.2C222.8 424.5 165.4 384.6 140.8 338.6C114.8 290 115.3 228.5 141 179.7C166.6 130.9 216.2 95.7998 270.5 86.1998C302.1 80.5998 341.9 86.4998 365.8 94.2998C397.5 104.6 425.5 128 445.9 156C483.8 210.6 486.6 287.5 450.2 348.5Z" fill="#10A261"/>
<path d="M304 464.9C293.8 464.9 283.6 464.2 273.6 462.8C249.3 459.3 221.8 450.4 198.1 438.3C183.2 430.7 169.5 421.8 157.4 411.7C143.6 400.3 131.8 387.5 122.2 373.5C90.9001 327.8 82.9001 270 98.6001 201.7C104.8 174.5 115.8 150.2 131.3 129.4C145.1 110.9 162.4 95.0996 182.7 82.3996C216.3 61.4996 258.3 49.5996 298 49.5996C298.2 49.5996 298.5 49.5996 298.7 49.5996C336.3 49.6996 372.5 57.2996 403.4 71.5996C419.9 79.1996 434.8 88.6996 447.5 99.6996C461 111.4 472.3 125 480.8 140C498.1 170.3 508.3 205.4 510.2 241.4C512.1 277.2 505.8 313.2 491.9 345.4C483.3 365.4 468.4 384.7 457.9 397.5C437.4 422.5 408.7 441.8 374.9 453.3C358.8 458.8 341.9 462.4 324.7 464C317.8 464.6 310.9 464.9 304 464.9ZM298.1 51.3996C237.2 51.3996 127.6 83.0996 100.3 202.1C84.8001 269.8 92.6001 327.2 123.7 372.5C161.3 427.3 228.1 454.5 273.9 461C344.3 471.1 416 445.7 456.6 396.3C467 383.6 481.9 364.4 490.4 344.7C518.4 279.7 514.1 201.6 479.4 140.9C447.6 85.0996 380 51.6996 298.7 51.3996C298.5 51.3996 298.3 51.3996 298.1 51.3996ZM301.1 429.5C296.2 429.5 291.3 429.4 286.2 429.1C255.9 427.3 225.6 417.3 198.5 400C173.2 383.8 152.4 362.2 140 339C127.2 315.1 120.5 287.6 120.6 259.2C120.7 231.1 127.5 203.4 140.2 179.3C152.8 155.4 171.5 134 194.5 117.5C217.2 101.2 243.4 89.9996 270.3 85.2996C301.8 79.6996 342 85.5996 366 93.3996C396 103.1 424.5 125.2 446.5 155.4C455.9 169 463.3 184.1 468.4 200.2C473.5 216.1 476.2 232.8 476.7 249.8C477.6 284.8 468.7 319 450.9 348.9C440.6 364.7 429 378.3 416.3 389.3C404.2 399.8 390.9 408.3 376.5 414.7C363 420.7 348.3 424.9 332.8 427.2C322.8 428.8 312.1 429.5 301.1 429.5ZM297.7 84.8996C288.4 84.8996 279.2 85.5996 270.6 87.0996C216.2 96.6996 166.9 132.4 141.8 180.2C115.9 229.6 115.8 290.1 141.6 338.3C167.9 387.4 227.4 424 286.3 427.4C358.6 431.6 412 405.7 449.5 348.1C485.1 288.5 483.3 211.6 445.1 156.6C423.4 126.7 395.1 104.9 365.5 95.1996C348.2 89.4996 322.4 84.8996 297.7 84.8996Z" fill="#10A261"/>
<path d="M409.5 188.7C388.7 153.1 345.4 134.9 303.2 134.7C262.9 134.6 201.4 156 186 222C160.4 331.4 250.6 367.6 289.9 373.1C369.8 384.3 413.6 316.7 418.2 306.1C434.8 268.5 430.3 224.3 409.5 188.7ZM388.1 303.2C366.8 333.2 333.3 350.2 296 348C258.7 345.9 230.3 322.9 215.9 296.4C204 274.5 204.2 239.5 219.3 211.4C234.4 183.3 255.9 166.3 287.9 160.8C335.6 152.6 360.4 168.8 385.7 196.7C407.9 228.1 409.5 268.1 388.1 303.2Z" fill="#10A261"/>
<path d="M307.5 375.2C301.7 375.2 295.8 374.8 289.8 373.9C275.3 371.9 258.8 366.5 244.5 359.2C225.1 349.3 209.7 336.2 198.9 320.4C180.7 293.8 176.1 260.6 185.2 221.8C188.9 206.1 195.4 192 204.5 180C212.6 169.3 222.9 160.2 234.9 152.8C254.7 140.7 279.5 133.8 302.9 133.8C303 133.8 303.2 133.8 303.3 133.8C325 133.9 346.3 138.6 364.8 147.6C384.6 157.2 400.4 171.2 410.3 188.2C420.7 206 427.1 226.2 428.7 246.5C430.4 267.4 427 288.1 419 306.4C417.1 310.8 405.2 330.8 382.8 348.4C370.5 358 357.2 365.2 343.2 369.6C331.7 373.4 319.8 375.2 307.5 375.2ZM302.9 135.6C267.1 135.6 202.8 153.8 186.8 222.2C177.8 260.6 182.3 293.3 200.2 319.4C222.7 352.2 262.6 368.3 290 372.2C296 373 301.7 373.4 307.3 373.4C340.4 373.4 365.6 359.6 381.7 347C403.9 329.7 415.5 310 417.4 305.7C433.4 269.3 430.1 225.8 408.8 189.1C389.6 156.2 349.2 135.7 303.3 135.6C303.2 135.6 303 135.6 302.9 135.6ZM302.3 349.1C300.2 349.1 298 349 295.9 348.9C278.1 347.9 261.5 342.2 246.8 332.1C233.6 323.1 222.7 310.9 215 296.8C209.1 285.8 206 271.4 206.5 256.2C207 240.2 211.1 224.6 218.4 210.9C226.2 196.4 235.4 185.2 246.6 176.8C258.1 168.1 271.6 162.6 287.6 159.8C310.5 155.8 328.9 157.2 345.4 164.2C359.1 170 371.3 179.5 386.2 195.9C386.2 195.9 386.2 196 386.3 196C397.5 211.7 403.6 229.8 404.2 248.4C404.7 267.2 399.5 286.3 388.9 303.5C388.9 303.5 388.9 303.5 388.9 303.6C378.3 318.6 364.3 330.6 348.5 338.4C334 345.5 318.5 349.1 302.3 349.1ZM311.3 159.4C304.2 159.4 296.4 160.1 287.9 161.6C257.1 166.9 235.5 182.9 220 211.8C205.6 238.6 204.2 273.2 216.6 296C232.9 326.1 262.6 345.3 296 347.2C332.5 349.3 365.8 333.1 387.4 302.8C408.3 268.5 407.4 229.1 384.9 197.3C363.5 173.7 343.5 159.4 311.3 159.4Z" fill="#10A261"/>
<path d="M276.7 294.4C261.4 282.6 254.1 261.4 258.9 242.6C263.7 223.9 280.4 208.8 299.5 205.9C311.7 204 339.6 202.5 353.5 234.7C362.2 254.8 354.6 280.2 337.1 293.4C319.5 306.5 293.6 307.3 276.7 294.4Z" fill="#EC103C"/>
<path d="M305.5 304.5C294.8 304.5 284.3 301.4 276.1 295C260.5 283 253.1 261.4 258 242.3C262.9 223.3 279.9 207.9 299.3 204.9C309.2 203.4 318.2 204 326.1 206.6C338.7 210.8 348.2 220.1 354.3 234.3C358.5 244.1 359.1 255.7 356 266.8C352.9 277.8 346.4 287.5 337.7 294C328.3 301 316.8 304.5 305.5 304.5ZM277.2 293.6C293.5 306.1 319 305.7 336.5 292.6C353.8 279.6 360.9 254.3 352.6 235C340.5 206.8 317.1 204 299.6 206.7C280.8 209.6 264.4 224.4 259.7 242.8C255 261.2 262.2 282.1 277.2 293.6Z" fill="#EC103C"/>
<path d="M77.8004 263.8C77.3004 263.8 76.9004 263.4 76.9004 262.9C76.9004 262.4 77.3004 262 77.8004 262L306.3 253.6C306.8 253.6 307.2 254 307.2 254.5C307.2 255 306.8 255.4 306.3 255.4L77.8004 263.8Z" fill="black"/>
<path d="M100.301 262.1C94.3006 256.5 88.4006 250.9 82.6006 244.8C95.6006 245 108.501 244.9 121.801 244.8C126.901 251 133.201 256.3 140.101 260.3L100.301 262.1Z" fill="black"/>
<path d="M100.3 262.899C100.1 262.899 99.9004 262.799 99.7004 262.699L98.5004 261.599C93.0004 256.399 87.3004 251.099 81.9004 245.399C81.7004 245.099 81.6004 244.799 81.7004 244.399C81.8004 244.099 82.2004 243.899 82.5004 243.899C95.8004 244.099 109.5 243.999 121.6 243.899C121.9 243.899 122.1 243.999 122.3 244.199C127.4 250.399 133.5 255.499 140.4 259.499C140.7 259.699 140.9 260.099 140.8 260.499C140.7 260.899 140.4 261.199 140 261.199L100.3 262.899ZM84.6004 245.699C89.5004 250.799 94.7004 255.599 99.6004 260.299L100.5 261.199L136.9 259.599C131 255.799 125.7 251.099 121.1 245.699C109.9 245.799 97.1004 245.899 84.6004 245.699Z" fill="black"/>
<path d="M169.001 153.699C171.301 155.499 175.101 154.999 177.901 155.799C183.001 157.299 187.101 160.299 192.101 162.199C193.401 162.699 194.601 163.199 195.701 163.999C196.001 164.299 196.401 164.599 196.301 164.999C196.201 165.699 195.201 165.799 194.501 165.799C191.601 165.499 188.701 164.899 185.401 164.199C185.501 165.799 183.901 167.199 182.401 167.099C182.101 168.599 180.101 169.299 178.901 168.399C179.201 169.099 178.301 169.899 177.501 169.799C176.701 169.699 176.101 169.199 175.501 168.599C172.201 165.499 169.001 162.399 165.701 159.399C165.501 159.199 165.301 159.099 165.301 158.799C165.301 158.599 165.301 158.499 165.301 158.299C165.701 156.299 166.901 154.199 169.001 153.699Z" fill="white" stroke="black" stroke-miterlimit="10"/>
<path d="M177.5 170.8C177.4 170.8 177.4 170.8 177.3 170.8C176.2 170.7 175.3 169.9 174.8 169.4L165 160.2C164.8 160 164.5 159.7 164.3 159.2C164.2 158.9 164.3 158.5 164.3 158.4C164.9 155.5 166.5 153.5 168.7 152.9C169 152.8 169.2 152.9 169.5 153.1C170.8 154.1 172.7 154.3 174.6 154.5C175.8 154.6 177 154.8 178.1 155.1C181.1 156 183.7 157.3 186.3 158.7C188.3 159.7 190.3 160.7 192.4 161.6C193.6 162 195 162.6 196.2 163.6C196.9 164.2 197.2 164.8 197.1 165.4C197 166.5 195.9 167.1 194.4 166.9C191.9 166.6 189.3 166.2 186.1 165.5C185.9 166.1 185.6 166.7 185.1 167.2C184.5 167.8 183.7 168.1 183 168.3C182.7 169 182 169.5 181.3 169.8C180.7 170 180.1 170.1 179.6 170C179.6 170.1 179.5 170.1 179.5 170.2C178.9 170.5 178.2 170.8 177.5 170.8ZM166.1 158.7L166.2 158.8L176 168C176.5 168.5 177 168.9 177.4 168.9C177.6 168.9 177.8 168.7 177.9 168.7C177.8 168.3 177.9 167.9 178.2 167.7C178.5 167.5 178.9 167.5 179.3 167.7C179.6 167.9 180.1 168 180.6 167.8C181.1 167.6 181.4 167.3 181.5 166.9C181.6 166.5 182 166.2 182.4 166.2C182.9 166.2 183.4 166 183.9 165.6C184.3 165.2 184.6 164.7 184.5 164.2C184.5 163.9 184.6 163.7 184.8 163.5C185 163.3 185.3 163.3 185.6 163.3C189.2 164.1 192 164.6 194.6 164.9C194.9 164.9 195.2 164.9 195.3 164.9C195.3 164.9 195.2 164.8 195.1 164.7C194.2 164 193.1 163.5 191.8 163C189.6 162.2 187.5 161.1 185.5 160.1C182.9 158.8 180.4 157.5 177.6 156.7C176.6 156.4 175.5 156.3 174.4 156.2C172.5 156 170.4 155.8 168.8 154.7C167 155.4 166.3 157.7 166.1 158.7Z" fill="black"/>
<path d="M140 260.6C132.1 267.7 129.9 272.5 126.2 279.2C126.2 279.2 83.9004 281.7 83.4004 281.3C89.4004 275.2 95.2004 269 100.9 262.5C113.7 261.6 126.3 260.8 140 260.6Z" fill="black"/>
<path d="M84.5 282.199C83.2 282.199 83 282.099 82.8 281.899C82.6 281.699 82.5 281.499 82.5 281.299C82.5 281.099 82.6 280.799 82.8 280.699C88.8 274.699 94.6 268.399 100.2 261.999C100.4 261.799 100.6 261.699 100.8 261.699C113.3 260.899 126.2 260.099 139.9 259.899C140.3 259.899 140.6 260.099 140.7 260.499C140.8 260.799 140.7 261.199 140.5 261.499C133.3 267.899 130.9 272.499 127.8 278.199C127.5 278.699 127.2 279.299 126.9 279.799C126.8 280.099 126.5 280.199 126.2 280.299C126.1 280.299 115.5 280.899 105 281.499C98.8 281.799 93.9 282.099 90.3 282.199C87.3 282.099 85.6 282.199 84.5 282.199ZM101.4 263.299C96.3 269.099 91 274.899 85.6 280.399C91.8 280.199 111.8 279.199 125.8 278.299C126 277.899 126.2 277.499 126.4 277.099C129.3 271.699 131.7 267.299 137.8 261.499C125 261.799 113 262.599 101.4 263.299Z" fill="black"/>
<path d="M468.801 155.9C468.201 161.1 472.301 165.6 477.501 165.8C498.101 166.6 518.701 167.2 539.301 167.7C548.401 167.9 557.601 168.1 566.701 166.8C570.501 166.2 574.601 165.3 577.101 162.4C580.601 158.5 580.001 151.8 576.301 148C572.601 144.2 566.601 143.2 561.501 144.7C556.401 146.2 552.201 149.9 549.101 154.2C553.801 142.2 552.901 123.9 533.801 121.2C514.701 118.6 509.201 136.7 507.801 147.8C506.101 143.4 504.201 138.9 500.801 135.6C497.401 132.4 491.801 130.8 487.801 133.3C484.701 135.2 483.301 139 483.301 142.7C483.301 146.3 484.501 149.8 485.701 153.2C482.301 149.2 475.901 147.6 471.701 150.6C470.101 151.8 469.101 153.7 468.801 155.9Z" fill="white" stroke="black" stroke-miterlimit="10"/>
<path d="M549 168.7C545.7 168.7 542.4 168.6 539.3 168.6C518.8 168.1 498 167.5 477.5 166.7C474.7 166.6 472.001 165.3 470.201 163.2C468.401 161.1 467.6 158.5 467.9 155.9C468.2 153.4 469.401 151.3 471.201 150C475.001 147.3 480.2 148.1 483.9 150.5C483.1 148.1 482.5 145.5 482.5 142.8C482.5 138.5 484.4 134.6 487.4 132.7C491.9 129.8 497.9 131.7 501.4 135.1C504.2 137.7 506 141.2 507.4 144.6C508.7 137.4 511.6 129 518.1 124C522.4 120.7 527.7 119.5 534 120.3C541.2 121.3 546.401 124.4 549.401 129.7C553.001 135.9 552.9 143.7 551.3 150.1C553.8 147.5 557.101 145 561.201 143.8C567.001 142.1 573.101 143.5 576.901 147.3C581.101 151.6 581.501 158.8 577.701 162.9C574.901 166 570.601 167 566.701 167.6C560.901 168.5 554.8 168.7 549 168.7ZM476.9 150C475.3 150 473.7 150.4 472.3 151.4C470.9 152.4 470.001 154 469.701 156C469.401 158.2 470.1 160.3 471.5 162C473 163.8 475.2 164.8 477.5 164.9C498 165.7 518.8 166.3 539.3 166.8C547.7 167 557.3 167.2 566.5 165.9C570 165.4 574.001 164.5 576.401 161.8C579.501 158.4 579.1 152.2 575.6 148.6C572.4 145.3 566.801 144 561.701 145.5C556.101 147.2 552.1 151.4 549.8 154.7C549.5 155.1 549.101 155.2 548.701 155C548.301 154.8 548.1 154.3 548.3 153.9C550.9 147.4 552.101 137.8 547.901 130.7C545.101 125.9 540.301 123.1 533.701 122.2C528.001 121.4 523.101 122.5 519.201 125.5C511.901 131.1 509.501 142 508.701 148.1C508.601 148.5 508.3 148.8 507.9 148.9C507.5 149 507.1 148.7 507 148.3C505.4 144.2 503.601 139.6 500.201 136.4C497.201 133.6 492.1 131.9 488.3 134.2C485.3 136.1 484.201 139.9 484.201 142.8C484.201 146.3 485.4 149.7 486.5 153C486.6 153.4 486.5 153.8 486.1 154.1C485.7 154.3 485.3 154.2 485 153.9C483.2 151.5 480 150 476.9 150Z" fill="black"/>
<path d="M303.6 339.8C296.9 339.8 290.1 339.2 283.1 337.9C270.3 335.6 254.9 327 242.9 315.4C228.7 301.7 220.1 284.9 218.7 268.3C218.7 267.8 219 267.4 219.5 267.3C220 267.3 220.4 267.6 220.5 268.1C223.5 303.9 259.2 331.8 283.5 336.1C302.7 339.5 320.7 338.2 336.8 332.1C348.4 327.8 358.7 321.1 367.3 312.4C375.6 304 382 294.1 386.3 283C390 273.5 392 263.5 392.2 253.3C393 220.5 370.1 187.3 339 176C314.1 166.9 290.6 168.3 265.2 180.4C240.9 192 223.6 216.8 220 245.1C219.9 245.6 219.5 245.9 219 245.9C218.5 245.8 218.2 245.4 218.2 244.9C221.8 216 239.5 190.6 264.4 178.8C277 172.8 289 169.5 301 168.6C313.8 167.7 326.4 169.6 339.5 174.3C354.5 179.8 368.2 190.6 378.3 204.7C388.7 219.4 394.3 236.7 393.9 253.3C393.7 263.7 391.6 273.9 387.9 283.6C383.5 295 377 305.1 368.5 313.6C359.7 322.5 349.2 329.3 337.4 333.7C326.7 337.9 315.5 339.8 303.6 339.8Z" fill="black"/>
<path d="M296.001 421.1C283.101 421.1 269.901 419.9 256.501 417.5C244.701 415.4 231.401 410.4 218.101 403.1C204.301 395.5 190.801 385.5 179.101 374.2C166.201 361.7 155.601 348 147.801 333.5C139.101 317.3 133.901 300.6 132.501 283.6C132.501 283.1 132.801 282.7 133.301 282.6C133.801 282.6 134.201 282.9 134.301 283.4C140.101 352.9 209.601 407.3 256.801 415.7C294.101 422.3 329.001 419.7 360.401 408C383.001 399.6 402.901 386.7 419.701 369.7C435.801 353.4 448.201 334.2 456.601 312.6C463.701 294.1 467.601 274.7 468.101 254.9C469.601 191.2 425.101 126.6 364.701 104.5C316.301 86.7997 270.701 89.5997 221.401 113C174.101 135.5 140.401 183.7 133.601 238.8C133.501 239.3 133.101 239.6 132.601 239.6C132.101 239.5 131.801 239.1 131.801 238.6C135.101 211.8 145.001 185.9 160.201 163.7C175.901 140.9 196.801 122.8 220.601 111.4C244.901 99.7997 268.001 93.3997 291.201 91.7997C315.801 89.9997 340.101 93.5997 365.301 102.8C394.101 113.3 420.601 134.1 439.901 161.3C449.701 175.1 457.201 189.9 462.301 205.4C467.701 221.7 470.201 238.4 469.801 254.9C469.301 274.9 465.401 294.6 458.201 313.2C449.701 335.1 437.201 354.5 420.901 370.9C403.901 388 383.801 401 361.001 409.6C345.701 415.3 329.301 418.9 312.301 420.3C306.901 420.9 301.501 421.1 296.001 421.1Z" fill="#D1D1D1"/>
<path d="M487.5 326C488.1 328.8 488.6 331.5 489 334.3C489 334.3 487.3 341.5 487.4 341.9C488.8 342.4 489.5 342.5 491.4 342.6C492.4 344.1 493.3 345.6 494.3 347.1C494.6 347.6 495 348.1 495.5 348.5C496.3 349.1 497.3 349.2 498.3 349C499.3 348.8 500.1 348.4 501 348C501.6 347.7 502.3 347.4 503.1 347.5C505.1 349.1 505 355.7 505.7 358.2C506.4 360.7 504.3 361.6 505.5 363.9C506.6 366.2 512.2 365.8 514.7 366.2C516 366.4 517.3 366.1 518.6 365.7C522.3 364.4 524.4 368 526.2 364.5C530.2 357 526.8 357.9 525.2 356.6C522 354.1 516.8 343.2 513.6 337.2C513.2 330.8 509.5 324.7 504 321.5C501.7 320.1 499 319.2 496.2 319.4C493.4 319.5 490.6 320.9 487.5 326Z" fill="white" stroke="black" stroke-miterlimit="10"/>
<path d="M515.5 367.2C515.2 367.2 514.8 367.2 514.5 367.1C513.9 367 513.2 367 512.4 366.9C509.4 366.7 505.7 366.5 504.7 364.3C504 362.8 504.4 361.6 504.7 360.7C505 360 505.2 359.4 504.9 358.5C504.7 357.7 504.5 356.4 504.4 355.1C504.1 352.7 503.7 349.5 502.8 348.5C502.4 348.5 502 348.7 501.5 348.9C500.6 349.3 499.6 349.8 498.5 350C497.2 350.2 495.9 350 495 349.3C494.4 348.8 494 348.2 493.6 347.7L490.9 343.6C489.2 343.5 488.5 343.3 487.1 342.9C486.8 342.8 486.6 342.5 486.5 342.2C486.5 342 486.4 341.5 488.1 334.4C487.7 331.7 487.2 329 486.6 326.3C486.6 326.1 486.6 325.8 486.7 325.7C489.6 321.1 492.4 318.9 496 318.6C498.7 318.4 501.5 319.2 504.3 320.8C510 324.2 513.9 330.4 514.3 337C514.8 338 515.4 339.2 516.1 340.4C519.1 346.1 523.2 354 525.6 356C525.8 356.2 526.2 356.3 526.5 356.5C527.3 356.8 528.2 357.2 528.6 358.4C529.1 359.8 528.5 361.8 526.8 365.1C525.4 367.7 523.6 367.2 522.2 366.8C521.1 366.5 520.1 366.2 518.7 366.7C517.6 367 516.5 367.2 515.5 367.2ZM502.7 346.7C502.9 346.7 503.1 346.7 503.3 346.8C503.4 346.8 503.6 346.9 503.7 347C505.3 348.3 505.8 351.8 506.1 355C506.3 356.3 506.4 357.5 506.6 358.2C507 359.6 506.6 360.7 506.3 361.5C506 362.3 505.8 362.9 506.3 363.7C506.9 365 510.3 365.2 512.5 365.3C513.3 365.3 514.2 365.4 514.8 365.5C515.8 365.6 516.9 365.5 518.2 365C520.1 364.4 521.5 364.7 522.7 365.1C524.1 365.5 524.6 365.6 525.3 364.3C527.1 361 527.2 359.6 527 359C526.9 358.6 526.5 358.5 525.9 358.2C525.5 358 525 357.8 524.6 357.5C521.8 355.3 517.8 347.6 514.6 341.3C513.9 340 513.3 338.8 512.8 337.8C512.7 337.7 512.7 337.6 512.7 337.4C512.3 331.3 508.8 325.5 503.5 322.4C501.8 321.4 499.1 320.2 496.2 320.4C494.2 320.5 491.7 321.4 488.5 326.3C489 329 489.5 331.6 490 334.3C490 334.4 490 334.5 490 334.6C489.4 337.2 488.7 340.1 488.5 341.4C489.4 341.7 490 341.8 491.6 341.9C491.9 341.9 492.1 342.1 492.3 342.3L495.2 346.8C495.5 347.2 495.8 347.7 496.2 348C496.7 348.4 497.5 348.5 498.3 348.4C499.1 348.2 500 347.8 500.8 347.4C501.2 347 501.9 346.7 502.7 346.7Z" fill="black"/>
<path d="M515.6 337.499C514 337.799 512.4 338.599 510.8 338.499C508.9 338.399 507.1 337.199 506.4 335.399C507.5 334.499 508.1 333.099 508 331.699C507.8 330.299 506.8 329.099 505.4 328.799C504 328.599 502.5 329.499 502.3 330.899C501.6 329.599 500.9 328.199 499.6 327.599C498.5 327.099 497.2 327.099 496 327.299C494 327.599 491.9 328.199 489.9 328.099C487.8 327.999 485.6 327.099 484.8 325.199C483.9 323.299 484.7 320.999 485.8 319.099C487.7 315.599 490.5 312.599 494 310.699C497.5 308.799 501.7 308.199 505.5 309.499C507.6 310.199 509.4 311.499 511.2 312.799C513.4 314.499 515.5 316.299 516.9 318.599C520.1 324.299 519.2 331.599 515.6 337.499Z" fill="black"/>
<path d="M506.8 319.099C506.7 314.899 507.6 310.499 509.8 306.899C512 303.299 515.7 300.499 519.9 299.799C524.1 299.099 528.7 300.699 531.2 304.099C532.3 305.599 533 307.399 532.8 309.199C532.6 310.699 532.7 315.999 526.6 319.399C523.4 321.199 517 322.499 512.4 322.899C511.3 322.999 510.1 323.099 509.1 322.599C508 322.199 506.8 320.999 506.8 319.099Z" fill="black"/>
<path d="M501.3 348.799C501 348.799 500.7 348.599 500.5 348.299C500.3 347.899 500.4 347.299 500.8 347.099C501.1 346.899 501.4 346.799 501.7 346.599C503.1 345.899 504.8 344.999 505.9 343.899C506.3 343.599 506.8 343.599 507.2 343.999C507.5 344.399 507.5 344.899 507.1 345.299C505.8 346.499 504 347.399 502.5 348.199C502.2 348.399 501.9 348.499 501.6 348.699C501.5 348.799 501.4 348.799 501.3 348.799Z" fill="black"/>
<path d="M448 460.6C442.4 463.2 435.9 462.6 429.7 463C428.1 463.1 426.5 463.3 425.1 464C423.7 464.7 422.5 466 422.3 467.5C422.1 469 423 470.4 424.2 471.4C425.4 472.3 426.9 472.8 428.4 473C432.5 473.7 436.8 473 440.7 471.6C444.6 470.2 448.3 468.2 451.9 466.1C451 464.4 450.1 462.9 448 460.6Z" fill="black"/>
<path d="M431.7 473.999C430.5 473.999 429.4 473.899 428.3 473.699C426.3 473.399 424.8 472.799 423.7 471.899C422.2 470.699 421.3 468.899 421.5 467.199C421.7 465.499 422.9 463.899 424.8 462.999C426.3 462.299 428.1 462.099 429.7 461.899C431.2 461.799 432.8 461.799 434.3 461.699C438.9 461.599 443.6 461.499 447.7 459.599C448.1 459.399 448.5 459.499 448.7 459.799C450.9 462.199 451.8 463.799 452.7 465.299C452.9 465.699 452.8 466.299 452.4 466.499C448.5 468.699 445 470.699 441.1 472.099C437.7 473.499 434.6 473.999 431.7 473.999ZM447.8 461.699C443.6 463.499 438.9 463.599 434.3 463.699C432.8 463.699 431.3 463.799 429.8 463.899C428.1 463.999 426.8 464.199 425.6 464.799C424.6 465.299 423.5 466.299 423.3 467.599C423.2 468.699 423.8 469.899 424.8 470.699C425.7 471.399 426.9 471.899 428.6 472.199C432.2 472.799 436.2 472.299 440.5 470.799C444 469.599 447.2 467.799 450.7 465.799C450 464.499 449.2 463.299 447.8 461.699Z" fill="black"/>
<path d="M552.199 454.799C556.599 453.999 558.899 449.099 559.699 444.699C561.599 433.399 558.799 426.799 554.499 416.099C558.199 413.199 559.699 408.299 559.499 403.599C559.299 398.999 556.199 389.699 554.799 385.299C545.499 355.799 534.699 354.699 523.999 353.199C520.799 356.699 517.099 359.999 512.499 360.999C510.499 361.399 508.299 361.299 506.599 360.299C504.899 359.199 503.799 356.999 503.899 355.199C498.399 356.799 491.799 360.799 489.099 365.799C484.599 373.799 484.899 381.199 486.499 408.299C482.099 411.599 477.699 414.899 473.399 418.099C472.299 418.999 471.099 419.899 470.499 421.099C469.899 422.299 469.899 423.799 469.899 425.199C469.999 429.899 470.699 434.699 471.999 439.299C472.399 440.699 472.799 442.099 473.599 443.299C474.299 444.299 475.199 445.099 476.199 445.899C478.899 447.999 481.799 449.899 484.999 450.899C492.499 453.299 498.299 444.699 505.399 441.299C512.499 437.899 528.299 429.999 528.299 429.999C532.599 429.199 544.499 451.099 552.199 454.799Z" fill="white" stroke="black" stroke-miterlimit="10"/>
<path d="M552.2 455.699C552.1 455.699 551.9 455.699 551.8 455.599C547.9 453.699 543.1 447.599 538.5 441.599C536.2 438.599 534 435.799 532.1 433.699C529.7 431.199 528.7 430.899 528.3 430.899C526.8 431.599 512.3 438.899 505.5 442.099C503.2 443.199 501 444.899 498.8 446.599C494.4 449.999 489.8 453.499 484.4 451.799C481.4 450.899 478.4 449.199 475.3 446.599C474.3 445.799 473.3 444.899 472.6 443.799C471.7 442.499 471.2 440.899 470.9 439.599C469.7 434.999 469 430.199 468.8 425.299C468.8 423.899 468.8 422.199 469.5 420.799C470.2 419.299 471.6 418.299 472.7 417.499L485.5 407.899C483.9 381.099 483.7 373.699 488.3 365.399C491.2 360.099 498.1 356.099 503.7 354.399C504 354.299 504.3 354.399 504.5 354.599C504.7 354.799 504.9 355.099 504.8 355.399C504.7 356.899 505.7 358.799 507.1 359.699C508.4 360.499 510.3 360.699 512.4 360.299C516.8 359.299 520.5 355.899 523.4 352.699C523.6 352.499 523.9 352.399 524.2 352.399L524.6 352.499C535.3 353.999 546.4 355.499 555.7 385.199C555.9 385.699 556 386.199 556.2 386.799C557.7 391.499 560.2 399.499 560.4 403.699C560.6 408.899 558.8 413.599 555.6 416.499L555.7 416.799C559.8 426.999 562.5 433.699 560.6 444.899C559.8 449.499 557.2 454.799 552.4 455.699C552.3 455.699 552.2 455.699 552.2 455.699ZM528.3 429.199C531 429.199 534.5 433.599 539.9 440.599C544 445.999 548.7 451.999 552.3 453.899C556.1 452.999 558.1 448.599 558.8 444.599C560.6 433.899 558.2 427.699 554 417.399L553.6 416.499C553.5 416.099 553.6 415.699 553.9 415.499C557 413.099 558.7 408.699 558.5 403.699C558.3 399.699 555.8 391.899 554.4 387.199C554.2 386.599 554 386.099 553.9 385.599C549.8 372.699 545.1 364.199 539.5 359.599C534.6 355.599 529.6 354.899 524.2 354.199C521.1 357.499 517.3 360.899 512.5 361.999C510 362.499 507.7 362.199 505.9 361.199C504.3 360.199 503.1 358.399 502.8 356.599C497.8 358.299 492.1 361.899 489.6 366.399C485.2 374.299 485.5 381.599 487.1 408.399C487.1 408.699 487 408.999 486.7 409.199L473.6 418.999C472.6 419.699 471.5 420.599 470.9 421.699C470.4 422.799 470.4 424.099 470.4 425.299C470.5 429.999 471.2 434.599 472.4 439.199C472.7 440.399 473.1 441.799 473.9 442.899C474.5 443.799 475.3 444.499 476.3 445.299C479.3 447.699 482.1 449.299 484.8 450.199C489.4 451.599 493.4 448.599 497.6 445.299C499.8 443.599 502.1 441.799 504.6 440.599C511.6 437.199 527.3 429.399 527.5 429.299C527.6 429.299 527.6 429.199 527.7 429.199C528 429.199 528.2 429.199 528.3 429.199Z" fill="black"/>
<path d="M457.101 458.199C445.401 451.299 433.801 443.799 425.101 433.299C422.701 430.399 420.401 427.199 419.401 423.499C418.401 419.799 418.801 415.599 421.201 412.599C421.701 411.899 422.401 411.299 423.201 410.999C424.801 410.399 426.501 411.199 428.101 411.899C446.101 420.299 466.501 423.699 482.901 434.999C474.001 442.999 464.801 450.499 457.101 458.199Z" fill="#EC103C"/>
<path d="M457.101 459.1C456.901 459.1 456.801 459.1 456.701 459C443.301 451.1 432.701 443.799 424.401 433.899C422.301 431.299 419.701 427.9 418.501 423.7C417.301 419.4 418.101 415 420.501 412C421.301 411.1 422.001 410.5 422.901 410.2C424.901 409.5 427.001 410.4 428.501 411.1C435.401 414.3 442.801 416.899 450.001 419.299C461.401 423.199 473.301 427.2 483.401 434.2C483.601 434.4 483.801 434.599 483.801 434.899C483.801 435.199 483.701 435.4 483.501 435.6C480.501 438.3 477.501 440.9 474.601 443.5C468.601 448.7 463.001 453.6 457.801 458.7C457.501 459 457.301 459.1 457.101 459.1ZM424.301 411.7C424.001 411.7 423.701 411.699 423.401 411.799C422.901 411.999 422.301 412.4 421.801 413.1C419.801 415.6 419.101 419.4 420.201 423.2C421.201 427 423.701 430.3 425.701 432.7C433.701 442.3 444.001 449.4 456.901 457C462.001 452.1 467.401 447.3 473.201 442.2C475.901 439.9 478.601 437.5 481.301 435.1C471.601 428.6 460.201 424.8 449.301 421C442.101 418.5 434.601 416 427.601 412.7C426.401 412.2 425.301 411.7 424.301 411.7Z" fill="#EC103C"/>
<path d="M537.2 425.399C536.9 425.399 536.6 425.199 536.4 424.899C536.2 424.499 536.4 423.899 536.8 423.699C538.9 422.699 541 421.699 543.1 420.799C547 419.099 550.6 417.599 554 415.299C554.4 414.999 555 415.099 555.2 415.499C555.5 415.899 555.4 416.499 555 416.699C551.5 419.099 547.6 420.799 543.8 422.399C541.7 423.299 539.6 424.199 537.6 425.199C537.5 425.399 537.3 425.399 537.2 425.399Z" fill="black"/>
<path d="M500.4 415.299C497 415.799 493.7 416.299 490.3 416.799C487.9 417.099 485.4 417.599 483.7 419.199C482.3 420.599 479.6 424.099 480.7 425.799C480.8 425.999 481 425.799 481.1 426.099C481.8 427.099 484.7 422.299 486.2 420.999C484.8 423.099 481.6 427.299 483.2 427.899C484.3 428.999 486.5 425.199 489 422.399L487.2 426.999C487 427.499 487.1 427.999 487.5 428.299C488.2 428.899 489 427.999 489.4 427.299C490.4 425.699 491.6 423.899 493.4 423.599C492.2 424.999 491.6 426.899 491.9 428.699C493.1 428.899 493.8 427.599 494.5 426.599C496.8 423.099 501.3 421.899 505.5 421.199C505 418.499 502.9 416.299 500.4 415.299Z" fill="white" stroke="black" stroke-miterlimit="10"/>
<path d="M492.2 429.499C492.1 429.499 492 429.499 491.9 429.499C491.5 429.499 491.2 429.199 491.1 428.799C490.9 427.899 491 427.099 491.1 426.199C490.8 426.699 490.4 427.199 490.1 427.699C489.8 428.199 489.2 429.099 488.3 429.299C487.8 429.399 487.3 429.299 486.9 428.999C486.4 428.599 486.1 427.899 486.2 427.199C485.3 428.199 484.6 428.899 483.8 428.999C483.4 428.999 483.1 428.899 482.8 428.699C482.4 428.499 482.1 428.199 482 427.799C481.9 427.599 481.9 427.299 481.9 427.099C481.7 427.199 481.5 427.199 481.4 427.199C481.1 427.199 480.8 427.099 480.6 426.899C480.4 426.799 480.2 426.699 480 426.399C478.1 423.699 483.1 418.699 483.1 418.699C485.1 416.799 488 416.299 490.2 415.999L500.3 414.499C500.5 414.499 500.6 414.499 500.8 414.599C503.7 415.799 505.9 418.299 506.4 420.999C506.4 421.199 506.4 421.499 506.3 421.699C506.2 421.899 506 421.999 505.7 422.099C501.8 422.799 497.5 423.899 495.3 427.099L495.2 427.299C494.5 428.199 493.6 429.499 492.2 429.499ZM489 421.399C489.2 421.399 489.3 421.399 489.5 421.499C489.9 421.699 490 422.199 489.9 422.599L488.1 427.199C488.1 427.299 488.1 427.399 488.1 427.399C488.2 427.299 488.5 427.099 488.7 426.699C489.8 424.799 491.2 422.899 493.3 422.599C493.7 422.499 494 422.699 494.2 422.999C494.4 423.299 494.3 423.699 494.1 423.999C493.3 424.899 492.8 426.099 492.8 427.299C493.1 426.999 493.4 426.499 493.7 426.099L493.9 425.899C496.3 422.399 500.5 421.099 504.5 420.299C503.8 418.499 502.3 416.999 500.4 416.099L490.5 417.499C488 417.899 485.8 418.299 484.4 419.699C482.7 421.299 481.1 423.999 481.4 424.999C481.4 424.999 481.5 424.999 481.5 425.099C482 424.699 482.9 423.499 483.5 422.699C484.3 421.699 485.1 420.699 485.7 420.199C486 419.899 486.5 419.899 486.9 420.199C487.2 420.499 487.3 420.999 487 421.399C486.8 421.699 486.6 421.999 486.4 422.299C485.7 423.399 483.7 426.099 483.7 426.999H483.8C484.3 426.799 485.5 425.299 486.2 424.299C486.9 423.499 487.6 422.499 488.4 421.599C488.5 421.499 488.8 421.399 489 421.399Z" fill="black"/>
<path d="M501.6 419.699C501.3 419.699 501 419.499 500.8 419.199C500.6 418.899 500 417.799 499.4 416.899C498.8 415.899 498.2 414.899 498 414.499C497.9 414.199 497.9 413.899 498 413.699C498.1 413.399 498.4 413.299 498.7 413.199C502 412.799 509.2 410.899 516.9 408.999C524.9 406.999 533.1 404.899 538.7 403.899C536.2 395.599 532.7 382.399 530.6 371.299C530.5 370.799 530.8 370.399 531.3 370.299C531.8 370.199 532.2 370.499 532.3 370.999C534.6 382.499 538.2 396.099 540.7 404.399C540.8 404.599 540.7 404.899 540.6 405.099C540.5 405.299 540.2 405.499 540 405.499C534.6 406.399 525.8 408.599 517.4 410.699C510.5 412.399 504 414.099 500.3 414.699C500.5 415.099 500.8 415.499 501 415.999C501.6 417.099 502.2 417.999 502.4 418.399C502.6 418.799 502.5 419.399 502 419.599C501.9 419.699 501.7 419.699 501.6 419.699Z" fill="black"/>
<path d="M488.4 454.999C494.7 460.999 506 466.699 514.7 466.999C517.5 467.099 520.3 466.799 523.1 466.499C530.2 465.799 537.6 466.599 544.5 464.499C562.7 458.899 551.6 440.299 548.4 435.099C545.9 431.099 535 419.099 532.1 417.199C527.2 413.999 521 413.499 515.3 414.599C509.6 415.699 504.4 418.399 499.3 421.199C480.2 431.999 463.1 445.899 445.8 459.699C447.8 462.599 449.2 465.999 449.9 469.399C450 469.299 450.2 469.099 450.3 468.999L488.4 454.999Z" fill="#EC103C"/>
<path d="M449.8 470.299C449.7 470.299 449.6 470.299 449.5 470.299C449.2 470.199 449 469.999 448.9 469.599C448.2 466.299 446.8 462.999 444.9 460.199C444.6 459.799 444.7 459.299 445.1 458.999L447.7 456.899C463.8 443.999 480.5 430.699 498.7 420.399C503.7 417.599 509.1 414.799 515 413.699C521.6 412.399 527.7 413.299 532.4 416.399C535.5 418.399 546.5 430.699 549 434.599C554.8 443.699 556.7 451.399 554.7 456.999C553.3 460.899 549.9 463.699 544.7 465.299C540 466.699 535.1 466.899 530.3 466.999C527.9 467.099 525.5 467.099 523.2 467.399C520.4 467.699 517.6 467.899 514.7 467.899C505.4 467.699 494.3 461.699 488.2 456.099L450.8 469.799L450.5 470.099C450.3 470.199 450.1 470.299 449.8 470.299ZM446.9 459.899C448.5 462.399 449.7 465.199 450.4 467.999L488.1 454.199C488.4 454.099 488.8 454.199 489 454.399C494.8 459.999 506 465.899 514.7 466.099C517.5 466.199 520.3 465.899 523 465.599C525.4 465.399 527.9 465.299 530.2 465.199C534.9 465.099 539.7 464.899 544.2 463.599C548.9 462.199 551.8 459.699 553.1 456.399C555 451.399 553.1 444.199 547.6 435.599C545.1 431.599 534.2 419.699 531.5 417.899C527.2 415.099 521.5 414.299 515.4 415.499C509.8 416.599 504.5 419.299 499.7 421.999C481.6 432.199 465 445.499 449 458.299L446.9 459.899Z" fill="#EC103C"/>
<path d="M505.2 413.099C504.9 413.099 504.6 412.899 504.4 412.599C503.4 410.599 502.8 408.399 502.1 406.099C501.4 403.499 500.6 400.699 499.2 398.299C499 397.899 497.7 396.599 496.6 395.499C493.6 392.299 492.3 390.899 492.1 389.999C490.9 385.199 493.7 378.199 495.5 373.599C495.7 373.099 496.2 372.899 496.7 373.099C497.2 373.299 497.4 373.799 497.2 374.299C495.4 378.699 492.8 385.399 493.9 389.599C494.1 390.199 496.5 392.799 498 394.299C499.6 395.999 500.5 396.999 500.8 397.499C502.4 400.099 503.1 402.999 503.9 405.699C504.5 407.899 505.1 410.099 506 411.899C506.2 412.299 506.1 412.899 505.6 413.099C505.5 413.099 505.3 413.099 505.2 413.099Z" fill="black"/>
<path d="M487.9 456.399C490.8 454.999 493.4 453.799 496.4 452.399C504.3 448.599 512.8 445.399 519.3 439.699C514.8 446.899 498.5 453.699 489.9 458.199C489.3 457.799 488.9 456.899 487.9 456.399Z" fill="white" stroke="black" stroke-miterlimit="10"/>
<path d="M495.601 462.299C496.401 464.699 494.401 467.499 491.401 467.999C488.901 468.499 486.201 467.599 483.701 468.099C482.301 468.399 481.001 469.099 479.701 469.599C476.701 470.799 472.601 470.999 470.301 468.899C469.001 467.699 468.501 465.999 468.501 464.299C468.401 462.699 468.801 460.899 470.001 459.699C471.901 457.899 475.301 457.599 478.201 458.099C481.101 458.599 483.901 459.499 486.801 459.499C488.501 459.499 490.201 459.199 492.001 459.299C493.601 459.599 495.001 460.399 495.601 462.299Z" fill="black"/>
<path d="M475.101 471.399C473.101 471.399 471.101 470.899 469.701 469.599C468.401 468.399 467.601 466.699 467.601 464.399C467.501 462.099 468.101 460.399 469.401 459.099C472.001 456.599 476.501 456.999 478.301 457.299C479.401 457.499 480.401 457.699 481.401 457.899C483.201 458.299 485.001 458.699 486.801 458.699C487.501 458.699 488.201 458.699 488.901 458.599C489.901 458.499 490.901 458.399 492.001 458.499C494.301 458.699 495.801 459.799 496.501 461.999C496.901 463.299 496.701 464.599 496.001 465.899C495.101 467.399 493.501 468.599 491.701 468.899C490.301 469.199 488.901 469.099 487.601 468.899C486.301 468.799 485.101 468.699 484.001 468.899C483.101 469.099 482.201 469.499 481.301 469.899C480.901 470.099 480.501 470.199 480.101 470.399C478.601 471.099 476.801 471.399 475.101 471.399ZM475.601 458.899C473.401 458.899 471.601 459.399 470.601 460.499C469.701 461.399 469.301 462.699 469.301 464.499C469.401 466.299 469.901 467.599 470.801 468.399C472.801 470.199 476.601 469.999 479.301 468.899C479.701 468.799 480.001 468.599 480.401 468.399C481.401 467.999 482.301 467.499 483.501 467.299C484.901 466.999 486.301 467.199 487.601 467.299C488.901 467.399 490.101 467.499 491.201 467.299C492.501 466.999 493.701 466.199 494.401 465.099C494.901 464.299 495.001 463.399 494.701 462.699C494.201 461.199 493.301 460.499 491.801 460.399C490.901 460.299 490.001 460.399 489.001 460.499C488.301 460.599 487.501 460.599 486.701 460.599C484.701 460.599 482.801 460.199 481.001 459.699C480.001 459.499 479.001 459.299 478.001 459.099C477.201 458.899 476.401 458.899 475.601 458.899Z" fill="black"/>
<path d="M449.5 455.099C459.7 447.799 468.7 440.499 478.1 432.199C477.3 432.599 476.4 432.699 475.5 432.299C466.3 439.799 457.4 446.999 447.9 454.099C448.5 454.599 449.3 454.899 449.5 455.099Z" fill="white" stroke="black" stroke-miterlimit="10"/>
<path d="M415.3 380.699C419.2 395.499 423.2 410.399 427.1 425.199C427.1 425.199 479.4 433.299 479.4 432.299C476.5 417.199 473.3 402.199 469.8 387.199L415.3 380.699Z" fill="white" stroke="black" stroke-miterlimit="10"/>
<path d="M478.9 433.299C477.9 433.299 475.7 433.099 470.7 432.499C466.3 431.899 460.3 431.099 452.8 429.999C440 428.099 427.1 426.099 427 426.099C426.7 425.999 426.4 425.799 426.3 425.499L414.5 380.999C414.4 380.699 414.5 380.399 414.7 380.199C414.9 379.999 415.2 379.899 415.5 379.899L470 386.399C470.4 386.399 470.7 386.699 470.8 387.099C474.3 401.999 477.5 417.199 480.4 432.199C480.4 432.299 480.4 432.299 480.4 432.399C480.4 432.699 480.3 432.899 480.1 433.099C479.8 433.199 479.7 433.299 478.9 433.299ZM427.9 424.399C446.3 427.199 473.2 431.199 478.4 431.499C475.6 416.999 472.5 402.399 469.1 387.999L416.5 381.699L427.9 424.399Z" fill="black"/>
<path d="M446.4 400.3C444.8 400.4 443.2 401.1 442.5 402.5C441.7 403.9 441.6 405.6 442 407.1C442.3 408.4 442.9 409.7 443.9 410.6C445.7 412.2 448.6 412.2 450.5 410.7C452.4 409.2 453 406.4 452.2 404.2C451.4 402 449.6 400.2 446.4 400.3Z" fill="white" stroke="black" stroke-miterlimit="10"/>
<path d="M447.1 412.7C445.7 412.7 444.3 412.2 443.2 411.3C442.1 410.4 441.4 409 441 407.3C440.6 405.4 440.8 403.5 441.6 402C442.5 400.5 444.2 399.5 446.3 399.4C449.4 399.2 451.7 400.8 452.9 403.9C453.9 406.5 453.1 409.7 451 411.4C449.9 412.3 448.5 412.7 447.1 412.7ZM446.4 401.2C445 401.3 443.8 401.9 443.2 402.9C442.6 404 442.4 405.4 442.8 406.9C443 407.8 443.4 409.1 444.4 409.9C445.8 411.2 448.3 411.2 449.8 409.9C451.3 408.7 451.9 406.3 451.2 404.4C450.4 402.2 448.8 401.1 446.4 401.2Z" fill="black"/>
<path d="M508.101 448.199C510.401 450.099 512.601 452.099 515.001 453.899C517.901 456.299 521.001 458.699 524.701 459.599C519.501 455.899 514.601 451.599 510.201 446.999C509.601 447.399 509.001 447.799 508.101 448.199Z" fill="white" stroke="black" stroke-miterlimit="10"/>
<path d="M133.601 105.6C130.501 113.6 128.101 121.9 126.401 130.3C142.201 135.9 154.601 149.1 170.801 153.8C168.301 157.2 166.401 161 165.301 165C146.701 163.4 126.301 156 113.501 146.5C109.201 143.3 106.001 138.5 104.701 133.2C103.701 128.8 104.201 124.2 104.901 119.7C106.301 110.6 108.501 101.4 113.801 93.9C119.001 86.4 125.601 80.7 134.701 81.4C132.701 88.8 136.801 97.2 133.601 105.6Z" fill="#EC103C"/>
<path d="M165.201 165.8C146.501 164.2 126.001 156.8 112.901 147.1C108.401 143.8 105.101 138.7 103.801 133.3C102.701 128.6 103.301 123.7 104.001 119.5C105.301 111.1 107.401 101.4 113.001 93.2999C119.401 83.9999 126.501 79.7999 134.701 80.3999C135.001 80.3999 135.201 80.5999 135.401 80.7999C135.601 80.9999 135.601 81.2999 135.501 81.4999C134.701 84.6999 135.001 88.0999 135.301 91.6999C135.701 96.2999 136.201 101 134.401 105.8C131.501 113.5 129.101 121.5 127.401 129.6C134.701 132.3 141.301 136.6 147.701 140.7C155.001 145.4 162.601 150.3 171.001 152.8C171.301 152.9 171.501 153.1 171.601 153.4C171.701 153.7 171.601 154 171.501 154.2C169.001 157.5 167.201 161.2 166.101 165.1C165.901 165.6 165.601 165.8 165.201 165.8ZM133.101 82.1999C126.101 82.1999 120.101 86.0999 114.401 94.3999C109.001 102.2 107.001 111.6 105.701 119.8C105.101 123.9 104.501 128.6 105.501 133C106.701 138 109.801 142.7 113.901 145.8C126.501 155.2 146.301 162.3 164.501 164.1C165.601 160.6 167.201 157.3 169.201 154.3C161.001 151.7 153.701 147 146.701 142.4C140.101 138.2 133.401 133.8 126.001 131.2C125.601 131.1 125.301 130.6 125.401 130.2C127.101 121.8 129.501 113.4 132.601 105.4C134.301 101 133.901 96.4999 133.401 92.0999C133.101 88.6999 132.801 85.4999 133.401 82.2999C133.401 82.1999 133.301 82.1999 133.101 82.1999Z" fill="#EC103C"/>
<path d="M130 130.399C129.5 121.899 129.7 113.199 132.8 105.199C131.7 112.899 131.3 120.699 131.5 128.499C131 129.099 130.6 129.599 130 130.399Z" fill="white" stroke="black" stroke-miterlimit="10"/>
<path d="M70.3998 429.9C88.0998 429.5 105.9 429.1 123.6 428.7C127.3 428.6 131.2 428.5 134.3 426.6C137.8 424.5 139.9 420.2 139.5 416.2C139 412.1 136 408.4 132.1 407.2C125.2 405 118 410.2 113.7 416C114.4 407.5 112.6 403.2 107.5 399.4C102.4 395.6 90.1998 395.8 86.0998 400.6C82.4998 404.8 83.2998 411.1 84.1998 416.6C81.3998 412.6 76.6998 409.7 71.7998 409.8C66.8998 409.9 61.9998 413.3 60.9998 418.1C59.9998 422.9 63.3998 430.1 70.3998 429.9Z" fill="white" stroke="black" stroke-miterlimit="10"/>
<path d="M70.2 430.8C67.2 430.8 64.5001 429.5 62.6001 427.2C60.5001 424.6 59.6001 421 60.2001 418C61.3001 413 66.3001 409.1 71.9001 409C72.0001 409 72.1 409 72.2 409C76.1 409 80.0001 410.7 83.0001 413.7C82.4001 408.8 82.4001 403.8 85.6001 400.1C90.1001 394.8 102.9 394.7 108.2 398.7C113.1 402.4 115 406.5 114.9 413.3C119.4 408.2 126 404.2 132.6 406.3C136.8 407.7 140.1 411.7 140.6 416.1C141.1 420.5 138.8 425.1 135 427.4C131.5 429.5 127.3 429.6 123.8 429.6L70.6001 430.8C70.4001 430.8 70.3 430.8 70.2 430.8ZM72.2 410.7C72.1 410.7 72.0001 410.7 72.0001 410.7C67.3001 410.8 63.0001 414.2 62.0001 418.4C61.4001 420.9 62.3001 424 64.0001 426.1C65.1001 427.5 67.1001 429.1 70.4001 429L123.6 427.8C127 427.7 130.8 427.6 133.9 425.8C137.1 423.9 139.1 419.9 138.6 416.2C138.2 412.5 135.4 409.1 131.8 407.9C125.2 405.8 118.3 411.1 114.4 416.4C114.2 416.7 113.7 416.8 113.4 416.7C113 416.6 112.8 416.2 112.8 415.8C113.5 407.9 112 403.7 107 400C102.4 396.5 90.8001 396.5 86.8001 401.1C83.5001 405 84.2001 411.1 85.1001 416.4C85.2001 416.8 84.9001 417.2 84.6001 417.4C84.2001 417.6 83.8001 417.4 83.5001 417.1C80.9001 413.2 76.5 410.7 72.2 410.7Z" fill="black"/>
<path d="M535.801 165.2C520.401 165.2 505.001 164 490.001 162.9C489.501 162.9 489.101 162.4 489.201 161.9C489.201 161.4 489.701 161 490.201 161.1C512.801 162.8 536.101 164.6 559.001 162.4C563.901 161.9 569.801 160.8 572.301 156.5C572.501 156.1 573.101 155.9 573.501 156.2C573.901 156.4 574.101 157 573.801 157.4C570.901 162.4 564.501 163.7 559.201 164.2C551.301 164.9 543.501 165.2 535.801 165.2Z" fill="#D1D1D1"/>
<path d="M75.7006 426.899C72.3006 426.899 68.9006 426.299 66.1006 424.199C65.9006 423.999 65.8006 423.799 65.8006 423.499L65.6006 419.099C65.6006 418.599 66.0006 418.199 66.5006 418.199C67.0006 418.199 67.4006 418.599 67.4006 419.099L67.6006 422.999C71.4006 425.599 76.5006 425.199 81.5006 424.699C82.0006 424.699 82.4006 424.599 82.9006 424.599C88.9006 424.099 95.1006 424.299 101.001 424.399C109.701 424.699 118.801 424.899 127.301 422.899C127.801 422.799 128.301 423.099 128.401 423.599C128.501 424.099 128.201 424.599 127.701 424.699C118.901 426.699 109.801 426.499 100.901 426.199C95.0006 425.999 88.9006 425.899 83.0006 426.399C82.5006 426.399 82.1006 426.499 81.6006 426.499C79.7006 426.699 77.7006 426.899 75.7006 426.899Z" fill="#D1D1D1"/>
<path d="M564.9 224.4C564.4 224.4 564 224 564 223.5C563.8 216.5 559.4 206.6 550.5 206.5C550.1 206.5 549.7 206.2 549.6 205.7C549.5 205.3 549.8 204.8 550.3 204.7C557.9 202.8 563.9 193.7 563.2 185.2C563.2 184.7 563.5 184.3 564 184.2C564.5 184.1 564.9 184.5 565 185C566 192.9 568.4 201.3 578.1 203.5C578.5 203.6 578.8 204 578.8 204.4C578.8 204.8 578.5 205.2 578.1 205.3C571.3 206.7 566.6 213.7 565.9 223.6C565.8 224 565.4 224.4 564.9 224.4ZM554 205.3C559.8 207 563.3 212.4 564.9 217.9C566.5 211.4 570.1 206.6 574.9 204.5C568.5 202 565.7 196.5 564.4 191.8C563 197.5 559 202.7 554 205.3Z" fill="#EC103C"/>
<path d="M58.1008 383C57.6008 383 57.2008 382.6 57.2008 382.1C57.0008 375.2 52.5008 365.4 43.1008 365.3C42.7008 365.3 42.3008 365 42.2008 364.5C42.1008 364.1 42.4008 363.6 42.9008 363.5C50.8008 361.6 57.1008 352.6 56.3008 344.2C56.3008 343.7 56.6008 343.3 57.1008 343.2C57.6008 343.1 58.0008 343.5 58.1008 344C59.2008 351.8 61.6008 360.1 71.7008 362.3C72.1008 362.4 72.4008 362.8 72.4008 363.2C72.4008 363.6 72.1008 364 71.7008 364.1C64.6008 365.5 59.7008 372.5 59.0008 382.2C58.9008 382.6 58.5008 383 58.1008 383ZM46.7008 364C52.7008 365.7 56.4008 371.2 58.0008 376.6C59.7008 370.1 63.4008 365.3 68.4008 363.2C61.7008 360.7 58.9008 355.2 57.5008 350.5C56.0008 356.3 52.0008 361.5 46.7008 364Z" fill="#EC103C"/>
<path d="M87.7001 146.399C87.9001 146.099 87.9001 141.299 87.1001 137.599C86.4001 134.099 84.9001 131.599 84.9001 131.599C82.9001 132.099 80.2001 132.699 78.3001 132.099C76.1001 131.499 74.0001 129.999 73.2001 127.899C72.5001 126.299 72.6001 124.499 73.1001 122.899C73.6001 121.299 75.0001 119.099 75.9001 117.599C76.1001 117.399 73.1001 114.499 70.0001 112.399C67.2001 110.499 64.2001 109.499 64.2001 109.499C62.6001 112.999 59.6001 116.499 55.8001 116.799C54.8001 116.899 53.7001 116.799 52.7001 116.499C50.9001 115.899 49.5001 114.499 48.6001 112.799C47.7001 111.099 46.7001 108.299 46.5001 106.399C46.2001 106.099 42.3001 105.599 38.6001 106.299C35.5001 106.899 32.4001 108.899 32.4001 108.899C33.3001 111.599 33.6001 114.599 32.6001 117.299C31.7001 119.999 29.5001 122.299 26.7001 122.899C25.3001 123.199 23.8001 122.999 22.4001 122.599C20.6001 122.199 19.0001 121.399 17.4001 120.499C17.4001 120.499 13.4001 123.399 11.4001 126.499C8.60007 130.799 9.20007 134.399 9.20007 134.399C11.2001 134.799 17.8001 137.199 16.5001 142.999C16.3001 143.899 16.0001 144.799 15.6001 145.599C13.5001 149.499 8.70007 151.499 6.80007 150.999C6.70007 151.199 6.80007 155.599 7.80007 158.999C8.80007 162.199 10.7001 164.399 10.7001 164.399C13.8001 163.699 17.3001 163.399 19.9001 165.399C21.9001 166.899 22.8001 169.599 22.7001 172.099C22.6001 173.999 21.8001 175.899 20.7001 177.499C20.7001 177.599 23.2001 179.899 26.0001 181.499C28.5001 182.899 31.2001 183.699 31.2001 183.699C32.6001 179.599 37.5001 177.099 41.6001 178.199C45.8001 179.299 47.4001 183.699 47.8001 188.199C47.9001 188.299 51.7001 188.299 55.4001 187.499C58.8001 186.699 62.1001 185.099 62.1001 185.099C60.1001 180.499 60.7001 176.499 62.4001 174.499C64.1001 172.599 66.2001 171.299 68.8001 171.399C71.4001 171.499 74.1001 173.299 76.1001 174.899C76.4001 174.899 80.1001 171.699 82.2001 168.699C84.2001 165.699 84.6001 162.799 84.6001 162.799C83.1001 161.799 81.6001 160.699 80.6001 159.199C79.6001 157.699 78.9001 155.899 79.2001 154.099C79.5001 151.599 80.7001 146.399 87.7001 146.399ZM57.8001 155.899C55.2001 158.999 51.9001 160.199 48.9001 160.599C41.4001 161.599 33.2001 154.699 32.7001 148.499C32.3001 143.699 33.5001 139.099 39.1001 134.399C41.9001 131.999 45.8001 131.099 49.5001 131.699C54.4001 132.399 59.4001 136.299 60.8001 141.599C62.2001 146.899 61.8001 151.199 57.8001 155.899Z" fill="white" stroke="black" stroke-miterlimit="10"/>
<path d="M48.8005 189.099C47.6005 189.099 47.4005 188.899 47.2005 188.799C47.1005 188.699 47.0005 188.499 47.0005 188.299C46.5005 182.999 44.6005 179.899 41.4005 179.099C37.7005 178.099 33.3005 180.399 32.0005 183.999C31.8005 184.399 31.4005 184.699 30.9005 184.599C30.8005 184.599 28.1005 183.699 25.5005 182.299C23.9005 181.399 22.4005 180.299 21.7005 179.699C19.7005 178.099 19.7005 177.899 19.8005 177.399C19.8005 177.299 19.9005 177.099 20.0005 176.999C21.1005 175.599 21.7005 173.899 21.9005 172.099C22.1005 169.699 21.1005 167.399 19.5005 166.199C17.1005 164.399 13.5005 164.899 11.0005 165.399C10.7005 165.499 10.4005 165.399 10.1005 165.099C10.0005 164.999 8.00047 162.699 7.00047 159.399C6.10047 156.499 5.60047 151.399 6.10047 150.699C6.30047 150.399 6.70047 150.199 7.10047 150.299C8.40047 150.599 12.9005 148.999 14.9005 145.299C15.3005 144.599 15.5005 143.799 15.7005 142.899C16.0005 141.499 15.8005 140.199 15.0005 139.099C13.5005 136.799 10.2005 135.599 9.00047 135.399C8.60047 135.299 8.40047 134.999 8.30047 134.699C8.30047 134.499 7.70047 130.699 10.7005 126.199C12.8005 122.999 16.8005 120.099 16.9005 119.999C17.2005 119.799 17.6005 119.799 17.9005 119.999C19.4005 120.899 21.0005 121.599 22.6005 121.999C24.1005 122.399 25.4005 122.499 26.5005 122.299C28.8005 121.799 30.9005 119.899 31.8005 117.299C32.8005 114.399 32.2005 111.499 31.5005 109.499C31.4005 109.099 31.5005 108.699 31.9005 108.499C32.0005 108.399 35.2005 106.399 38.4005 105.799C42.0005 104.999 46.4005 105.399 47.1005 106.099C47.3005 106.199 47.4005 106.499 47.4005 106.699C47.6005 108.499 48.5005 111.199 49.4005 112.699C50.3005 114.299 51.6005 115.499 53.0005 115.999C53.8005 116.299 54.7005 116.399 55.7005 116.299C59.3005 116.099 62.0005 112.699 63.4005 109.599C63.6005 109.199 64.1005 108.999 64.5005 109.099C64.6005 109.099 67.6005 110.199 70.5005 112.099C72.6005 113.499 76.7005 116.899 76.8005 117.899C76.8005 118.099 76.8005 118.299 76.6005 118.499L76.3005 118.999C75.5005 120.399 74.3005 122.199 73.9005 123.499C73.4005 125.099 73.4005 126.699 73.9005 127.899C74.6005 129.599 76.3005 130.899 78.5005 131.599C80.3005 132.099 82.8005 131.499 84.7005 131.099C85.1005 130.999 85.5005 131.199 85.7005 131.499C85.8005 131.599 87.3005 134.099 88.0005 137.699C88.7005 141.199 88.9005 146.399 88.5005 147.099C88.3005 147.399 88.0005 147.599 87.7005 147.599C83.2005 147.599 80.7005 149.799 80.0005 154.499C79.8005 155.899 80.3005 157.599 81.3005 158.999C82.1005 160.199 83.4005 161.299 85.1005 162.399C85.4005 162.599 85.6005 162.899 85.5005 163.299C85.5005 163.399 85.1005 166.399 83.0005 169.599C81.8005 171.399 80.1005 173.099 79.2005 173.999C76.9005 176.199 76.4005 176.199 76.2005 176.199C76.0005 176.199 75.8005 176.099 75.7005 175.999C72.9005 173.799 70.7005 172.799 68.9005 172.699C66.8005 172.599 64.9005 173.499 63.2005 175.499C61.8005 177.099 61.2005 180.699 63.1005 185.099C63.3005 185.499 63.1005 185.999 62.7005 186.199C62.6005 186.299 59.3005 187.799 55.8005 188.599C53.7005 189.099 51.6005 189.299 50.5005 189.299C49.7005 188.999 49.2005 189.099 48.8005 189.099ZM48.7005 187.299C49.9005 187.299 52.6005 187.199 55.3005 186.599C57.6005 186.099 59.9005 185.099 61.1005 184.599C59.5005 180.399 59.8005 176.299 61.9005 173.899C63.9005 171.599 66.4005 170.399 69.0005 170.499C71.7005 170.599 74.4005 172.399 76.3005 173.799C77.4005 172.999 80.0005 170.499 81.6005 168.199C83.0005 166.099 83.5005 164.099 83.7005 163.199C82.1005 162.099 80.8005 160.999 79.9005 159.699C78.6005 157.899 78.1005 155.899 78.3005 153.899C79.2005 147.399 83.3005 145.699 87.0005 145.499C87.0005 143.999 86.9005 140.499 86.3005 137.699C85.8005 135.299 85.0005 133.499 84.5005 132.599C82.5005 133.099 80.1005 133.499 78.1005 132.999C75.4005 132.199 73.3005 130.499 72.4005 128.299C71.7005 126.699 71.7005 124.699 72.3005 122.699C72.8005 121.099 73.9005 119.299 74.9005 117.699V117.599C74.1005 116.799 71.9005 114.699 69.6005 113.099C67.7005 111.799 65.8005 110.999 64.8005 110.599C63.1005 113.899 60.0005 117.299 56.0005 117.599C54.7005 117.699 53.6005 117.599 52.6005 117.199C50.7005 116.599 49.1005 115.099 48.0005 113.099C47.2005 111.599 46.2005 108.999 45.9005 106.999C44.8005 106.799 41.9005 106.499 39.0005 107.099C36.8005 107.499 34.7005 108.699 33.6005 109.299C34.2005 111.499 34.6005 114.599 33.6005 117.599C32.5005 120.799 29.9005 123.199 27.0005 123.799C25.6005 124.099 24.1005 123.999 22.3005 123.499C20.6005 123.099 19.1005 122.399 17.6005 121.599C16.5005 122.399 13.8005 124.699 12.3005 126.999C10.4005 129.999 10.2005 132.599 10.2005 133.699C12.0005 134.199 15.1005 135.599 16.7005 137.999C17.7005 139.499 18.0005 141.299 17.6005 143.199C17.4005 144.299 17.0005 145.199 16.6005 146.099C14.7005 149.699 10.5005 151.899 7.90047 152.099C7.90047 153.499 8.10047 156.399 8.90047 158.899C9.60047 161.099 10.7005 162.799 11.3005 163.499C14.1005 162.999 17.9005 162.599 20.7005 164.699C22.8005 166.299 24.0005 169.199 23.8005 172.199C23.7005 173.999 23.0005 175.899 22.0005 177.399C22.8005 178.099 24.6005 179.599 26.6005 180.699C28.2005 181.599 29.9005 182.299 30.8005 182.599C32.7005 178.499 37.6005 176.199 42.0005 177.399C45.6005 178.199 47.9005 181.699 48.7005 187.299ZM47.5005 161.599C44.2005 161.599 40.6005 160.299 37.6005 157.799C34.3005 155.199 32.2005 151.799 32.0005 148.599C31.5005 142.599 33.6005 138.099 38.7005 133.699C41.6005 131.199 45.7005 130.199 49.8005 130.799C55.4005 131.599 60.4005 136.099 61.8005 141.399C63.4005 147.599 62.5005 151.999 58.6005 156.499C56.2005 159.299 53.1005 160.999 49.2005 161.499C48.6005 161.599 48.0005 161.599 47.5005 161.599ZM47.4005 132.399C44.5005 132.399 41.8005 133.299 39.7005 135.099C33.8005 140.099 33.3005 144.699 33.6005 148.499C33.8005 151.199 35.7005 154.199 38.6005 156.499C41.8005 159.099 45.5005 160.299 48.8005 159.799C52.3005 159.299 55.0005 157.899 57.1005 155.399C60.6005 151.299 61.4005 147.499 59.9005 141.899C58.5005 136.599 53.5005 133.299 49.4005 132.599C48.8005 132.499 48.1005 132.399 47.4005 132.399Z" fill="black"/>
<path d="M48.8008 169.499C43.4008 169.499 37.9008 167.699 33.3008 164.499C28.8008 161.299 25.7008 156.999 24.8008 152.799C23.3008 145.899 24.8008 138.399 28.7008 132.799C32.8008 126.999 39.6008 123.199 46.5008 122.999C50.9008 122.899 57.3008 124.299 62.1008 128.899C67.8008 134.299 70.7008 142.199 69.7008 149.699C68.0008 162.399 57.8008 169.399 49.0008 169.499C49.0008 169.499 48.9008 169.499 48.8008 169.499ZM46.6008 124.699C40.3008 124.899 34.0008 128.399 30.2008 133.699C26.5008 138.899 25.2008 145.899 26.6008 152.299C28.3008 160.499 38.7008 167.599 48.9008 167.599C49.0008 167.599 49.1008 167.599 49.2008 167.599C57.2008 167.499 66.6008 161.099 68.1008 149.299C69.0008 142.399 66.3008 134.999 61.0008 129.999C56.5008 125.899 50.6008 124.599 46.6008 124.699Z" fill="#D1D1D1"/>
<path d="M14.1008 132.099C14.0008 132.099 13.9008 132.099 13.8008 132.099C13.3008 131.899 13.1008 131.399 13.2008 130.999C13.9008 128.999 14.8008 127.099 16.0008 125.399C16.3008 124.999 16.8008 124.899 17.2008 125.199C17.6008 125.499 17.7008 125.999 17.4008 126.399C16.3008 127.999 15.4008 129.699 14.8008 131.599C14.8008 131.899 14.5008 132.099 14.1008 132.099Z" fill="#D1D1D1"/>
<path d="M12.9 160.699C12.6 160.699 12.3 160.499 12.1 160.199C11.2 158.399 10.7 156.399 10.5 154.399C10.5 153.899 10.8 153.499 11.3 153.399C11.8 153.399 12.2 153.699 12.3 154.199C12.5 155.999 12.9 157.799 13.7 159.399C13.9 159.799 13.7 160.399 13.3 160.599C13.2 160.599 13 160.699 12.9 160.699Z" fill="#D1D1D1"/>
<path d="M29.3008 180.2C29.1008 180.2 28.9008 180.1 28.8008 180L25.4008 177.4C25.0008 177.1 24.9008 176.5 25.2008 176.2C25.5008 175.8 26.1008 175.7 26.4008 176L29.8008 178.6C30.2008 178.9 30.3008 179.5 30.0008 179.8C29.8008 180.1 29.6008 180.2 29.3008 180.2Z" fill="#D1D1D1"/>
</svg>
