<svg width="55" height="60" viewBox="0 0 55 60" fill="none" xmlns="http://www.w3.org/2000/svg">
<g clip-path="url(#clip0_3549_9)">
<path d="M47.8251 37.0459C46.4432 37.0459 45.6955 37.8041 45.3483 38.4986C45.001 39.1896 45.0152 39.8558 45.0152 39.8558V52.984C45.0152 52.984 45.001 53.6466 45.3483 54.3411C45.6955 55.032 46.4574 55.7939 47.8287 55.7939H51.5917C52.9914 55.7939 53.7213 55.032 54.0685 54.3411C54.4158 53.6466 54.4087 52.984 54.4087 52.984V39.8558C54.4087 39.8558 54.4158 39.1896 54.0685 38.4986C53.7213 37.8041 52.9949 37.0459 51.5882 37.0459H47.8251ZM47.8251 38.9203H51.5917C52.0665 38.9203 52.2721 39.0904 52.3925 39.3349C52.5165 39.5829 52.5343 39.8558 52.5343 39.8558V52.984C52.5343 52.984 52.5165 53.2497 52.3925 53.4942C52.2721 53.7422 52.0878 53.9194 51.5917 53.9194H47.8251C47.3361 53.9194 47.1448 53.7422 47.0243 53.4942C46.9003 53.2497 46.8932 52.984 46.8932 52.984V39.8558C46.8932 39.8558 46.9003 39.5794 47.0243 39.3349C47.1448 39.0904 47.3361 38.9203 47.8251 38.9203Z" fill="#2F352B"/>
<path d="M33.2866 39.8555C33.0571 39.8546 32.8352 39.9379 32.6629 40.0895L26.6037 45.4824C26.2027 45.7989 25.8704 46.194 25.6274 46.6435C25.3844 47.0929 25.2357 47.5872 25.1905 48.0961C25.1453 48.6051 25.2045 49.1179 25.3644 49.6031C25.5244 50.0883 25.7818 50.5357 26.1208 50.9179C26.4598 51.3002 26.8733 51.6092 27.3359 51.826C27.7986 52.0428 28.3006 52.1629 28.8113 52.1789C29.322 52.1948 29.8305 52.1063 30.3058 51.9187C30.781 51.7311 31.2129 51.4485 31.5751 51.0881L33.9917 48.9478C34.9271 48.1186 33.6834 46.7156 32.7444 47.5447L30.3172 49.7025C30.0528 49.9517 29.7206 50.117 29.3624 50.1776C29.0042 50.2381 28.6361 50.1912 28.3046 50.0428C27.9666 49.9063 27.6778 49.6709 27.4761 49.3674C27.2744 49.0638 27.1692 48.7063 27.1742 48.3419C27.1712 48.0685 27.2279 47.7977 27.3405 47.5486C27.4532 47.2995 27.6189 47.078 27.8262 46.8997L33.6373 41.7299H45.9506V39.8521L33.2866 39.8555Z" fill="#2F352B"/>
<path d="M26.26 48.2924L12.7172 48.3385C11.8774 48.3137 10.8782 48.4306 9.98525 48.9904C9.08877 49.5503 8.39781 50.5247 8.41199 52.0696C8.43325 53.8803 9.76201 55.4358 11.562 55.7299L27.5569 58.5611C28.4498 58.6603 29.123 58.4583 29.9238 58.1359L42.2335 52.9767H45.9505V51.0987H42.0422C41.9177 51.1005 41.7949 51.127 41.6808 51.1767L29.2506 56.3855C28.51 56.6689 28.3187 56.754 27.7553 56.6937L11.8668 53.8838C11.4303 53.8202 11.0312 53.6022 10.7418 53.2693C10.4525 52.9364 10.2922 52.5107 10.29 52.0696C10.29 51.2299 10.5522 50.8401 10.9738 50.5743C11.3991 50.3086 12.0723 50.1916 12.6605 50.2094L26.2671 50.1668L26.26 48.2924ZM27.2025 18.2871C24.2178 18.2908 21.3564 19.4787 19.2465 21.5899C17.1367 23.7011 15.9506 26.5632 15.9488 29.5479C15.9534 32.5308 17.1407 35.3902 19.2503 37.4991C21.3599 39.608 24.2196 40.7944 27.2025 40.7981C30.1854 40.7944 33.0452 39.608 35.1547 37.4991C37.2643 35.3902 38.4516 32.5308 38.4563 29.5479C38.4544 26.5632 37.2684 23.7011 35.1585 21.5899C33.0486 19.4787 30.1873 18.2908 27.2025 18.2871ZM27.2025 20.1651C28.4347 20.1632 29.6552 20.4045 30.794 20.8752C31.9328 21.3459 32.9675 22.0367 33.8389 22.908C34.7102 23.7794 35.401 24.8141 35.8717 25.9529C36.3424 27.0917 36.5837 28.3121 36.5818 29.5444C36.5832 30.7763 36.3416 31.9964 35.8707 33.1348C35.3998 34.2732 34.7089 35.3075 33.8376 36.1784C32.9663 37.0494 31.9318 37.7399 30.7932 38.2103C29.6547 38.6808 28.4345 38.922 27.2025 38.9202C25.9709 38.9216 24.7511 38.68 23.6129 38.2093C22.4748 37.7386 21.4406 37.0481 20.5697 36.1772C19.6988 35.3063 19.0083 34.2721 18.5376 33.134C18.0669 31.9958 17.8253 30.776 17.8267 29.5444C17.8249 28.3124 18.0661 27.0922 18.5366 25.9537C19.007 24.8151 19.6975 23.7806 20.5685 22.9093C21.4394 22.038 22.4737 21.3471 23.6121 20.8762C24.7505 20.4053 25.9706 20.1637 27.2025 20.1651ZM6.58006 22.0431C7.96198 22.0431 8.70963 21.2812 9.05688 20.5903C9.40413 19.8958 9.38996 19.2296 9.38996 19.2296V6.1014C9.38996 6.1014 9.40413 5.43879 9.05688 4.74429C8.70963 4.05333 7.94781 3.2915 6.57652 3.2915H2.817C1.41736 3.2915 0.687426 4.05333 0.340175 4.74429C-0.00707579 5.43879 1.08982e-05 6.1014 1.08982e-05 6.1014V19.2296C1.08982e-05 19.2296 -0.00707579 19.8958 0.340175 20.5867C0.687426 21.2812 1.41382 22.0395 2.82054 22.0395L6.58006 22.0431ZM6.58006 20.1651H2.81345C2.33864 20.1651 2.13312 19.995 2.01265 19.7505C1.88863 19.5025 1.87091 19.2296 1.87091 19.2296V6.1014C1.87091 6.1014 1.88863 5.83565 2.01265 5.59116C2.13312 5.34312 2.31738 5.16595 2.81345 5.16595H6.58006C7.06905 5.16595 7.26039 5.34312 7.38086 5.59116C7.50488 5.83565 7.51197 6.1014 7.51197 6.1014V19.2296C7.51197 19.2296 7.50488 19.506 7.38086 19.7505C7.26039 19.995 7.06905 20.1651 6.58006 20.1651Z" fill="#2F352B"/>
<path d="M21.1222 19.2294C21.3504 19.2294 21.5709 19.1463 21.7423 18.9956L27.8014 13.6026C28.2025 13.2861 28.5347 12.891 28.7778 12.4416C29.0208 11.9921 29.1694 11.4978 29.2147 10.9889C29.2599 10.4799 29.2007 9.96714 29.0407 9.4819C28.8808 8.99666 28.6234 8.54921 28.2844 8.16695C27.9454 7.7847 27.5319 7.4757 27.0693 7.25889C26.6066 7.04209 26.1046 6.92205 25.5939 6.90612C25.0832 6.8902 24.5747 6.97874 24.0994 7.1663C23.6242 7.35386 23.1922 7.6365 22.8301 7.99689L20.4135 10.1371C19.478 10.9663 20.7218 12.3695 21.6608 11.5403L24.088 9.38235C24.3523 9.13321 24.6846 8.96794 25.0428 8.90741C25.4009 8.84687 25.769 8.89377 26.1006 9.04219C26.4385 9.17864 26.7273 9.41409 26.9291 9.71763C27.1308 10.0212 27.236 10.3786 27.2309 10.7431C27.234 11.0164 27.1773 11.2872 27.0646 11.5363C26.952 11.7854 26.7862 12.0069 26.579 12.1852L20.7678 17.3585H8.45459V19.2294H21.1222Z" fill="#2F352B"/>
<path d="M28.1451 10.7964L41.6879 10.7468C42.5277 10.7716 43.5269 10.6546 44.4199 10.0948C45.3163 9.53494 46.0073 8.56051 45.9931 7.0156C45.9808 6.13289 45.6585 5.28262 45.0827 4.6135C44.5068 3.94438 43.7141 3.49901 42.8431 3.35529L26.8483 0.52413C25.9553 0.428459 25.2821 0.626888 24.4813 0.949336L12.1716 6.10495H8.45459V7.98294H12.3665C12.487 7.98294 12.611 7.95459 12.7244 7.90498L25.1545 2.69976C25.8951 2.41629 26.0864 2.33125 26.6498 2.39149L42.5383 5.20139C42.9748 5.265 43.374 5.48307 43.6633 5.81597C43.9526 6.14888 44.113 6.57453 44.1151 7.0156C44.1151 7.85538 43.8529 8.24515 43.4313 8.5109C43.0061 8.77665 42.3328 8.89713 41.7446 8.87941L28.138 8.91839L28.1451 10.7964ZM23.4962 23.021C22.2419 23.021 22.2419 24.899 23.4962 24.899H31.0082C32.2625 24.899 32.2625 23.021 31.0082 23.021H23.4962Z" fill="#2F352B"/>
<path d="M27.2061 23.9175V27.6699C27.2061 27.6699 27.1955 28.4069 26.8376 29.1227C26.4833 29.8349 25.8242 30.4763 24.3927 30.4763H23.4537C23.2594 30.4747 23.0695 30.5335 22.91 30.6445C22.7505 30.7555 22.6294 30.9132 22.5633 31.0959C22.4972 31.2785 22.4894 31.4772 22.541 31.6646C22.5926 31.8519 22.701 32.0186 22.8513 32.1417L28.4782 36.8225C29.4385 37.6268 30.6397 36.1846 29.683 35.3838L25.8242 32.17C27.2061 31.8228 28.0707 30.8554 28.5136 29.966C29.0948 28.8038 29.0806 27.6664 29.0806 27.6664V23.921H27.2026L27.2061 23.9175Z" fill="#2F352B"/>
<path d="M23.4537 26.731C22.2029 26.731 22.2029 28.6089 23.4537 28.6089H30.9586C32.2059 28.6089 32.2059 26.731 30.9586 26.731H23.4537Z" fill="#2F352B"/>
</g>
<defs>
<clipPath id="clip0_3549_9">
<rect width="55" height="59" fill="white" transform="translate(0 0.5)"/>
</clipPath>
</defs>
</svg>
