<svg width="60" height="56" viewBox="0 0 60 56" fill="none" xmlns="http://www.w3.org/2000/svg">
<g clip-path="url(#clip0_3549_23)">
<path d="M59.1194 52.9922H55.072V36.5124C55.072 36.2789 54.9792 36.0549 54.8141 35.8897C54.6489 35.7246 54.4249 35.6318 54.1914 35.6318C53.9578 35.6318 53.7338 35.7246 53.5687 35.8897C53.4035 36.0549 53.3108 36.2789 53.3108 36.5124V52.9922H46.4522V24.0055C46.4522 23.8437 46.5838 23.712 46.7458 23.712H53.0172C53.179 23.712 53.3108 23.8437 53.3108 24.0055V32.9899C53.3108 33.2235 53.4035 33.4475 53.5687 33.6126C53.7338 33.7778 53.9578 33.8705 54.1914 33.8705C54.4249 33.8705 54.6489 33.7778 54.8141 33.6126C54.9792 33.4475 55.072 33.2235 55.072 32.9899V24.0055C55.072 22.8726 54.1503 21.9507 53.0172 21.9507H46.7458C45.6128 21.9507 44.691 22.8726 44.691 24.0055V52.9923H41.8177V30.4144C41.8177 29.2814 40.8958 28.3596 39.7629 28.3596H33.4914C32.3583 28.3596 31.4366 29.2814 31.4366 30.4144V52.9923H28.5633V36.8232C28.5633 35.6903 27.6416 34.7684 26.5085 34.7684H20.237C19.1041 34.7684 18.1822 35.6903 18.1822 36.8232V44.5236C18.1822 44.7572 18.275 44.9812 18.4402 45.1463C18.6053 45.3115 18.8293 45.4043 19.0629 45.4043C19.2964 45.4043 19.5204 45.3115 19.6856 45.1463C19.8507 44.9812 19.9435 44.7572 19.9435 44.5236V36.8232C19.9435 36.6613 20.0752 36.5297 20.237 36.5297H26.5085C26.6704 36.5297 26.802 36.6613 26.802 36.8232V52.9922H19.9435V48.0462C19.9435 47.8126 19.8507 47.5886 19.6856 47.4235C19.5204 47.2583 19.2964 47.1655 19.0629 47.1655C18.8293 47.1655 18.6053 47.2583 18.4402 47.4235C18.275 47.5886 18.1822 47.8126 18.1822 48.0462V52.9922H15.3089V43.2321C15.3089 42.0991 14.3872 41.1773 13.2541 41.1773H6.98278C5.84982 41.1773 4.92798 42.0991 4.92798 43.2321V52.9922H0.880626C0.64707 52.9922 0.423079 53.085 0.257929 53.2501C0.09278 53.4153 0 53.6393 0 53.8728C0 54.1064 0.09278 54.3304 0.257929 54.4955C0.423079 54.6607 0.64707 54.7535 0.880626 54.7535H59.1194C59.3529 54.7535 59.5769 54.6607 59.7421 54.4955C59.9072 54.3304 60 54.1064 60 53.8728C60 53.6393 59.9072 53.4153 59.7421 53.2501C59.5769 53.085 59.3529 52.9922 59.1194 52.9922ZM33.1978 30.4144C33.1978 30.2526 33.3296 30.1208 33.4914 30.1208H39.7629C39.9247 30.1208 40.0564 30.2526 40.0564 30.4144V52.9923H33.1978V30.4144ZM6.68924 43.2321C6.68924 43.0703 6.82098 42.9385 6.98278 42.9385H13.2542C13.4162 42.9385 13.5478 43.0703 13.5478 43.2321V52.9922H6.68924V43.2321ZM9.4038 30.6641C9.45205 30.6641 9.50078 30.6624 9.54963 30.6591C16.0442 30.208 22.1514 28.7906 27.7018 26.4464C35.1756 23.2898 41.3629 18.5316 46.1044 12.2966L49.0725 14.3603C49.6572 14.7963 50.5482 14.2723 50.4514 13.5493L49.2213 1.29476C49.1812 0.771432 48.6278 0.386422 48.1231 0.530492L36.1961 3.63687C35.4841 3.7975 35.3028 4.8155 35.9152 5.21214L38.9104 7.29464C38.3145 8.23092 37.0016 10.0874 34.7123 12.3582C34.5465 12.5227 34.4528 12.7463 34.4519 12.9799C34.4509 13.2134 34.5428 13.4378 34.7072 13.6036C34.8717 13.7694 35.0953 13.863 35.3289 13.864C35.5624 13.8649 35.7867 13.7731 35.9526 13.6086C39.4818 10.1078 40.8142 7.54814 40.8692 7.44094C40.9664 7.25121 40.9916 7.03264 40.9399 6.82579C40.8883 6.61893 40.7633 6.43783 40.5883 6.31609L38.4924 4.85883L47.5717 2.49417L48.5082 11.8226L46.4105 10.3642C46.2217 10.2329 45.989 10.1806 45.7622 10.2186C45.5354 10.2566 45.3325 10.3819 45.1968 10.5675C40.5825 16.881 34.4657 21.6776 27.0166 24.8238C20.3265 27.6493 13.759 28.601 9.42775 28.9019C9.17472 28.9667 9.09804 28.5021 9.35002 28.4751C18.9987 25.4975 27.0567 21.3116 33.3001 16.0337C33.3884 15.9591 33.4612 15.8678 33.5142 15.765C33.5673 15.6622 33.5995 15.55 33.6092 15.4348C33.6188 15.3196 33.6057 15.2036 33.5705 15.0934C33.5353 14.9832 33.4788 14.8811 33.4041 14.7928C33.3295 14.7044 33.2382 14.6317 33.1354 14.5787C33.0327 14.5256 32.9204 14.4934 32.8052 14.4837C32.69 14.474 32.574 14.4872 32.4638 14.5224C32.3536 14.5575 32.2515 14.6141 32.1632 14.6887C26.1019 19.8127 18.2517 23.8848 8.8308 26.7922C7.85249 27.0941 7.27843 28.0429 7.46583 29.0482C7.64395 30.0042 8.44673 30.6641 9.4038 30.6641Z" fill="#2F352B"/>
</g>
<defs>
<clipPath id="clip0_3549_23">
<rect width="60" height="55" fill="white" transform="translate(0 0.5)"/>
</clipPath>
</defs>
</svg>
