<svg width="600" height="500" viewBox="0 0 600 500" fill="none" xmlns="http://www.w3.org/2000/svg">
<g clip-path="url(#clip0_4726_166)">
<path opacity="0.2" d="M206 37.4994C157.1 29.7994 94.0004 33.1994 60.8004 71.8994C-5.99957 149.899 21.1004 290.699 29.7004 328.799C38.3004 366.899 37.1004 384.799 20.0004 416.499C2.90044 448.199 20.9004 474.599 20.9004 474.599H576.4C576.4 474.599 595.4 424.899 585.9 370.999C576.4 317.099 559.2 285.299 561.1 256.299C562.7 232.899 577.6 210.699 584.2 188.699C613 93.1994 509.8 8.79943 430.2 28.4994C379 41.1994 356.2 71.7994 319.2 71.7994C282 71.7994 250.7 46.5994 215.1 38.9994C212.1 38.4994 209.1 37.9994 206 37.4994Z" fill="#10A261"/>
<path d="M593.201 296.6H13.8008V301.6H593.201V296.6Z" fill="#070707"/>
<path d="M556.301 236.099C557.201 236.499 559.601 236.499 559.601 236.499C559.601 236.499 559.101 234.999 559.101 234.899C558.601 233.799 557.001 232.099 555.701 232.299C554.801 232.399 554.201 233.399 554.401 234.299C554.601 234.999 555.501 235.699 556.301 236.099Z" fill="#070707"/>
<path d="M586.601 228.2C585.301 228.1 583.701 229.9 583.201 230.9C583.201 231 582.701 232.5 582.701 232.5C582.501 232.8 582.201 233.1 581.901 233.4C581.401 234 580.801 234.7 580.201 235.6C579.601 236.4 579.001 237.3 578.501 238.3C578.001 239.3 577.401 240.4 577.001 241.6C577.001 241.2 577.001 240.1 577.001 240C576.801 238.8 575.901 236.7 574.601 236.4C573.701 236.2 572.901 237 572.801 237.9C572.701 238.8 573.401 239.8 574.101 240.3C574.801 241 576.901 241.6 577.101 241.7C576.701 242.8 576.501 244 576.201 245.3C576.101 246 576.001 246.7 575.901 247.4C575.901 247.1 575.901 246.8 575.901 246.7C575.701 245.5 574.801 243.4 573.501 243.1C572.601 242.9 571.801 243.7 571.701 244.6C571.601 245.5 572.301 246.5 573.001 247C573.701 247.6 575.401 248.2 575.901 248.3C575.901 248.6 575.801 248.9 575.801 249.1C575.601 250.4 575.501 251.7 575.301 253C575.201 253.5 575.201 253.9 575.101 254.3C575.101 254 575.101 253.8 575.101 253.7C574.901 252.5 574.001 250.4 572.701 250.1C571.801 249.9 571.001 250.7 570.901 251.6C570.801 252.5 571.501 253.5 572.201 254C572.801 254.6 574.401 255.1 575.001 255.3C574.901 255.8 574.801 256.2 574.701 256.6C574.601 256.9 574.601 257.2 574.501 257.5C574.401 257.8 574.301 258.1 574.201 258.4C574.001 258.9 573.801 259.5 573.601 260C573.501 260.4 573.301 260.7 573.201 261.1C573.301 260.6 573.401 259.8 573.401 259.7C573.401 258.9 573.101 257.6 572.601 256.8C572.601 256.7 572.601 256.6 572.601 256.5C572.501 255.6 571.601 254.9 570.701 255.2C569.401 255.5 568.601 257.8 568.601 259C568.601 259.1 568.601 259.8 568.701 260.3C568.601 260 568.601 259.8 568.501 259.5C568.401 258.9 568.201 258.4 568.101 257.8C568.001 257.5 567.901 257.2 567.801 256.9C567.701 256.6 567.601 256.3 567.501 256C567.201 255.3 567.001 254.6 566.701 253.9C567.201 253.8 568.901 253.3 569.601 252.8C570.301 252.3 571.001 251.4 571.001 250.5C571.001 249.6 570.301 248.8 569.301 248.9C568.001 249 566.801 251.1 566.601 252.3C566.601 252.4 566.501 253.2 566.501 253.7C566.301 253.3 566.101 252.9 565.901 252.5C565.301 251.3 564.701 250.1 564.101 249C563.901 248.6 563.701 248.3 563.501 247.9C563.701 247.9 565.801 247.4 566.501 246.8C567.201 246.3 567.901 245.4 567.901 244.5C567.901 243.6 567.201 242.8 566.201 242.9C564.901 243 563.701 245.1 563.501 246.3C563.501 246.4 563.401 247.6 563.401 247.9C563.001 247.1 562.601 246.3 562.201 245.5C561.701 244.4 561.301 243.3 560.901 242.2C561.001 242.2 563.201 241.7 564.001 241.1C564.701 240.6 565.401 239.7 565.401 238.8C565.401 237.9 564.701 237.1 563.701 237.2C562.401 237.3 561.201 239.4 561.001 240.6C561.001 240.7 560.901 242 560.901 242.2C560.901 242.1 560.901 242.1 560.801 242C560.401 240.8 560.301 239.6 560.101 238.5C560.001 237.8 560.001 237.2 560.001 236.6C560.401 236.5 562.301 236.3 563.101 235.8C563.901 235.3 564.701 234.6 564.801 233.6C564.901 232.7 564.201 231.8 563.301 231.8C562.001 231.8 560.601 233.7 560.301 234.9C560.301 235 560.101 235.6 560.101 236.1C560.101 235.8 560.101 235.5 560.101 235.3C560.101 234.3 560.201 233.4 560.201 232.6C560.201 232.1 560.301 231.7 560.301 231.3C560.701 231 562.201 230 562.701 229.2C563.201 228.4 563.501 227.4 563.201 226.5C562.901 225.7 561.901 225.2 561.101 225.6C559.901 226.2 559.601 228.6 559.801 229.7C559.801 229.8 560.301 231.3 560.301 231.3C560.201 231.7 560.201 232.1 560.201 232.5C560.101 233.3 560.001 234.2 560.001 235.2C560.001 236.2 560.001 237.3 560.101 238.4C560.201 239.5 560.401 240.8 560.701 242C560.501 241.7 559.901 240.8 559.801 240.7C559.001 239.8 557.001 238.5 555.801 239.1C554.901 239.5 554.701 240.5 555.101 241.3C555.501 242.1 556.601 242.5 557.501 242.6C558.501 242.7 560.501 242.1 560.701 242.1C561.001 243.3 561.501 244.4 562.001 245.6C562.301 246.3 562.601 246.9 562.901 247.6C562.701 247.3 562.501 247.1 562.501 247C561.701 246.1 559.701 244.8 558.501 245.4C557.601 245.8 557.401 246.8 557.801 247.6C558.201 248.4 559.301 248.8 560.201 248.9C561.101 249 562.901 248.6 563.301 248.4C563.401 248.6 563.501 248.9 563.701 249.1C564.301 250.3 564.901 251.5 565.501 252.7C565.701 253.1 565.901 253.5 566.101 254C565.901 253.8 565.801 253.5 565.801 253.5C565.001 252.6 563.001 251.3 561.801 251.9C560.901 252.3 560.701 253.3 561.101 254.1C561.501 254.9 562.601 255.3 563.501 255.4C564.301 255.5 566.001 255.1 566.501 254.9C566.701 255.3 566.801 255.8 567.001 256.2C567.101 256.5 567.201 256.8 567.301 257.1C567.401 257.4 567.501 257.7 567.501 258C567.601 258.6 567.801 259.1 567.901 259.7C568.001 260.1 568.101 260.5 568.101 260.8C567.901 260.4 567.501 259.6 567.501 259.5C566.901 258.5 565.101 256.9 563.801 257.3C562.901 257.5 562.501 258.5 562.801 259.4C563.101 260.3 564.101 260.8 565.001 261.1C565.901 261.4 568.001 261.1 568.201 261.1C568.301 261.7 568.401 262.3 568.501 262.9C568.801 264.9 569.101 266.5 569.201 267.7C569.201 267.9 569.201 268.1 569.301 268.3H565.301L566.801 296.6H573.601L575.101 268.3H571.401C571.401 268.2 571.501 268.2 571.501 268.1C572.001 267 572.701 265.5 573.501 263.7C573.701 263.1 574.001 262.5 574.201 261.8C574.401 261.9 576.501 262.3 577.401 262.1C578.301 261.9 579.301 261.4 579.701 260.6C580.101 259.8 579.701 258.7 578.801 258.4C577.501 258 575.601 259.4 574.901 260.3C574.901 260.4 574.501 261 574.201 261.4C574.301 261.1 574.401 260.9 574.501 260.6C574.701 260.1 574.901 259.5 575.101 258.9C575.201 258.6 575.301 258.3 575.401 258C575.501 257.7 575.601 257.4 575.601 257.1C575.801 256.4 575.901 255.7 576.001 254.9C576.501 255.1 578.201 255.7 579.101 255.6C580.001 255.5 581.101 255.2 581.601 254.4C582.101 253.6 581.901 252.6 581.101 252.1C579.901 251.5 577.801 252.6 577.001 253.4C576.901 253.5 576.401 254.1 576.101 254.5C576.201 254.1 576.201 253.6 576.301 253.2C576.501 251.9 576.601 250.6 576.701 249.2C576.701 248.8 576.801 248.4 576.801 248C577.001 248.1 579.001 248.8 580.001 248.7C580.901 248.6 582.001 248.3 582.501 247.5C583.001 246.7 582.801 245.7 582.001 245.2C580.801 244.6 578.701 245.7 577.901 246.5C577.801 246.6 577.101 247.5 576.901 247.8C577.001 246.9 577.101 246 577.201 245.2C577.401 244 577.601 242.8 578.001 241.7C578.101 241.7 580.201 242.5 581.201 242.4C582.101 242.3 583.201 242 583.701 241.2C584.201 240.4 584.001 239.4 583.201 238.9C582.001 238.3 579.901 239.4 579.101 240.2C579.001 240.3 578.201 241.3 578.101 241.5C578.101 241.4 578.101 241.4 578.201 241.3C578.601 240.1 579.101 239 579.601 238C579.901 237.4 580.201 236.9 580.501 236.3C580.901 236.5 582.601 237.3 583.501 237.4C584.401 237.4 585.501 237.2 586.101 236.5C586.701 235.8 586.601 234.7 585.801 234.2C584.701 233.5 582.501 234.3 581.601 235.1C581.601 235.1 581.101 235.6 580.801 235.9C580.901 235.7 581.101 235.4 581.201 235.2C581.801 234.4 582.301 233.6 582.801 233C583.101 232.6 583.401 232.3 583.601 232C584.101 232 585.901 231.9 586.701 231.6C587.501 231.2 588.401 230.5 588.601 229.6C588.101 229.2 587.601 228.3 586.601 228.2ZM572.101 263.4C571.301 265.2 570.601 266.7 570.101 267.7C570.001 267.9 569.901 268.1 569.801 268.3H569.701C569.701 268.1 569.601 267.9 569.601 267.6C569.401 266.4 569.201 264.8 568.801 262.8C568.701 262.2 568.501 261.5 568.401 260.8C568.601 260.7 569.401 260.4 570.201 260C570.901 260.7 572.601 261.6 572.801 261.7C572.601 262.4 572.301 262.9 572.101 263.4Z" fill="#10A261"/>
<path d="M579.7 236.6C579.7 236.6 580.1 235.1 580.1 235C580.3 233.8 579.9 231.5 578.7 230.9C577.8 230.5 576.9 231 576.6 231.8C576.3 232.7 576.7 233.7 577.2 234.5C577.8 235.3 579.7 236.6 579.7 236.6Z" fill="#070707"/>
<path d="M60.8002 239.1C61.7002 239.5 63.9002 239.4 63.9002 239.4C63.9002 239.4 63.4002 238 63.4002 237.9C62.9002 236.9 61.4002 235.2 60.1002 235.4C59.2002 235.5 58.7002 236.4 58.9002 237.3C59.2002 238.1 60.0002 238.7 60.8002 239.1Z" fill="#070707"/>
<path d="M89.7004 231.6C88.5004 231.5 87.0004 233.2 86.5004 234.2C86.5004 234.3 86.0004 235.7 86.0004 235.7C85.8004 236 85.5004 236.3 85.2004 236.6C84.7004 237.2 84.2004 237.9 83.6004 238.7C83.1004 239.5 82.5004 240.3 82.0004 241.3C81.5004 242.3 81.0004 243.3 80.6004 244.4C80.6004 244 80.6004 243 80.6004 242.9C80.5004 241.8 79.5004 239.7 78.3004 239.5C77.4004 239.3 76.7004 240 76.6004 240.9C76.5004 241.8 77.2004 242.7 77.8004 243.2C78.5004 243.8 80.5004 244.4 80.6004 244.5C80.3004 245.6 80.0004 246.7 79.8004 247.9C79.7004 248.6 79.6004 249.3 79.5004 249.9C79.5004 249.6 79.5004 249.3 79.5004 249.3C79.4004 248.2 78.4004 246.1 77.2004 245.9C76.3004 245.7 75.6004 246.4 75.5004 247.3C75.4004 248.2 76.1004 249.1 76.7004 249.6C77.3004 250.2 79.0004 250.7 79.4004 250.9C79.4004 251.2 79.3004 251.4 79.3004 251.7C79.1004 253 79.0004 254.2 78.8004 255.4C78.7004 255.8 78.7004 256.3 78.6004 256.7C78.6004 256.4 78.6004 256.2 78.6004 256.1C78.5004 255 77.5004 252.9 76.3004 252.7C75.4004 252.5 74.7004 253.2 74.6004 254.1C74.5004 255 75.2004 255.9 75.8004 256.4C76.4004 256.9 77.9004 257.5 78.4004 257.6C78.3004 258 78.2004 258.5 78.1004 258.9C78.0004 259.2 78.0004 259.5 77.9004 259.7C77.8004 260 77.7004 260.3 77.6004 260.5C77.4004 261 77.2004 261.6 77.0004 262.1C76.9004 262.4 76.7004 262.8 76.6004 263.1C76.7004 262.7 76.8004 261.8 76.8004 261.8C76.8004 261.1 76.6004 259.8 76.0004 259C76.0004 258.9 76.0004 258.8 76.0004 258.7C75.9004 257.8 75.1004 257.2 74.2004 257.4C73.0004 257.7 72.2004 259.9 72.2004 261C72.2004 261.1 72.2004 261.8 72.3004 262.2C72.2004 261.9 72.2004 261.7 72.1004 261.4C72.0004 260.9 71.8004 260.3 71.7004 259.8C71.6004 259.5 71.5004 259.2 71.4004 259C71.3004 258.7 71.2004 258.4 71.1004 258.2C70.9004 257.5 70.6004 256.9 70.3004 256.2C70.8004 256.1 72.4004 255.7 73.1004 255.2C73.8004 254.7 74.5004 253.9 74.5004 253C74.5004 252.1 73.8004 251.4 72.9004 251.5C71.7004 251.6 70.6004 253.6 70.3004 254.7C70.3004 254.8 70.2004 255.6 70.2004 256C70.0004 255.6 69.8004 255.2 69.7004 254.8C69.1004 253.7 68.5004 252.6 68.0004 251.4C67.8004 251.1 67.6004 250.7 67.5004 250.4C67.7004 250.4 69.7004 249.9 70.4004 249.3C71.1004 248.8 71.8004 248 71.8004 247.1C71.8004 246.2 71.1004 245.5 70.2004 245.6C69.0004 245.7 67.9004 247.7 67.6004 248.8C67.6004 248.9 67.5004 250 67.5004 250.3C67.1004 249.5 66.7004 248.8 66.4004 248C65.9004 246.9 65.5004 245.9 65.2004 244.8C65.3004 244.8 67.4004 244.3 68.1004 243.7C68.8004 243.2 69.5004 242.4 69.5004 241.5C69.5004 240.6 68.8004 239.9 67.9004 240C66.7004 240.1 65.6004 242.1 65.3004 243.2C65.3004 243.3 65.2004 244.5 65.2004 244.8C65.2004 244.7 65.2004 244.7 65.1004 244.6C64.8004 243.5 64.6004 242.3 64.5004 241.3C64.4004 240.7 64.4004 240.1 64.4004 239.5C64.8004 239.5 66.6004 239.2 67.3004 238.8C68.0004 238.4 68.8004 237.6 68.9004 236.7C69.0004 235.8 68.4004 235 67.5004 235C66.2004 235 65.0004 236.9 64.6004 237.9C64.6004 238 64.5004 238.6 64.4004 239C64.4004 238.7 64.4004 238.5 64.4004 238.2C64.4004 237.3 64.5004 236.4 64.5004 235.6C64.5004 235.2 64.6004 234.8 64.6004 234.4C65.0004 234.2 66.4004 233.1 66.9004 232.4C67.3004 231.7 67.7004 230.7 67.4004 229.8C67.1004 229 66.2004 228.5 65.4004 229C64.3004 229.6 64.0004 231.8 64.2004 232.9C64.2004 233 64.6004 234.5 64.7004 234.4C64.7004 234.8 64.6004 235.1 64.6004 235.5C64.5004 236.3 64.4004 237.1 64.4004 238.1C64.4004 239.1 64.4004 240.1 64.5004 241.2C64.6004 242.3 64.8004 243.4 65.1004 244.6C64.9004 244.3 64.3004 243.4 64.3004 243.4C63.6004 242.6 61.7004 241.3 60.5004 241.8C59.7004 242.2 59.4004 243.1 59.8004 243.9C60.2004 244.7 61.2004 245.1 62.1004 245.2C63.0004 245.3 65.0004 244.8 65.2004 244.7C65.5004 245.8 65.9004 246.9 66.4004 248C66.7004 248.6 67.0004 249.2 67.3004 249.9C67.1004 249.6 67.0004 249.4 66.9004 249.4C66.2004 248.6 64.3004 247.3 63.1004 247.8C62.3004 248.2 62.0004 249.1 62.4004 249.9C62.8004 250.7 63.8004 251.1 64.7004 251.2C65.5004 251.3 67.2004 250.9 67.7004 250.7C67.8004 250.9 67.9004 251.2 68.1004 251.4C68.7004 252.5 69.2004 253.7 69.8004 254.8C70.0004 255.2 70.2004 255.6 70.3004 256C70.1004 255.8 70.0004 255.6 70.0004 255.5C69.3004 254.7 67.4004 253.4 66.2004 253.9C65.4004 254.3 65.1004 255.2 65.5004 256C65.9004 256.8 66.9004 257.2 67.8004 257.3C68.6004 257.4 70.2004 257 70.7004 256.9C70.9004 257.3 71.0004 257.7 71.2004 258.1C71.3004 258.4 71.4004 258.6 71.5004 258.9C71.6004 259.2 71.7004 259.5 71.7004 259.7C71.8004 260.2 72.0004 260.8 72.1004 261.3C72.2004 261.7 72.3004 262 72.3004 262.4C72.1004 262 71.7004 261.2 71.7004 261.2C71.1004 260.3 69.4004 258.8 68.2004 259.1C67.3004 259.3 66.9004 260.3 67.2004 261.1C67.5004 261.9 68.5004 262.5 69.3004 262.7C70.2004 263 72.1004 262.7 72.4004 262.7C72.5004 263.3 72.6004 263.9 72.7004 264.4C73.0004 266.3 73.2004 267.8 73.4004 268.9C73.4004 269.1 73.4004 269.3 73.5004 269.4H69.7004L71.1004 296.3H77.5004L78.9004 269.4H75.4004C75.4004 269.3 75.5004 269.3 75.5004 269.2C76.0004 268.2 76.7004 266.7 77.4004 265C77.6004 264.4 77.9004 263.8 78.1004 263.2C78.3004 263.2 80.3004 263.6 81.2004 263.4C82.0004 263.2 83.0004 262.8 83.4004 261.9C83.8004 261.1 83.4004 260.1 82.6004 259.8C81.4004 259.4 79.6004 260.8 78.9004 261.7C78.9004 261.8 78.5004 262.4 78.3004 262.8C78.4004 262.5 78.5004 262.3 78.6004 262C78.8004 261.5 79.0004 261 79.2004 260.4C79.3004 260.1 79.4004 259.8 79.4004 259.6C79.5004 259.3 79.5004 259 79.6004 258.7C79.8004 258 79.9004 257.3 80.0004 256.6C80.5004 256.8 82.1004 257.3 82.9004 257.3C83.7004 257.2 84.8004 256.9 85.3004 256.2C85.8004 255.5 85.6004 254.5 84.8004 254C83.7004 253.4 81.7004 254.5 80.9004 255.3C80.9004 255.3 80.3004 256 80.1004 256.3C80.2004 255.9 80.2004 255.5 80.3004 255C80.5004 253.8 80.6004 252.5 80.7004 251.2C80.7004 250.8 80.8004 250.4 80.8004 250C81.0004 250.1 82.9004 250.8 83.8004 250.7C84.6004 250.6 85.7004 250.3 86.2004 249.6C86.7004 248.9 86.5004 247.9 85.7004 247.4C84.6004 246.8 82.6004 247.9 81.8004 248.7C81.7004 248.8 81.0004 249.7 80.8004 249.9C80.9004 249.1 81.0004 248.2 81.1004 247.4C81.3004 246.3 81.5004 245.1 81.8004 244.1C81.9004 244.1 83.9004 244.9 84.8004 244.8C85.6004 244.7 86.7004 244.4 87.2004 243.7C87.7004 243 87.5004 242 86.7004 241.5C85.6004 240.9 83.6004 242 82.8004 242.8C82.7004 242.9 82.0004 243.8 81.8004 244C81.8004 243.9 81.8004 243.9 81.9004 243.8C82.2004 242.7 82.7004 241.6 83.2004 240.7C83.5004 240.1 83.8004 239.6 84.1004 239.1C84.5004 239.3 86.1004 240.1 87.0004 240.1C87.8004 240.1 88.9004 239.9 89.5004 239.3C90.1004 238.6 90.0004 237.6 89.2004 237.1C88.2004 236.4 86.1004 237.2 85.2004 237.9C85.2004 237.9 84.7004 238.4 84.4004 238.7C84.5004 238.5 84.7004 238.2 84.8004 238C85.3004 237.2 85.9004 236.5 86.3004 235.9C86.6004 235.6 86.8004 235.3 87.1004 235C87.5004 235 89.3004 234.9 90.1004 234.6C90.9004 234.2 91.7004 233.6 91.9004 232.7C91.1004 232.5 90.6004 231.7 89.7004 231.6ZM75.8004 265.1C75.0004 266.8 74.4004 268.3 73.9004 269.2C73.8004 269.4 73.7004 269.6 73.6004 269.7H73.5004C73.5004 269.5 73.4004 269.3 73.4004 269.1C73.2004 268 73.0004 266.4 72.6004 264.5C72.5004 263.9 72.3004 263.3 72.2004 262.6C72.3004 262.5 73.2004 262.2 73.9004 261.8C74.5004 262.5 76.2004 263.3 76.4004 263.4C76.3004 264 76.1004 264.6 75.8004 265.1Z" fill="#070707"/>
<path d="M83.1004 239.5C83.1004 239.5 83.5004 238 83.5004 237.9C83.7004 236.8 83.3004 234.6 82.2004 234C81.4004 233.6 80.5004 234.1 80.2004 234.9C79.9004 235.7 80.3004 236.8 80.7004 237.5C81.2004 238.4 83.1004 239.5 83.1004 239.5Z" fill="#070707"/>
<path d="M409.5 299.6V24.7998" stroke="#1A2E35" stroke-width="1.0551" stroke-miterlimit="10" stroke-linecap="round" stroke-linejoin="round"/>
<path d="M163.801 299.6V26.5996" stroke="#1A2E35" stroke-width="1.0551" stroke-miterlimit="10" stroke-linecap="round" stroke-linejoin="round"/>
<path d="M6.90039 164.7H601" stroke="#1A2E35" stroke-width="1.0551" stroke-miterlimit="10" stroke-linecap="round" stroke-linejoin="round"/>
<path d="M95.4006 202.6L7.10059 257" stroke="#1A2E35" stroke-width="0.5275" stroke-miterlimit="10" stroke-linecap="round" stroke-linejoin="round"/>
<path d="M107.101 206.3L36.3008 249.9" stroke="#1A2E35" stroke-width="0.5275" stroke-miterlimit="10" stroke-linecap="round" stroke-linejoin="round"/>
<path d="M137.901 187.3L116.601 200.4" stroke="#1A2E35" stroke-width="0.5275" stroke-miterlimit="10" stroke-linecap="round" stroke-linejoin="round"/>
<path d="M435.8 258.8L429.4 262.7" stroke="#1A2E35" stroke-width="0.5275" stroke-miterlimit="10" stroke-linecap="round" stroke-linejoin="round"/>
<path d="M542.901 192.8L444.301 253.5" stroke="#1A2E35" stroke-width="0.5275" stroke-miterlimit="10" stroke-linecap="round" stroke-linejoin="round"/>
<path d="M555.9 196.899L476.9 245.499" stroke="#1A2E35" stroke-width="0.5275" stroke-miterlimit="10" stroke-linecap="round" stroke-linejoin="round"/>
<path d="M590.401 175.6L566.601 190.3" stroke="#1A2E35" stroke-width="0.5275" stroke-miterlimit="10" stroke-linecap="round" stroke-linejoin="round"/>
<path d="M329.6 319.29H374.8V267.09H329.6V319.29Z" fill="white" stroke="black" stroke-width="1.0817" stroke-miterlimit="10" stroke-linecap="round" stroke-linejoin="round"/>
<path d="M378.3 321.701H327.2V274.501H351.4L378.3 321.701Z" fill="#D1D1D1" stroke="black" stroke-width="1.0817" stroke-miterlimit="10" stroke-linecap="round" stroke-linejoin="round"/>
<path d="M316.3 324.3H345.5C346.7 324.3 347.6 323.4 347.6 322.2C347.6 321 346.7 320.1 345.5 320.1H316.3C314.9 320.1 313.5 319.5 312.6 318.5C311.4 317.2 311 315.5 311.5 313.8L321.9 276.7C322.2 275.6 321.6 274.4 320.4 274.1C319.3 273.8 318.1 274.4 317.8 275.6L307.4 312.7C306.5 315.8 307.3 319 309.5 321.4C311.2 323.2 313.7 324.3 316.3 324.3Z" fill="#D1D1D1" stroke="black" stroke-width="1.0817" stroke-miterlimit="10" stroke-linecap="round" stroke-linejoin="round"/>
<path d="M330.064 313.282L336.717 312.484L326.471 226.996L319.818 227.793L330.064 313.282Z" fill="white" stroke="black" stroke-width="1.0817" stroke-miterlimit="10" stroke-linecap="round" stroke-linejoin="round"/>
<path d="M319.9 227.7C319.9 227.7 308.2 269.6 330.2 313.2L319.9 227.7Z" fill="#D1D1D1" stroke="black" stroke-width="1.0817" stroke-miterlimit="10" stroke-linecap="round" stroke-linejoin="round"/>
<path d="M558.5 324.101H291.4V474.801H558.5V324.101Z" fill="#070707"/>
<mask id="mask0_4726_166" style="mask-type:luminance" maskUnits="userSpaceOnUse" x="291" y="324" width="268" height="151">
<path d="M558.5 324.101H291.4V474.801H558.5V324.101Z" fill="white"/>
</mask>
<g mask="url(#mask0_4726_166)">
<path d="M558.5 324.101H291.4V474.801H558.5V324.101Z" fill="white" stroke="black" stroke-width="1.0817" stroke-miterlimit="10" stroke-linecap="round" stroke-linejoin="round"/>
</g>
<path d="M558.5 324.101H291.4V474.801H558.5V324.101Z" stroke="#1A2E35" stroke-width="1.0817" stroke-miterlimit="10" stroke-linecap="round" stroke-linejoin="round"/>
<path d="M558.3 327.7H291.5V331.9H558.3V327.7Z" fill="#070707"/>
<path d="M560.4 321.601H285.5V328.201H560.4V321.601Z" fill="white" stroke="black" stroke-width="1.0817" stroke-miterlimit="10" stroke-linecap="round" stroke-linejoin="round"/>
<path d="M20.901 203.4L59.001 203.7C59.001 203.7 61.501 203.4 62.201 205.3C62.201 205.3 68.801 222 69.101 228C69.401 234 67.8011 233 70.4011 240.9C72.9011 248.8 80.2011 267.4 84.3011 282.5C89.8011 302.8 91.2011 324.4 91.6011 345.4C91.7011 348.8 93.7011 377.8 88.4011 377.8C84.0011 377.8 43.9011 383.1 43.4011 375.4C41.5011 344.6 47.001 314.4 36.301 284.4C32.101 272.8 27.401 260.5 23.801 248.3C20.301 236.1 19.701 223.5 17.301 211C15.901 202.4 20.901 203.4 20.901 203.4Z" fill="#070707" stroke="#1A2E35" stroke-width="1.0817" stroke-miterlimit="10" stroke-linecap="round" stroke-linejoin="round"/>
<path d="M17.2012 207.2C17.6012 202.8 20.9012 203.4 20.9012 203.4L59.0012 203.7C59.0012 203.7 61.5012 203.4 62.2012 205.3C62.2012 205.3 68.8012 222 69.1012 228C69.2012 230.3 69.1012 231.6 69.0012 232.7L68.2012 233.9C68.2012 233.9 66.9012 244.9 51.8012 245.6C36.7012 246.2 28.2012 239.3 25.0012 232.7C21.8012 226.1 20.6012 215.4 18.1012 209.1C17.8012 208.4 17.5012 207.8 17.2012 207.2Z" fill="#D1D1D1" stroke="black" stroke-width="1.0817" stroke-miterlimit="10" stroke-linecap="round" stroke-linejoin="round"/>
<path d="M26.0007 219.5C28.6007 228.7 27.0007 231.3 29.6007 247.1C32.2007 263 41.4007 280.9 44.9007 297.2C48.5007 313.6 46.9007 371.4 46.4007 373.9C46.2007 374.9 46.2007 376.4 46.2007 378C44.5007 377.4 43.4007 376.5 43.4007 375.3C41.5007 344.5 47.0007 314.3 36.3007 284.3C32.1007 272.7 27.4007 260.4 23.8007 248.2C20.3007 236 19.7007 223.4 17.3007 210.9C16.3007 205.7 17.9007 204 19.2007 203.5C19.4007 203.6 23.5007 210.3 26.0007 219.5Z" fill="#D1D1D1" stroke="black" stroke-width="1.0817" stroke-miterlimit="10" stroke-linecap="round" stroke-linejoin="round"/>
<path d="M99.7006 452.199L100.001 451.999V416.399H94.9006V393.899H113.801V416.399H108.701V452.599L154.001 466.999V470.599C154.001 472.899 152.201 474.699 149.901 474.699C147.601 474.699 145.801 472.899 145.801 470.599V470.099L107.901 465.699V471.099C107.901 473.099 106.301 474.699 104.301 474.699C102.301 474.699 100.701 473.099 100.701 471.099V465.499L61.3006 470.099V470.599C61.3006 472.899 59.5006 474.699 57.2006 474.699C54.9006 474.699 53.1006 472.899 53.1006 470.599V466.999L99.7006 452.199Z" fill="#070707" stroke="#1A2E35" stroke-width="1.0817" stroke-miterlimit="10" stroke-linecap="round" stroke-linejoin="round"/>
<path d="M44.501 398.1H159.301C161.501 398.1 163.301 396.3 163.301 394.1V376C163.301 373.8 161.501 372 159.301 372H44.501C42.301 372 40.501 373.8 40.501 376V394.1C40.501 396.3 42.301 398.1 44.501 398.1Z" fill="#070707" stroke="#1A2E35" stroke-width="1.0817" stroke-miterlimit="10" stroke-linecap="round" stroke-linejoin="round"/>
<path d="M253.6 267.1H208.4V319.3H253.6V267.1Z" fill="white" stroke="black" stroke-width="1.0817" stroke-miterlimit="10" stroke-linecap="round" stroke-linejoin="round"/>
<path d="M204.9 321.7H256V274.5H231.8L204.9 321.7Z" fill="#D1D1D1" stroke="black" stroke-width="1.0817" stroke-miterlimit="10" stroke-linecap="round" stroke-linejoin="round"/>
<path d="M266.901 324.3H237.701C236.501 324.3 235.601 323.4 235.601 322.2C235.601 321 236.501 320.1 237.701 320.1H266.901C268.301 320.1 269.701 319.5 270.601 318.5C271.801 317.2 272.201 315.5 271.701 313.8L261.301 276.7C261.001 275.6 261.601 274.4 262.801 274.1C263.901 273.8 265.101 274.4 265.401 275.6L275.801 312.7C276.701 315.8 275.901 319 273.701 321.4C272.001 323.2 269.501 324.3 266.901 324.3Z" fill="#D1D1D1" stroke="black" stroke-width="1.0817" stroke-miterlimit="10" stroke-linecap="round" stroke-linejoin="round"/>
<path d="M263.309 227.702L256.656 226.904L246.41 312.393L253.063 313.19L263.309 227.702Z" fill="white" stroke="black" stroke-width="1.0817" stroke-miterlimit="10" stroke-linecap="round" stroke-linejoin="round"/>
<path d="M263.301 227.7C263.301 227.7 275.001 269.6 253.001 313.2L263.301 227.7Z" fill="#D1D1D1" stroke="black" stroke-width="1.0817" stroke-miterlimit="10" stroke-linecap="round" stroke-linejoin="round"/>
<path d="M67.6715 474.729H292.771V324.03H67.6715L67.6715 474.729Z" fill="#070707"/>
<mask id="mask1_4726_166" style="mask-type:luminance" maskUnits="userSpaceOnUse" x="67" y="324" width="226" height="151">
<path d="M292.9 324.1L67.7998 324.1L67.7998 474.8L292.9 474.8V324.1Z" fill="white"/>
</mask>
<g mask="url(#mask1_4726_166)">
<path d="M67.6715 474.729H292.771V324.029H67.6715L67.6715 474.729Z" fill="white" stroke="black" stroke-width="0.9928" stroke-miterlimit="10" stroke-linecap="round" stroke-linejoin="round"/>
</g>
<path d="M67.6715 474.729H292.771V324.03H67.6715L67.6715 474.729Z" stroke="#1A2E35" stroke-width="0.9928" stroke-miterlimit="10" stroke-linecap="round" stroke-linejoin="round"/>
<path d="M67.9402 331.873H292.74V327.673H67.9402V331.873Z" fill="#070707"/>
<path d="M66.15 328.219H297.75V321.619H66.15V328.219Z" fill="white" stroke="black" stroke-width="0.9928" stroke-miterlimit="10" stroke-linecap="round" stroke-linejoin="round"/>
<path d="M321.601 451.5C321.601 451.5 323.701 459.5 325.801 461.3C327.401 462.7 330.401 466 334.401 468.4C335.601 469.1 340.601 470.4 340.901 471.3C341.601 473 340.301 474.8 338.501 474.8H303.001L303.301 453.2L321.601 451.5Z" fill="#666666" stroke="black" stroke-width="1.0817" stroke-miterlimit="10" stroke-linecap="round" stroke-linejoin="round"/>
<path d="M263.2 270L262.8 296.5L261.9 371.6C261.9 371.6 262.3 394.9 263.2 398.8C264.1 402.6 262.3 451.5 262.3 451.5L280.1 453.2L286.6 382.7L296.6 312.7L301.8 384L302.9 453.8L321.4 451.5L322.7 395.8C322.7 395.8 329.2 344.5 329.2 327.5C329.2 310.5 329.2 285.9 329.2 285.9L330.5 271L263.2 270Z" fill="#070707" stroke="#1A2E35" stroke-width="1.0817" stroke-miterlimit="10" stroke-linecap="round" stroke-linejoin="round"/>
<path d="M262.401 451.5C262.401 451.5 260.301 459.5 258.201 461.3C256.601 462.7 253.601 466 249.601 468.4C248.401 469.1 243.401 470.4 243.101 471.3C242.401 473 243.701 474.8 245.501 474.8H280.501L280.201 453.2L262.401 451.5Z" fill="#666666" stroke="black" stroke-width="1.0817" stroke-miterlimit="10" stroke-linecap="round" stroke-linejoin="round"/>
<path d="M393.801 160.1C392.901 159.3 391.501 159.5 390.801 160.4L385.901 166.8L388.701 161.1C389.301 159.9 389.001 158.4 387.901 157.7C387.501 157.5 387.101 157.3 386.601 157.3C384.501 157.3 381.701 164.6 381.701 164.6L375.801 174L374.101 172.3C374.101 172.3 376.901 166.4 375.801 164.6C374.701 162.8 371.601 162.2 371.601 164.6C371.601 167 369.201 169.5 368.501 171.2C367.801 172.9 372.001 186.6 372.001 186.6L350.001 212.5C350.001 212.5 340.901 178.9 338.801 177.9C336.701 176.9 310.801 172 310.801 172H300.701H284.601C284.601 172 258.701 176.9 256.601 177.9C254.501 178.9 245.401 212.5 245.401 212.5L223.401 186.6C223.401 186.6 227.601 173 226.901 171.2C226.201 169.5 223.801 167 223.801 164.6C223.801 162.2 220.701 162.9 219.601 164.6C218.601 166.3 221.301 172.3 221.301 172.3L219.601 174L213.701 164.6C213.701 164.6 210.901 157.3 208.801 157.3C208.301 157.3 207.801 157.5 207.501 157.7C206.401 158.4 206.101 159.9 206.701 161.1L209.501 166.8L204.601 160.4C203.901 159.5 202.501 159.3 201.601 160.1C201.101 160.6 200.701 161.3 200.801 162.2C201.101 164.6 203.701 169.4 203.701 169.4C203.701 169.4 200.401 174.5 201.501 176.2C202.501 177.9 205.001 180.7 205.001 180.7C205.001 180.7 203.301 182.1 207.401 187C211.601 191.9 214.401 192.9 214.401 192.9C214.401 192.9 226.301 219.5 231.201 226.8C236.101 234.1 248.701 241.8 250.401 241.8C252.001 241.8 261.801 227.1 263.701 224.1C263.901 230.1 261.501 263.8 262.201 266.8C262.301 267.1 262.401 267.4 262.501 267.7L262.701 271.4C262.701 271.4 262.701 273.3 265.401 274.1C266.801 274.5 282.701 274.5 297.901 274.4C313.101 274.5 329.001 274.5 330.401 274.1C333.101 273.3 333.101 271.4 333.101 271.4L333.301 267.7C333.401 267.4 333.501 267.1 333.601 266.8C334.301 263.7 331.901 230.1 332.101 224.1C334.001 227 343.801 241.8 345.401 241.8C347.101 241.8 359.701 234.1 364.601 226.8C369.501 219.5 381.401 192.9 381.401 192.9C381.401 192.9 384.201 191.9 388.401 187C392.601 182.1 390.801 180.7 390.801 180.7C390.801 180.7 393.201 177.9 394.301 176.2C395.301 174.5 392.101 169.4 392.101 169.4C392.101 169.4 394.701 164.7 395.001 162.2C394.801 161.3 394.301 160.6 393.801 160.1Z" fill="white" stroke="black" stroke-width="1.0817" stroke-miterlimit="10" stroke-linecap="round" stroke-linejoin="round"/>
<path d="M368.301 191L349.901 212.6C349.901 212.6 340.801 179 338.701 178C336.601 177 310.701 172.1 310.701 172.1H300.601H284.501C284.501 172.1 258.601 177 256.501 178C254.401 179 245.301 212.6 245.301 212.6L226.801 190.9C223.401 194.2 218.601 195.5 215.501 195.9C218.701 203 227.101 221.1 231.001 226.9C235.901 234.2 248.501 241.9 250.201 241.9C251.801 241.9 261.601 227.2 263.501 224.2C263.701 230.2 261.301 263.9 262.001 266.9C262.101 267.2 262.201 267.5 262.301 267.8L262.501 271.5C262.501 271.5 262.501 273.4 265.201 274.2C266.601 274.6 282.501 274.6 297.701 274.5C312.901 274.6 328.801 274.6 330.201 274.2C332.901 273.4 332.901 271.5 332.901 271.5L333.101 267.8C333.201 267.5 333.301 267.2 333.401 266.9C334.101 263.8 331.701 230.2 331.901 224.2C333.801 227.1 343.601 241.9 345.201 241.9C346.901 241.9 359.501 234.2 364.401 226.9C367.801 221.8 374.501 207.5 378.401 199.2C372.501 197.7 369.101 192.5 368.301 191Z" fill="white" stroke="black" stroke-width="1.0817" stroke-miterlimit="10" stroke-linecap="round" stroke-linejoin="round"/>
<path d="M263.501 224.399L262.301 202.899L258.801 230.699L263.501 224.399Z" fill="#070707" stroke="#1A2E35" stroke-width="1.0817" stroke-miterlimit="10" stroke-linecap="round" stroke-linejoin="round"/>
<path d="M331.601 224.4L331.501 204.1L335.701 229.6L331.601 224.4Z" fill="#070707" stroke="#1A2E35" stroke-width="1.0817" stroke-miterlimit="10" stroke-linecap="round" stroke-linejoin="round"/>
<path d="M368.3 191L363.4 196.8C364.3 200.3 367 205.4 374.7 206.9C376 204.1 377.2 201.5 378.2 199.3C372.5 197.7 369.1 192.5 368.3 191Z" fill="white" stroke="black" stroke-width="1.0817" stroke-miterlimit="10" stroke-linecap="round" stroke-linejoin="round"/>
<path d="M202.301 171C202.301 171 207.901 165.4 210.001 168.2C212.101 171 206.901 175.2 206.901 175.2L209.001 177.6" fill="white"/>
<path d="M202.301 171C202.301 171 207.901 165.4 210.001 168.2C212.101 171 206.901 175.2 206.901 175.2L209.001 177.6" stroke="black" stroke-width="1.0817" stroke-miterlimit="10" stroke-linecap="round" stroke-linejoin="round"/>
<path d="M204.7 180.8C204.7 180.8 208.9 175.9 211.7 176.6C214.5 177.3 210.3 182.9 210.3 182.9C210.3 182.9 214.8 182.6 218 186.7" fill="white"/>
<path d="M204.7 180.8C204.7 180.8 208.9 175.9 211.7 176.6C214.5 177.3 210.3 182.9 210.3 182.9C210.3 182.9 214.8 182.6 218 186.7" stroke="black" stroke-width="1.0817" stroke-miterlimit="10" stroke-linecap="round" stroke-linejoin="round"/>
<path d="M392.901 171C392.901 171 387.301 165.4 385.201 168.2C383.101 171 388.301 175.2 388.301 175.2L386.201 177.6" fill="white"/>
<path d="M392.901 171C392.901 171 387.301 165.4 385.201 168.2C383.101 171 388.301 175.2 388.301 175.2L386.201 177.6" stroke="black" stroke-width="1.0817" stroke-miterlimit="10" stroke-linecap="round" stroke-linejoin="round"/>
<path d="M390.401 180.8C390.401 180.8 386.201 175.9 383.401 176.6C380.601 177.3 384.801 182.9 384.801 182.9C384.801 182.9 380.301 182.6 377.101 186.7" fill="white"/>
<path d="M390.401 180.8C390.401 180.8 386.201 175.9 383.401 176.6C380.601 177.3 384.801 182.9 384.801 182.9C384.801 182.9 380.301 182.6 377.101 186.7" stroke="black" stroke-width="1.0817" stroke-miterlimit="10" stroke-linecap="round" stroke-linejoin="round"/>
<path d="M218.201 202C221.501 201.6 225.901 200.1 230.901 195.8L226.801 191C223.401 194.3 218.601 195.6 215.501 196C216.201 197.5 217.101 199.6 218.201 202Z" fill="white" stroke="black" stroke-width="1.0817" stroke-miterlimit="10" stroke-linecap="round" stroke-linejoin="round"/>
<path d="M294.601 189L302.401 198.8L294.801 262L305.401 272.3L314.101 262.4L305.701 199.2L313.501 185.3L300.801 177.1L294.601 189Z" fill="#EC103C" stroke="black" stroke-width="1.0817" stroke-miterlimit="10" stroke-linecap="round" stroke-linejoin="round"/>
<path d="M290.201 164L286.001 166.1L281.301 174L289.701 196L304.101 186.8L319.601 196.8C319.601 196.8 319.601 174.2 318.301 171.6C317.001 169 311.701 163.5 311.701 163.5L290.201 164Z" fill="white" stroke="black" stroke-width="1.0817" stroke-miterlimit="10" stroke-linecap="round" stroke-linejoin="round"/>
<path d="M288.501 154L290.001 170.1C290.001 170.1 299.401 186.6 302.901 188.2C306.301 189.8 311.801 174.6 312.901 172.2C313.901 169.8 314.501 162 314.501 162C314.501 162 305.101 161.7 300.301 158.6C295.601 155.5 289.001 152 289.001 152L288.501 154Z" fill="white" stroke="black" stroke-width="1.0817" stroke-miterlimit="10" stroke-linecap="round" stroke-linejoin="round"/>
<path d="M288.901 152L288.501 154L290.001 170.1C290.001 170.1 290.501 170.9 291.201 172.2C300.701 171.2 309.701 167.9 314.001 166.2C314.301 163.9 314.401 162 314.401 162C314.401 162 305.001 161.7 300.201 158.6C295.501 155.4 288.901 152 288.901 152Z" fill="#070707" stroke="black" stroke-width="1.0817" stroke-miterlimit="10" stroke-linecap="round" stroke-linejoin="round"/>
<path d="M287.501 137.399C287.501 137.399 286.001 133.099 282.201 135.399C278.401 137.699 279.501 142.499 281.101 144.799C282.701 147.099 285.301 148.899 286.901 149.199C288.501 149.499 287.501 137.399 287.501 137.399Z" fill="white" stroke="black" stroke-width="1.0817" stroke-miterlimit="10" stroke-linecap="round" stroke-linejoin="round"/>
<path d="M291.401 109.3C291.401 109.3 282.601 110.6 281.901 118.8C281.201 127 285.801 148.2 288.401 154C291.001 159.9 293.301 161.5 298.501 165.4C303.701 169.3 313.801 167.4 316.401 165.1C319.001 162.8 321.901 156.6 322.601 145.9C323.301 135.1 323.301 130.2 322.901 123.7C322.601 117.2 318.001 112 318.001 112C318.001 112 319.301 107.8 311.801 106.1C304.501 104.4 295.701 107.7 291.401 109.3Z" fill="white" stroke="black" stroke-width="1.0817" stroke-miterlimit="10" stroke-linecap="round" stroke-linejoin="round"/>
<path d="M320.101 153.999C320.101 153.999 320.101 153.999 320.101 152.999C320.101 151.999 315.901 148.799 311.901 148.099C308.001 147.399 302.101 149.099 299.801 150.399C297.501 151.699 296.901 154.999 296.901 154.999C296.901 154.999 294.001 154.999 292.301 152.699C290.701 150.399 288.401 136.099 289.001 135.099C289.701 134.099 293.201 129.599 292.901 127.899C292.601 126.299 290.901 125.599 290.601 122.999C290.301 120.399 294.801 117.799 294.801 117.799C297.701 115.499 304.901 118.499 309.501 118.099C314.101 117.799 316.701 115.699 316.701 115.699L318.801 117.899L319.901 121.199C319.901 121.199 320.501 122.199 321.801 123.499C322.801 124.499 322.401 123.999 323.001 124.899C323.001 124.499 323.001 124.099 322.901 123.699C322.601 117.199 318.001 111.999 318.001 111.999C318.001 111.999 319.301 107.799 311.801 106.099C304.301 104.499 295.501 107.699 291.301 109.399C291.301 109.399 282.501 110.699 281.801 118.899C281.101 127.099 285.701 148.299 288.301 154.099C290.901 159.999 293.201 161.599 298.401 165.499C303.601 169.399 313.701 167.499 316.301 165.199C318.301 163.499 320.401 159.499 321.601 153.099L320.101 153.999Z" fill="#D1D1D1" stroke="black" stroke-width="1.0817" stroke-miterlimit="10" stroke-linecap="round" stroke-linejoin="round"/>
<path d="M313.601 133.1L315.101 131.8C315.101 131.8 317.701 129.7 321.901 132.8" stroke="#1A2E35" stroke-width="2.1634" stroke-miterlimit="10" stroke-linecap="round" stroke-linejoin="round"/>
<path d="M305.801 145.5C305.801 145.5 306.801 147.8 308.701 147.8C310.701 147.8 313.901 146.8 313.901 146.8L313.201 135.1L313.501 133.1" stroke="#1A2E35" stroke-width="1.0817" stroke-miterlimit="10" stroke-linecap="round" stroke-linejoin="round"/>
<path d="M304.101 151.899C304.101 151.899 305.701 155.699 307.901 155.999C310.101 156.299 311.501 153.199 311.501 153.199C311.501 153.199 307.201 153.199 304.101 151.899Z" fill="#070707" stroke="#1A2E35" stroke-width="1.0817" stroke-miterlimit="10" stroke-linecap="round" stroke-linejoin="round"/>
<path d="M313.301 152.999C313.301 152.999 307.201 153.499 303.001 150.899" stroke="#1A2E35" stroke-width="1.0817" stroke-miterlimit="10" stroke-linecap="round" stroke-linejoin="round"/>
<path d="M306.201 136.2C306.201 137.4 305.601 138.4 304.801 138.4C304.001 138.4 303.401 137.4 303.401 136.2C303.401 135 304.001 134 304.801 134C305.601 134 306.201 134.9 306.201 136.2Z" fill="#070707"/>
<path d="M320.101 136.2C320.101 137.4 319.501 138.4 318.701 138.4C317.901 138.4 317.301 137.4 317.301 136.2C317.301 135 317.901 134 318.701 134C319.501 134 320.101 134.9 320.101 136.2Z" fill="#070707"/>
<path d="M298.101 132.8C298.101 132.8 301.501 130.7 306.501 131.8" stroke="#1A2E35" stroke-width="2.1634" stroke-miterlimit="10" stroke-linecap="round" stroke-linejoin="round"/>
<path d="M135 414.7C135 414.7 129.4 458.4 128.4 462.6C127.4 466.8 128 473.8 128 473.8C128 473.8 134.3 475.2 137.1 475.2C139.9 475.2 144.1 475.2 144.1 475.2C144.1 475.2 148.4 474.1 149.5 473.7C150.5 473.4 154 474 158.2 474C162.4 474 176.7 474.3 178.5 473.3C180.2 472.3 180.1 468.1 175.9 464.6C171.7 461.1 161.2 459.4 159.8 457.7C158.4 456 158.4 456 158.4 456L155.6 451.1C155.6 451.1 159.2 444 158.5 440.2C157.8 436.4 156.4 429.7 156.4 428.3C156.4 426.9 158.8 416.1 159.9 414.3C160.9 412.6 158.5 396.8 149.8 396.1C141.1 395.4 135.3 403.5 135 414.7Z" fill="#070707" stroke="#1A2E35" stroke-width="1.0817" stroke-miterlimit="10" stroke-linecap="round" stroke-linejoin="round"/>
<path d="M172 458.699C172 458.699 178.3 462.899 180.4 463.599C182.5 464.299 193.3 467.799 194.7 469.499C196.1 471.199 196.4 474.699 196.4 474.699H145.8C145.8 474.699 143.4 473.999 144.1 468.399C144.7 462.899 166.4 455.499 172 458.699Z" fill="#666666" stroke="black" stroke-width="1.0817" stroke-miterlimit="10" stroke-linecap="round" stroke-linejoin="round"/>
<path d="M125.9 273.6C125.9 273.6 122.4 296.3 125.2 305C128 313.7 133.2 319 133.2 319C133.2 319 138.1 371.7 138.1 379.8C138.1 387.8 133.2 399 133.9 410.9C134.6 422.8 141.6 457.7 141.6 462.2C141.6 466.7 141.6 469.2 141.6 469.2L144.7 472C144.7 472 163.6 462.2 165 461.2C166.4 460.2 170.9 458.8 172 458.8C173 458.8 172.7 457.8 172 455C171.3 452.2 167.1 449.4 166.4 445.9C165.7 442.4 166.4 429.8 166.7 426.7C167 423.6 173 399.1 174 385.8C175 372.5 179.2 346 179.2 333.1C179.2 320.2 179.2 294.7 179.2 294.7L179.5 276.9L125.9 273.6Z" fill="#070707" stroke="#1A2E35" stroke-width="1.0817" stroke-miterlimit="10" stroke-linecap="round" stroke-linejoin="round"/>
<path d="M133.5 171.399C133.5 171.399 121 186.999 118.2 197.999C115.5 208.999 119.4 232.199 120 234.299C120.6 236.399 122.7 254.799 122.7 263.599C122.7 272.499 123.3 276.399 127 277.299C130.7 278.199 165.5 282.799 171.9 282.499C178.3 282.199 184.1 279.099 185.6 276.099C187.1 272.999 184.1 247.699 181.6 233.399C179.2 219.099 174 200.099 172.7 194.299C171.5 188.499 162 180.299 160.8 178.699C159.6 177.199 135.2 169.499 135.2 169.499L133.5 171.399Z" fill="white" stroke="black" stroke-width="1.0817" stroke-miterlimit="10" stroke-linecap="round" stroke-linejoin="round"/>
<path d="M167.701 110.199C172.801 112.899 177.201 117.099 180.501 122.299C185.101 129.599 180.501 137.299 180.201 140.299C179.901 143.299 182.301 146.399 184.201 147.899C186.001 149.399 184.801 151.599 183.001 152.499C181.201 153.399 180.301 153.399 180.301 153.399C180.301 153.399 177.901 164.699 176.601 166.799C175.401 168.899 171.701 169.899 169.301 169.899C166.901 169.899 161.701 169.299 161.701 169.299L159.901 180.299L137.301 168.999L138.201 159.499C138.201 159.499 129.001 144.499 127.801 131.399C125.801 111.499 152.501 102.199 167.701 110.199Z" fill="#D1D1D1" stroke="black" stroke-width="1.0817" stroke-miterlimit="10" stroke-linecap="round" stroke-linejoin="round"/>
<path d="M161.5 169.199L156.5 165.999L160.3 173.899L161.5 169.199Z" fill="#070707" stroke="black" stroke-width="1.0817" stroke-miterlimit="10" stroke-linecap="round" stroke-linejoin="round"/>
<path d="M177.2 156.599C177.2 156.599 174 155.799 172.8 154.199" stroke="black" stroke-width="1.0817" stroke-miterlimit="10" stroke-linecap="round" stroke-linejoin="round"/>
<path d="M174.7 115.199C172.6 113.199 170.2 111.499 167.7 110.199C152.5 102.199 125.8 111.499 127.6 131.399C128.6 142.099 134.8 153.999 137.1 157.999C138.5 158.199 140.4 157.799 143.4 156.999C148.3 155.799 150.1 149.999 150.1 149.999L152.2 144.499C152.2 144.499 155.3 144.499 156.2 142.099C157.1 139.699 154.7 135.699 157.7 133.599C160.8 131.499 165.6 132.999 164.7 127.499C164.1 122.899 166.1 115.999 174.7 115.199Z" fill="#070707" stroke="black" stroke-width="1.0817" stroke-miterlimit="10" stroke-linecap="round" stroke-linejoin="round"/>
<path d="M155.4 145.4C155.4 145.4 153.6 139.6 148.7 142C143.8 144.4 147.2 150.2 149.3 154.2C151.4 158.2 156.3 156.6 156.3 156.6" fill="#D1D1D1"/>
<path d="M155.4 145.4C155.4 145.4 153.6 139.6 148.7 142C143.8 144.4 147.2 150.2 149.3 154.2C151.4 158.2 156.3 156.6 156.3 156.6" stroke="black" stroke-width="1.0817" stroke-miterlimit="10" stroke-linecap="round" stroke-linejoin="round"/>
<path d="M177.1 140.9C177.1 142.1 176.7 143 176.2 143C175.7 143 175.3 142 175.3 140.9C175.3 139.7 175.7 138.8 176.2 138.8C176.7 138.8 177.1 139.7 177.1 140.9Z" fill="#070707"/>
<path d="M172.2 136C172.2 136 175.3 132.3 178.9 134.2" stroke="black" stroke-width="1.0817" stroke-miterlimit="10" stroke-linecap="round" stroke-linejoin="round"/>
<path d="M171.3 194.499L178.8 270.199L189.5 274.899L188.9 264.899L174.5 196.099C174.4 196.099 171 189.199 171.3 194.499Z" fill="#EC103C" stroke="black" stroke-width="1.0817" stroke-miterlimit="10" stroke-linecap="round" stroke-linejoin="round"/>
<path d="M157.5 183.199L171.3 194.499C171.3 194.499 172.9 189.499 171.6 185.999C170.3 182.499 160.9 178.699 160.9 178.699L157.5 183.199Z" fill="#EC103C" stroke="black" stroke-width="1.0817" stroke-miterlimit="10" stroke-linecap="round" stroke-linejoin="round"/>
<path d="M135.6 165.3L163.1 177.8L159 189.5L133.5 171.4L135.6 165.3Z" fill="#EC103C" stroke="black" stroke-width="1.0817" stroke-miterlimit="10" stroke-linecap="round" stroke-linejoin="round"/>
<path d="M188.5 209.799C188.5 209.799 196.4 209.699 200.3 213.899C204.2 218.099 205.8 221.199 204.8 225.199C203.8 229.099 200.9 229.899 199 230.399C197.2 230.899 194.5 231.199 188.5 222.499C182.5 213.899 183.7 210.099 188.5 209.799Z" fill="white" stroke="black" stroke-width="1.0817" stroke-miterlimit="10" stroke-linecap="round" stroke-linejoin="round"/>
<path d="M131 188.2C131 188.2 126.4 194.9 126.1 203.8C125.8 212.7 127.9 216 130.7 216.9C133.4 217.8 157.9 235.8 164.9 239.2C171.9 242.6 188 251.6 192.6 248.8C197.2 246 203 243.6 203 235.7C203 227.8 198.4 222.9 195.7 219.8C193 216.7 176.3 206.8 171.1 201.6C165.9 196.4 155.2 187.9 153.4 187.6" fill="white"/>
<path d="M131 188.2C131 188.2 126.4 194.9 126.1 203.8C125.8 212.7 127.9 216 130.7 216.9C133.4 217.8 157.9 235.8 164.9 239.2C171.9 242.6 188 251.6 192.6 248.8C197.2 246 203 243.6 203 235.7C203 227.8 198.4 222.9 195.7 219.8C193 216.7 176.3 206.8 171.1 201.6C165.9 196.4 155.2 187.9 153.4 187.6" stroke="black" stroke-width="1.0817" stroke-miterlimit="10" stroke-linecap="round" stroke-linejoin="round"/>
<path d="M188.5 209.799C188.5 209.799 186.3 207.299 185 207.399C183.6 207.599 182 214.199 183.5 215.999C185 217.799 186.9 217.899 187.2 216.199C187.4 214.499 188.8 212.299 188.5 209.799Z" fill="#D1D1D1" stroke="black" stroke-width="1.0817" stroke-miterlimit="10" stroke-linecap="round" stroke-linejoin="round"/>
<path d="M191.7 212.199C191.7 212.199 190.2 210.499 189.3 210.599C188.4 210.699 187.3 215.099 188.3 216.299C189.3 217.499 190.5 217.499 190.8 216.399C191 215.299 191.9 213.799 191.7 212.199Z" fill="#D1D1D1" stroke="black" stroke-width="1.0817" stroke-miterlimit="10" stroke-linecap="round" stroke-linejoin="round"/>
<path d="M183.9 206.199C183.9 206.199 181.7 203.699 180.4 203.799C179 203.999 177.4 210.599 178.9 212.399C180.4 214.299 182.3 214.299 182.6 212.599C182.9 210.999 184.2 208.799 183.9 206.199Z" fill="#D1D1D1" stroke="black" stroke-width="1.0817" stroke-miterlimit="10" stroke-linecap="round" stroke-linejoin="round"/>
<path d="M179.5 202.399C179.5 202.399 177.3 199.899 176 199.999C174.6 200.199 173 206.799 174.5 208.599C176 210.499 177.9 210.499 178.2 208.799C178.5 207.099 179.8 204.899 179.5 202.399Z" fill="#D1D1D1" stroke="black" stroke-width="1.0817" stroke-miterlimit="10" stroke-linecap="round" stroke-linejoin="round"/>
<path d="M140.9 223.599C140.9 223.599 131.1 223.599 126.2 221.199" stroke="black" stroke-width="1.0817" stroke-miterlimit="10" stroke-linecap="round" stroke-linejoin="round"/>
<path d="M128.1 99.6996V116.4H39.5V50.5996H46.4" stroke="#1A2E35" stroke-width="1.0551" stroke-miterlimit="10" stroke-linecap="round" stroke-linejoin="round"/>
<path d="M53.7998 50.5996H128.1V94.7996" stroke="#1A2E35" stroke-width="1.0551" stroke-miterlimit="10" stroke-linecap="round" stroke-linejoin="round"/>
<path d="M128 103.1H39.5V116.4H128V103.1Z" stroke="#1A2E35" stroke-width="1.0551" stroke-miterlimit="10" stroke-linecap="round" stroke-linejoin="round"/>
<path d="M121.8 107.399H45.7998V112.099H121.8V107.399Z" stroke="#1A2E35" stroke-width="1.0551" stroke-miterlimit="10" stroke-linecap="round" stroke-linejoin="round"/>
<path d="M100.7 78.3998L72 61.7998V94.8998L100.7 78.3998Z" stroke="#1A2E35" stroke-width="1.0551" stroke-miterlimit="10" stroke-linecap="round" stroke-linejoin="round"/>
<path d="M500.2 49.0996C506.6 52.8996 511.9 58.3996 515.6 64.8996" stroke="#1A2E35" stroke-width="1.0551" stroke-miterlimit="10" stroke-linecap="round" stroke-linejoin="round"/>
<path d="M444.401 111.8C438.901 104.6 435.601 95.5996 435.601 85.7996C435.601 62.1996 454.701 43.0996 478.301 43.0996C484.301 43.0996 490.001 44.2996 495.201 46.5996" stroke="#1A2E35" stroke-width="1.0551" stroke-miterlimit="10" stroke-linecap="round" stroke-linejoin="round"/>
<path d="M454 120.9C452.3 119.7 450.7 118.4 449.2 117.1" stroke="#1A2E35" stroke-width="1.0551" stroke-miterlimit="10" stroke-linecap="round" stroke-linejoin="round"/>
<path d="M520.901 84.1992C520.901 84.6992 520.901 85.2992 520.901 85.7992C520.901 109.399 501.801 128.499 478.201 128.499C471.101 128.499 464.401 126.799 458.501 123.699" stroke="#1A2E35" stroke-width="1.0551" stroke-miterlimit="10" stroke-linecap="round" stroke-linejoin="round"/>
<path d="M447.7 83.8996C448 78.2996 449.9 72.9996 452.9 68.5996" stroke="#1A2E35" stroke-width="1.0551" stroke-miterlimit="10" stroke-linecap="round" stroke-linejoin="round"/>
<path d="M456.601 64.0996C462.101 58.5996 469.801 55.0996 478.301 55.0996C495.201 55.0996 508.901 68.7996 508.901 85.6996C508.901 102.6 495.201 116.3 478.301 116.3C462.301 116.3 449.201 104 447.801 88.3996" stroke="#1A2E35" stroke-width="1.0551" stroke-miterlimit="10" stroke-linecap="round" stroke-linejoin="round"/>
<path d="M490.6 98.1998C487.4 101.4 483.1 103.3 478.2 103.3C468.5 103.3 460.7 95.4998 460.7 85.7998C460.7 76.0998 468.5 68.2998 478.2 68.2998C487.9 68.2998 495.7 76.0998 495.7 85.7998C495.7 88.4998 495.1 91.0998 494 93.3998" stroke="#1A2E35" stroke-width="1.0551" stroke-miterlimit="10" stroke-linecap="round" stroke-linejoin="round"/>
<path d="M478.301 93.4996C482.553 93.4996 486.001 90.0522 486.001 85.7996C486.001 81.547 482.553 78.0996 478.301 78.0996C474.048 78.0996 470.601 81.547 470.601 85.7996C470.601 90.0522 474.048 93.4996 478.301 93.4996Z" stroke="#1A2E35" stroke-width="1.0551" stroke-miterlimit="10" stroke-linecap="round" stroke-linejoin="round"/>
<path d="M512.601 75.1992L521.801 81.2992L540.701 75.7992L538.301 67.6992L512.601 75.1992Z" stroke="#1A2E35" stroke-width="1.0551" stroke-miterlimit="10" stroke-linecap="round" stroke-linejoin="round"/>
<path d="M512.4 74.6996L517 64.5996L535.8 59.0996L538.2 67.1996L512.4 74.6996Z" stroke="#1A2E35" stroke-width="1.0551" stroke-miterlimit="10" stroke-linecap="round" stroke-linejoin="round"/>
<path d="M538.5 67.3994L480.2 84.2994" stroke="#1A2E35" stroke-width="2.1102" stroke-miterlimit="10" stroke-linecap="round" stroke-linejoin="round"/>
<path d="M256.701 75.0996H244.801V101.4H256.701V75.0996Z" stroke="#1A2E35" stroke-width="1.0551" stroke-miterlimit="10" stroke-linecap="round" stroke-linejoin="round"/>
<path d="M273.001 60.0996H261.101V101.4H273.001V60.0996Z" stroke="#1A2E35" stroke-width="1.0551" stroke-miterlimit="10" stroke-linecap="round" stroke-linejoin="round"/>
<path d="M289.3 67H277.4V101.4H289.3V67Z" stroke="#1A2E35" stroke-width="1.0551" stroke-miterlimit="10" stroke-linecap="round" stroke-linejoin="round"/>
<path d="M305.501 50.7002H293.601V101.4H305.501V50.7002Z" stroke="#1A2E35" stroke-width="1.0551" stroke-miterlimit="10" stroke-linecap="round" stroke-linejoin="round"/>
<path d="M321.8 43.7998H309.9V101.4H321.8V43.7998Z" stroke="#1A2E35" stroke-width="1.0551" stroke-miterlimit="10" stroke-linecap="round" stroke-linejoin="round"/>
<path d="M242.7 101.3H237.9" stroke="#1A2E35" stroke-width="1.0551" stroke-miterlimit="10" stroke-linecap="round" stroke-linejoin="round"/>
<path d="M329.501 101.3H324.801" stroke="#1A2E35" stroke-width="1.0551" stroke-miterlimit="10" stroke-linecap="round" stroke-linejoin="round"/>
<path d="M242.7 95.6992H237.9" stroke="#1A2E35" stroke-width="1.0551" stroke-miterlimit="10" stroke-linecap="round" stroke-linejoin="round"/>
<path d="M329.501 95.6992H324.801" stroke="#1A2E35" stroke-width="1.0551" stroke-miterlimit="10" stroke-linecap="round" stroke-linejoin="round"/>
<path d="M242.7 90H237.9" stroke="#1A2E35" stroke-width="1.0551" stroke-miterlimit="10" stroke-linecap="round" stroke-linejoin="round"/>
<path d="M329.501 90H324.801" stroke="#1A2E35" stroke-width="1.0551" stroke-miterlimit="10" stroke-linecap="round" stroke-linejoin="round"/>
<path d="M242.7 84.3994H237.9" stroke="#1A2E35" stroke-width="1.0551" stroke-miterlimit="10" stroke-linecap="round" stroke-linejoin="round"/>
<path d="M329.501 84.3994H324.801" stroke="#1A2E35" stroke-width="1.0551" stroke-miterlimit="10" stroke-linecap="round" stroke-linejoin="round"/>
<path d="M242.7 78.6992H237.9" stroke="#1A2E35" stroke-width="1.0551" stroke-miterlimit="10" stroke-linecap="round" stroke-linejoin="round"/>
<path d="M329.501 78.6992H324.801" stroke="#1A2E35" stroke-width="1.0551" stroke-miterlimit="10" stroke-linecap="round" stroke-linejoin="round"/>
<path d="M242.7 73.0996H237.9" stroke="#1A2E35" stroke-width="1.0551" stroke-miterlimit="10" stroke-linecap="round" stroke-linejoin="round"/>
<path d="M329.501 73.0996H324.801" stroke="#1A2E35" stroke-width="1.0551" stroke-miterlimit="10" stroke-linecap="round" stroke-linejoin="round"/>
<path d="M242.7 67.3994H237.9" stroke="#1A2E35" stroke-width="1.0551" stroke-miterlimit="10" stroke-linecap="round" stroke-linejoin="round"/>
<path d="M329.501 67.3994H324.801" stroke="#1A2E35" stroke-width="1.0551" stroke-miterlimit="10" stroke-linecap="round" stroke-linejoin="round"/>
<path d="M242.7 61.7998H237.9" stroke="#1A2E35" stroke-width="1.0551" stroke-miterlimit="10" stroke-linecap="round" stroke-linejoin="round"/>
<path d="M329.501 61.7998H324.801" stroke="#1A2E35" stroke-width="1.0551" stroke-miterlimit="10" stroke-linecap="round" stroke-linejoin="round"/>
<path d="M242.7 56.0996H237.9" stroke="#1A2E35" stroke-width="1.0551" stroke-miterlimit="10" stroke-linecap="round" stroke-linejoin="round"/>
<path d="M329.501 56.0996H324.801" stroke="#1A2E35" stroke-width="1.0551" stroke-miterlimit="10" stroke-linecap="round" stroke-linejoin="round"/>
<path d="M242.7 50.5H237.9" stroke="#1A2E35" stroke-width="1.0551" stroke-miterlimit="10" stroke-linecap="round" stroke-linejoin="round"/>
<path d="M329.501 50.5H324.801" stroke="#1A2E35" stroke-width="1.0551" stroke-miterlimit="10" stroke-linecap="round" stroke-linejoin="round"/>
<path d="M249.4 65.5996L266.3 47.0996L283.2 61.3996L298.5 40.7996L309.4 33.5996" stroke="#1A2E35" stroke-width="2.1102" stroke-linecap="round" stroke-linejoin="round"/>
<path d="M311.3 39.8996L317 28.5996L304.4 29.3996L311.3 39.8996Z" fill="#1A2E35"/>
<path d="M16.4004 474.7H595.6" stroke="#1A2E35" stroke-width="1.0817" stroke-miterlimit="10" stroke-linecap="round" stroke-linejoin="round"/>
<path d="M555.8 208.301L517.1 208.601C517.1 208.601 514.5 208.301 513.9 210.201C513.9 210.201 507.2 227.201 506.9 233.301C506.6 239.401 508.2 238.401 505.6 246.401C503 254.401 495.7 273.301 491.5 288.701C485.9 309.401 484.4 331.301 484.1 352.601C484 356.001 482 385.501 487.3 385.501C491.7 385.501 532.5 390.901 533 383.001C535 351.701 529.3 321.101 540.2 290.601C544.4 278.801 549.3 266.301 552.9 253.901C556.5 241.501 557.1 228.701 559.5 216.001C560.9 207.301 555.8 208.301 555.8 208.301Z" fill="#070707" stroke="#1A2E35" stroke-width="1.0987" stroke-miterlimit="10" stroke-linecap="round" stroke-linejoin="round"/>
<path d="M559.601 212.1C559.201 207.6 555.801 208.3 555.801 208.3L517.101 208.6C517.101 208.6 514.501 208.3 513.901 210.2C513.901 210.2 507.201 227.2 506.901 233.3C506.801 235.7 506.901 237 507.001 238.1L507.801 239.4C507.801 239.4 509.101 250.6 524.401 251.2C539.801 251.8 548.401 244.8 551.601 238.1C554.801 231.4 556.101 220.5 558.601 214.1C558.901 213.4 559.301 212.7 559.601 212.1Z" fill="#D1D1D1" stroke="black" stroke-width="1.0987" stroke-miterlimit="10" stroke-linecap="round" stroke-linejoin="round"/>
<path d="M550.6 224.6C548 234 549.6 236.6 547 252.7C544.4 268.8 535 287 531.4 303.6C527.8 320.2 529.3 378.9 529.8 381.5C530 382.5 530 384.1 530 385.7C531.7 385 532.8 384.1 532.9 382.9C534.9 351.6 529.2 321 540.1 290.5C544.3 278.7 549.2 266.2 552.8 253.8C556.4 241.4 557 228.6 559.4 215.9C560.4 210.6 558.8 208.9 557.5 208.4V208.5C557.4 208.5 553.2 215.3 550.6 224.6Z" fill="#D1D1D1" stroke="black" stroke-width="1.0987" stroke-miterlimit="10" stroke-linecap="round" stroke-linejoin="round"/>
<path d="M475.8 461L475.5 460.8V424.6H480.7V401.7H461.5V424.6H466.7V461.4L420.7 476.1V479.7C420.7 482 422.6 483.9 424.9 483.9C427.2 483.9 429.1 482 429.1 479.7V479.2L467.6 474.7V480.2C467.6 482.2 469.2 483.8 471.2 483.8C473.2 483.8 474.8 482.2 474.8 480.2V474.5L514.8 479.2V479.7C514.8 482 516.7 483.9 519 483.9C521.3 483.9 523.2 482 523.2 479.7V476.1L475.8 461Z" fill="#070707" stroke="#1A2E35" stroke-width="1.0987" stroke-miterlimit="10" stroke-linecap="round" stroke-linejoin="round"/>
<path d="M531.901 406H415.101C412.901 406 411.101 404.2 411.101 402V383.5C411.101 381.3 412.901 379.5 415.101 379.5H531.801C534.001 379.5 535.801 381.3 535.801 383.5V402C535.901 404.2 534.101 406 531.901 406Z" fill="#070707" stroke="#1A2E35" stroke-width="1.0987" stroke-miterlimit="10" stroke-linecap="round" stroke-linejoin="round"/>
<path d="M402 350.499C402 350.499 382.8 351.399 381.1 362.199C379.4 373.099 426.8 438.799 430.6 440.799C434.3 442.799 435.7 453.899 435.7 458.499C435.7 463.099 434.8 464.799 432 468.499C429.1 472.199 432.9 471.099 436 470.199C439.1 469.299 440.6 470.499 444.3 463.299C448 456.199 447.4 455.599 449.4 451.899C451.4 448.199 452.8 442.999 449.7 440.499C446.6 437.899 436.6 433.599 435.1 432.499C433.7 431.399 414.2 369.599 414.2 369.599C414.2 369.599 431.4 378.999 441.9 382.199C452.5 385.299 459.9 387.899 470.2 387.099C480.5 386.199 471.3 365.699 456.2 358.799C441.2 351.899 402 350.499 402 350.499Z" fill="white" stroke="black" stroke-width="1.0987" stroke-miterlimit="10"/>
<path d="M456.301 358.799C447.301 354.699 430.001 352.599 417.301 351.499L421.401 373.399C427.301 376.399 435.801 380.399 442.101 382.299C452.701 385.399 460.101 387.999 470.401 387.199C480.601 386.199 471.501 365.599 456.301 358.799Z" fill="#10A261" stroke="black" stroke-width="1.0987" stroke-miterlimit="10" stroke-linecap="round" stroke-linejoin="round"/>
<path d="M449.7 440.499C448.7 439.699 447.1 438.699 445.3 437.799C445.3 438.599 445.3 439.399 445.3 440.199C445.3 444.599 440.2 457.799 440.2 457.799L435.7 459.899C435.5 463.499 434.6 465.199 432 468.599C429.1 472.299 432.9 471.199 436 470.299C439.1 469.399 440.6 470.599 444.3 463.399C448 456.299 447.4 455.699 449.4 451.999C451.5 448.299 452.9 443.099 449.7 440.499Z" fill="#EC103C" stroke="#1A2E35" stroke-width="1.0817" stroke-miterlimit="10" stroke-linecap="round" stroke-linejoin="round"/>
<path d="M471.001 264.8C471.001 264.8 467.001 263 459.601 270.3C452.301 277.6 436.201 325.3 437.301 328.6C438.401 331.9 443.901 332.6 446.101 330.8C448.301 329 460.001 300.4 460.001 300.4L473.901 271.1" fill="white"/>
<path d="M471.001 264.8C471.001 264.8 467.001 263 459.601 270.3C452.301 277.6 436.201 325.3 437.301 328.6C438.401 331.9 443.901 332.6 446.101 330.8C448.301 329 460.001 300.4 460.001 300.4L473.901 271.1" stroke="black" stroke-width="1.0987" stroke-miterlimit="10" stroke-linecap="round" stroke-linejoin="round"/>
<path d="M473.901 271L471.001 264.8C471.001 264.8 467.001 263 459.601 270.3C457.601 272.3 455.001 276.7 452.301 282.3L464.101 291.7L473.901 271Z" fill="#EC103C" stroke="black" stroke-width="1.0817" stroke-miterlimit="10" stroke-linecap="round" stroke-linejoin="round"/>
<path d="M463.8 281.2C463 283.1 462.3 284.9 461.8 286.4C459.2 293 457 296.7 458.1 301.4C459.2 306.2 463.6 313.9 463.6 313.9L450.4 337.7L509 350.9L510.5 315.7C510.5 315.7 528.1 279.1 528.4 273.2C528.8 267.3 518.9 264.8 510.1 261.5C501.3 258.2 496.9 257.1 496.9 257.1L489.2 258.2C489.2 258.2 472.4 263 470.9 264.8C470.7 265.1 470.4 265.6 470 266.4" fill="#EC103C"/>
<path d="M463.8 281.2C463 283.1 462.3 284.9 461.8 286.4C459.2 293 457 296.7 458.1 301.4C459.2 306.2 463.6 313.9 463.6 313.9L450.4 337.7L509 350.9L510.5 315.7C510.5 315.7 528.1 279.1 528.4 273.2C528.8 267.3 518.9 264.8 510.1 261.5C501.3 258.2 496.9 257.1 496.9 257.1L489.2 258.2C489.2 258.2 472.4 263 470.9 264.8C470.7 265.1 470.4 265.6 470 266.4" stroke="black" stroke-width="1.0817" stroke-miterlimit="10" stroke-linecap="round" stroke-linejoin="round"/>
<path d="M487.2 316.199L489.2 317.399" stroke="black" stroke-width="1.0987" stroke-miterlimit="10" stroke-linecap="round" stroke-linejoin="round"/>
<path d="M478.5 310.899L484 314.299" stroke="black" stroke-width="1.0987" stroke-miterlimit="10" stroke-linecap="round" stroke-linejoin="round"/>
<path d="M452.901 342.1C452.901 342.1 446.101 335.5 442.901 335.5C439.701 335.5 433.101 338.9 433.101 338.9C433.101 338.9 443.701 340.3 446.301 340.5C448.901 340.7 452.101 343.7 454.501 341.9L452.901 342.1Z" fill="white" stroke="black" stroke-width="1.0987" stroke-miterlimit="10" stroke-linecap="round" stroke-linejoin="round"/>
<path d="M513.101 283.8L500.301 328.5L453.001 335.8L453.401 341.4C453.401 341.4 498.001 345.9 501.401 345.7C513.501 345 511.801 340.4 516.801 330.3C518.801 326.3 533.601 278.6 532.901 275.7C530.701 266.9 520.101 265.1 520.101 265.1" fill="white"/>
<path d="M513.101 283.8L500.301 328.5L453.001 335.8L453.401 341.4C453.401 341.4 498.001 345.9 501.401 345.7C513.501 345 511.801 340.4 516.801 330.3C518.801 326.3 533.601 278.6 532.901 275.7C530.701 266.9 520.101 265.1 520.101 265.1" stroke="black" stroke-width="1.0987" stroke-miterlimit="10" stroke-linecap="round" stroke-linejoin="round"/>
<path d="M513.101 283.8L509.301 297C513.001 295.4 519.701 293.3 528.301 294.3C531.101 284.8 533.201 276.8 532.901 275.7C530.701 266.9 520.101 265.1 520.101 265.1" fill="#EC103C"/>
<path d="M513.101 283.8L509.301 297C513.001 295.4 519.701 293.3 528.301 294.3C531.101 284.8 533.201 276.8 532.901 275.7C530.701 266.9 520.101 265.1 520.101 265.1" stroke="black" stroke-width="1.0817" stroke-miterlimit="10" stroke-linecap="round" stroke-linejoin="round"/>
<path d="M484.2 257.099C484.2 257.099 484.6 261.699 483.8 265.599C482.9 269.499 478.8 280.899 480.5 280.899C482.2 280.899 499.5 264.899 501.7 262.799C503.9 260.599 506.5 244.699 506.5 244.699C506.5 244.699 489.8 256.299 484.2 257.099Z" fill="white" stroke="black" stroke-width="1.0987" stroke-miterlimit="10" stroke-linecap="round" stroke-linejoin="round"/>
<path d="M484 264.2L497.4 255.1L488.9 255.4C487 256.3 485.3 257 484.1 257.2C484.2 257.1 484.5 260.7 484 264.2Z" fill="#070707" stroke="black" stroke-width="1.0987" stroke-miterlimit="10" stroke-linecap="round" stroke-linejoin="round"/>
<path d="M508.1 351.099C508.1 351.099 434.9 336.799 418.3 335.699C401.7 334.599 392.3 333.099 392.9 340.799C393.5 348.499 424.9 439.099 427.2 443.999C427.2 443.999 425.8 457.099 424.3 461.699C422.9 466.299 417.2 473.399 416.6 475.099C416 476.799 431.2 473.099 434.9 469.699C438.6 466.299 439.2 459.399 444.3 452.799C449.4 446.199 447.2 443.399 444 441.399C440.9 439.399 436.9 434.299 436.9 434.299C436.9 434.299 435.2 429.699 433.5 420.899C431.8 411.999 427.5 369.399 427.5 369.399C427.5 369.399 445.2 384.799 465.5 386.799C485.8 388.799 497.5 384.499 507 374.799C516.4 365.099 508.1 351.099 508.1 351.099Z" fill="white" stroke="black" stroke-width="1.0987" stroke-miterlimit="10"/>
<path d="M427.5 369.399C427.5 369.399 427.3 359.099 422.7 352.999" stroke="black" stroke-width="1.0987" stroke-miterlimit="10" stroke-linecap="round" stroke-linejoin="round"/>
<path d="M444 441.399C443.8 441.199 443.5 441.099 443.3 440.899C443 442.099 442.5 443.299 441.7 444.299C439.3 447.199 436.2 460.799 433.3 462.999C430.9 464.799 425.3 464.399 423.4 464.199C421.2 468.499 417.2 473.799 416.7 475.199C416.1 476.899 431.3 473.199 435 469.799C438.7 466.399 439.3 459.499 444.4 452.899C449.5 446.299 447.2 443.399 444 441.399Z" fill="#EC103C" stroke="#1A2E35" stroke-width="1.0817" stroke-miterlimit="10" stroke-linecap="round" stroke-linejoin="round"/>
<path d="M427.5 369.4C427.5 369.4 445.2 384.8 465.5 386.8C485.8 388.8 497.5 384.5 507 374.8C516.4 365.1 508.1 351.1 508.1 351.1C508.1 351.1 434.9 336.8 418.3 335.7C418.3 335.6 432.7 348.3 427.5 369.4Z" fill="#10A261" stroke="black" stroke-width="1.0987" stroke-miterlimit="10" stroke-linecap="round" stroke-linejoin="round"/>
<path d="M439.8 321.999C439.8 321.999 436.1 327.499 435.8 331.499C435.4 335.499 441.1 339.599 446.6 341.599C452.9 343.899 463.7 346.299 463.7 346.299C463.7 346.299 462.5 348.899 463.1 353.199C463.7 357.599 467 358.099 467 358.099C467 358.099 465.6 359.599 465.7 360.399C465.8 361.199 467.2 362.799 468.5 363.099C470.9 363.599 473.4 362.499 475.1 360.799C476 359.899 478.3 356.799 478.2 355.499C478 352.599 474.7 348.199 474.7 348.199C474.7 348.199 472.1 343.499 466.5 340.899C461 338.299 446 326.399 446 326.399L445.1 325.799" fill="white"/>
<path d="M439.8 321.999C439.8 321.999 436.1 327.499 435.8 331.499C435.4 335.499 441.1 339.599 446.6 341.599C452.9 343.899 463.7 346.299 463.7 346.299C463.7 346.299 462.5 348.899 463.1 353.199C463.7 357.599 467 358.099 467 358.099C467 358.099 465.6 359.599 465.7 360.399C465.8 361.199 467.2 362.799 468.5 363.099C470.9 363.599 473.4 362.499 475.1 360.799C476 359.899 478.3 356.799 478.2 355.499C478 352.599 474.7 348.199 474.7 348.199C474.7 348.199 472.1 343.499 466.5 340.899C461 338.299 446 326.399 446 326.399L445.1 325.799" stroke="black" stroke-width="1.0987" stroke-miterlimit="10" stroke-linecap="round" stroke-linejoin="round"/>
<path d="M467 358.199C467 358.199 468.1 360.199 469.7 360.099" stroke="#1A2E35" stroke-width="1.0987" stroke-miterlimit="10" stroke-linecap="round" stroke-linejoin="round"/>
<path d="M476.901 230.099C476.901 230.099 466.801 219.999 471.301 214.099C475.801 208.099 501.501 204.799 513.101 206.299C524.701 207.799 526.501 246.199 525.001 250.299C523.501 254.399 510.101 257.399 506.301 256.599C502.601 255.899 478.701 258.099 473.101 255.099C467.501 252.099 463.801 245.799 463.801 245.799C463.801 245.799 467.501 247.999 472.801 243.599C478.001 239.099 476.901 230.099 476.901 230.099Z" fill="#070707" stroke="#020202" stroke-width="1.0987" stroke-miterlimit="10" stroke-linecap="round" stroke-linejoin="round"/>
<path d="M489.901 221.899C489.901 221.899 476.801 224.899 476.501 228.199C476.101 231.599 470.901 254.699 475.801 256.899C480.701 259.099 496.301 257.599 501.201 253.499C506.101 249.399 509.001 244.499 509.001 244.499C509.001 244.499 510.101 245.599 511.601 242.599C513.101 239.599 512.701 235.099 512.701 235.099C512.701 235.099 508.601 241.099 503.001 235.799C497.401 230.799 489.901 221.899 489.901 221.899Z" fill="white" stroke="black" stroke-width="1.0987" stroke-miterlimit="10" stroke-linecap="round" stroke-linejoin="round"/>
<path d="M480.1 233.399C480.1 234.299 479.6 235.099 479 235.099C478.4 235.099 477.9 234.299 477.9 233.399C477.9 232.499 478.4 231.699 479 231.699C479.6 231.699 480.1 232.499 480.1 233.399Z" fill="#070707"/>
<path d="M490.301 235.3C490.301 236.2 489.801 237 489.201 237C488.601 237 488.101 236.2 488.101 235.3C488.101 234.4 488.601 233.6 489.201 233.6C489.801 233.6 490.301 234.4 490.301 235.3Z" fill="#070707"/>
<path d="M483.3 231.899C483.3 231.899 482.7 235.299 481.6 236.199C480.5 237.099 477.3 238.999 477.1 240.699C476.9 242.399 483.1 243.499 483.1 243.499" stroke="black" stroke-width="1.0987" stroke-miterlimit="10" stroke-linecap="round" stroke-linejoin="round"/>
<path d="M478.601 246.699C478.601 246.699 482.001 249.299 485.401 246.999" stroke="black" stroke-width="1.0987" stroke-miterlimit="10" stroke-linecap="round" stroke-linejoin="round"/>
<path d="M487 231.899C487 231.899 490.7 230.799 493.2 233.899" stroke="black" stroke-width="1.0987" stroke-miterlimit="10" stroke-linecap="round" stroke-linejoin="round"/>
<path d="M482.2 230.499C482.2 230.499 480.8 228.499 477.9 230.499" stroke="black" stroke-width="1.0987" stroke-miterlimit="10" stroke-linecap="round" stroke-linejoin="round"/>
<path d="M507.801 249.8C507.801 249.8 502.001 253.5 499.601 254.1C497.201 254.7 496.201 254.7 496.201 254.7C496.201 254.7 496.201 256.5 505.301 257.4C514.401 258.3 521.101 256.2 523.301 251.6" fill="#070707"/>
<path d="M507.801 249.8C507.801 249.8 502.001 253.5 499.601 254.1C497.201 254.7 496.201 254.7 496.201 254.7C496.201 254.7 496.201 256.5 505.301 257.4C514.401 258.3 521.101 256.2 523.301 251.6" stroke="black" stroke-width="1.0987" stroke-miterlimit="10" stroke-linecap="round" stroke-linejoin="round"/>
</g>
<defs>
<clipPath id="clip0_4726_166">
<rect width="600" height="500" fill="white"/>
</clipPath>
</defs>
</svg>
