<svg width="600" height="500" viewBox="0 0 600 500" fill="none" xmlns="http://www.w3.org/2000/svg">
<path opacity="0.2" fill-rule="evenodd" clip-rule="evenodd" d="M172.201 443.1C169.201 439.7 166.301 436.2 163.601 432.6C159.201 426.9 152.401 423.5 145.201 423.5C131.301 423.5 110.001 423.5 110.001 423.5C96.1006 423.5 84.9006 412.3 84.9006 398.4C84.9006 384.5 96.1006 373.3 110.001 373.3H189.401C203.301 373.3 214.501 362.1 214.501 348.2C214.501 334.3 203.301 323.1 189.401 323.1H57.7006C43.8006 323.1 32.6006 311.9 32.6006 298C32.6006 284.1 43.8006 272.9 57.7006 272.9H148.101C162.001 272.9 173.201 261.7 173.201 247.8C173.201 233.9 162.001 222.7 148.101 222.7H98.9006C85.0006 222.7 73.8006 211.5 73.8006 197.6C73.8006 183.7 85.0006 172.5 98.9006 172.5C98.9006 172.5 143.201 172.5 163.501 172.5C169.801 172.5 175.801 170 180.201 165.4C217.301 127.6 269.001 104.1 326.101 104.1C403.501 104.1 470.901 147.2 505.601 210.6C509.701 218 517.501 222.7 525.901 222.7C541.201 222.7 563.201 222.7 563.201 222.7C577.101 222.7 588.301 233.9 588.301 247.8C588.301 261.7 577.101 272.9 563.201 272.9H514.001C500.101 272.9 488.901 284.1 488.901 298C488.901 311.9 500.101 323.1 514.001 323.1H570.601C584.501 323.1 595.701 334.3 595.701 348.2C595.701 362.1 584.501 373.3 570.601 373.3C570.601 373.3 558.301 373.3 536.101 373.3C526.801 373.3 518.301 378.9 514.701 387.5C506.101 408 494.301 426.7 479.901 443.2L172.201 443.1Z" fill="#10A261"/>
<path fill-rule="evenodd" clip-rule="evenodd" d="M587 481.899C585.9 481.799 580.3 481.799 570.9 481.699C477 481.199 7.5 481.099 7.5 481.099C7 481.099 6.5 480.599 6.5 479.999C6.5 479.399 6.9 478.899 7.5 478.899C7.5 478.899 477 478.999 570.9 479.499C580.3 479.499 586 479.599 587 479.699C587.3 479.699 587.5 479.799 587.5 479.799C588 480.099 588.1 480.599 588.1 480.799C588.1 481.399 587.7 481.899 587.1 481.899C587.2 481.999 587.1 481.999 587 481.899Z" fill="black"/>
<path d="M513.1 396.899C540.493 396.899 562.7 374.693 562.7 347.299C562.7 319.906 540.493 297.699 513.1 297.699C485.707 297.699 463.5 319.906 463.5 347.299C463.5 374.693 485.707 396.899 513.1 396.899Z" fill="#EC103C"/>
<path fill-rule="evenodd" clip-rule="evenodd" d="M464.7 347.3C464.7 320.6 486.4 298.9 513.1 298.9C533.9 298.9 551.6 312 558.5 330.4C558.7 331 559.4 331.3 560 331.1C560.6 330.9 560.9 330.2 560.7 329.6C553.5 310.4 534.9 296.6 513.2 296.6C485.2 296.6 462.5 319.3 462.5 347.3C462.5 347.9 463 348.4 463.6 348.4C464.2 348.5 464.7 347.9 464.7 347.3Z" fill="black"/>
<path fill-rule="evenodd" clip-rule="evenodd" d="M558.2 365C551.1 383 533.6 395.8 513.1 395.8C508.7 395.8 504.4 395.2 500.4 394.1C499.8 393.9 499.2 394.3 499 394.9C498.8 395.5 499.2 396.1 499.8 396.3C504 397.5 508.5 398.1 513.1 398.1C534.6 398.1 552.9 384.7 560.3 365.9C560.5 365.3 560.2 364.6 559.7 364.4C559.1 364.1 558.4 364.4 558.2 365Z" fill="black"/>
<path d="M513.1 387.8C535.467 387.8 553.6 369.667 553.6 347.3C553.6 324.932 535.467 306.8 513.1 306.8C490.732 306.8 472.6 324.932 472.6 347.3C472.6 369.667 490.732 387.8 513.1 387.8Z" fill="white" stroke="black" stroke-miterlimit="10"/>
<path d="M513.1 378.8C530.497 378.8 544.6 364.697 544.6 347.3C544.6 329.903 530.497 315.8 513.1 315.8C495.703 315.8 481.6 329.903 481.6 347.3C481.6 364.697 495.703 378.8 513.1 378.8Z" fill="#10A261"/>
<path d="M513.1 369.699C525.471 369.699 535.5 359.671 535.5 347.299C535.5 334.928 525.471 324.899 513.1 324.899C500.729 324.899 490.7 334.928 490.7 347.299C490.7 359.671 500.729 369.699 513.1 369.699Z" fill="white" stroke="black" stroke-miterlimit="10"/>
<path d="M499.7 347.299C499.7 354.699 505.7 360.699 513.1 360.699C520.5 360.699 526.5 354.699 526.5 347.299C526.5 339.899 520.5 333.899 513.1 333.899C505.7 333.999 499.7 339.899 499.7 347.299Z" fill="#EC103C"/>
<path d="M508.8 347.3C508.8 349.7 510.7 351.6 513.1 351.6C515.5 351.6 517.4 349.7 517.4 347.3C517.4 344.9 515.5 343 513.1 343C510.7 343 508.8 344.9 508.8 347.3Z" fill="white" stroke="black" stroke-miterlimit="10"/>
<path d="M578.2 346H513.1V348.8H578.2V346Z" fill="black"/>
<path d="M578.2 346L584.2 338C585 337 584.6 336.1 583.2 336.1H568.4C567.1 336.1 565.4 337 564.6 338L558.6 346H578.2Z" fill="#10A261"/>
<path fill-rule="evenodd" clip-rule="evenodd" d="M583.2 337.299H568.3C567.3 337.299 566 337.999 565.4 338.699L559.4 346.699C559 347.199 558.3 347.299 557.8 346.899C557.3 346.499 557.2 345.799 557.6 345.299L563.6 337.299C564.6 335.999 566.7 334.899 568.3 334.899H583.1C584.3 334.899 585.1 335.399 585.4 336.099C585.7 336.699 585.7 337.699 585 338.599C584.6 339.099 583.9 339.199 583.4 338.799C582.9 338.599 582.8 337.899 583.2 337.299Z" fill="black"/>
<path d="M578.2 348.899L584.2 356.899C585 357.899 584.6 358.799 583.2 358.799H568.4C567.1 358.799 565.4 357.899 564.6 356.899L558.6 348.899H578.2Z" fill="#10A261"/>
<path fill-rule="evenodd" clip-rule="evenodd" d="M583.2 357.6C583.2 357.5 583.2 357.5 583.2 357.6L577.2 349.6C576.8 349.1 576.9 348.4 577.4 348C577.9 347.6 578.6 347.7 579 348.2L585 356.2C585.7 357.2 585.7 358.1 585.4 358.7C585.1 359.3 584.3 359.9 583.1 359.9H568.3C566.7 359.9 564.6 358.8 563.6 357.5C563.2 357 563.3 356.3 563.8 355.9C564.3 355.5 565 355.6 565.4 356.1C566 356.9 567.3 357.5 568.3 357.5L583.2 357.6Z" fill="black"/>
<path d="M18.4004 321.399C33.0004 281.799 71.1004 253.499 115.8 253.499C151.3 253.499 182.7 271.399 201.4 298.599V298.499C206.3 305.599 210.3 313.199 213.3 321.399C210.3 329.599 206.3 337.199 201.4 344.299V344.199C182.7 371.399 151.3 389.299 115.8 389.299C71.1004 389.299 33.0004 360.999 18.4004 321.399Z" fill="#10A261"/>
<path d="M115.801 254.199C78.7006 254.199 48.6006 284.299 48.6006 321.399C48.6006 358.499 78.7006 388.599 115.801 388.599C152.901 388.599 183.001 358.499 183.001 321.399C183.001 284.299 152.901 254.199 115.801 254.199Z" fill="white" stroke="black" stroke-miterlimit="10"/>
<path d="M115.801 365.599C91.4006 365.599 71.6006 345.799 71.6006 321.399C71.6006 296.999 91.4006 277.199 115.801 277.199C140.201 277.199 160.001 296.999 160.001 321.399C160.001 345.799 140.201 365.599 115.801 365.599Z" fill="#EC103C"/>
<path d="M115.801 355C97.3012 355 82.2012 339.9 82.2012 321.4C82.2012 302.9 97.3012 287.8 115.801 287.8C134.301 287.8 149.401 302.9 149.401 321.4C149.401 339.9 134.301 355 115.801 355ZM115.801 302C105.101 302 96.3012 310.7 96.3012 321.5C96.3012 332.2 105.001 341 115.801 341C126.501 341 135.201 332.3 135.201 321.5C135.201 310.7 126.501 302 115.801 302Z" fill="#10A261"/>
<path d="M100.3 304.999C101.3 302.899 101.9 300.499 101.9 297.899C101.9 288.799 94.5004 281.399 85.4004 281.399C76.3004 281.399 68.9004 288.799 68.9004 297.899C68.9004 306.999 76.3004 314.399 85.4004 314.399C88.9004 314.399 92.1004 313.299 94.8004 311.499C95.3004 313.899 97.5004 315.799 100.1 315.799C103.1 315.799 105.5 313.399 105.5 310.399C105.4 307.499 103.1 305.099 100.3 304.999Z" fill="white" stroke="black" stroke-miterlimit="10"/>
<path fill-rule="evenodd" clip-rule="evenodd" d="M20.2008 321.399C34.7008 360.099 72.0008 387.599 115.801 387.599C136.001 387.599 154.901 381.699 170.701 371.599C171.501 371.099 172.601 371.299 173.101 372.099C173.601 372.899 173.401 373.999 172.601 374.499C156.201 384.999 136.701 391.099 115.801 391.099C70.4008 391.099 31.6008 362.299 16.8008 322.099V320.899C31.6008 280.599 70.4008 251.899 115.801 251.899C151.801 251.899 183.701 269.999 202.701 297.599C202.701 297.599 202.701 297.599 202.801 297.699C207.701 304.899 211.801 312.699 214.901 320.999C215.001 321.399 215.001 321.799 214.901 322.199C211.801 330.499 207.801 338.299 202.801 345.499C202.301 346.299 201.201 346.499 200.401 345.899C199.601 345.399 199.401 344.299 200.001 343.499C204.701 336.699 208.501 329.399 211.401 321.599C208.501 313.799 204.701 306.499 200.001 299.799V299.699C181.601 272.899 150.801 255.399 115.801 255.399C72.0008 255.199 34.7008 282.799 20.2008 321.399Z" fill="black"/>
<path fill-rule="evenodd" clip-rule="evenodd" d="M260.7 382.299L258.4 408.099H306.4C306.4 408.099 306.3 406.899 306.3 405.799C306.2 404.499 305.5 403.299 304.4 402.699C299.1 399.599 283.6 390.499 283.6 390.499L283.8 382.499L260.7 382.299Z" fill="white" stroke="black" stroke-miterlimit="10"/>
<path fill-rule="evenodd" clip-rule="evenodd" d="M284.8 389.899L305.1 401.799C306.5 402.599 307.5 404.199 307.6 405.799C307.7 406.899 307.7 408.099 307.7 408.099C307.7 408.399 307.6 408.699 307.4 408.899C307.2 409.099 306.9 409.299 306.6 409.299H258.6C258.3 409.299 258 409.199 257.8 408.899C257.6 408.699 257.5 408.299 257.5 407.999L259.8 382.199C259.9 381.599 260.4 381.199 260.9 381.199L284 381.399C284.3 381.399 284.6 381.499 284.8 381.799C285 381.999 285.1 382.299 285.1 382.599L284.8 389.899ZM282.6 383.699L261.7 383.499L259.6 406.999H305.1L305 405.899C305 404.999 304.5 404.199 303.7 403.699C298.4 400.599 282.9 391.499 282.9 391.499C282.5 391.299 282.3 390.899 282.3 390.499L282.6 383.699Z" fill="black"/>
<path fill-rule="evenodd" clip-rule="evenodd" d="M282.7 389.8L278.4 394.4C278 394.9 278 395.6 278.5 396C279 396.4 279.7 396.4 280.1 395.9L284.4 391.3C284.8 390.8 284.8 390.1 284.3 389.7C283.9 389.3 283.2 389.3 282.7 389.8Z" fill="black"/>
<path fill-rule="evenodd" clip-rule="evenodd" d="M289.6 393.799L285.3 398.399C284.9 398.899 284.9 399.599 285.4 399.999C285.9 400.399 286.6 400.399 287 399.899L291.3 395.299C291.7 394.799 291.7 394.099 291.2 393.699C290.8 393.299 290 393.399 289.6 393.799Z" fill="black"/>
<path fill-rule="evenodd" clip-rule="evenodd" d="M359.7 346.399L364.3 372.199H408.9C408.9 372.199 408.8 371.199 408.8 370.199C408.7 368.699 407.9 367.399 406.7 366.599C401.3 363.299 387 354.599 387 354.599L384.5 346.599L359.7 346.399Z" fill="white" stroke="black" stroke-miterlimit="10"/>
<path fill-rule="evenodd" clip-rule="evenodd" d="M387.9 353.899L407.2 365.699C408.8 366.699 409.8 368.299 409.9 370.199C410 371.199 410 372.199 410 372.199C410 372.499 409.9 372.799 409.7 372.999C409.5 373.199 409.2 373.399 408.9 373.399H364.3C363.7 373.399 363.3 372.999 363.2 372.499L358.6 346.699C358.5 346.399 358.6 345.999 358.9 345.799C359.2 345.599 359.4 345.399 359.8 345.399L384.5 345.599C385 345.599 385.4 345.899 385.6 346.399L387.9 353.899ZM383.5 347.799L361 347.599L365.2 371.099H407.6V370.299C407.5 369.199 406.9 368.199 406 367.599C400.6 364.299 386.3 355.599 386.3 355.599C386.1 355.499 385.9 355.199 385.8 354.999L383.5 347.799Z" fill="black"/>
<path fill-rule="evenodd" clip-rule="evenodd" d="M385.9 354.999L381.6 359.599C381.2 360.099 381.2 360.799 381.7 361.199C382.2 361.599 382.9 361.599 383.3 361.099L387.6 356.499C388 355.999 388 355.299 387.5 354.899C387.1 354.499 386.3 354.599 385.9 354.999Z" fill="black"/>
<path fill-rule="evenodd" clip-rule="evenodd" d="M392.8 359.099L388.5 363.699C388.1 364.199 388.1 364.899 388.6 365.299C389.1 365.699 389.8 365.699 390.2 365.199L394.5 360.599C394.9 360.099 394.9 359.399 394.4 358.999C393.9 358.599 393.2 358.599 392.8 359.099Z" fill="black"/>
<path fill-rule="evenodd" clip-rule="evenodd" d="M268.7 199.1L309.4 192.1L315.3 229.7L287.4 382.3H259.6L268.7 199.1Z" fill="black"/>
<path fill-rule="evenodd" clip-rule="evenodd" d="M268.5 198C268 198.1 267.6 198.5 267.6 199.1L258.5 382.3C258.5 382.6 258.6 382.9 258.8 383.1C259 383.3 259.3 383.5 259.6 383.5H287.4C288 383.5 288.4 383.1 288.5 382.6L316.4 230C316.4 229.9 316.4 229.7 316.4 229.6L310.5 192C310.5 191.7 310.3 191.4 310 191.2C309.8 191 309.4 191 309.1 191L268.5 198ZM269.8 200.1L260.8 381.2H286.5L314.2 229.8L308.5 193.5L269.8 200.1Z" fill="black"/>
<path fill-rule="evenodd" clip-rule="evenodd" d="M303 245.4L305.6 192.1H341.4L379.1 261.2L386.5 346.4H358L347.9 275.6L303 245.4Z" fill="black"/>
<path fill-rule="evenodd" clip-rule="evenodd" d="M346.8 276.3L302.3 246.4C302 246.2 301.8 245.8 301.8 245.4L304.4 192.1C304.4 191.5 304.9 191 305.5 191H341.3C341.7 191 342.1 191.2 342.3 191.6L380 260.7C380.1 260.8 380.1 261 380.1 261.1L387.5 346.3C387.5 346.6 387.4 346.9 387.2 347.2C387 347.4 386.7 347.6 386.4 347.6H358C357.4 347.6 356.9 347.2 356.9 346.6L346.8 276.3ZM359 345.3H385.3L378 261.5L340.7 193.2H306.7L304.2 244.8L348.5 274.6C348.8 274.8 348.9 275.1 349 275.4L359 345.3Z" fill="black"/>
<path fill-rule="evenodd" clip-rule="evenodd" d="M312.9 253.8L318.6 220.1C318.7 219.5 318.3 218.9 317.7 218.8C317.1 218.7 316.5 219.1 316.4 219.7L310.7 253.4C310.6 254 311 254.6 311.6 254.7C312.2 254.9 312.8 254.5 312.9 253.8Z" fill="white" stroke="black" stroke-miterlimit="10"/>
<path fill-rule="evenodd" clip-rule="evenodd" d="M296.101 62.6992C296.101 62.6992 295.401 76.7992 294.901 86.7992C294.801 89.2992 320.901 92.5992 319.801 89.9992C317.101 83.8992 317.901 71.7992 317.901 71.7992L296.101 62.6992Z" fill="white" stroke="black" stroke-miterlimit="10"/>
<path fill-rule="evenodd" clip-rule="evenodd" d="M296.601 61.5999C296.301 61.4999 295.901 61.4999 295.501 61.6999C295.201 61.8999 295.001 62.1999 295.001 62.5999C295.001 62.5999 294.301 76.6999 293.801 86.6999C293.801 87.0999 293.901 87.4999 294.201 87.8999C294.501 88.2999 295.201 88.6999 296.201 89.0999C300.701 90.7999 312.601 92.3999 317.601 92.0999C318.801 91.9999 319.601 91.7999 320.001 91.5999C320.501 91.2999 320.701 90.9999 320.801 90.5999C320.901 90.2999 320.901 89.9999 320.701 89.5999C318.101 83.6999 318.901 71.8999 318.901 71.8999C318.901 71.3999 318.701 70.9999 318.201 70.7999L296.601 61.5999ZM316.701 72.5999L297.201 64.3999L296.101 86.4999C296.401 86.6999 297.301 87.0999 298.201 87.2999C302.301 88.4999 310.001 89.5999 315.001 89.7999C316.301 89.7999 317.701 89.6999 318.501 89.5999C316.401 84.1999 316.601 75.2999 316.701 72.5999Z" fill="black"/>
<path fill-rule="evenodd" clip-rule="evenodd" d="M329.301 41.2995C329.301 41.2995 329.801 53.8995 330.301 64.8995C330.501 68.8995 328.901 72.7995 325.901 75.5995C322.901 78.2995 318.901 79.5995 314.901 79.1995C313.001 78.9995 311.101 78.6995 309.401 78.4995C303.801 77.7995 299.201 73.7995 297.801 68.2995C295.501 59.4995 296.101 57.0995 295.801 52.4995C295.801 52.4995 295.701 45.5995 305.201 42.1995C315.201 38.5995 318.701 34.0995 329.301 41.2995Z" fill="white" stroke="black" stroke-miterlimit="10"/>
<path fill-rule="evenodd" clip-rule="evenodd" d="M328.1 41.2999C328.1 41.2999 328.6 53.8999 329.1 64.8999C329.3 68.5999 327.8 72.1999 325.1 74.6999C322.4 77.1999 318.7 78.3999 315.1 77.9999C314.5 77.8999 313.9 78.3999 313.8 78.9999C313.7 79.5999 314.2 80.1999 314.8 80.2999C319.1 80.7999 323.5 79.3999 326.7 76.4999C329.9 73.4999 331.6 69.2999 331.4 64.9999C330.9 53.9999 330.4 41.3999 330.4 41.3999C330.4 40.7999 329.8 40.2999 329.2 40.2999C328.6 40.1999 328.1 40.6999 328.1 41.2999Z" fill="black"/>
<path fill-rule="evenodd" clip-rule="evenodd" d="M295.8 69.4995C290.2 64.5995 284.4 51.2995 284.4 41.9995C284.4 28.7995 293.5 28.7995 293.5 28.7995C293.5 28.7995 294 17.1995 306.1 17.9995C317 18.7995 329.3 25.4995 337.8 25.3995C338.5 25.2995 339.1 25.5995 339.6 26.0995C340.1 26.5995 340.3 27.2995 340.1 27.8995C338.6 34.5995 330.4 42.4995 324.3 43.0995C317.3 43.6995 306.9 44.7995 304.9 51.4995C302.9 58.1995 305.2 66.4995 295.8 69.4995Z" fill="black"/>
<path fill-rule="evenodd" clip-rule="evenodd" d="M305.9 51.6991C302.3 49.2991 297.8 49.7991 295.7 52.8991C293.6 55.9991 294.8 60.3991 298.4 62.7991C302 65.1991 306.5 64.6991 308.6 61.5991C310.6 58.5991 309.4 54.0991 305.9 51.6991Z" fill="white" stroke="black" stroke-miterlimit="10"/>
<path fill-rule="evenodd" clip-rule="evenodd" d="M306.5 50.7991C306 50.4991 305.5 50.1991 305 49.9991C301.2 48.1991 296.8 49.1991 294.7 52.2991C292.3 55.7991 293.6 60.9991 297.7 63.7991C298.6 64.3991 299.6 64.8991 300.6 65.0991C301.2 65.2991 301.8 64.8991 302 64.2991C302.2 63.6991 301.8 63.0991 301.2 62.8991C300.4 62.6991 299.7 62.2991 299 61.8991C296 59.8991 294.9 56.1991 296.6 53.5991C298.1 51.2991 301.3 50.7991 304.1 52.0991C304.5 52.2991 304.9 52.4991 305.2 52.6991C305.7 53.0991 306.4 52.8991 306.8 52.3991C307.2 51.7991 307 51.0991 306.5 50.7991Z" fill="black"/>
<path fill-rule="evenodd" clip-rule="evenodd" d="M299.4 53.7998C301.7 54.5998 304.2 57.5998 304.4 59.4998L299.4 53.7998Z" fill="white" stroke="black" stroke-miterlimit="10"/>
<path fill-rule="evenodd" clip-rule="evenodd" d="M299 54.8994C300.2 55.2994 301.4 56.3994 302.2 57.5994C302.7 58.2994 303.1 59.0994 303.2 59.6994C303.3 60.2994 303.8 60.7994 304.5 60.6994C305.1 60.5994 305.6 60.0994 305.5 59.3994C305.4 58.4994 304.9 57.2994 304.1 56.1994C303 54.5994 301.3 53.1994 299.7 52.6994C299.1 52.4994 298.5 52.7994 298.3 53.3994C298.1 53.9994 298.4 54.6994 299 54.8994Z" fill="black"/>
<path fill-rule="evenodd" clip-rule="evenodd" d="M328.899 124.5L344.699 139.9C344.699 139.9 350.299 134.5 353.999 130.9C356.099 128.9 357.699 126.4 358.599 123.6C362.899 109.8 367.099 89.6996 372.399 74.9996C372.399 74.9996 376.299 67.0996 378.199 63.2996C378.799 61.9996 379.099 60.5996 378.799 59.1996C378.399 56.4996 377.699 51.9996 377.199 48.7996C377.099 47.9996 376.599 47.3996 375.899 47.0996C375.199 46.7996 374.399 46.7996 373.699 47.1996C369.499 49.7996 362.399 54.1996 362.399 54.1996C362.399 54.1996 360.799 53.7996 359.099 53.3996C358.299 53.1996 357.399 53.3996 356.899 53.9996C356.299 54.5996 356.099 55.4996 356.399 56.2996C357.799 60.5996 359.799 66.9996 359.799 66.9996L328.899 124.5Z" fill="white" stroke="black" stroke-miterlimit="10"/>
<path fill-rule="evenodd" clip-rule="evenodd" d="M362.199 53.1L373.099 46.4C374.099 45.8 375.299 45.7 376.299 46.2C377.299 46.7 378.099 47.7 378.299 48.8C378.799 51.9 379.499 56.5 379.899 59.2C380.099 60.8 379.899 62.5 379.199 64L373.399 75.6C368.099 90.3 363.999 110.4 359.599 124.1C358.599 127 356.899 129.7 354.699 131.8C350.999 135.4 345.399 140.8 345.399 140.8C344.999 141.2 344.199 141.2 343.799 140.8L327.999 125.4C327.599 125 327.599 124.5 327.799 124L358.499 67L355.199 56.8C354.799 55.6 355.099 54.3 355.999 53.4C356.899 52.5 358.099 52.1 359.299 52.4L362.199 53.1ZM344.699 138.4L353.199 130.2C355.199 128.3 356.599 126 357.499 123.4C361.799 109.6 365.999 89.5 371.299 74.8C371.299 74.8 371.299 74.7 371.399 74.7C371.399 74.7 375.299 66.8 377.199 63C377.699 61.9 377.899 60.8 377.699 59.6C377.299 56.9 376.599 52.4 376.099 49.2C375.999 48.8 375.799 48.5 375.399 48.3C375.099 48.1 374.599 48.2 374.299 48.4C370.099 51 362.999 55.4 362.999 55.4C362.699 55.6 362.399 55.6 362.099 55.5C362.099 55.5 360.499 55.1 358.799 54.7C358.399 54.6 357.999 54.7 357.699 55C357.399 55.3 357.299 55.7 357.399 56.1C358.799 60.4 360.799 66.8 360.799 66.8C360.899 67.1 360.899 67.4 360.699 67.7L330.199 124.4L344.699 138.4Z" fill="black"/>
<path fill-rule="evenodd" clip-rule="evenodd" d="M267.2 134.599L337.8 128.899L345.2 198.899L263.8 202.899L267.2 134.599Z" fill="#EC103C"/>
<path fill-rule="evenodd" clip-rule="evenodd" d="M343.9 197.799L336.6 128.999C336.5 128.399 337 127.799 337.6 127.699C338.2 127.599 338.8 128.099 338.9 128.699L346.3 198.699C346.3 198.999 346.2 199.299 346 199.599C345.8 199.799 345.5 199.999 345.2 199.999L263.8 203.999C263.5 203.999 263.2 203.899 262.9 203.699C262.7 203.499 262.6 203.199 262.6 202.799L266 134.499C266 133.899 266.6 133.399 267.2 133.399C267.8 133.399 268.3 133.999 268.3 134.599L264.9 201.599L343.9 197.799Z" fill="black"/>
<path fill-rule="evenodd" clip-rule="evenodd" d="M336.1 47.7996L439.5 40.0996V66.2996L336.1 58.5996V47.7996Z" fill="#10A261"/>
<path fill-rule="evenodd" clip-rule="evenodd" d="M335.999 46.7C335.399 46.7 334.899 47.2 334.899 47.8V58.7C334.899 59.3 335.399 59.8 335.999 59.8L439.399 67.5C439.699 67.5 439.999 67.4 440.299 67.2C440.499 67 440.699 66.7 440.699 66.4V40.1C440.699 39.8 440.599 39.5 440.299 39.3C440.099 39.1 439.799 39 439.399 39L335.999 46.7ZM337.199 48.9V57.6L438.299 65.1V41.4L337.199 48.9Z" fill="black"/>
<path d="M338.999 46.0996H332.699V60.3996H338.999V46.0996Z" fill="#E2E8F0" stroke="black" stroke-miterlimit="10"/>
<path fill-rule="evenodd" clip-rule="evenodd" d="M340.1 46.1C340.1 45.5 339.6 45 339 45H332.7C332.1 45 331.6 45.5 331.6 46.1V60.4C331.6 61 332.1 61.5 332.7 61.5H339C339.6 61.5 340.1 61 340.1 60.4V46.1ZM333.8 47.2V59.2H337.8V47.2H333.8Z" fill="black"/>
<path d="M374.199 42.0996H367.899V64.3996H374.199V42.0996Z" fill="#E2E8F0" stroke="black" stroke-miterlimit="10"/>
<path fill-rule="evenodd" clip-rule="evenodd" d="M375.3 42.1C375.3 41.5 374.8 41 374.2 41H367.9C367.3 41 366.8 41.5 366.8 42.1V64.4C366.8 65 367.3 65.5 367.9 65.5H374.2C374.8 65.5 375.3 65 375.3 64.4V42.1ZM369 43.2V63.2H373V43.2H369Z" fill="black"/>
<path d="M409.4 39.5H403.1V66.9H409.4V39.5Z" fill="#E2E8F0" stroke="black" stroke-miterlimit="10"/>
<path fill-rule="evenodd" clip-rule="evenodd" d="M410.6 39.4994C410.6 38.8994 410.1 38.3994 409.5 38.3994H403.2C402.6 38.3994 402.1 38.8994 402.1 39.4994V66.8994C402.1 67.4994 402.6 67.9994 403.2 67.9994H409.5C410.1 67.9994 410.6 67.4994 410.6 66.8994V39.4994ZM404.3 40.6994V65.7994H408.3V40.6994H404.3Z" fill="black"/>
<path d="M444.699 37.1992H438.399V69.1992H444.699V37.1992Z" fill="#E2E8F0" stroke="black" stroke-miterlimit="10"/>
<path fill-rule="evenodd" clip-rule="evenodd" d="M445.8 37.1996C445.8 36.5996 445.3 36.0996 444.7 36.0996H438.4C437.8 36.0996 437.3 36.5996 437.3 37.1996V69.1996C437.3 69.7996 437.8 70.2996 438.4 70.2996H444.7C445.3 70.2996 445.8 69.7996 445.8 69.1996V37.1996ZM439.5 38.3996V68.0996H443.5V38.3996H439.5Z" fill="black"/>
<path fill-rule="evenodd" clip-rule="evenodd" d="M381.7 127C378.4 132.9 372.2 136.5 365.5 136.4C360.7 136.3 356 136.3 356 136.3L363 110.9L396 68.9995C396 68.9995 397.2 61.7995 397.8 57.8995C398.1 56.2995 399.1 54.9995 400.6 54.3995C404.8 52.6995 413.6 49.1995 419.3 46.8995C420.2 46.5995 421.2 46.7995 421.8 47.3995C422.4 48.0995 422.6 49.0995 422.2 49.8995C418.2 58.6995 410.4 75.3995 410.4 75.3995C410.4 75.3995 391.2 109.9 381.7 127Z" fill="white" stroke="black" stroke-miterlimit="10"/>
<path fill-rule="evenodd" clip-rule="evenodd" d="M394.9 68.5996L396.7 57.7996C397 55.7996 398.4 54.1996 400.2 53.3996C404.4 51.6996 413.2 48.1996 418.9 45.8996C420.2 45.3996 421.7 45.6996 422.7 46.6996C423.7 47.6996 423.9 49.1996 423.3 50.4996C419.3 59.2996 411.5 75.9996 411.5 75.9996V76.0996C411.5 76.0996 392.3 110.5 382.7 127.7C379.2 133.9 372.6 137.8 365.4 137.7C360.6 137.6 355.9 137.6 355.9 137.6C355.5 137.6 355.2 137.4 355 137.1C354.8 136.8 354.7 136.5 354.8 136.1L361.8 110.7C361.8 110.6 361.9 110.4 362 110.3L394.9 68.5996ZM409.4 74.9996L421.1 49.4996C421.3 49.0996 421.2 48.5996 420.9 48.1996C420.6 47.8996 420.1 47.7996 419.6 47.8996C413.9 50.1996 405.1 53.6996 400.9 55.3996C399.8 55.7996 399 56.7996 398.8 57.9996C398.2 61.9996 397 69.0996 397 69.0996C397 69.2996 396.9 69.4996 396.8 69.5996L364 111.4L357.4 135.1L365.4 135.2C371.7 135.3 377.6 131.9 380.6 126.4L409.4 74.9996Z" fill="black"/>
<path fill-rule="evenodd" clip-rule="evenodd" d="M267.199 134.599C267.499 127.699 268.299 121.599 269.499 116.299C274.699 92.4992 295.799 83.1992 295.799 83.1992L320.899 90.0992C337.299 98.8992 362.699 110.799 362.699 110.799L354.999 141.499L301.399 135.799L267.199 134.599Z" fill="#EC103C"/>
<path fill-rule="evenodd" clip-rule="evenodd" d="M295.9 84.3996C293.1 85.6996 275.3 95.1996 270.6 116.6C269.5 121.9 268.6 127.9 268.3 134.7C268.3 135.3 267.7 135.8 267.1 135.8C266.5 135.8 266 135.2 266 134.6C266.3 127.7 267.1 121.5 268.3 116.1C273.6 91.6996 295.2 82.1996 295.2 82.1996C295.4 82.0996 295.7 82.0996 296 82.0996L321.1 88.9996L321.3 89.0996C337.7 97.7996 363.1 109.8 363.1 109.8C363.6 110 363.9 110.6 363.7 111.1L356 141.8C355.9 142.4 355.3 142.7 354.8 142.7L315.7 138.5C315.1 138.4 314.6 137.9 314.7 137.2C314.8 136.6 315.3 136.1 316 136.2L354.1 140.3L361.3 111.5C356.8 109.4 335 98.9996 320.4 91.1996L295.9 84.3996Z" fill="black"/>
<path d="M127.2 479.8V444H230V408.1H332.9V372.3H435.7V479.8H127.2Z" fill="#10A261"/>
<mask id="mask0_4726_63" style="mask-type:luminance" maskUnits="userSpaceOnUse" x="127" y="372" width="309" height="108">
<path d="M127.2 479.8V444H230V408.1H332.9V372.3H435.7V479.8H127.2Z" fill="white"/>
</mask>
<g mask="url(#mask0_4726_63)">
<path fill-rule="evenodd" clip-rule="evenodd" d="M176.701 426.1C176.701 426.3 176.601 426.7 176.501 426.8C172.601 437.4 172.001 447.7 164.801 457.2C158.301 465.7 149.401 470.5 140.901 475.7C132.701 480.7 124.801 486 119.801 495.7C113.201 508.7 114.201 525.5 124.001 533.1C128.101 536.3 133.801 537.8 141.101 536.7C167.001 532.7 180.601 516.8 191.901 498.4C203.501 479.6 212.701 458.3 229.701 443.8C242.501 432.9 257.501 427.4 272.001 421.1C286.201 414.8 300.001 407.7 310.401 393.4C322.401 376.8 324.501 357.5 330.101 341.8C333.001 333.7 336.801 326.5 343.301 321.1C349.701 315.7 358.801 311.9 372.301 310.7C379.501 310.1 388.301 309.2 395.101 312.5C403.401 316.5 406.001 324.4 405.601 333.3C405.001 346.1 398.001 361.1 393.401 368.8C388.801 376.5 382.401 382.7 375.801 388.8C369.401 394.8 363.001 400.8 358.301 408.3C353.601 415.9 352.201 424.3 351.001 432.7C349.801 441.4 348.801 450.2 344.901 458.4C340.701 467.3 334.401 474 327.601 480.4C320.901 486.6 313.701 492.4 307.801 499.4C303.001 505 301.001 512 303.001 517.8C304.301 521.7 307.301 525 312.301 527.1C323.101 531.7 333.801 530.2 343.701 525.9C353.801 521.5 363.101 514 370.701 506.8C383.201 495 392.101 482.4 401.501 471.6C415.801 455.1 431.101 442.6 461.501 442.6C462.101 442.6 462.601 443.1 462.601 443.7C462.601 444.3 462.101 444.8 461.501 444.8C432.001 444.8 417.101 457 403.201 473C393.801 483.9 384.801 496.5 372.301 508.4C364.501 515.8 355.001 523.3 344.701 527.9C334.201 532.5 322.801 534 311.401 529.1C305.701 526.7 302.301 522.8 300.901 518.4C298.701 511.9 300.701 504 306.101 497.7C312.201 490.6 319.401 484.7 326.101 478.5C332.701 472.4 338.901 465.9 342.901 457.3C346.701 449.3 347.601 440.7 348.801 432.2C350.001 423.4 351.601 414.8 356.401 406.9C361.201 399.2 367.701 393.1 374.201 386.9C380.601 380.9 386.901 374.9 391.401 367.4C395.801 359.9 402.701 345.4 403.301 332.9C403.701 325 401.501 317.9 394.101 314.3C387.701 311.2 379.401 312.1 372.501 312.8C359.601 313.9 350.901 317.5 344.801 322.7C338.701 327.9 335.001 334.7 332.301 342.4C326.601 358.3 324.501 377.8 312.301 394.6C301.601 409.3 287.601 416.7 273.001 423.1C258.701 429.4 243.801 434.7 231.201 445.5C214.401 459.8 205.301 481 193.801 499.6C182.101 518.6 168.001 534.9 141.401 539C133.401 540.2 127.101 538.5 122.601 534.9C112.101 526.7 110.701 508.6 117.801 494.6C123.001 484.5 131.201 478.9 139.801 473.7C148.101 468.7 156.701 464.1 163.001 455.8C170.101 446.6 170.601 436.5 174.401 426.1C174.501 425.9 174.501 425.4 174.701 425.1C174.901 424.7 175.101 424.4 175.401 424.3C176.001 424 176.701 424.2 176.901 424.8C177.201 425.3 177.101 425.8 176.701 426.1Z" fill="#E2E8F0" stroke="black" stroke-miterlimit="10"/>
</g>
<path fill-rule="evenodd" clip-rule="evenodd" d="M331.701 406.999V372.299C331.701 371.699 332.201 371.199 332.801 371.199H435.601C436.201 371.199 436.701 371.699 436.701 372.299V479.899C436.701 480.499 436.201 480.999 435.601 480.999H127.201C126.601 480.999 126.101 480.499 126.101 479.899V443.999C126.101 443.399 126.601 442.899 127.201 442.899H228.901V408.199C228.901 407.599 229.401 407.099 230.001 407.099L331.701 406.999ZM128.301 445.099V478.699H434.501V373.399H334.001V408.099C334.001 408.699 333.501 409.199 332.901 409.199H231.101V443.999C231.101 444.599 230.601 445.099 230.001 445.099H128.301Z" fill="black"/>
<path d="M576.185 120.389C578.14 108.341 569.958 96.989 557.91 95.0336C545.862 93.0783 534.51 101.26 532.555 113.308C530.6 125.356 538.782 136.708 550.83 138.663C562.878 140.619 574.23 132.437 576.185 120.389Z" fill="#10A261"/>
<path fill-rule="evenodd" clip-rule="evenodd" d="M542.901 99.2998C546.201 97.1998 550.101 95.8998 554.301 95.8998C565.901 95.8998 575.301 105.3 575.301 116.9C575.301 117.5 575.801 118 576.401 118C577.001 118 577.501 117.5 577.501 116.9C577.501 104.1 567.101 93.7998 554.401 93.7998C549.801 93.7998 545.401 95.1998 541.801 97.4998C541.301 97.7998 541.201 98.4998 541.501 98.9998C541.801 99.4998 542.401 99.5998 542.901 99.2998Z" fill="black"/>
<path fill-rule="evenodd" clip-rule="evenodd" d="M553.301 83.3998V88.5998C553.301 89.1998 553.801 89.6998 554.401 89.6998C555.001 89.6998 555.501 89.1998 555.501 88.5998V83.3998C555.501 82.7998 555.001 82.2998 554.401 82.2998C553.801 82.3998 553.301 82.7998 553.301 83.3998Z" fill="black"/>
<path fill-rule="evenodd" clip-rule="evenodd" d="M570.1 87.3994L567.5 91.8994C567.2 92.3994 567.4 93.0994 567.9 93.3994C568.4 93.6994 569.1 93.4994 569.4 92.9994L572 88.4994C572.3 87.9994 572.1 87.2994 571.6 86.9994C571.1 86.6994 570.4 86.8994 570.1 87.3994Z" fill="black"/>
<path fill-rule="evenodd" clip-rule="evenodd" d="M582.801 99.1995L578.301 101.8C577.801 102.1 577.601 102.8 577.901 103.3C578.201 103.8 578.901 104 579.401 103.7L583.901 101.1C584.401 100.8 584.601 100.1 584.301 99.5995C584.001 99.0995 583.301 98.8995 582.801 99.1995Z" fill="black"/>
<path fill-rule="evenodd" clip-rule="evenodd" d="M587.801 115.8H582.601C582.001 115.8 581.501 116.3 581.501 116.9C581.501 117.5 582.001 118 582.601 118H587.801C588.401 118 588.901 117.5 588.901 116.9C588.901 116.3 588.401 115.8 587.801 115.8Z" fill="black"/>
<path fill-rule="evenodd" clip-rule="evenodd" d="M583.901 132.7L579.401 130.1C578.901 129.8 578.201 130 577.901 130.5C577.601 131 577.801 131.7 578.301 132L582.801 134.6C583.301 134.9 584.001 134.7 584.301 134.2C584.601 133.7 584.401 133 583.901 132.7Z" fill="black"/>
<path fill-rule="evenodd" clip-rule="evenodd" d="M572 145.3L569.4 140.8C569.1 140.3 568.4 140.1 567.9 140.4C567.4 140.7 567.2 141.4 567.5 141.9L570.1 146.4C570.4 146.9 571.1 147.1 571.6 146.8C572.1 146.5 572.3 145.9 572 145.3Z" fill="black"/>
<path fill-rule="evenodd" clip-rule="evenodd" d="M553.301 145.2V150.4C553.301 151 553.801 151.5 554.401 151.5C555.001 151.5 555.501 151 555.501 150.4V145.2C555.501 144.6 555.001 144.1 554.401 144.1C553.801 144.1 553.301 144.6 553.301 145.2Z" fill="black"/>
<path fill-rule="evenodd" clip-rule="evenodd" d="M539.301 140.8L536.701 145.3C536.401 145.8 536.6 146.5 537.1 146.8C537.6 147.1 538.3 146.9 538.6 146.4L541.201 141.9C541.501 141.4 541.301 140.7 540.801 140.4C540.301 140.1 539.601 140.3 539.301 140.8Z" fill="black"/>
<path fill-rule="evenodd" clip-rule="evenodd" d="M529.301 130.1L524.801 132.7C524.301 133 524.101 133.7 524.401 134.2C524.701 134.7 525.401 134.9 525.901 134.6L530.401 132C530.901 131.7 531.101 131 530.801 130.5C530.501 130 529.901 129.8 529.301 130.1Z" fill="black"/>
<path fill-rule="evenodd" clip-rule="evenodd" d="M526.101 115.8H520.901C520.301 115.8 519.801 116.3 519.801 116.9C519.801 117.5 520.301 118 520.901 118H526.101C526.701 118 527.201 117.5 527.201 116.9C527.201 116.3 526.701 115.8 526.101 115.8Z" fill="black"/>
<path fill-rule="evenodd" clip-rule="evenodd" d="M530.401 101.8L525.901 99.1995C525.401 98.8995 524.701 99.0995 524.401 99.5995C524.101 100.1 524.301 100.8 524.801 101.1L529.301 103.7C529.801 104 530.501 103.8 530.801 103.3C531.101 102.8 530.901 102.1 530.401 101.8Z" fill="black"/>
<path fill-rule="evenodd" clip-rule="evenodd" d="M541.201 91.8994L538.6 87.3994C538.3 86.8994 537.6 86.6994 537.1 86.9994C536.6 87.2994 536.401 87.9994 536.701 88.4994L539.301 92.9994C539.601 93.4994 540.301 93.6994 540.801 93.3994C541.301 93.0994 541.501 92.3994 541.201 91.8994Z" fill="black"/>
<path fill-rule="evenodd" clip-rule="evenodd" d="M570.501 130.3C566.601 134.9 560.901 137.8 554.401 137.8C542.801 137.8 533.401 128.4 533.401 116.8C533.401 116.2 532.901 115.7 532.301 115.7C531.701 115.7 531.201 116.2 531.201 116.8C531.201 129.6 541.601 139.9 554.301 139.9C561.401 139.9 567.801 136.7 572.101 131.6C572.501 131.1 572.401 130.5 572.001 130.1C571.501 129.8 570.801 129.9 570.501 130.3Z" fill="black"/>
<path d="M211.2 60.4C206.2 39.8 187.6 24.5 165.5 24.5C141.7 24.5 122.1 42.1 118.9 64.9C118 64.9 117.1 64.8 116.2 64.8C99.1002 64.8 84.6002 74.9 79.7002 91.7H239.5C239.4 74.9 226.9 60.9 211.2 60.4Z" fill="white" stroke="black" stroke-miterlimit="10"/>
<path fill-rule="evenodd" clip-rule="evenodd" d="M127.801 67.4998C131.301 45.7998 150.101 29.2998 172.801 29.2998C194.001 29.2998 211.701 43.6998 216.901 63.2998C231.901 64.1998 243.801 77.7998 243.801 93.9998C243.801 94.5998 243.301 95.0998 242.701 95.0998H91.7008C91.4008 95.0998 91.0008 94.8998 90.8008 94.6998C90.6008 94.3998 90.5008 94.0998 90.6008 93.7998C95.3008 77.3998 109.401 67.5998 126.101 67.5998C126.701 67.4998 127.201 67.4998 127.801 67.4998ZM241.601 92.8998C241.101 78.0998 229.901 65.8998 216.001 65.3998C215.501 65.3998 215.101 64.9998 215.001 64.5998C210.401 45.5998 193.201 31.4998 172.801 31.4998C150.901 31.4998 132.801 47.6998 129.801 68.7998C129.701 69.3998 129.201 69.7998 128.701 69.6998C127.901 69.6998 127.001 69.5998 126.201 69.5998C111.001 69.5998 98.0008 78.2998 93.2008 92.8998H241.601Z" fill="black"/>
<path d="M456.2 215.7C459.5 202.3 471.5 192 485.8 192C501.2 192 513.9 203.2 516 218C516.6 218 517.2 218.6 517.7 218.6C528.8 218.6 538.2 223.2 541.3 236.7H437.9C437.9 223.2 446 216 456.2 215.7Z" fill="white" stroke="black" stroke-miterlimit="10"/>
<path fill-rule="evenodd" clip-rule="evenodd" d="M464.5 219.4C468.4 205.2 481.3 194.3 496.8 194.3C513.4 194.3 527.2 206.2 529.8 222C529.9 222 530 222.1 530.1 222.1C530.3 222.2 530.7 222.4 530.7 222.4C536.8 222.4 542.4 223.7 547 226.8C551.6 229.9 555.1 234.9 556.8 242.4C556.9 242.7 556.8 243.1 556.6 243.4C556.4 243.7 556.1 243.8 555.7 243.8H446C445.4 243.8 444.9 243.3 444.9 242.7C444.9 235.2 447.2 229.4 450.9 225.5C454.4 221.8 459.2 219.7 464.5 219.4ZM528.7 224.1C528.1 224.1 527.6 223.7 527.6 223.1C525.5 208 512.5 196.6 496.8 196.6C482.1 196.6 469.9 207.1 466.6 220.8C466.5 221.3 466 221.7 465.5 221.7C455.6 222 447.7 228.9 447.3 241.7H554.2C552.5 235.6 549.6 231.5 545.7 228.8C541.5 225.9 536.3 224.8 530.7 224.8C530.3 224.8 529.8 224.6 529.4 224.4C529.1 224.3 528.8 224.1 528.7 224.1Z" fill="black"/>
<path d="M25.3004 173C28.7004 159.2 41.1004 148.5 56.0004 148.5C71.9004 148.5 85.1004 160.1 87.3004 175.4C87.9004 175.4 88.5004 176 89.1004 176C100.6 176 110.3 180.7 113.6 194.8H6.40039C6.40039 180.8 14.8004 173.3 25.3004 173Z" fill="white" stroke="black" stroke-miterlimit="10"/>
<path fill-rule="evenodd" clip-rule="evenodd" d="M24.0004 170.999C27.9004 156.799 40.8004 145.899 56.3004 145.899C72.9004 145.899 86.7004 157.799 89.3004 173.599C89.4004 173.599 89.5004 173.699 89.6004 173.699C89.8004 173.799 90.2004 173.999 90.2004 173.999C96.3004 173.999 101.9 175.299 106.5 178.399C111.1 181.499 114.6 186.499 116.3 193.999C116.4 194.299 116.3 194.699 116.1 194.999C115.9 195.299 115.6 195.399 115.2 195.399H5.50039C4.90039 195.399 4.40039 194.899 4.40039 194.299C4.40039 186.799 6.70039 180.999 10.4004 177.099C13.9004 173.399 18.6004 171.299 24.0004 170.999ZM88.2004 175.699C87.6004 175.699 87.1004 175.299 87.1004 174.699C85.0004 159.599 72.0004 148.199 56.3004 148.199C41.6004 148.199 29.4004 158.699 26.1004 172.399C26.0004 172.899 25.5004 173.299 25.0004 173.299C15.1004 173.599 7.20039 180.499 6.80039 193.299H113.7C112 187.199 109.1 183.099 105.2 180.399C101 177.499 95.8004 176.399 90.2004 176.399C89.8004 176.399 89.3004 176.199 88.9004 175.999C88.6004 175.899 88.3004 175.699 88.2004 175.699Z" fill="black"/>
</svg>
