<svg width="64" height="64" viewBox="0 0 64 64" fill="none" xmlns="http://www.w3.org/2000/svg">
<g clip-path="url(#clip0_4716_599)">
<mask id="mask0_4716_599" style="mask-type:luminance" maskUnits="userSpaceOnUse" x="0" y="0" width="64" height="64">
<path d="M64 0H0V64H64V0Z" fill="white"/>
</mask>
<g mask="url(#mask0_4716_599)">
<mask id="mask1_4716_599" style="mask-type:luminance" maskUnits="userSpaceOnUse" x="0" y="0" width="64" height="64">
<path d="M64 0H0V64H64V0Z" fill="white"/>
</mask>
<g mask="url(#mask1_4716_599)">
<mask id="mask2_4716_599" style="mask-type:luminance" maskUnits="userSpaceOnUse" x="0" y="0" width="64" height="64">
<path d="M64 0H0V64H64V0Z" fill="white"/>
</mask>
<g mask="url(#mask2_4716_599)">
<path d="M61.2577 52.4832C61.1564 51.9702 60.9108 51.4924 60.5612 51.1044L45.6404 34.547C44.4366 33.2114 42.2711 33.2221 41.0805 34.5699L34.4217 42.1091V4.385C34.4217 1.96713 32.4547 0 30.0368 0H7.07335C4.65548 0 2.68848 1.96713 2.68848 4.385V4.8745C2.68848 5.56487 3.24823 6.1245 3.93848 6.1245C4.62873 6.1245 5.18848 5.56487 5.18848 4.8745V4.385C5.18848 3.34563 6.0341 2.5 7.07335 2.5H13.2324L15.2739 5.68738C15.9334 6.71712 17.0191 7.332 18.1777 7.332C19.3363 7.332 20.4218 6.71725 21.0813 5.68738L23.1231 2.5H30.0367C31.0759 2.5 31.9216 3.34563 31.9216 4.385V44.9396L26.4576 51.1259C25.8822 51.7771 25.6387 52.6134 25.7563 53.4357H7.07335C6.0341 53.4357 5.18848 52.5907 5.18848 51.5521V15.831C5.18848 15.1406 4.62873 14.581 3.93848 14.581C3.24823 14.581 2.68848 15.1406 2.68848 15.831V51.552C2.68848 53.9691 4.65548 55.9356 7.07335 55.9356H31.9219V62.75C31.9219 63.4404 32.4817 64 33.1719 64H42.9623C43.6629 64 44.2406 63.3979 44.2112 62.6974C44.1779 61.95 43.5001 61.3753 42.7532 61.5H34.4219V54.6856C34.4219 53.9952 33.8622 53.4356 33.1719 53.4356H28.6264C28.2909 53.4356 28.1082 53.0334 28.3313 52.7809L42.9542 36.225C43.1716 35.979 43.5636 35.9769 43.7834 36.2207L58.7041 52.778C58.9307 53.0295 58.7487 53.4357 58.4113 53.4357H54.0382C53.3479 53.4357 52.7882 53.9954 52.7882 54.6857V62.75C52.7882 63.4404 53.3479 64 54.0382 64C54.7284 64 55.2882 63.4404 55.2882 62.75V55.9356H58.4113C60.202 55.9356 61.6064 54.2513 61.2577 52.4832ZM18.9763 4.33887C18.7727 4.65675 18.4892 4.83187 18.1778 4.83187C17.8664 4.83187 17.5828 4.65687 17.3792 4.33887L16.2016 2.50038H20.1538L18.9763 4.33887Z" fill="white"/>
<path d="M16.6842 18.5023C13.7097 20.1228 11.0725 20.6729 11.0126 20.6852C10.3358 20.8202 9.89645 21.4779 10.0311 22.1548C10.1638 22.8228 10.8326 23.2699 11.5008 23.1371C11.6215 23.1131 14.4922 22.5293 17.8086 20.7364C21.2925 18.8532 23.9697 16.3248 25.6781 13.3313L26.1471 14.3722C26.4268 14.9931 27.1787 15.2783 27.8002 14.9983C28.4297 14.7147 28.71 13.9746 28.4265 13.3452L26.8332 9.80895C26.5975 9.28457 26.0131 8.98508 25.4503 9.09633L21.9467 9.7917C21.2695 9.92607 20.8295 10.5839 20.964 11.2611C21.0983 11.9383 21.7577 12.3783 22.4333 12.2438L23.5528 12.0217C22.0953 14.6339 19.7943 16.8079 16.6842 18.5023Z" fill="white"/>
<path d="M8.76758 34.2387C8.76758 34.9291 9.32733 35.4887 10.0176 35.4887H27.1621C27.8523 35.4887 28.4121 34.9291 28.4121 34.2387C28.4121 33.5483 27.8523 32.9887 27.1621 32.9887H25.5486V21.5176C25.5486 20.8272 24.9888 20.2676 24.2986 20.2676C23.6083 20.2676 23.0486 20.8272 23.0486 21.5176V32.9887H19.7153V25.1571C19.7153 24.4667 19.1556 23.9071 18.4653 23.9071C17.7751 23.9071 17.2153 24.4667 17.2153 25.1571V32.9887H14.0558V27.125C14.0558 26.4346 13.4961 25.875 12.8058 25.875C12.1156 25.875 11.5558 26.4346 11.5558 27.125V32.9887H10.0176C9.32721 32.9887 8.76758 33.5483 8.76758 34.2387Z" fill="white"/>
<path d="M4.27203 11.3857C4.79716 11.2395 5.17378 10.7574 5.18828 10.212C5.21791 9.09878 3.80616 8.50953 3.03516 9.31728C2.63316 9.73853 2.58078 10.3907 2.89903 10.8763C3.19453 11.3202 3.75941 11.5284 4.27203 11.3857Z" fill="white"/>
<path d="M12.0008 47.3757H25.0116C27.3626 47.3757 29.2752 45.4631 29.2752 43.1121C29.2752 40.7611 27.3625 38.8486 25.0116 38.8486H12.0008C9.6498 38.8486 7.7373 40.7612 7.7373 43.1121C7.7373 45.463 9.6498 47.3757 12.0008 47.3757ZM12.0008 41.3486H25.0116C25.9841 41.3486 26.7752 42.1397 26.7752 43.1121C26.7752 44.0846 25.9841 44.8757 25.0116 44.8757H12.0008C11.0285 44.8757 10.2373 44.0846 10.2373 43.1121C10.2373 42.1397 11.0285 41.3486 12.0008 41.3486Z" fill="white"/>
<path d="M49.2635 61.7109C48.32 61.0822 47.063 61.9932 47.3665 63.0827C47.5096 63.5966 47.975 63.9704 48.5086 63.9981C49.0396 64.0256 49.5462 63.6946 49.7355 63.1987C49.94 62.6626 49.7473 62.0277 49.2635 61.7109Z" fill="white"/>
</g>
</g>
<path d="M47.9835 49.099H47.2529C47.1042 48.8217 46.8957 48.5593 46.6335 48.3198H47.9835C48.2531 48.3198 48.5116 48.2505 48.7023 48.127C48.8929 48.0036 49 47.8362 49 47.6617C49 47.4871 48.8929 47.3197 48.7023 47.1963C48.5116 47.0728 48.2531 47.0035 47.9835 47.0035H42.8161C42.7788 47.0035 42.7429 47 42.7049 47H40.0165C39.7469 47 39.4884 47.0693 39.2977 47.1928C39.1071 47.3162 39 47.4836 39 47.6581C39 47.8327 39.1071 48.0001 39.2977 48.1235C39.4884 48.2469 39.7469 48.3163 40.0165 48.3163H42.7049C43.1566 48.3163 43.6014 48.3876 44.0009 48.524C44.4003 48.6604 44.7424 48.8578 44.9976 49.099H40.0586C39.789 49.099 39.5304 49.1684 39.3398 49.2918C39.1491 49.4152 39.042 49.5826 39.042 49.7572C39.042 49.9317 39.1491 50.0991 39.3398 50.2225C39.5304 50.346 39.789 50.4153 40.0586 50.4153H45.4428C45.335 50.8353 45.0008 51.217 44.4996 51.4927C43.9984 51.7684 43.3626 51.9202 42.7049 51.9211H40.0165C39.8178 51.9212 39.6235 51.9589 39.4576 52.0297C39.2916 52.1005 39.1614 52.2012 39.083 52.3195C39.0045 52.4377 38.9813 52.5681 39.0162 52.6948C39.051 52.8215 39.1425 52.9387 39.2792 53.0321L44.7753 56.7835C44.8662 56.8485 44.9763 56.9011 45.0991 56.9382C45.2218 56.9753 45.3548 56.9962 45.4902 56.9995C45.6256 57.0029 45.7607 56.9886 45.8875 56.9577C46.0143 56.9268 46.1302 56.8797 46.2285 56.8194C46.3268 56.759 46.4055 56.6865 46.4599 56.6062C46.5143 56.5258 46.5434 56.4393 46.5454 56.3515C46.5474 56.2638 46.5223 56.1767 46.4715 56.0954C46.4208 56.0141 46.3455 55.9401 46.2499 55.8779L42.3817 53.2374H42.7049C43.9027 53.2364 45.057 52.947 45.9433 52.4253C46.8296 51.9037 47.3843 51.1872 47.4996 50.4153H47.9835C48.2531 50.4153 48.5116 50.346 48.7023 50.2225C48.8929 50.0991 49 49.9317 49 49.7572C49 49.5826 48.8929 49.4152 48.7023 49.2918C48.5116 49.1684 48.2531 49.099 47.9835 49.099Z" fill="white"/>
</g>
</g>
<defs>
<clipPath id="clip0_4716_599">
<rect width="64" height="64" fill="white"/>
</clipPath>
</defs>
</svg>
