<svg width="64" height="64" viewBox="0 0 64 64" fill="none" xmlns="http://www.w3.org/2000/svg">
<g clip-path="url(#clip0_4716_619)">
<mask id="mask0_4716_619" style="mask-type:luminance" maskUnits="userSpaceOnUse" x="0" y="0" width="64" height="64">
<path d="M64 0H0V64H64V0Z" fill="white"/>
</mask>
<g mask="url(#mask0_4716_619)">
<mask id="mask1_4716_619" style="mask-type:luminance" maskUnits="userSpaceOnUse" x="0" y="0" width="64" height="64">
<path d="M64 0H0V64H64V0Z" fill="white"/>
</mask>
<g mask="url(#mask1_4716_619)">
<mask id="mask2_4716_619" style="mask-type:luminance" maskUnits="userSpaceOnUse" x="0" y="0" width="64" height="64">
<path d="M64 0H0V64H64V0Z" fill="white"/>
</mask>
<g mask="url(#mask2_4716_619)">
<path d="M32 0C14.3552 0 0 14.3563 0 32.0011C0 49.6459 14.3552 64.0011 32 64.0011C49.6448 64.0011 64 49.6459 64 32.0011C64 14.3563 49.6448 0 32 0ZM61.84 30.9333H33.0667V2.16107C48.688 2.7136 61.2875 15.312 61.84 30.9333ZM13.2416 33.0667H19.8251L6.08107 46.8107C5.26293 45.3856 4.55467 43.8901 3.9776 42.3307L13.2416 33.0667ZM3.24373 40.048C2.6176 37.8144 2.24533 35.4773 2.16 33.0667H10.2251L3.24373 40.048ZM22.8416 33.0667H29.4251L10.1547 52.3371C9.09013 51.1947 8.10987 49.9733 7.23307 48.6752L22.8416 33.0667ZM30.9333 34.5749V41.1584L15.3248 56.7669C14.0267 55.8901 12.8053 54.9099 11.6629 53.8453L30.9333 34.5749ZM30.9333 44.1749V50.7584L21.6693 60.0224C20.1099 59.4453 18.6144 58.736 17.1893 57.9189L30.9333 44.1749ZM30.9333 53.7749V61.84C28.5227 61.7547 26.1856 61.3824 23.952 60.7563L30.9333 53.7749ZM30.9333 2.16V30.9333H2.16107C2.71253 15.3131 15.3131 2.71253 30.9333 2.16ZM33.0667 61.8389V33.0656H61.84C61.2875 48.6869 48.688 61.2864 33.0667 61.8389Z" fill="white"/>
<path d="M7.46731 28.8016H9.60065C10.7772 28.8016 11.734 27.8448 11.734 26.6683V23.4683C11.734 22.2918 10.7772 21.335 9.60065 21.335H7.46731C6.29078 21.335 5.33398 22.2918 5.33398 23.4683V26.6683C5.33398 27.8448 6.29078 28.8016 7.46731 28.8016ZM7.46731 23.4683H9.60065L9.60278 26.6683H7.46731V23.4683Z" fill="white"/>
<path d="M16.0005 28.801H18.1338C19.3104 28.801 20.2672 27.8442 20.2672 26.6676V18.1343C20.2672 16.9578 19.3104 16.001 18.1338 16.001H16.0005C14.824 16.001 13.8672 16.9578 13.8672 18.1343V26.6676C13.8672 27.8442 14.824 28.801 16.0005 28.801ZM16.0005 18.1343H18.1338L18.136 26.6676H16.0005V18.1343Z" fill="white"/>
<path d="M24.5327 28.8006H26.6661C27.8426 28.8006 28.7994 27.8438 28.7994 26.6672V11.7339C28.7994 10.5574 27.8426 9.60059 26.6661 9.60059H24.5327C23.3562 9.60059 22.3994 10.5574 22.3994 11.7339V26.6672C22.3994 27.8438 23.3562 28.8006 24.5327 28.8006ZM24.5327 11.7339H26.6661L26.6682 26.6672H24.5327V11.7339Z" fill="white"/>
<path d="M35.5129 27.4218C35.7209 27.6298 35.994 27.7343 36.2671 27.7343C36.5401 27.7343 36.8132 27.6298 37.0212 27.4218L42.6671 21.7759L46.1796 25.2884C46.5967 25.7055 47.2708 25.7055 47.6879 25.2884L53.3337 19.6426V22.401C53.3337 22.9908 53.8105 23.4676 54.4004 23.4676C54.9903 23.4676 55.4671 22.9908 55.4671 22.401V17.0676C55.4671 16.4778 54.9903 16.001 54.4004 16.001H49.0671C48.4772 16.001 48.0004 16.4778 48.0004 17.0676C48.0004 17.6575 48.4772 18.1343 49.0671 18.1343H51.8255L46.9337 23.026L43.4212 19.5135C43.0041 19.0964 42.33 19.0964 41.9129 19.5135L35.5129 25.9135C35.0959 26.3306 35.0959 27.0047 35.5129 27.4218Z" fill="white"/>
</g>
</g>
<path d="M47.9835 43.099H47.2529C47.1042 42.8217 46.8957 42.5593 46.6335 42.3198H47.9835C48.2531 42.3198 48.5116 42.2505 48.7023 42.127C48.8929 42.0036 49 41.8362 49 41.6617C49 41.4871 48.8929 41.3197 48.7023 41.1963C48.5116 41.0728 48.2531 41.0035 47.9835 41.0035H42.8161C42.7788 41.0035 42.7429 41 42.7049 41H40.0165C39.7469 41 39.4884 41.0693 39.2977 41.1928C39.1071 41.3162 39 41.4836 39 41.6581C39 41.8327 39.1071 42.0001 39.2977 42.1235C39.4884 42.2469 39.7469 42.3163 40.0165 42.3163H42.7049C43.1566 42.3163 43.6014 42.3876 44.0009 42.524C44.4003 42.6604 44.7424 42.8578 44.9976 43.099H40.0586C39.789 43.099 39.5304 43.1684 39.3398 43.2918C39.1491 43.4152 39.042 43.5826 39.042 43.7572C39.042 43.9317 39.1491 44.0991 39.3398 44.2225C39.5304 44.346 39.789 44.4153 40.0586 44.4153H45.4428C45.335 44.8353 45.0008 45.217 44.4996 45.4927C43.9984 45.7684 43.3626 45.9202 42.7049 45.9211H40.0165C39.8178 45.9212 39.6235 45.9589 39.4576 46.0297C39.2916 46.1005 39.1614 46.2012 39.083 46.3195C39.0045 46.4377 38.9813 46.5681 39.0162 46.6948C39.051 46.8215 39.1425 46.9387 39.2792 47.0321L44.7753 50.7835C44.8662 50.8485 44.9763 50.9011 45.0991 50.9382C45.2218 50.9753 45.3548 50.9962 45.4902 50.9995C45.6256 51.0029 45.7607 50.9886 45.8875 50.9577C46.0143 50.9268 46.1302 50.8797 46.2285 50.8194C46.3268 50.759 46.4055 50.6865 46.4599 50.6062C46.5143 50.5258 46.5434 50.4393 46.5454 50.3515C46.5474 50.2638 46.5223 50.1767 46.4715 50.0954C46.4208 50.0141 46.3455 49.9401 46.2499 49.8779L42.3817 47.2374H42.7049C43.9027 47.2364 45.057 46.947 45.9433 46.4253C46.8296 45.9037 47.3843 45.1872 47.4996 44.4153H47.9835C48.2531 44.4153 48.5116 44.346 48.7023 44.2225C48.8929 44.0991 49 43.9317 49 43.7572C49 43.5826 48.8929 43.4152 48.7023 43.2918C48.5116 43.1684 48.2531 43.099 47.9835 43.099Z" fill="white"/>
</g>
</g>
<defs>
<clipPath id="clip0_4716_619">
<rect width="64" height="64" fill="white"/>
</clipPath>
</defs>
</svg>
