<svg width="68" height="66" viewBox="0 0 68 66" fill="none" xmlns="http://www.w3.org/2000/svg">
<g clip-path="url(#clip0_4716_564)">
<mask id="mask0_4716_564" style="mask-type:luminance" maskUnits="userSpaceOnUse" x="0" y="0" width="68" height="66">
<path d="M68 0H0V66H68V0Z" fill="white"/>
</mask>
<g mask="url(#mask0_4716_564)">
<path d="M12.8437 2H9.19078C5.21937 2 2 5.00758 2 8.71772V34.1638C2 37.8739 5.21937 40.8815 9.19078 40.8815H13.91" stroke="white" stroke-width="3" stroke-miterlimit="10" stroke-linecap="round" stroke-linejoin="round"/>
<path d="M54.0904 40.8815H58.8096C62.781 40.8815 66.0004 37.8739 66.0004 34.1638V8.71772C66.0004 5.00758 62.781 2 58.8096 2H17.4854" stroke="white" stroke-width="3" stroke-miterlimit="10" stroke-linecap="round" stroke-linejoin="round"/>
<path d="M14.2825 31.2773H2" stroke="white" stroke-width="3" stroke-miterlimit="10" stroke-linecap="round" stroke-linejoin="round"/>
<path d="M66.0003 31.2773H53.7178" stroke="white" stroke-width="3" stroke-miterlimit="10" stroke-linecap="round" stroke-linejoin="round"/>
<path d="M33.9997 55.9683C45.3586 55.9683 54.5669 47.3658 54.5669 36.7541C54.5669 26.1425 45.3586 17.54 33.9997 17.54C22.6408 17.54 13.4326 26.1425 13.4326 36.7541C13.4326 47.3658 22.6408 55.9683 33.9997 55.9683Z" stroke="white" stroke-width="3" stroke-miterlimit="10" stroke-linecap="round" stroke-linejoin="round"/>
<path d="M33.9994 49.6444C41.6194 49.6444 47.7967 43.8736 47.7967 36.7548C47.7967 29.6361 41.6194 23.8652 33.9994 23.8652C26.3794 23.8652 20.2021 29.6361 20.2021 36.7548C20.2021 43.8736 26.3794 49.6444 33.9994 49.6444Z" stroke="white" stroke-width="3" stroke-miterlimit="10" stroke-linecap="round" stroke-linejoin="round"/>
<path d="M56.1066 50.375L51.8135 46.3643" stroke="white" stroke-width="3" stroke-miterlimit="10" stroke-linecap="round" stroke-linejoin="round"/>
<path d="M44.2861 53.3965L53.6191 62.1155C55.6975 64.0571 59.0672 64.0571 61.1456 62.1155C63.224 60.1738 63.224 57.0257 61.1456 55.0841L59.3876 53.4417" stroke="white" stroke-width="3" stroke-miterlimit="10" stroke-linecap="round" stroke-linejoin="round"/>
<path d="M22.2848 52.5479H14.8979C12.4145 52.5479 10.4014 54.4286 10.4014 56.7486C10.4014 59.0686 12.4145 60.9492 14.8979 60.9492H52.3717" stroke="white" stroke-width="3" stroke-miterlimit="10" stroke-linecap="round" stroke-linejoin="round"/>
<path fill-rule="evenodd" clip-rule="evenodd" d="M35.3227 43.3675C35.2032 43.3685 35.0848 43.3452 34.9753 43.2992C34.8658 43.2531 34.7676 43.1852 34.6873 43.1L29.8159 38.0059C29.7338 37.9288 29.6686 37.8367 29.6241 37.735C29.5796 37.6333 29.5566 37.524 29.5566 37.4137C29.5566 37.3033 29.5796 37.1941 29.6241 37.0924C29.6686 36.9907 29.7338 36.8986 29.8159 36.8215C29.9777 36.6762 30.1902 36.5945 30.4116 36.5922H32.887C33.2985 36.5942 33.7016 36.4808 34.0472 36.266C34.3928 36.0511 34.6658 35.7441 34.8329 35.3824H31.2588C31.1435 35.3824 31.0294 35.3602 30.9233 35.317C30.8171 35.2738 30.721 35.2106 30.6408 35.131C30.5605 35.0514 30.4977 34.9571 30.4561 34.8537C30.4144 34.7503 30.3948 34.6399 30.3983 34.5291C30.408 34.3126 30.5018 34.1074 30.6611 33.9542C30.8204 33.8009 31.0337 33.7107 31.2588 33.7013H34.8065C34.6309 33.355 34.3581 33.0628 34.0189 32.858C33.6796 32.6532 33.2875 32.5439 32.887 32.5424H30.4513C30.2195 32.5424 29.9973 32.4538 29.8335 32.2962C29.6696 32.1386 29.5776 31.9248 29.5776 31.7019C29.5776 31.4789 29.6696 31.2651 29.8335 31.1075C29.9973 30.9499 30.2195 30.8613 30.4513 30.8613H38.0629C38.2947 30.8613 38.5169 30.9499 38.6807 31.1075C38.8446 31.2651 38.9366 31.4789 38.9366 31.7019C38.9366 31.9248 38.8446 32.1386 38.6807 32.2962C38.5169 32.4538 38.2947 32.5424 38.0629 32.5424H36.1038C36.3556 32.9065 36.5352 33.3124 36.6333 33.7395H38.0629C38.1788 33.7412 38.2932 33.765 38.3994 33.8095C38.5057 33.8541 38.6016 33.9186 38.6817 33.9992C38.7618 34.0798 38.8244 34.1749 38.8659 34.279C38.9074 34.3831 38.9269 34.4941 38.9234 34.6055C38.9199 34.8229 38.8277 35.0302 38.6667 35.1826C38.5058 35.3351 38.2889 35.4206 38.0629 35.4206H36.6465C36.4377 36.2343 35.9565 36.9593 35.2772 37.4841C34.5978 38.0088 33.7579 38.304 32.887 38.3243H32.4899L35.9979 41.9538C36.1612 42.1134 36.2527 42.3284 36.2527 42.5524C36.2527 42.7764 36.1612 42.9913 35.9979 43.151C35.811 43.3055 35.5686 43.3832 35.3227 43.3675Z" fill="white"/>
</g>
</g>
<defs>
<clipPath id="clip0_4716_564">
<rect width="68" height="66" fill="white"/>
</clipPath>
</defs>
</svg>
